<?xml version="1.0" encoding="utf-8"?>
<!-- Generator: Adobe Illustrator 22.0.1, SVG Export Plug-In . SVG Version: 6.00 Build 0)  -->
<svg version="1.1" xmlns="http://www.w3.org/2000/svg" xmlns:xlink="http://www.w3.org/1999/xlink" x="0px" y="0px"
	 viewBox="0 0 498.5 294.9" style="enable-background:new 0 0 498.5 294.9;" xml:space="preserve">
<style type="text/css">
	.st0{fill:#FDFEFE;stroke:#2C2C2C;stroke-miterlimit:10;}
	.st1{fill:#2C2C2C;stroke:#2C2C2C;stroke-width:2;stroke-miterlimit:10;}
	.st2{fill:#2C2C2C;}
	.st3{fill:#FAFCFD;}
	.st4{fill:#094C38;}
	.st5{fill:#FDFEFE;}
	.st6{fill:#F9F9FA;}
	.st7{fill:#FCF8F7;}
	.st8{fill:#F9F8F7;}
	.st9{fill:#0D4D39;}
	.st10{fill:#F8F7F7;stroke:#2C2C2C;stroke-width:2;stroke-miterlimit:10;}
	.st11{fill:#F9F9FA;stroke:#2C2C2C;stroke-width:2;stroke-miterlimit:10;}
	.st12{fill:#FFFFFF;}
	.st13{fill:#FDFEFE;stroke:#2C2C2C;stroke-width:2;stroke-miterlimit:10;}
	.st14{fill:none;stroke:#2C2C2C;stroke-width:2;stroke-miterlimit:10;}
	.st15{fill:none;stroke:#2C2C2C;stroke-miterlimit:10;}
	.st16{fill:#2C2C2C;stroke:#2C2C2C;stroke-miterlimit:10;}
	.st17{fill:#FEFFFF;stroke:#2C2C2C;stroke-miterlimit:10;}
	.st18{fill:#969696;}
	.st19{fill:none;stroke:#969696;stroke-miterlimit:10;}
	.st20{fill:#9E9D9C;}
	.st21{fill:none;stroke:#5C5B5B;stroke-width:0.5;stroke-miterlimit:10;}
	.st22{fill:none;stroke:#969696;stroke-width:0.5;stroke-miterlimit:10;}
	.st23{fill:#DFE9EE;}
	.st24{fill:#845E38;}
	.st25{fill:#6D4D31;}
	.st26{fill:#D8D8D8;}
	.st27{fill:#D4ECF9;}
	.st28{fill:#C6E9FF;}
	.st29{fill:#A7CCEA;}
	.st30{fill:#A6C8E2;}
	.st31{fill:#75A1D1;}
	.st32{fill:#2C2C2C;stroke:#2C2C2C;stroke-width:0.5;stroke-miterlimit:10;}
	.st33{fill:#FDFEFE;stroke:#2C2C2C;stroke-width:0.5;stroke-miterlimit:10;}
	.st34{fill:#676868;stroke:#676868;stroke-width:0.25;stroke-miterlimit:10;}
</style>
<g id="Layer_2">
</g>
<g id="Layer_1">
	<polygon class="st0" points="26.8,365.6 58.8,386.4 76.9,362.8 43.7,342 	"/>
	<polygon class="st1" points="88.6,255.5 83.7,259.3 112.6,278.7 134.6,259 113,239.7 	"/>
	<title>Artboard 1</title>
	<path class="st2" d="M224.4,174.4c0,0,21.2,13.8,43.4,0.9l-0.5,25.6c0,0-23.3,9.2-42.5-0.9L224.4,174.4z"/>
	<path class="st2" d="M223.4,176.1c13.5,8.7,31.6,8.6,45.4,0.9l-3-1.7c-0.2,8.6-0.3,17.1-0.5,25.6l1.5-1.9
		c-12.8,5-28.6,5.6-40.9-0.7l1,1.7l-0.4-25.6c0-2.6-4-2.6-4,0l0.3,25.6c0,0.7,0.4,1.4,1,1.7c13.3,6.7,30.2,6.4,44,1.1
		c0.9-0.3,1.4-1,1.5-1.9c0.2-8.6,0.4-17.1,0.5-25.6c0-1.1-0.9-2-2-2c-0.4,0-0.7,0.1-1,0.3c-12.6,7.1-29,7-41.3-0.9
		C223.3,171.2,221.3,174.7,223.4,176.1z"/>
	<polygon class="st2" points="222.4,174.9 222.3,168.2 225.1,172.6 	"/>
	<path class="st3" d="M239.4,161.1c0,0-23.4,3.4-14.7,11.8c10.1,6.3,22.4,8,33.8,4.6c0,0,19-5.9,8.4-11.7
		C267,165.7,261.4,159.9,239.4,161.1z"/>
	<path class="st2" d="M239.4,161.1l-0.1-0.8c-2.9,0.4-5.7,1.1-8.4,1.9c-2.1,0.6-4.1,1.5-5.9,2.6c-0.8,0.5-1.5,1.2-2.1,1.9
		c-0.6,0.7-0.9,1.6-0.9,2.5c0,0.7,0.2,1.4,0.6,2.1c0.4,0.8,1,1.5,1.6,2.1l0,0l0,0c6.7,4.3,14.5,6.6,22.5,6.6c4.1,0,8.2-0.6,12.1-1.8
		l0,0c2-0.7,4-1.5,5.9-2.4c1.5-0.7,2.9-1.6,4.1-2.6c0.6-0.5,1.1-1,1.5-1.7c0.4-0.6,0.6-1.3,0.6-2c0-0.9-0.4-1.7-0.9-2.4
		c-0.8-0.9-1.7-1.6-2.7-2.1l-0.4,0.7l0.6-0.6c-1.4-1.2-3-2.1-4.8-2.6c-3.4-1.2-9-2.4-17.7-2.4c-1.8,0-3.7,0.1-5.7,0.2h-0.1
		L239.4,161.1l0,0.8c2-0.1,3.9-0.2,5.6-0.2c8.6,0,13.9,1.2,17.1,2.4c1.2,0.4,2.3,0.9,3.3,1.6c0.2,0.1,0.5,0.3,0.7,0.5l0.1,0.1l0,0
		l0,0l0.3-0.3l-0.3,0.3l0,0l0.3-0.3l-0.3,0.3l0.1,0.1l0.1,0.1c0.8,0.4,1.6,1,2.2,1.7c0.3,0.4,0.5,0.8,0.6,1.3c0,0.4-0.1,0.8-0.4,1.2
		c-0.6,0.9-1.5,1.7-2.4,2.3c-1.7,1.1-3.5,2-5.4,2.7c-0.8,0.3-1.5,0.6-2,0.8l-0.6,0.2l-0.2,0.1l0.2,0.8l-0.2-0.8
		c-9,2.7-18.6,2.2-27.2-1.4c-1.5-0.6-3-1.3-4.4-2.1c-0.5-0.3-0.9-0.5-1.2-0.7l-0.3-0.2l-0.1-0.1l0,0l-0.5,0.6l0.6-0.6
		c-0.5-0.5-1-1.1-1.4-1.7c-0.2-0.4-0.4-0.9-0.4-1.3c0-0.6,0.2-1.1,0.6-1.5c1-1.1,2.2-2,3.5-2.5c2.5-1.1,5.1-1.9,7.7-2.5
		c1.2-0.3,2.2-0.5,3-0.6l0.9-0.1l0.3-0.1L239.4,161.1l0,0.8L239.4,161.1z"/>
	<path class="st4" d="M236.7,164.2c0,0-15,3-2.6,7.9c0,0,20.3,7.2,30.6-1.8c0,0,7-6.5-20.3-7.2c0,0-2.8-46.5-1.5-53.5
		c0,0,0.4-7,2.4-7.2c0,0,6.7-6.9,6.8-9.1c0,0,6-1.2,10-3.8c0,0,9.7-1.6,15.2-0.3c0,0,7.2,3,8.1,2.6c0,0,2.2-1.3-2.6-2.9
		c0,0-4.6-1.4-7-1.9c0,0-17.8-1.9-26.1,4.5c0,0,5.4-7.4,18.7-8.4c0,0,12.3-0.4,14.8-2.3c0,0,5.3-1.4,6.4-0.1c0,0,3.8-1.2,0.9-2
		c0,0-15.1-2.7-23.6,0.2c0,0-5.6,2.3-8.2,2c-5.8,1.1-10.8,4.6-13.8,9.6c-0.4-2.4,0.1-4.9,1.5-6.8c0,0,3.6-7,5.6-7.1
		c0,0,15-0.4,12.1-1.8c0,0-0.7-1.5-3.9-1.2c0,0,17.2-9.2,25.5-9.1c0,0,4.2-0.1,3.6-1c0,0-8.3-2.7-15.8-1c0,0-14.8,4.6-12.3,1.7
		c0,0,8.9-6.4,13.2-6.2c0,0,5.4-1.8,14.7,3c0,0,20.8,8.7,26.8,8.5c0,0,2.7,1.2-0.7-3.7c0,0-4.4-5.5-4.3-7.3c0,0-3.3-5-8.9-3.9
		c0,0-9.6-1-5.1-2.7c0,0,5.5-2,8.3-5.3c0,0,1.5-1.6-1.6-0.9c0,0-11.6,4.5-16.9,4.4c0,0-8.1-0.1-9.8,1.9c0,0-3.3,0,2.4-3.2
		c0,0,3.6-2.5,3.5-10c0,0,1-4.8,4.5-7c0,0,3.3-3.5,2.3-4.4c0,0-3.5,1.1-7.9,6.5c0,0-5.7,7.7-13.1,11.2c0,0-7.8,2.3-10.5,7.2
		c0,0-2.2,3.2-3.4,3.8c-1.3,1-2.1,2.6-2.3,4.2c0,0-1.3,2.9-2.4,2.9c0,0-1.4,0.2-0.5-1.4c0,0,3.4-4.8,3.8-6.9c0,0,0.4-1.2,1.3-1.3
		c0,0,1.6,0.7,0.4-4.6c0,0-1.6-8.1,1.1-12.9c2.8-4.8,1.3-6.4,0.9-7.4c-0.4-1,1.8-5.3,3.1-6.2s2.4-2.8,1.7-6.8
		c-0.8-4-2.9-2.4-2.9-2.4c-2.3,2.6-4.1,5.7-5.1,9c0,0-2.8,7.8-4.2,9.2c-0.8,0.8-1.3,1.9-1.1,3c0,0-1.6,0.9-1.6-1
		c0,0,1.6-4.4,1.5-6.2c0,0-0.5-4.9-3.3-6.6c-2.8-1.8,0-11.6,0-11.6s1.3-3.1,0.7-3.6c0,0-1.7-4.3-2.4,1.3c0.3,2.1,0.1,4.3-0.6,6.4
		c-1.2,2.8-4.8-2.6-4.8-2.6c-0.6-1.1-1.1-2.3-1.4-3.6c0,0-1.5-2.8-1.7,0.2c-0.2,2.1-0.2,4.2-0.1,6.4c-0.2,0.8-0.5,1.5-0.9,2.3
		c0,0-1.3,3.1,2.3,8.2s0.9,11.9,0.9,11.9s-8.3-21.3-10.6-22.1c0,0-1.4,1.2-2.4,5.8c0,0-1.5,3.9-0.8,5.9s2.3,9.8,4.9,12.9
		c0.7,2.2,0.9,4.6,0.6,6.9c0,0-5.6-6.7-6.5-10.4c0,0-6.2-10.6-15.7-16c0,0-1.2,0.3,1,3.9c0,0-0.7,6.2,0.9,9.6c0,0-1.4,7.4,2.3,10.7
		c0,0,7.4,9.8,6.7,11.2c0,0-11.4-8.2-24.6-6.5c0,0-6.1,1.7,1.5,2.7c0,0,13.5,1.7,17.9,5.2c0,0-7.1-0.2-9.2-2c0,0-3.5-0.6,0.5,2
		c4,2.6,0.5,1.4,0.5,1.4s-16.8-4.4-25.4-3.3c0,0-3.8,1.2-5.6,3.1c0,0-12.7,2.6-11.8,4.2c0,0,14.8-0.6,23.9-3.4c0,0,5.2-0.4,14.3,3.3
		c0,0-11.8,1.2-14.8,0c0,0-9.4,0.2,1,3.4c0,0,5.1,1.3,6.2,2.3c3.2,1.8,6.7,2.9,10.3,3.3c0,0,8.7,1.4,4.7,5.2s8.9,6.8,8.9,6.8
		s7.6,0.9,9,2.7c0,0,4.4,4.2,4.8,6.7c0,0,0.3,2.8-5.8-3.5c0,0-4.4-3.8-13.3-3.7c0,0-13.5-1.2-16.3,4.5c1.5,1.3,3.3,2.2,5.3,2.4
		c0,0,5,0.3,5.5,2.6c0,0,4.8,2.6,9.8-1.6c0,0,5.6-4.2,16.3,3.7c0,0,2.5,6.3,2.3,17.1c0,0-1.3,2.6,1.4,10.3
		C234.6,122.7,239.1,152.4,236.7,164.2z"/>
	<path class="st4" d="M236.7,164.2l-0.1-0.4c-1.3,0.3-2.6,0.6-3.8,1.1c-0.9,0.3-1.8,0.8-2.7,1.3c-0.4,0.2-0.7,0.6-0.9,0.9
		c-0.3,0.3-0.4,0.7-0.4,1.2c0,0.4,0.1,0.7,0.3,1.1c0.4,0.6,1,1.1,1.6,1.5c1,0.6,2.1,1.2,3.2,1.6l0,0c5.2,1.7,10.7,2.7,16.2,2.8
		c5.2,0,10.8-1.1,14.9-4.6l0,0c0.2-0.2,0.3-0.4,0.5-0.6c0.3-0.4,0.4-0.9,0.5-1.5c0-0.7-0.3-1.4-0.9-1.9c-0.9-0.9-2.7-1.8-5.9-2.5
		c-4.8-0.9-9.8-1.4-14.7-1.4v0.4h0.4c0,0,0-0.5-0.1-1.4c-0.3-6.2-1.8-31.7-1.8-44.9c-0.1-2.4,0-4.8,0.3-7.2l0,0c0,0,0-0.1,0-0.3
		c0.1-1.3,0.3-2.6,0.5-3.8c0.1-0.7,0.4-1.3,0.7-1.9c0.1-0.2,0.2-0.4,0.4-0.6c0.1-0.1,0.2-0.2,0.4-0.2h0.2l0.1-0.1
		c0,0,1.7-1.7,3.4-3.8c0.8-1,1.6-2,2.4-3.1c0.3-0.4,0.6-0.9,0.8-1.4c0.2-0.4,0.3-0.8,0.3-1.2H252l0.1,0.4c3.5-0.7,7-2,10.1-3.8
		l-0.2-0.3l0.1,0.4l0.9-0.1c3-0.4,6-0.6,9-0.7c1.7,0,3.5,0.1,5.2,0.4l0.1-0.4l-0.2,0.4c0,0,1.6,0.7,3.4,1.3c0.9,0.3,1.8,0.7,2.6,0.9
		c0.6,0.2,1.3,0.4,2,0.4c0.1,0,0.3,0,0.4-0.1l0,0c0.1-0.1,0.2-0.2,0.4-0.3c0.2-0.2,0.4-0.5,0.4-0.8c0-0.5-0.3-1-0.8-1.3
		c-0.8-0.5-1.7-1-2.6-1.2l0,0c0,0-4.6-1.4-7-1.9l0,0c0,0-2.5-0.3-6-0.3c-3.5,0-7,0.3-10.4,0.9c-3.6,0.6-7,1.9-9.9,4l0.2,0.3l0.3,0.2
		l0,0c0.3-0.4,5.7-7.2,18.4-8.2V83v0.4c0,0,3.1-0.1,6.5-0.4c1.7-0.2,3.5-0.4,5-0.7c0.7-0.1,1.3-0.3,2-0.5c0.5-0.2,1-0.4,1.5-0.7
		l-0.2-0.3l0.1,0.4l0.4-0.1c1.3-0.3,2.6-0.5,3.9-0.6c0.4,0,0.7,0,1.1,0.1c0.2,0,0.4,0.2,0.6,0.3l0.2,0.2l0.3-0.1
		c0.3-0.1,0.7-0.3,1-0.4c0.3-0.1,0.5-0.3,0.8-0.5c0.1-0.1,0.2-0.2,0.3-0.3c0.2-0.3,0.2-0.6,0-0.9c-0.1-0.2-0.3-0.3-0.5-0.4
		c-0.2-0.1-0.5-0.2-0.8-0.3l0,0c-4.4-0.8-8.8-1.2-13.2-1.3c-3.5-0.1-7,0.4-10.4,1.4l0,0l-0.2,0.1c-0.5,0.2-1.8,0.7-3.2,1.1
		c-1.3,0.5-2.8,0.7-4.2,0.8c-0.1,0-0.3,0-0.4,0h-0.1c-1.8,0.3-3.5,0.8-5.2,1.6c-3.7,1.8-6.9,4.6-9,8.2l0.3,0.2l0.4-0.1l0,0
		c-0.1-0.4-0.1-0.9-0.1-1.4c0-1.8,0.6-3.6,1.6-5.1l0,0l0,0c0,0,0-0.1,0.1-0.3c0.7-1.3,1.5-2.6,2.3-3.9c0.5-0.7,1-1.4,1.6-2
		c0.2-0.2,0.5-0.4,0.7-0.6c0.2-0.1,0.3-0.2,0.5-0.2v-0.4v0.4c0,0,3.1-0.1,6.3-0.3c1.6-0.1,3.1-0.3,4.3-0.5c0.5-0.1,1-0.2,1.5-0.3
		c0.2-0.1,0.3-0.1,0.5-0.2c0.1-0.1,0.1-0.1,0.2-0.2c0.1-0.1,0.1-0.2,0.1-0.3c0-0.2-0.1-0.3-0.2-0.5c-0.1-0.1-0.2-0.2-0.4-0.2
		l-0.2,0.4l0.4-0.2c-0.2-0.3-0.4-0.6-0.7-0.8c-0.8-0.5-1.7-0.8-2.7-0.7c-0.3,0-0.5,0-0.9,0.1v0.4l0.2,0.3l0.8-0.4
		c1.7-0.9,6-3,10.8-5c4.8-2,10.1-3.7,13.6-3.7h0.1c0,0,0.9,0,1.9-0.1c0.5-0.1,0.9-0.1,1.3-0.3c0.2-0.1,0.4-0.1,0.5-0.2
		c0.1-0.1,0.2-0.1,0.2-0.2c0.1-0.1,0.1-0.2,0.1-0.3c0-0.1,0-0.3-0.1-0.4l-0.1-0.1h-0.1c-3.4-1-6.9-1.6-10.4-1.7
		c-1.9,0-3.7,0.2-5.5,0.6l0,0l-1.4,0.4c-1.3,0.4-3.2,0.9-5.1,1.4c-1.6,0.4-3.2,0.7-4.9,0.8c-0.2,0-0.4,0-0.6-0.1h-0.1l0,0l0,0l0,0
		l0,0l0,0l0,0l-0.1,0.1h0.1v-0.1l-0.1,0.1h0.1c0-0.1,0.1-0.2,0.2-0.3l-0.3-0.3l0.2,0.3l0.4-0.3c0.9-0.6,3-2.1,5.5-3.4
		c1.2-0.7,2.4-1.2,3.7-1.7c1-0.4,2.1-0.7,3.2-0.7h0.2h0.1l0,0c0.9-0.2,1.8-0.3,2.7-0.3c2.4,0,6.4,0.6,11.6,3.2l0,0
		c0,0,5.1,2.1,10.9,4.2c2.9,1.1,6,2.1,8.8,2.9c2.2,0.7,4.6,1.2,6.9,1.3h0.3v-0.4l-0.2,0.4c0.2,0.1,0.5,0.2,0.7,0.2
		c0.2,0,0.4-0.1,0.6-0.2c0.2-0.2,0.3-0.4,0.3-0.7c0-0.5-0.2-0.9-0.4-1.3c-0.4-0.8-0.9-1.6-1.4-2.3l0,0c-0.1-0.1-0.1-0.2-0.2-0.2
		c-0.4-0.5-1.4-1.9-2.4-3.3c-0.4-0.7-0.8-1.3-1.2-2.1c-0.3-0.4-0.4-0.9-0.5-1.5l0,0V58l-0.1-0.1c-0.6-0.8-1.2-1.5-2-2.1
		c-1.6-1.3-3.5-2.1-5.6-2.1c-0.6,0-1.1,0.1-1.7,0.2l0.1,0.4v-0.4l-1-0.1c-1.1-0.1-2.2-0.3-3.3-0.6c-0.5-0.1-0.9-0.3-1.3-0.5
		c-0.1,0-0.2-0.1-0.3-0.2l0,0l0,0H296h0.1l0,0H296l0,0h0.1l0,0H296h0.1l0,0c0.1-0.1,0.2-0.2,0.2-0.2c0.2-0.1,0.5-0.2,0.7-0.3
		l-0.1-0.4l0.1,0.4c1.1-0.4,2.1-0.9,3.1-1.4c2-1,3.8-2.4,5.3-4l-0.3-0.3l0.3,0.3c0.1-0.1,0.1-0.2,0.2-0.3c0.1-0.2,0.2-0.4,0.2-0.7
		c0-0.2-0.1-0.5-0.3-0.6c-0.2-0.1-0.5-0.2-0.8-0.2c-0.5,0-0.9,0.1-1.3,0.2h-0.1L303,45c-1.1,0.4-4,1.5-7.2,2.4c-2.9,1-5.9,1.6-9,1.8
		h-0.3c-1.6,0-3.1,0.1-4.6,0.3c-1,0.1-2.1,0.3-3.1,0.6c-0.8,0.2-1.6,0.6-2.2,1.2l0.3,0.3v-0.4l0,0c-0.1,0-0.3,0-0.4,0
		c-0.1,0-0.1,0-0.2-0.1l0,0l0,0h0.1l0,0l0,0h0.1l0,0c0.2-0.3,0.4-0.6,0.7-0.8c0.8-0.6,1.6-1.1,2.5-1.5l0,0c0.1,0,3.7-2.7,3.7-10.2
		v-0.1h-0.4l0.4,0.1l0,0c0.3-1,0.6-1.9,1.1-2.8c0.7-1.6,1.9-2.9,3.3-3.9l0,0l0,0c0.5-0.5,0.9-1.1,1.3-1.6c0.3-0.4,0.6-0.9,0.9-1.3
		c0.2-0.4,0.4-0.9,0.4-1.4c0-0.3-0.1-0.6-0.3-0.8l-0.2-0.2l-0.2,0.1c-0.1,0-3.6,1.1-8,6.6l0,0l-0.1,0.1c-0.6,0.8-6,7.8-12.9,11
		l0.2,0.4l-0.1-0.4c-1.5,0.5-2.9,1.1-4.3,1.8c-2.3,1.2-5,3-6.4,5.6l0.4,0.2l-0.3-0.2c0,0-0.1,0.2-0.4,0.5c-0.3,0.5-0.9,1.2-1.4,1.8
		c-0.4,0.5-0.9,1-1.5,1.4l0,0c-0.4,0.3-0.8,0.7-1.1,1.1c-0.8,1-1.2,2.2-1.3,3.4h0.4l-0.4-0.2v0.1c-0.3,0.5-0.5,1-0.9,1.5
		c-0.2,0.3-0.4,0.5-0.6,0.8c-0.1,0.1-0.3,0.2-0.5,0.3h-0.1l0,0l0,0l0,0h-0.1c-0.1,0-0.2,0-0.3,0h-0.1v-0.1c0-0.2,0.1-0.5,0.2-0.7
		l-0.3-0.2l0.3,0.2c0,0,0.9-1.2,1.8-2.7c0.5-0.7,0.9-1.5,1.3-2.3c0.3-0.7,0.6-1.3,0.8-2.1l-0.4-0.1l0.4,0.1l0,0
		c0.1-0.2,0.2-0.4,0.3-0.6c0.1-0.1,0.2-0.2,0.3-0.3c0.1-0.1,0.2-0.1,0.3-0.1v-0.4l-0.2,0.4c0.1,0,0.2,0.1,0.3,0.1
		c0.3,0,0.6-0.2,0.8-0.4c0.2-0.4,0.3-0.9,0.3-1.4c0-1.1-0.2-2.2-0.5-3.2l-0.6,0l0.4-0.1v-0.1c-0.3-1.7-0.5-3.4-0.5-5.2
		c-0.1-2.5,0.4-5.1,1.6-7.4c1-1.5,1.6-3.2,1.7-5c0-1-0.3-1.9-0.8-2.8c0-0.1,0-0.1,0-0.2c0-0.4,0.1-0.8,0.3-1.2
		c0.3-0.9,0.8-1.8,1.3-2.6c0.4-0.7,0.8-1.3,1.4-1.8c1.4-1.1,2.2-2.9,2.1-4.8c0-0.8-0.1-1.6-0.2-2.4c-0.1-0.9-0.5-1.7-1-2.4
		c-0.3-0.4-0.8-0.7-1.4-0.7c-0.4,0-0.9,0.2-1.2,0.4l0,0l0,0c-2.4,2.7-4.2,5.8-5.2,9.2l0.4,0.1l-0.4-0.1c0,0-0.2,0.5-0.4,1.2
		c-0.4,1.1-1.1,2.9-1.8,4.4c-0.3,0.8-0.7,1.5-1,2.1c-0.2,0.5-0.5,0.9-0.8,1.3c-0.8,0.8-1.3,1.8-1.3,3c0,0.2,0,0.4,0,0.5l0.4-0.1
		l-0.2-0.3l0,0c-0.2,0.1-0.4,0.2-0.6,0.2c-0.1,0-0.2,0-0.3-0.1c-0.1-0.2-0.2-0.4-0.2-0.6v-0.1h-0.4l0.4,0.1c0,0,0.4-1,0.7-2.3
		c0.4-1.2,0.7-2.5,0.8-3.9c0-0.1,0-0.2,0-0.3l0,0c-0.1-0.9-0.3-1.9-0.6-2.7c-0.4-1.7-1.5-3.2-2.9-4.2c-0.4-0.3-0.7-0.7-0.8-1.2
		c-0.2-0.7-0.3-1.4-0.2-2.2c0-1.7,0.3-3.5,0.6-5.1c0.2-0.8,0.3-1.4,0.4-1.9c0.1-0.5,0.2-0.7,0.2-0.7L245,8.6l0.4,0.1
		c0,0,0.2-0.5,0.4-1.2c0.2-0.7,0.4-1.4,0.5-2.1c0-0.1,0-0.3,0-0.4c0-0.1-0.1-0.3-0.2-0.4L245.8,5l0.4-0.2c-0.1-0.3-0.3-0.6-0.4-0.9
		c-0.1-0.2-0.3-0.4-0.5-0.6c-0.2-0.2-0.5-0.4-0.8-0.4c-0.2,0-0.4,0.1-0.6,0.2c-0.3,0.3-0.5,0.6-0.6,1c-0.2,0.7-0.3,1.3-0.4,2v0.1
		c0,0,0,0.1,0,0.2c0.1,0.6,0.1,1.3,0.1,1.9c0,1.4-0.2,2.8-0.7,4.1c-0.1,0.2-0.2,0.3-0.3,0.5c-0.1,0.1-0.2,0.1-0.3,0.1
		c-0.4,0-0.7-0.2-1-0.4c-0.6-0.5-1.2-1.1-1.7-1.7c-0.2-0.3-0.4-0.6-0.6-0.7c-0.1-0.1-0.1-0.2-0.2-0.2V9.9l-0.3,0.2l0.4-0.2l-0.2-0.4
		c-0.2-0.4-0.5-1-0.7-1.6c-0.1-0.3-0.2-0.5-0.3-0.8c-0.1-0.2-0.1-0.4-0.1-0.5l0,0V6.5V6.4c-0.1-0.2-0.2-0.4-0.4-0.6
		c-0.1-0.2-0.3-0.3-0.4-0.5C236,5.1,235.8,5,235.5,5c-0.2,0-0.3,0.1-0.4,0.2c-0.2,0.2-0.3,0.4-0.4,0.6c-0.1,0.3-0.2,0.7-0.2,1
		c-0.1,1.6-0.2,3.2-0.2,4.4s0,2,0,2h0.4l-0.4-0.2l-0.1,0.3c-0.1,0.2-0.2,0.6-0.3,1c-0.1,0.3-0.2,0.6-0.4,0.9l0,0l0,0
		c-0.2,0.6-0.3,1.2-0.3,1.8c0.1,2.5,1,4.9,2.6,6.9c1.2,1.8,1.8,3.9,1.8,6c0,1.3-0.2,2.6-0.5,3.8c-0.1,0.5-0.3,0.9-0.3,1.2
		s-0.1,0.2-0.1,0.3v0.1l0.4,0.2l0.4-0.2c0,0-2.1-5.3-4.5-10.8c-1.2-2.7-2.4-5.5-3.6-7.6c-0.5-0.9-1-1.8-1.5-2.6
		c-0.2-0.3-0.4-0.6-0.7-0.8c-0.2-0.2-0.4-0.4-0.7-0.5l-0.2-0.1l-0.2,0.1c-0.1,0.1-1.6,1.4-2.6,6l0.4,0.1l-0.4-0.1
		c0,0-0.3,0.7-0.5,1.6c-0.3,1-0.5,2.1-0.5,3.2c0,0.5,0.1,0.9,0.2,1.4c0.2,0.5,0.4,1.3,0.7,2.4c0.4,1.6,1,3.6,1.7,5.6
		c0.6,1.8,1.5,3.5,2.6,5l0.3-0.2l-0.4,0.2l0,0c0.5,1.5,0.7,3,0.7,4.6c0,0.7,0,1.4-0.1,2.2h0.4l0.3-0.3l-0.2-0.3
		c-0.5-0.7-1.9-2.4-3.2-4.3c-1.3-1.7-2.3-3.7-3-5.7l0,0v0c0,0-6.2-10.6-15.9-16l-0.1-0.1h-0.2c-0.1,0-0.3,0.1-0.4,0.2
		c-0.2,0.2-0.3,0.5-0.3,0.9c0.1,1.3,0.6,2.5,1.4,3.5l0.3-0.2h-0.4c-0.1,1-0.2,2.1-0.1,3.1c-0.1,2.3,0.2,4.5,1,6.7l0.4-0.2l-0.4-0.1
		c-0.2,1.1-0.3,2.2-0.3,3.3c0,1.4,0.2,2.7,0.5,4.1c0.4,1.4,1.2,2.7,2.2,3.6l0.3-0.3l-0.3,0.2c0,0,0.4,0.5,1.1,1.4
		c0.9,1.3,2.4,3.3,3.5,5.1c0.6,0.9,1.1,1.8,1.5,2.5c0.2,0.3,0.3,0.7,0.4,1c0.1,0.2,0.1,0.4,0.1,0.6v0.1l0,0l0.4,0.2l0.2-0.3
		c0,0-9.4-6.8-21.2-6.8c-1.2,0-2.5,0.1-3.7,0.2l0,0c-0.4,0.1-0.8,0.3-1.2,0.4c-0.3,0.1-0.6,0.3-0.9,0.5c-0.1,0.1-0.2,0.2-0.3,0.3
		c-0.1,0.1-0.2,0.3-0.2,0.5c0,0.3,0.1,0.5,0.3,0.7c0.4,0.3,0.8,0.5,1.3,0.6c0.8,0.2,1.7,0.4,2.6,0.5l0,0l0.6,0.1
		c1.3,0.2,4.7,0.7,8.1,1.5c1.7,0.4,3.4,0.9,5.1,1.5c1.4,0.5,2.7,1.1,3.8,2l0.2-0.3v-0.4h-0.3c-1.4-0.1-2.8-0.2-4.2-0.4
		c-0.9-0.1-1.7-0.3-2.6-0.6c-0.7-0.2-1.3-0.5-1.8-0.9l-0.1-0.1h-0.1c-0.3,0-0.5-0.1-0.8-0.1c-0.2,0-0.4,0-0.6,0.1
		c-0.1,0-0.2,0.1-0.3,0.2c-0.1,0.1-0.2,0.3-0.2,0.4c0,0.2,0.1,0.3,0.2,0.5c0.6,0.6,1.2,1.2,2,1.6c0.5,0.3,1,0.6,1.5,1
		c0.1,0.1,0.2,0.2,0.3,0.2l0,0l0,0l0.2-0.1h-0.2v0.1l0.2-0.1h0.1l-0.2-0.2l-0.1,0.2h0.3l-0.2-0.2l0.2,0.2l-0.1-0.2
		c-0.1,0-0.1,0-0.1,0.1l0.2,0.2l-0.1-0.2l0,0l0,0l0,0l0,0l0,0l0,0c-0.2,0-0.4-0.1-0.6-0.1l-0.3-0.1h-0.1l0,0c0,0-13.4-3.5-22.4-3.5
		c-1,0-2.1,0-3.1,0.2h-0.1c-0.7,0.2-1.5,0.5-2.2,0.8c-1.3,0.6-2.5,1.4-3.6,2.4l0.3,0.3l-0.1-0.4c0,0-3,0.6-6,1.4
		c-1.4,0.4-2.8,0.8-4.1,1.3c-0.5,0.2-1,0.4-1.4,0.7c-0.2,0.1-0.3,0.3-0.5,0.4c-0.1,0.2-0.2,0.4-0.2,0.6c0,0.1,0,0.2,0.1,0.3l0.1,0.2
		h0.3c0,0,3.7-0.1,8.6-0.7c5.2-0.5,10.4-1.4,15.4-2.8l0-0.4v0.4h0.5c1.5,0,6.2,0.3,13.6,3.3l0.2-0.4v-0.4l-0.9,0.1
		c-1.7,0.2-5.6,0.5-8.8,0.5c-1.1,0-2,0-2.9-0.1c-0.7,0-1.3-0.2-1.9-0.3h-0.1h-0.1c0,0-1,0-2,0.2c-0.5,0.1-1,0.2-1.4,0.3
		c-0.2,0.1-0.4,0.2-0.6,0.3c-0.2,0.1-0.3,0.4-0.3,0.6c0,0.3,0.2,0.5,0.4,0.7c0.5,0.4,1,0.7,1.6,0.9c1.1,0.4,2.1,0.8,3.2,1.1l0,0
		l0.8,0.2c0.7,0.2,1.9,0.6,2.9,0.9c0.5,0.2,1,0.4,1.4,0.6c0.3,0.1,0.6,0.3,0.9,0.5l0,0l0,0c3.2,1.8,6.8,3,10.4,3.3l0.1-0.4l-0.1,0.4
		h0.2c1.1,0.2,2.1,0.5,3.1,0.9c0.6,0.2,1.1,0.5,1.5,0.9c0.3,0.3,0.6,0.7,0.6,1.1c-0.1,0.6-0.4,1.2-0.9,1.6c-0.5,0.4-0.8,1.1-0.9,1.8
		c0,0.5,0.2,1,0.5,1.3c0.7,0.8,1.5,1.4,2.4,1.8c2.3,1.1,4.7,1.9,7.1,2.5l0,0h0.3c0.7,0.1,2.6,0.4,4.4,0.8c0.9,0.2,1.7,0.5,2.5,0.8
		c0.6,0.2,1.1,0.5,1.5,0.9l0,0l0,0l0.2,0.2c0.5,0.6,1.6,1.6,2.6,2.8c0.5,0.6,0.9,1.2,1.4,1.9c0.3,0.5,0.5,1.1,0.6,1.7l0.4-0.1H229
		h0.2H229l0,0h0.2H229l0,0l0,0.2h-0.1c-0.5-0.1-1-0.4-1.4-0.7c-1.3-1-2.5-2.1-3.6-3.3l0,0c-0.1,0-4.3-3.8-12.9-3.8h-0.6v0.4v-0.4
		c0,0-1.2-0.1-2.9-0.1c-2.6,0-5.1,0.2-7.6,0.8c-1.3,0.3-2.5,0.8-3.7,1.4c-1.1,0.6-1.9,1.5-2.5,2.6l-0.1,0.2l0.2,0.2
		c1.5,1.4,3.5,2.3,5.5,2.5h0.2c0.9,0.1,1.8,0.3,2.7,0.5c0.5,0.2,1,0.4,1.4,0.7c0.4,0.2,0.6,0.6,0.7,1v0.2l0.2,0.1
		c1.2,0.6,2.5,0.9,3.8,0.8c2.4,0,4.7-0.9,6.4-2.5l-0.2-0.3l0.2,0.3l0,0l0,0l0,0l0,0l0,0c1.2-0.7,2.7-1.1,4.1-1c2.6,0,6.5,1,11.7,4.7
		l0.2-0.3l-0.4,0.2v0.1c0.2,0.6,2.3,6.2,2.3,15.6c0,0.4,0,0.9,0,1.3h0.4l-0.4-0.2c-0.3,0.8-0.4,1.6-0.4,2.4c0.1,2.8,0.7,5.6,1.7,8.3
		l0.4-0.1h-0.4c0,0,0,0.3,0.1,0.8c0.5,3.7,2.7,19.5,2.7,31.4c0.1,3.1-0.2,6.1-0.7,9.1L236.7,164.2l-0.1-0.4L236.7,164.2l0.3,0
		c0.5-3.1,0.7-6.2,0.7-9.3c0-13.7-2.8-32.3-2.8-32.3v-0.1c-1-2.6-1.6-5.3-1.7-8c0-0.5,0-1.1,0.2-1.6c0-0.2,0.1-0.3,0.1-0.3v-0.1l0,0
		h-0.1h0.1l0,0h-0.1h0.1v-0.1v-0.1c0-0.4,0-0.9,0-1.3c0-10.1-2.3-15.9-2.4-15.9V95l-0.1-0.1c-5.1-3.8-9.2-4.9-12.1-4.9
		c-1.6-0.1-3.2,0.3-4.6,1.2l0,0c-1.6,1.4-3.7,2.3-5.9,2.3c-0.8,0-1.7-0.1-2.5-0.4c-0.2-0.1-0.5-0.2-0.7-0.3l-0.2-0.1l0,0l0,0
		l-0.2,0.4l0.4-0.1c-0.2-0.7-0.7-1.3-1.3-1.6c-0.9-0.5-1.9-0.9-2.9-1.1c-0.5-0.1-1.1-0.2-1.7-0.2v0.4l0.1-0.4
		c-1.4-0.2-2.7-0.7-3.8-1.4c-0.3-0.2-0.6-0.4-0.9-0.7l-0.2-0.2l-0.1-0.1l0,0l-0.3,0.3l0.4,0.2c0.5-1,1.2-1.7,2.2-2.3
		c2.9-1.8,7.8-2.1,10.9-2.1c0.8,0,1.6,0,2,0h0.6h0.2h0.7c3.2-0.1,6.4,0.6,9.4,1.8c0.8,0.4,1.5,0.8,2.3,1.3l0.6,0.4l0.1,0.1l0,0l0,0
		l0.3-0.3l-0.3,0.3c1.1,1.2,2.4,2.4,3.7,3.4c0.5,0.5,1.2,0.8,1.9,0.9c0.2,0,0.3,0,0.5-0.1c0.2-0.1,0.3-0.3,0.4-0.5
		c0-0.1,0.1-0.3,0.1-0.4v-0.1l0,0l0,0c-0.2-0.8-0.5-1.6-1-2.2c-1.2-1.7-2.5-3.2-3.9-4.7l-0.3,0.3l0.3-0.2c-0.6-0.6-1.3-1.1-2.2-1.3
		c-2.3-0.8-4.7-1.3-7.1-1.6v0.4l0.1-0.4l-0.4-0.1c-1.8-0.4-3.6-1-5.3-1.7c-0.9-0.4-1.8-0.9-2.7-1.5c-0.3-0.2-0.6-0.5-0.8-0.8
		c-0.2-0.2-0.2-0.5-0.2-0.8c0-0.5,0.3-0.9,0.6-1.2c0.7-0.5,1.1-1.3,1.2-2.2c0-0.4-0.1-0.7-0.3-1c-0.4-0.5-0.9-1-1.5-1.3
		c-1.4-0.7-2.8-1.2-4.3-1.5l0,0c-2.5-0.3-5-0.9-7.3-1.8c-0.9-0.4-1.6-0.7-2-0.9l-0.5-0.3l-0.1-0.1l0,0l-0.2,0.3l0.3-0.3
		c-0.5-0.3-1-0.6-1.5-0.8c-1.6-0.6-3.2-1.1-4.8-1.5l-0.1,0.4l0.1-0.4c-1.3-0.4-2.6-0.8-3.8-1.4c-0.3-0.1-0.5-0.3-0.7-0.5l-0.2-0.2
		l0,0l0,0h0.1l0,0H181h0.1l0,0c0.2-0.1,0.5-0.2,0.7-0.3c0.6-0.1,1.2-0.2,1.8-0.2h0.7h0.3v-0.4l-0.1,0.4c0.7,0.2,1.4,0.4,2.2,0.4
		c0.9,0.1,1.9,0.1,2.9,0.1c4.4,0,9.8-0.5,9.8-0.5l1.6-0.2l-1.5-0.6c-7.5-3.1-12.4-3.4-14-3.4h-0.7c-5,1.4-10.1,2.3-15.3,2.8
		c-2.4,0.2-4.5,0.4-6.1,0.5l-1.8,0.1H161v0.4l0.3-0.2l0,0h0.1l0,0l0,0h0.1l0,0c0.2-0.2,0.4-0.4,0.6-0.5c0.9-0.4,1.8-0.8,2.8-1.1
		c1.7-0.5,3.7-1.1,5.3-1.4l2-0.4l0.8-0.2h0.1l0.1-0.1c1-0.9,2.1-1.7,3.3-2.2c0.6-0.3,1.1-0.5,1.5-0.6l0.4-0.2l0.2,0l-0.1-0.4
		l0.1,0.4c1-0.1,2-0.2,3-0.2c4.9,0.2,9.7,0.7,14.4,1.8c2.2,0.4,4.2,0.9,5.6,1.2l1.6,0.4l0.6,0.2l0.1-0.4l-0.2,0.3
		c0,0,0.2,0.1,0.5,0.1c0.3,0.1,0.6,0.1,0.8,0.1c0.1,0,0.2,0,0.3-0.1c0.1,0,0.2-0.1,0.2-0.2c0.1-0.1,0.1-0.2,0.1-0.3
		c0-0.2-0.1-0.3-0.2-0.4c-0.2-0.2-0.4-0.4-0.7-0.6c-0.3-0.2-0.7-0.5-1.3-0.9c-0.5-0.3-1-0.7-1.5-1.1c-0.1-0.1-0.2-0.2-0.3-0.3v-0.1
		l0,0h-0.1h0.1l0,0h-0.1h-0.1l0.1,0.1l0.1-0.1h-0.2l0.1,0.1l-0.1-0.1l0.1,0.1l0,0l-0.1-0.1l0.1,0.1l0,0c0.1,0,0.3-0.1,0.4,0
		c0.1,0,0.3,0,0.4,0h0.1l0,0l0.1-0.4l-0.3,0.3c0.7,0.6,1.6,1,2.5,1.2c2.3,0.5,4.6,0.9,7,0.9h1.2l-0.9-0.7c-1.4-1-3.1-1.8-4.8-2.3
		c-4.3-1.3-8.8-2.3-13.3-2.9V50v-0.4c-1-0.1-2-0.3-2.9-0.6c-0.2-0.1-0.4-0.1-0.5-0.3l-0.1-0.1l0,0c0.1-0.1,0.2-0.2,0.4-0.3
		c0.3-0.2,0.7-0.3,1.1-0.5l0.4-0.1l0.2,0l-0.1-0.4v0.4c1.2-0.1,2.4-0.2,3.6-0.2c5.1,0.1,10.1,1.2,14.7,3.3c1.5,0.7,3,1.5,4.5,2.3
		c0.5,0.3,0.9,0.6,1.2,0.8l0.3,0.2l0.1,0.1l0.4,0.3l0.2-0.4c0.1-0.1,0.1-0.3,0.1-0.4c0-0.4-0.1-0.8-0.3-1.2
		c-1.1-2.2-2.3-4.2-3.8-6.2c-1.5-2.1-2.8-3.8-2.8-3.8l0,0l0,0c-0.9-0.9-1.6-2.1-1.9-3.3c-0.3-1.3-0.5-2.6-0.5-3.8
		c0-0.8,0.1-1.5,0.1-2.3c0-0.3,0.1-0.5,0.1-0.7c0-0.1,0-0.2,0-0.2V32v-0.1c-0.7-2-1.1-4.2-1-6.4c0-0.9,0-1.6,0.1-2.2
		c0-0.3,0-0.5,0.1-0.6c0-0.1,0-0.2,0-0.2v-0.1l-0.1-0.1c-0.7-0.9-1.1-1.9-1.3-3c0-0.2,0.1-0.3,0.1-0.3l0,0l-0.1-0.1v0.2l0,0
		l-0.1-0.1v0.2l-0.1-0.4l-0.2,0.4c4.3,2.6,8.1,5.9,11.3,9.9c1.4,1.6,2.4,3.1,3.2,4.2c0.4,0.5,0.6,1,0.8,1.3l0.2,0.3
		c0,0,0,0.1,0.1,0.1l0.3-0.2l-0.4,0.1c0.9,2.4,2.1,4.7,3.7,6.8c1.5,2.2,2.9,3.8,2.9,3.8l0.6,0.7l0.1-1c0.1-0.8,0.1-1.6,0.1-2.2
		c0.1-1.7-0.2-3.3-0.7-4.9v-0.1l0,0c-1.1-1.6-2.2-4.3-3-6.8c-0.4-1.3-0.8-2.5-1-3.6s-0.5-1.9-0.7-2.4c-0.1-0.4-0.2-0.7-0.2-1.1
		c0-1,0.2-2,0.5-3c0.1-0.4,0.2-0.8,0.3-1.1c0.1-0.3,0.1-0.2,0.1-0.3c0,0,0-0.1,0-0.1v-0.1c0.3-1.6,0.8-3.1,1.5-4.5
		c0.2-0.3,0.4-0.6,0.6-0.9c0-0.1,0.1-0.1,0.2-0.2l0,0l0,0l-0.1-0.1l0.1,0.1l0,0l-0.1-0.1l0.1,0.1l-0.3-0.3l-0.1,0.4
		c0.1,0.1,0.2,0.2,0.3,0.3c0.5,0.5,0.9,1.1,1.2,1.7c2.1,3.9,4,7.9,5.6,12c0.9,2.1,1.7,4.1,2.3,5.5l0.9,2.3l0.4,0.9l0.4-0.9
		c0.7-1.8,1.1-3.8,1.1-5.7c0.1-2.3-0.6-4.6-1.9-6.5c-2.1-2.9-2.5-5.1-2.5-6.4c0-0.4,0-0.7,0.1-1.1c0-0.1,0-0.2,0.1-0.3v-0.1l0,0
		h-0.1h0.1l0,0h-0.1h0.1l-0.4-0.2l0.3,0.2c0.1-0.2,0.3-0.4,0.4-0.7c0.2-0.6,0.4-1.1,0.6-1.7v-0.1v-0.1c0,0,0-0.2,0-0.5s0-0.8,0-1.4
		c0-1.2,0-2.8,0.2-4.4c0-0.3,0.1-0.7,0.2-1l0.1-0.1V5.7v0.1l0,0V5.7v0.1l0,0l0,0c0.1,0,0.1,0.1,0.2,0.1c0.1,0.2,0.3,0.3,0.4,0.5
		c0.1,0.1,0.1,0.2,0.1,0.2v0.1l0,0l0.4-0.2h-0.4l0,0c0,0.3,0.1,0.7,0.2,1c0.3,0.9,0.7,1.8,1.2,2.7l0,0l0,0c0.4,0.6,0.9,1.2,1.4,1.8
		c0.4,0.4,0.8,0.9,1.3,1.2c0.4,0.4,0.9,0.6,1.5,0.6c0.3,0,0.6-0.1,0.8-0.3c0.3-0.2,0.4-0.5,0.6-0.8c0.6-1.4,0.9-2.9,0.9-4.4
		c0-0.7,0-1.5-0.1-2.2l-0.4,0.1h0.4c0.1-0.7,0.2-1.5,0.5-2.2c0.1-0.1,0.1-0.2,0.2-0.3l0,0l0,0l0,0c0.1,0.1,0.2,0.2,0.3,0.3
		c0.2,0.2,0.3,0.4,0.4,0.7l0.2,0.3v0.1l0,0v0.1l0.1,0.1l0.1-0.1h-0.1l0,0l0.1-0.1h-0.1l0,0c0,0.1,0,0.1,0,0.2
		c-0.1,0.6-0.2,1.2-0.4,1.8c-0.1,0.3-0.2,0.6-0.3,0.8l-0.1,0.3l0,0c-0.7,2.6-1.2,5.3-1.3,8c0,0.8,0.1,1.6,0.3,2.4
		c0.2,0.7,0.6,1.3,1.1,1.7c1.2,0.9,2.1,2.3,2.5,3.8c0.2,0.6,0.3,1.2,0.5,1.8l0.1,0.6v0.1l0,0h0.4h-0.4c0,0.1,0,0.2,0,0.2
		c-0.1,1.2-0.3,2.5-0.7,3.6c-0.2,0.6-0.4,1.2-0.5,1.6c-0.1,0.4-0.2,0.6-0.2,0.6v0.1v0.2c0,0.4,0.1,0.8,0.4,1.2
		c0.2,0.2,0.5,0.4,0.9,0.4c0.4,0,0.7-0.1,1-0.3l0.2-0.1l0.1,0l0,0c0-0.1,0-0.2,0-0.4c0-0.9,0.4-1.7,1-2.3c0.6-0.6,1-1.4,1.3-2.1
		c1.1-2.3,2.1-4.8,2.9-7.2l0,0l0,0c0.7-2.2,1.7-4.3,3-6.2c0.6-0.8,1.1-1.5,1.4-1.9l0.4-0.5l0.1-0.1l0,0l-0.3-0.3l0.2,0.3v-0.1v0.1
		l0,0v-0.1v0.1c0.2-0.2,0.5-0.3,0.7-0.3c0.3,0,0.6,0.1,0.8,0.4c0.4,0.6,0.7,1.3,0.8,2c0.2,0.8,0.2,1.5,0.2,2.3
		c0,2.3-0.9,3.5-1.8,4.1c-0.4,0.3-0.8,0.7-1.1,1.2c-0.6,0.8-1.1,1.7-1.5,2.6c-0.2,0.4-0.4,0.9-0.5,1.3c-0.1,0.4-0.2,0.7-0.2,1.1
		c0,0.1,0,0.3,0.1,0.4c0.4,0.8,0.7,1.6,0.7,2.5c-0.1,1.6-0.7,3.2-1.6,4.6c-1.2,2.4-1.8,5.1-1.7,7.8c0,1.8,0.2,3.6,0.5,5.4l0,0
		c0.3,1,0.4,2,0.4,3c0,0.3,0,0.7-0.2,1c-0.1,0.1-0.1,0.1-0.1,0.1l0,0l-0.1,0.2l0.1-0.2l0,0l-0.1,0.2l0.1-0.2l-0.1,0h-0.1
		c-0.3,0-0.6,0.1-0.8,0.3c-0.4,0.3-0.6,0.7-0.8,1.1v0.1c-0.1,0.6-0.4,1.3-0.7,1.8c-0.6,1.1-1.2,2.2-1.9,3.2l-0.8,1.2l-0.3,0.5l0,0
		c-0.2,0.3-0.3,0.7-0.3,1.1c0,0.2,0.1,0.4,0.1,0.5c0.1,0.2,0.3,0.3,0.5,0.4c0.1,0,0.3,0.1,0.4,0.1h0.1v-0.4v0.4l0,0
		c0.4,0,0.8-0.2,1.1-0.6c0.5-0.5,0.9-1,1.2-1.6c0.2-0.3,0.3-0.7,0.5-1v-0.1v-0.1c0.1-1.1,0.5-2.1,1.1-3c0.2-0.3,0.4-0.5,0.7-0.7
		l0.2-0.2h0.1l0,0l-0.2-0.3l0.2,0.4c0.4-0.2,0.8-0.5,1.1-0.8c0.9-0.9,1.7-1.9,2.4-3l0,0l0,0c1.3-2.3,3.8-4.1,6.1-5.3
		c1-0.5,2-0.9,3-1.3l0.9-0.3l0.2-0.1h0.1h0c7.5-3.5,13.2-11.3,13.2-11.3l-0.3-0.2l0.3,0.2c1.6-2,3.4-3.7,5.5-5.2
		c0.5-0.4,1-0.7,1.6-0.9l0.4-0.2h0.1l0,0l-0.1-0.4l-0.3,0.3c0,0,0.1,0.1,0.1,0.2c0,0.4-0.1,0.7-0.3,1c-0.4,0.6-0.8,1.2-1.3,1.8
		c-0.2,0.3-0.4,0.5-0.5,0.6l-0.2,0.2l0.3,0.3l-0.2-0.3c-1.6,1.1-2.9,2.7-3.7,4.5c-0.4,0.9-0.8,1.8-1,2.8v0.2
		c0.1,2.6-0.5,5.1-1.7,7.4c-0.3,0.6-0.7,1.1-1.2,1.6c-0.2,0.2-0.3,0.3-0.4,0.4l-0.1,0.1l0,0l0.1,0.1l-0.1-0.1l0,0l0.1,0.1l-0.1-0.1
		l0.2,0.3l-0.2-0.3c-1,0.5-1.9,1.1-2.8,1.8c-0.2,0.2-0.4,0.4-0.6,0.6c-0.1,0.2-0.2,0.4-0.2,0.6c0,0.2,0.1,0.5,0.3,0.6
		c0.2,0.1,0.4,0.2,0.7,0.3c0.1,0,0.3,0,0.4,0l0,0l0,0l0,0h0.2l0.1-0.1c0.5-0.5,1.1-0.8,1.8-0.9c2.5-0.6,5-0.8,7.5-0.8h0.1l0,0h0.2
		c2.8,0,7-1.1,10.5-2.2s6.4-2.2,6.4-2.2l-0.1-0.4l0.1,0.4c0.4-0.1,0.8-0.1,1.2-0.2c0.1,0,0.2,0,0.3,0l0,0l0,0l0,0l0,0l0,0l0.1-0.1
		h-0.1l0,0l0.1-0.1h-0.1h0.1h-0.1l0,0h0.1h-0.1c0,0.1-0.1,0.2-0.1,0.2l-0.1,0.1l0,0l0,0c-1.4,1.6-3.2,2.9-5.1,3.8
		c-0.8,0.5-1.6,0.8-2.2,1L297,51l-0.2,0.1l0,0c-0.4,0.1-0.7,0.3-1,0.5c-0.1,0.1-0.2,0.2-0.3,0.3c-0.1,0.1-0.1,0.3-0.1,0.4
		c0,0.2,0.1,0.3,0.1,0.4c0.2,0.2,0.4,0.4,0.6,0.5c0.5,0.2,1.1,0.4,1.6,0.5c1.4,0.3,2.8,0.6,4.3,0.7h0.1c0.5-0.1,1-0.2,1.5-0.2
		c1.9,0,3.7,0.7,5.1,1.9c0.5,0.4,1,0.9,1.4,1.3c0.1,0.1,0.2,0.3,0.4,0.4l0.1,0.1l0,0l0.3-0.2h-0.4l0,0c0,0.3,0.1,0.7,0.2,1
		c0.6,1.5,1.5,2.9,2.4,4.2c0.9,1.3,1.8,2.4,1.8,2.4l0.3-0.2l-0.3,0.2c0.5,0.7,0.9,1.4,1.3,2.2c0.2,0.3,0.3,0.6,0.3,1v0.1l0,0l0,0
		l0,0l0,0l0,0l0,0l0,0l0,0l0,0h-0.1c-0.1,0-0.2,0-0.3,0H316l0,0h-0.1h-0.4c-2.3-0.2-4.5-0.6-6.7-1.3c-4.2-1.2-9.1-3-12.9-4.4
		c-1.9-0.8-3.6-1.4-4.8-1.9l-1.9-0.8l-0.1,0.4l0.2-0.3c-5.4-2.7-9.5-3.3-12-3.3c-1,0-2,0.1-3,0.3l0.1,0.4v-0.4h-0.2
		c-1.4,0.1-2.7,0.4-4,1c-3.2,1.5-6.3,3.2-9.2,5.3l0,0l0,0c-0.2,0.2-0.3,0.5-0.4,0.8c0,0.2,0.1,0.3,0.2,0.5c0.2,0.2,0.4,0.3,0.6,0.3
		c0.2,0.1,0.5,0.1,0.7,0.1c1.1,0,2.1-0.2,3.2-0.4c3.7-0.7,8.5-2.2,8.5-2.2l-0.1-0.4l0.1,0.4c1.7-0.4,3.5-0.6,5.3-0.7
		c2.4,0,4.8,0.3,7.2,0.8c0.9,0.2,1.7,0.4,2.2,0.5l0.6,0.2l0.2,0.1l0.1-0.4l-0.3,0.2h0h0l0,0h0h0h0.1H289l0,0h0.1l0,0l-0.1-0.1v0.1
		h0.2l-0.1-0.1l0,0l0,0l0,0l0,0l0,0c-0.2,0.1-0.4,0.2-0.6,0.2c-0.6,0.1-1.2,0.2-1.8,0.2H286h-0.3l0,0h-0.1c-2.6,0.1-5.1,0.6-7.6,1.4
		c-6.2,2.1-12.2,4.7-18,7.7l-1.8,1l2-0.2c0.3,0,0.5,0,0.8,0c0.8,0,1.6,0.2,2.2,0.6c0.1,0.1,0.3,0.2,0.4,0.4l0.1,0.1l0,0l0,0l0.2-0.1
		l-0.2,0.1l0,0l0.2-0.1l-0.2,0.1l0.1,0.1l0.1,0.1L264,75l0,0l0.2-0.1H264V75l0.2-0.1l0,0l-0.2-0.1v0.1h0.2l-0.2-0.1h0.1h0l0,0h0.1
		H264c-0.1,0-0.1,0.1-0.2,0.1c-0.9,0.3-1.8,0.4-2.7,0.5c-1.8,0.2-4.2,0.4-6,0.5l-2.3,0.1h-0.9l0,0c-0.4,0.1-0.7,0.2-1,0.4
		c-0.6,0.5-1.2,1.1-1.7,1.8c-1.2,1.6-2.3,3.4-3.2,5.2l0.4,0.2l-0.3-0.2c-1.1,1.7-1.7,3.6-1.7,5.6c0,0.5,0,1.1,0.2,1.6l0.2,0.9
		l0.5-0.8c2-3.4,5-6.2,8.6-7.8c1.1-0.5,2.3-1,3.5-1.3c0.4-0.1,0.8-0.2,1-0.2h0.3h0.1l0-0.4v0.4c0.2,0,0.3,0,0.5,0
		c1.7-0.1,3.4-0.4,5-1c1.6-0.5,2.8-1,2.9-1l-0.2-0.4l0.1,0.4c3.3-1,6.7-1.4,10.2-1.3c3.1,0,6.1,0.2,9.1,0.6c1.2,0.1,2.2,0.3,2.9,0.4
		s1.1,0.2,1.1,0.2l0.1-0.4l-0.1,0.4c0.2,0,0.5,0.1,0.7,0.3l0.1,0.1h0.1h-0.1l0,0h0.1h-0.1c-0.1,0.1-0.2,0.2-0.3,0.2
		c-0.3,0.2-0.6,0.4-0.9,0.5l-0.4,0.2h-0.1l0.1,0.4l0.3-0.2c-0.3-0.3-0.6-0.5-1-0.6c-0.4-0.1-0.9-0.1-1.3-0.1c-1.5,0.1-3,0.3-4.5,0.7
		h-0.1l-0.1,0.1c-0.4,0.3-0.8,0.5-1.2,0.6c-2.7,0.7-5.4,1.2-8.1,1.3c-1.4,0.1-2.7,0.2-3.7,0.3l-1.5,0.1l0,0
		c-13.4,1.1-18.9,8.5-19,8.6l-1.7,2.3l2.4-1.9c2.9-2,6.1-3.3,9.6-3.8c3.4-0.6,6.8-0.9,10.2-0.8c1.8,0,3.2,0.1,4.3,0.1l1.2,0.1h0.4
		v-0.4l-0.1,0.4c1.2,0.2,2.9,0.7,4.4,1.1c0.7,0.2,1.4,0.4,1.8,0.5l0.8,0.2l0.1-0.4l-0.1,0.4c0.8,0.3,1.6,0.6,2.4,1.1
		c0.4,0.3,0.4,0.5,0.4,0.6c0,0.1-0.1,0.2-0.1,0.3l-0.1,0.1l0,0l0,0l0.1,0.1l-0.1-0.1l0,0l0.1,0.1l-0.1-0.1l0.2,0.3l-0.2-0.4v0.1
		v-0.1l0,0v0.1v-0.1h-0.1c-0.6-0.1-1.2-0.2-1.8-0.4c-1.2-0.4-2.7-0.9-3.9-1.4l-1.5-0.5l-0.6-0.2l0,0l0,0c-1.8-0.3-3.6-0.5-5.4-0.5
		c-3.4,0-6.7,0.3-10,0.8h-0.1h-0.1c-2,1.2-4.2,2.1-6.4,2.8c-1,0.3-1.8,0.5-2.5,0.7l-0.7,0.2H252l-0.3,0.1V93c0,0.3-0.1,0.6-0.3,0.9
		c-1,1.8-2.3,3.5-3.7,5c-0.7,0.8-1.4,1.6-1.9,2.1s-0.8,1-0.8,1l0.3,0.3v-0.4c-0.4,0-0.7,0.2-0.9,0.5c-0.4,0.5-0.8,1.2-0.9,1.8
		c-0.5,1.7-0.7,3.5-0.8,5.3h0.4l-0.4-0.1c-0.3,2.4-0.4,4.9-0.3,7.3c0,15.2,1.9,46.3,1.9,46.3v0.4h0.4c9,0.2,14.3,1.1,17.2,2.2
		c1.1,0.3,2,0.9,2.9,1.6c0.4,0.3,0.6,0.8,0.6,1.3c0,0.4-0.1,0.7-0.3,1c-0.1,0.1-0.2,0.2-0.2,0.3l-0.1,0.1l0,0l0,0l0.1,0.1l-0.1-0.1
		l0,0l0.1,0.1l-0.1-0.1l0.3,0.3l-0.3-0.3c-3.9,3.4-9.2,4.4-14.3,4.4c-3.7,0-7.4-0.5-11.1-1.4c-1.5-0.4-2.7-0.7-3.5-0.9l-1-0.3
		l-0.3-0.1l-0.1,0.4l0.1-0.4c-1.3-0.5-2.6-1.2-3.7-2c-0.3-0.2-0.6-0.5-0.8-0.8c-0.3-0.4-0.3-0.9,0-1.3c0.4-0.5,1-0.9,1.6-1.2
		c1.1-0.5,2.3-0.9,3.5-1.2c0.5-0.2,1-0.3,1.3-0.4l0.5-0.1l0.3-0.1l0.1-0.3L236.7,164.2z"/>
	<path class="st5" d="M236.1,34.7c0,0,0.1,10.5,4.8,17.5c1.2,1.9,2,4,2.4,6.3c0.6,1.3,1.5,2.5,2.6,3.5c0,0,2.5-1.5-0.3-10.1
		C245.5,51.8,235.6,37.9,236.1,34.7z"/>
	<path class="st5" d="M228.6,44.3c0,0,3,11.3,7.6,18.5c0,0,4.2,3.6,6.3,3.5c0,0-7.6-8.7-7.9-12.4c0.1-2.6-0.7-5.1-2.2-7.2l-3.9-6.6
		L228.6,44.3z"/>
	<path class="st5" d="M222.2,51.9c0,0-1.8,0,0.5,1.2c3.2,1.6,5,5,4.5,8.6c0,0,0.1,5,4,7.9c0,0,1.1,6.3,0.1,8.2
		c0,0-4.5-6.9-10.2-11.2c0,0-4.3-4.2-5.1-4c0,0-1.6,0,0.8,1.9c1.4,1.5,2.7,3.1,3.9,4.7c0,0-1.2,0-3.6-1.5c0,0-4.7-2.9-2.8-0.4
		c0,0,2.7,3.2,4.7,3.7c1.1,0.6,2.1,1.3,3,2.3c1.3,1,2.7,1.7,4.3,2c0,0,4.2,4.1,4.3,7.2c0,0,1.4,3,1.8,0c0,0-0.6-3.2,0.8-4.6
		c0,0,3.4-5.4,0.3-9.7c0,0-3.9-4.5-4.2-7.6C229.2,60.6,231.6,56.1,222.2,51.9z"/>
	<path class="st5" d="M242.4,87.3c0,0,0.7-5.9-0.2-8.2c0,0-0.2-3.8,4.2-1.9C246.4,77.2,244.3,89.2,242.4,87.3z"/>
	<path class="st5" d="M238.2,108c0,0,1.4-0.2,1.6,1.1c0,0,1.4,1.3,0.9-3.9c0,0-0.6-7.5-4.4-8.3c0,0-4.6-1.7-1.5,3.8
		c0,0,0.9,1.8,0.8,6.7c0,0-0.5,1.9,2,4.8c0,0,2,3.6,1.5-0.3C239.3,110.5,238.9,109.2,238.2,108z"/>
	<path class="st5" d="M246.6,63.3c0,0-1.2,1.6-0.5,2.5c0,0,1.4,1.3,1.5-0.4c0,0,0.3-2.1-0.1-2.6C247.5,62.8,247.2,62.4,246.6,63.3z"
		/>
	<path class="st5" d="M245.5,73.1c0,0,2.6-3,3.1-4.6c0.3-1.6,1.7-2.7,3.4-2.5c0,0,4.8-2.8,5.7-5.6c0,0,0.8-3.3,3-3.6
		c0,0,1.6-1.5,1.6-2.7c0,0,1.3-4.3,1.2-0.7c-0.2,1.9-1.1,3.7-2.7,4.8c0,0-2,2,0,2.9c1.2-0.2,2.2-1,2.7-2.1c0,0,2-1.6,3.6-1.3
		c0,0,3.3-0.9-1.3,1.7c0,0-8.4,5.1-10.7,7.2c0,0-0.9,1.4,0.9,1.5c0,0,1.3,3-2.1,2.4c0,0-2.9-1.6-4.4-0.7
		C249.3,69.9,245.7,74.2,245.5,73.1z"/>
	<path class="st2" d="M268.4,171.8c0.1-0.1,0.2-0.4,0.4-0.6c0.8-0.6,1.8-1.5,1.7-0.5l-1.2,30c0,0.1,0,0.2,0,0.3l0,0
		c-0.2,0.6-0.8,0.9-1.4,0.7c-0.5-0.2-0.8-0.7-0.8-1.2l0.5-28.1C267.7,172.1,268.1,172,268.4,171.8z"/>
	<path class="st5" d="M216.3,78.6c0,0,0.8-1.9,3.7-0.4c1.5,0.3,3,0.4,4.5,0.4c0,0,3.2,0.7,2.4,1.4c0,0-4-1.4-4.8-0.7
		C222.1,79.3,217.4,80,216.3,78.6z"/>
	<path class="st5" d="M193.4,63.3c2-1,4.4-1,6.3,0.1c0,0,3.9,2.2,4.3,3.3c0,0,0.6,1.7-1.9,0.2c-0.7-1-1.8-1.7-3-2
		C199.2,64.9,190.5,64.5,193.4,63.3z"/>
	<path class="st5" d="M207.1,88.1c0,0,9.9-3.4,15,0.4c0,0,0.6,0.7-5.1,0c-2.6-0.6-5.3-0.4-7.8,0.5L207.1,88.1z"/>
	<path class="st6" d="M354.4,165c0,0-17.1,4.3-1.1,9.2c0,0,28.6,6.8,43.2-2.5c0,0,5.4-4.7-9.7-7.9S354.4,165,354.4,165z"/>
	<path class="st2" d="M354.4,165l-0.2-0.8c-1.4,0.4-2.8,0.8-4.1,1.4c-1,0.4-2,1-2.9,1.6c-0.4,0.3-0.8,0.7-1.1,1.1
		c-0.3,0.4-0.5,1-0.5,1.5c0,0.5,0.2,1.1,0.5,1.5c0.6,0.8,1.5,1.5,2.4,1.9c1.5,0.7,3,1.3,4.5,1.8h0c7.2,1.6,14.6,2.4,22,2.4
		c7.6-0.1,15.8-1.2,21.9-5h0.1l0,0c0.2-0.2,0.4-0.5,0.6-0.7c0.4-0.6,0.6-1.2,0.6-1.9c0-0.6-0.2-1.3-0.6-1.8c-0.9-1.1-2-2-3.3-2.6
		c-2.3-1.1-4.8-1.9-7.3-2.4c-4.2-0.9-8.4-1.2-12.7-1.2c-6.7,0.1-13.4,0.9-20,2.4l0,0L354.4,165l0.3,0.8h0.1
		c6.4-1.5,12.9-2.3,19.5-2.4c4.1-0.1,8.3,0.3,12.3,1.1c4.3,0.9,6.9,2,8.3,2.9c0.5,0.3,1,0.8,1.4,1.3c0.2,0.3,0.3,0.6,0.3,0.9
		c0,0.4-0.1,0.7-0.3,1c-0.1,0.1-0.2,0.2-0.2,0.3l-0.1,0.1l0,0l0.2,0.2l-0.2-0.2l0,0l0.2,0.2l-0.2-0.2l0.6,0.6L396,171
		c-5.5,3.6-13.5,4.7-20.9,4.8c-5,0-10-0.4-15-1.1c-2-0.3-3.6-0.6-4.8-0.8l-1.3-0.3l-0.3-0.1h-0.1l-0.2,0.8l0.2-0.8
		c-1.8-0.5-3.5-1.2-5.1-2.1c-0.4-0.2-0.7-0.5-0.9-0.9c-0.1-0.2-0.2-0.3-0.2-0.5c0-0.2,0.1-0.4,0.2-0.5c0.4-0.5,1-1,1.6-1.3
		c1.2-0.6,2.4-1.2,3.6-1.6c0.6-0.2,1-0.3,1.4-0.4l0.4-0.1h0.1l0,0L354.4,165z"/>
	<polygon class="st4" points="366,157 370.7,156.8 374.7,165.9 364.3,166.5 	"/>
	<polygon class="st4" points="366,157 366,157.4 370.4,157.2 374,165.6 364.8,166 366.4,157.1 366,157 366,157.4 366,157 
		365.6,156.9 363.8,166.9 375.3,166.3 370.9,156.3 365.6,156.6 365.6,156.9 	"/>
	<path class="st4" d="M371.5,151.2c0.1,1.9,0.4,3.7,1,5.5c0.9,2.6-1.4,0.8-1.4,0.8L371.5,151.2z"/>
	<path class="st4" d="M371.5,151.2h-0.4c0.1,1.9,0.5,3.8,1.1,5.6c0.1,0.3,0.2,0.5,0.2,0.8v0.1l0,0h0.1l-0.1-0.1l-0.1,0.1h0.1
		l-0.1-0.1l0.1,0.1v-0.1l0,0l0.1,0.1v-0.1l0,0l0,0l0,0l0,0c-0.1,0-0.2,0-0.2-0.1c-0.2-0.1-0.4-0.2-0.5-0.3l-0.2-0.1l0,0l0,0
		l-0.3,0.3h0.4l0.4-6.2h-0.4h-0.4h0.4h-0.4l-0.4,6.5l0.2,0.1c0,0,0.2,0.2,0.5,0.3c0.2,0.1,0.3,0.2,0.5,0.2c0.2,0.1,0.4,0.1,0.6,0.1
		c0.2,0,0.4-0.1,0.6-0.2c0.1-0.2,0.2-0.4,0.2-0.6c0-0.3-0.1-0.7-0.2-1c-0.4-1.2-0.7-2.4-0.8-3.6c-0.1-0.5-0.1-1-0.1-1.3
		c0-0.3,0-0.5,0-0.5h-0.9L371.5,151.2z"/>
	<path class="st4" d="M357.6,135.9c0,0,1.7-4.3,4.9-5.2c0,0,1.3-2.5-0.7-3.1c0,0-1.4-3.9,0.9-5.4l2.9-5.2l6.3,2.4l2.6,2.6l1.6,6
		c0,0-0.3,1.3,0,1.7c0,0,0.8,2.6-1.4,3.5c0,0-4,3.2-4.1,4.9c1,0.8,1.6,1.9,1.6,3.1c0,0-1.3,12-0.8,15.2l2.2,4.2l-3.3,3.4l-0.9-6.4
		l-2.2-15.7c0,0-0.9-2.1,0.6-3.1c-0.8-1.4-2.2-2.3-3.8-2.4c0,0-1.4,0.2-1.1,0.8c0,0,1.9,1.7,1.6,3c0,0-1.2,2.6-0.7,3.4
		c0.8,0.7,1.4,1.4,1.8,2.3c0,0,1.6-0.1,1.3,4.9c0,0-0.8,1.1-0.4,1.9l1.8,4.1l0.9,7.2l-8.7,2.5c0,0-1-4.9-0.1-6.8
		c0.9-0.7,1.5-1.7,1.7-2.7c0,0-1.5-3.4-0.6-4c0.5-0.8,1.4-1.4,2.3-1.4c0,0,1-1.2,0.2-2.2c0,0-1.1-1.7-0.5-2.7c0,0-6.8,1.3-8.2,4.4
		c0,0,0.8,4.7-0.1,6.7c0.1,1.1,0.7,2.1,1.7,2.6c1.5,1.5,2.6,3.4,3,5.5l-4.2,3.4c0,0,0.5-2.5-0.3-3.4c0,0-2.3-1.9-2.2-3.2
		c-0.2-0.8-0.6-1.4-1.1-2c-1.7-2-2.1-4.7-0.9-7.1c0.2-0.9,0.8-1.7,1.6-2.2c0,0,1.2-1.5-0.5-2.1c0,0-2.4-0.6-3.3,0
		c-1-0.1-1.8-0.7-2.2-1.6c-0.6-0.5-1.4-0.8-2.2-0.7c0,0-2.2,0-2.7-0.7c-0.8-0.8-2.1-0.8-3-0.1c0,0-2.1,1.7-3.8,0.7
		c0,0-2.3,0.3,0.3-1.7c0.8-0.3,1.5-0.9,2-1.6c0,0,0.3-1.1,2.4-1.2c0,0,2.1-0.6,2.5-1.7c0,0,1.4-1.8,3,0.5c1.2,0.8,2.7,0.8,3.9,0
		c-1.2-0.7-2.5-1.2-3.9-1.6c0,0-6.4-1-9-5.5c0,0-1.2-3.3-2.4-4.1c0,0-2.3-0.2-1.7-1.2c0,0,0.9-2.2,2.8-2.5c0,0,1.7-1.5,5.4-1.6
		c0.7-0.3,1.4-0.6,2.1-0.9c1-0.4,2.2-0.3,3.1,0.4c1,0.5,2.2,0.8,3.3,0.9c0,0,3.8,0.9,8.3,5.1c0,0,1.4,1.1,0.6,2.4
		c0,0-0.1,1.7-1.1,2.3C356.9,134.8,356.2,135.9,357.6,135.9z"/>
	<path class="st4" d="M357.6,135.9l0.4,0.2l0,0c0.4-0.8,0.8-1.6,1.4-2.4c0.8-1.2,1.9-2.1,3.3-2.6l0.2-0.1l0.1-0.2
		c0.3-0.6,0.4-1.2,0.5-1.8c0-0.4-0.1-0.8-0.3-1.1c-0.3-0.4-0.6-0.7-1.1-0.8l-0.1,0.4l0.4-0.2l0,0c-0.2-0.7-0.4-1.5-0.4-2.2
		c0-0.5,0.1-1,0.2-1.5c0.2-0.5,0.5-0.9,0.9-1.1l0.1-0.1l2.8-5l5.8,2.3l2.5,2.4l1.6,5.9l0.4-0.1l-0.4-0.1c-0.1,0.4-0.1,0.8-0.1,1.2
		c0,0.3,0.1,0.6,0.2,0.9l0.3-0.3l-0.4,0.1l0,0c0.1,0.3,0.1,0.6,0.1,0.9c0,0.4-0.1,0.8-0.2,1.1c-0.2,0.4-0.6,0.7-1,0.9h-0.1l0,0
		c-0.7,0.6-1.4,1.2-2.1,1.8c-0.5,0.5-1,1.1-1.4,1.6c-0.4,0.5-0.7,1.1-0.8,1.7v0.2l0.2,0.1l0,0c0.3,0.2,0.6,0.5,0.8,0.9
		c0.4,0.6,0.6,1.2,0.7,1.9h0.4l-0.4-0.1c0,0-1,8.7-0.9,13.3c0,0.7,0,1.4,0.1,2.1v0.1l2.1,4l-2.5,2.6l-0.8-5.6l0,0l-2.2-15.8v-0.1
		l0,0c-0.2-0.4-0.2-0.8-0.2-1.2c0-0.3,0-0.5,0.1-0.8c0.1-0.3,0.3-0.5,0.5-0.6l0.3-0.2l-0.1-0.3c-0.2-0.4-0.5-0.9-0.9-1.2
		c-0.9-0.8-2-1.3-3.2-1.5h-0.1c-0.2,0-0.4,0.1-0.6,0.2c-0.2,0.1-0.4,0.1-0.5,0.3c-0.1,0.1-0.2,0.2-0.2,0.3c-0.1,0.1-0.1,0.3-0.1,0.4
		c0,0.1,0,0.2,0.1,0.4v0.1l0.1,0.1l0.1,0.1c0.3,0.3,0.6,0.6,0.9,1c0.3,0.4,0.5,0.9,0.6,1.4v0.2l0.4,0.1l-0.4-0.2
		c-0.2,0.3-0.3,0.7-0.4,1.1c-0.2,0.6-0.4,1.3-0.4,2c0,0.3,0,0.5,0.2,0.8v0.1v0.1l0,0c0.7,0.6,1.3,1.3,1.7,2.2l0.1,0.3h0.3v-0.3v0.3
		l0,0v-0.3v0.3l0,0l0,0c0,0,0.2,0,0.4,0.4c0.4,0.9,0.6,1.9,0.5,2.9c0,0.4,0,0.7,0,1.2h0.4l-0.3-0.2c-0.1,0.2-0.2,0.3-0.3,0.5
		c-0.2,0.4-0.3,0.8-0.3,1.2c0,0.2,0.1,0.5,0.2,0.7l0.4-0.2l-0.4,0.2l1.8,4.1l0.8,6.7l-8.3,2.4l0.1,0.4l0.4-0.1l-0.1-0.4
		c-0.2-1.3-0.4-2.6-0.4-3.9c0-0.7,0.1-1.5,0.3-2.2l-0.4-0.2l0.3,0.3c0.3-0.3,0.6-0.6,0.9-0.9c0.5-0.6,0.9-1.3,1-2.1v-0.1V157v-0.1
		c-0.1-0.2-0.3-0.7-0.5-1.3c-0.2-0.5-0.3-1.1-0.4-1.7c0-0.1,0-0.2,0-0.3l0.1-0.1l0.1-0.1l0.1-0.1l0,0c0.1-0.2,0.3-0.4,0.5-0.6
		c0.4-0.4,0.9-0.6,1.5-0.6h0.2l0.1-0.1c0.4-0.5,0.6-1,0.6-1.6c0-0.4-0.1-0.8-0.4-1.1l-0.3,0.3l0.4-0.2l0,0c-0.1-0.2-0.3-0.4-0.4-0.7
		c-0.1-0.3-0.2-0.7-0.2-1c0-0.2,0-0.4,0.1-0.5l0.5-0.8l-0.9,0.2c-1.2,0.2-2.5,0.6-3.6,1c-1,0.4-2,0.8-2.9,1.4
		c-0.9,0.5-1.6,1.3-2.1,2.2l-0.1,0.1v0.1l0.1,0.3c0.2,1.1,0.3,2.3,0.3,3.4c0,0.9-0.1,1.8-0.4,2.6v0.1v0.1c0,0.4,0.1,0.8,0.2,1.1
		c0.3,0.8,0.9,1.5,1.7,1.9l0.2-0.4l-0.3,0.3l0,0c1.4,1.4,2.4,3.3,2.8,5.3l0.4-0.1l-0.3-0.3l-4.3,3.3l0.3,0.3l0.4,0.1
		c0.1-0.6,0.2-1.1,0.1-1.7c0-0.4,0-0.7-0.1-1.1c-0.1-0.4-0.2-0.7-0.5-1l0,0l0,0l-0.1-0.1c-0.4-0.4-0.8-0.8-1.2-1.2
		c-0.2-0.3-0.4-0.5-0.6-0.8c-0.1-0.2-0.2-0.5-0.2-0.7v-0.1v-0.1c-0.1-0.3-0.2-0.6-0.3-0.9c-0.2-0.5-0.6-1-1-1.4l-0.2,0.4l0.3-0.3
		l0,0c-0.9-1.1-1.4-2.4-1.4-3.8c0-1,0.2-1.9,0.6-2.8l0,0v-0.1l0,0c0.2-0.8,0.7-1.5,1.4-1.9h0.1v-0.1c0.1-0.1,0.2-0.3,0.2-0.4
		c0.2-0.3,0.2-0.6,0.2-0.9c0-0.3-0.1-0.6-0.3-0.8c-0.2-0.3-0.6-0.5-0.9-0.6l0,0c-0.7-0.2-1.4-0.3-2.2-0.3c-0.5,0-1,0.1-1.5,0.4
		l0.2,0.4V149l0,0c-0.3,0-0.5-0.1-0.7-0.2c-0.5-0.3-0.9-0.7-1.1-1.1v-0.1l-0.1-0.1c-0.2-0.2-0.4-0.3-0.6-0.4c-0.5-0.3-1-0.4-1.5-0.4
		c-0.1,0-0.3,0-0.4,0l0.1,0.4v-0.4h-0.1c-0.4,0-0.8,0-1.2-0.1c-0.2,0-0.5-0.1-0.7-0.2c-0.1,0-0.3-0.1-0.4-0.2l0,0l0,0
		c-0.2-0.1-0.3-0.3-0.5-0.4c-0.4-0.2-0.9-0.3-1.3-0.4c-0.6,0-1.2,0.2-1.7,0.6l0,0c-0.3,0.2-0.5,0.4-0.8,0.5c-0.5,0.3-1,0.4-1.5,0.4
		c-0.3,0-0.7-0.1-1-0.2l-0.1-0.1H335h-0.2c-0.1,0-0.2,0-0.3,0l0,0l-0.1,0.1l0.1-0.1l0,0l-0.1,0.1l0.1-0.1l-0.1,0.1h0.2v-0.1
		l-0.1,0.1h0.2c0.1-0.1,0.2-0.3,0.3-0.4c0.3-0.3,0.5-0.5,0.8-0.7l-0.3-0.3l0.1,0.4c0.3-0.1,0.6-0.3,0.9-0.4c0.6-0.3,1-0.8,1.4-1.4
		l0,0l0,0l0,0c0.1-0.2,0.2-0.3,0.4-0.4c0.5-0.3,1.1-0.5,1.6-0.5h0.1c0.4-0.1,0.8-0.3,1.2-0.5c0.3-0.2,0.6-0.4,0.9-0.6
		c0.3-0.2,0.5-0.6,0.7-0.9l-0.4-0.1l0.3,0.3l0,0c0.1-0.1,0.2-0.2,0.3-0.3c0.2-0.1,0.4-0.2,0.6-0.2c0.3,0,0.8,0.2,1.4,1v0.1l0,0
		c0.7,0.4,1.4,0.7,2.2,0.6c0.8,0,1.6-0.2,2.2-0.6l0.6-0.7l-0.7-0.4c0,0-0.7-0.4-1.5-0.8c-0.4-0.2-0.9-0.4-1.3-0.6
		c-0.4-0.2-0.8-0.3-1.2-0.3v0.4l0.1-0.4h-0.1c-1.3-0.2-2.5-0.6-3.7-1.2c-2-0.8-3.8-2.3-4.9-4.1l-0.4,0.2l0.4-0.1
		c0,0-0.3-0.8-0.7-1.8c-0.2-0.5-0.5-1-0.8-1.4c-0.2-0.4-0.6-0.8-1-1.1l-0.1-0.1H334c-0.3,0-0.6-0.1-0.9-0.2c-0.1,0-0.3-0.1-0.4-0.2
		l-0.1-0.1l0,0v-0.1l0,0v-0.1c0.2-0.4,0.4-0.8,0.7-1.1c0.4-0.6,1.1-1,1.8-1.1h0.1l0.1-0.1l0,0l0,0l0,0l0,0l0,0c0,0,1.7-1.5,5.2-1.5
		h0.1h0.1l0.8-0.3c0.5-0.2,0.9-0.4,1.4-0.6l-0.2-0.4l0.2,0.4l-0.1-0.1l0.1,0.1l0,0l-0.1-0.1l0.1,0.1c0.3-0.1,0.6-0.2,0.9-0.2
		c0.6,0,1.2,0.2,1.8,0.5l0,0c1.1,0.6,2.3,0.9,3.5,0.9v-0.4l-0.1,0.4l0,0c3.1,1,5.8,2.7,8.1,5l0,0l0,0l0.1-0.1l-0.1,0.1l0,0l0.1-0.1
		l-0.1,0.1c0.1,0.1,0.3,0.2,0.4,0.4c0.2,0.2,0.3,0.5,0.3,0.9c0,0.2-0.1,0.4-0.2,0.6l-0.1,0.1v0.2c0,0.3-0.1,0.6-0.2,0.9
		c-0.1,0.4-0.3,0.8-0.7,1l-0.1,0.1l-0.1,0.1c-0.1,0.2-0.2,0.5-0.2,0.8c0,0.3,0.1,0.5,0.3,0.7c0.3,0.2,0.6,0.3,1,0.3h0.3l0.1-0.3
		L357.6,135.9l0-0.4c-0.1,0-0.3,0-0.4-0.1v-0.1v-0.2V135l0,0l0,0l-0.4-0.2l0.2,0.4c0.6-0.4,1-1,1.1-1.6c0.1-0.3,0.2-0.7,0.2-1h-0.4
		l0.4,0.2c0.2-0.3,0.3-0.7,0.3-1.1c0-0.5-0.2-1-0.5-1.4c-0.1-0.2-0.3-0.4-0.5-0.5l-0.3,0.3l0.3-0.3c-4.5-4.3-8.5-5.2-8.5-5.2h-0.1
		c-0.7,0-1.5-0.1-2.2-0.4l-0.7-0.3l-0.2-0.1l0,0l0,0l-0.2,0.4l0.2-0.4c-0.7-0.4-1.4-0.7-2.2-0.7c-0.5,0-0.9,0.1-1.3,0.3l0,0
		c-0.3,0.2-0.8,0.4-1.3,0.6l-0.5,0.2l-0.2,0.1l0.1,0.4v-0.4c-3.9,0-5.7,1.6-5.7,1.7l0.3,0.3l-0.1-0.4c-1,0.2-1.8,0.7-2.4,1.6
		c-0.3,0.4-0.6,0.8-0.7,1.3l0.4,0.2l-0.4-0.2c-0.1,0.2-0.2,0.3-0.2,0.5c0,0.2,0.1,0.3,0.1,0.5c0.2,0.2,0.4,0.4,0.6,0.5
		c0.5,0.2,1,0.3,1.5,0.4V130l-0.2,0.4c0.3,0.2,0.5,0.5,0.7,0.9c0.4,0.6,0.7,1.3,1,2c0.1,0.3,0.2,0.6,0.3,0.8l0.1,0.3l0,0l0,0
		c1.4,2.1,3.4,3.7,5.7,4.6c1.2,0.5,2.4,0.9,3.6,1.1l0,0c0.3,0,0.6,0.1,1,0.3c0.6,0.2,1.2,0.5,1.8,0.8l0.7,0.3l0.2,0.1l0.2-0.4
		l-0.2-0.4c-0.5,0.3-1.2,0.5-1.8,0.5c-0.4,0-0.8-0.1-1.2-0.2c-0.1-0.1-0.2-0.1-0.3-0.2l-0.1-0.1l0,0l-0.3,0.3l0.4-0.2
		c-0.4-0.8-1.2-1.3-2.1-1.4c-0.4,0-0.9,0.2-1.2,0.4c-0.2,0.1-0.3,0.3-0.4,0.4l0,0v0.1c-0.1,0.2-0.2,0.4-0.4,0.6
		c-0.3,0.3-0.7,0.5-1.1,0.7l-0.5,0.2h-0.1l0,0l0.1,0.4v-0.4c-0.8,0-1.6,0.3-2.3,0.8c-0.2,0.2-0.4,0.5-0.5,0.8l0.4,0.1l-0.4-0.2
		c-0.3,0.4-0.6,0.8-1.1,1.1c-0.2,0.1-0.3,0.2-0.5,0.3l-0.1,0.1l0,0l0,0H335H335c-0.4,0.3-0.7,0.6-1,0.9c-0.2,0.2-0.3,0.5-0.4,0.8
		c0,0.2,0.1,0.3,0.2,0.4c0.1,0.1,0.3,0.2,0.5,0.3c0.1,0,0.3,0,0.4,0c0.1,0,0.2,0,0.3,0l-0.1-0.4l-0.2,0.4c0.4,0.2,0.9,0.4,1.4,0.4
		c0.7,0,1.4-0.2,2-0.6c0.3-0.2,0.6-0.4,0.9-0.6l-0.3-0.3l0.2,0.4c0.4-0.3,0.8-0.4,1.2-0.4c0.3,0,0.6,0.1,0.9,0.2l0.2,0.2l0.1,0.1
		l0,0l0,0l0,0l0,0l0,0l0,0l0.3-0.3l-0.4,0.2c0.2,0.3,0.5,0.5,0.9,0.6c0.5,0.2,1,0.2,1.5,0.3c0.4,0,0.8,0,0.8,0h0.1h0.2
		c0.4,0,0.8,0.1,1.1,0.3c0.1,0.1,0.3,0.1,0.4,0.2l0.1,0.1l0,0l0,0l0.3-0.3l-0.4,0.2c0.4,0.7,0.9,1.2,1.6,1.6c0.3,0.2,0.7,0.2,1,0.3
		h0.1l0.1-0.1c0.3-0.2,0.7-0.2,1-0.2c0.4,0,0.9,0,1.3,0.1l0.5,0.1h0.2l0.1-0.4l-0.1,0.4c0.2,0.1,0.4,0.2,0.5,0.3
		c0.1,0.1,0.1,0.2,0.1,0.3c0,0.2-0.1,0.4-0.1,0.6c0,0.1-0.1,0.1-0.1,0.2v0.1l0,0l0.3,0.3l-0.2-0.4c-0.6,0.4-1.1,1-1.5,1.6
		c-0.2,0.3-0.3,0.6-0.3,0.9l0.4,0.1l-0.4-0.2c-0.4,1-0.6,2-0.6,3.1c0,1.6,0.6,3.2,1.7,4.4l0,0l0,0c0.3,0.3,0.5,0.6,0.7,1
		c0.1,0.2,0.1,0.4,0.2,0.5l0.1,0.2v0.1l0.4-0.1h-0.4v0.1c0,0.4,0.2,0.9,0.4,1.3c0.6,0.8,1.2,1.6,2,2.2l0.3-0.3l-0.3,0.3
		c0.1,0.2,0.2,0.4,0.3,0.6c0.1,0.3,0.1,0.6,0.1,0.9c0,0.4,0,0.7-0.1,1.1l-0.1,0.4c0,0,0,0.1,0,0.1l-0.2,1.1l5.3-4.2v-0.2
		c-0.2-1.5-0.8-2.9-1.7-4.1c-0.4-0.6-0.9-1.2-1.4-1.7l0,0l0,0c-0.6-0.3-1.1-0.8-1.3-1.4c-0.1-0.2-0.1-0.4-0.2-0.6v-0.2l0,0h-0.4
		l0.4,0.2c0.4-1,0.5-2,0.5-3c0-1.3-0.1-2.6-0.4-3.9l-0.4,0.1l0.4,0.2c0.4-0.8,1-1.4,1.8-1.8c1.2-0.8,2.6-1.4,4-1.8
		c0.6-0.2,1.2-0.3,1.5-0.4l0.5-0.1h0.1l-0.1-0.4l-0.4-0.2c-0.2,0.3-0.2,0.6-0.2,0.9c0,0.5,0.2,1.1,0.4,1.5c0.1,0.2,0.2,0.5,0.4,0.7
		l0,0c0.1,0.2,0.2,0.4,0.2,0.6c0,0.3-0.1,0.5-0.2,0.7c0,0.1-0.1,0.2-0.1,0.2l0,0.1l0,0l0.3,0.3l0-0.4c-0.7,0.1-1.4,0.4-2,0.9
		c-0.2,0.2-0.5,0.5-0.6,0.8l0.4,0.2l-0.2-0.4c-0.2,0.1-0.3,0.3-0.4,0.5c-0.1,0.2-0.1,0.4-0.1,0.6c0.1,0.8,0.2,1.5,0.5,2.2
		c0.1,0.4,0.3,0.8,0.5,1.2l0.4-0.2h-0.4c-0.1,0.6-0.4,1.2-0.8,1.7c-0.2,0.2-0.3,0.4-0.5,0.6l-0.2,0.1l0,0l0,0l-0.1,0.1v0.1
		c-0.3,0.8-0.5,1.7-0.4,2.5c0,1.5,0.2,3,0.5,4.5l0.1,0.4l9.5-2.7l-0.9-7.6l-1.9-4.2l0,0c0-0.1-0.1-0.2-0.1-0.3
		c0-0.3,0.1-0.5,0.2-0.8l0.2-0.3V151l0,0l0.1-0.1v0.1c0-0.4,0-0.9,0-1.2c0.1-1.2-0.2-2.4-0.7-3.5c-0.2-0.4-0.6-0.7-1.1-0.7l0,0v0.4
		l0.4-0.2c-0.5-0.9-1.1-1.8-1.9-2.4l-0.3,0.3l0.4-0.2c0-0.1-0.1-0.2-0.1-0.3c0-0.6,0.2-1.2,0.4-1.7c0.1-0.3,0.2-0.5,0.3-0.7l0.1-0.2
		v-0.1v-0.1c0-0.1,0-0.3,0.1-0.4c-0.1-0.8-0.4-1.5-0.9-2.1c-0.3-0.3-0.6-0.6-0.9-0.9l-0.3,0.3l0.4-0.2l0,0h-0.1h0.1l0,0h-0.1l0,0
		l0.1,0.1v-0.1h-0.1l0.1,0.1l0,0c0,0,0.1-0.1,0.1-0.1c0.1-0.1,0.3-0.1,0.4-0.1h0.2h0.1l-0.1-0.4l-0.1,0.4c1,0.1,2,0.5,2.7,1.2
		c0.2,0.2,0.4,0.4,0.6,0.7l0.1,0.2v0.1l0,0l0,0l0,0l0,0l0,0l0,0l0.4-0.2l-0.2-0.4c-0.4,0.2-0.7,0.6-0.9,1c-0.1,0.4-0.2,0.7-0.2,1.1
		c0,0.5,0.1,1,0.3,1.5l0.4-0.2l-0.4,0.1l2.2,15.7l0,0l1.1,7.3l4.1-4.3l-2.4-4.5l-0.4,0.2l0.4-0.1c-0.1-0.6-0.1-1.3-0.1-1.9
		c0-2.3,0.2-5.6,0.4-8.3c0.1-1.4,0.2-2.6,0.3-3.5s0.1-1.4,0.1-1.4v-0.1c0-0.9-0.3-1.8-0.9-2.5c-0.3-0.3-0.6-0.7-0.9-0.9l-0.2,0.3
		h0.4c0.1-0.5,0.3-0.9,0.6-1.3c0.6-0.8,1.3-1.6,2.1-2.2c0.4-0.3,0.7-0.6,0.9-0.8l0.4-0.3l-0.3-0.3l0.2,0.4c0.6-0.2,1.2-0.7,1.5-1.3
		c0.2-0.5,0.3-1,0.3-1.5c0-0.4-0.1-0.8-0.1-1.1v-0.1v-0.1v-0.1c0-0.1,0-0.2,0-0.3c0-0.2,0-0.4,0.1-0.7c0-0.1,0-0.2,0-0.2v-0.1v-0.1
		l-1.8-6.3l-2.8-2.8l-6.7-2.6l-3.1,5.6l0.4,0.2l-0.2-0.4c-0.6,0.4-1,0.9-1.3,1.6c-0.2,0.6-0.3,1.2-0.3,1.8c0,0.9,0.2,1.7,0.5,2.6
		l0.1,0.2l0.2,0.1c0.3,0.1,0.5,0.2,0.6,0.4c0.1,0.2,0.2,0.4,0.2,0.6c0,0.3-0.1,0.7-0.2,1c0,0.1-0.1,0.2-0.1,0.3v0.1l0,0l0.4,0.2
		l-0.1-0.4c-1.6,0.6-3,1.7-3.9,3.1c-0.5,0.7-1,1.5-1.3,2.4L357.6,135.9l0-0.4L357.6,135.9z"/>
	<path class="st4" d="M365.8,121.4c0,0-2.8-26-2-28.9c0,0,1-8.7,3.8-4c0,0,0.5,3.9,2.3,0c0,0,0.3-7.6,10.1-9.2c0,0,2.8-0.5,2.8-3
		c0,0,1.1-3.1,1.4,0.6c0,0-0.1,5.3,0.8,6.3c0,0,1.6,4.3,0.7,6.5c-0.1,0.9-0.4,1.8-0.9,2.6c2-1.6,4.5-2.5,7.1-2.5
		c0,0,2.9-0.6,3.2-1.6c0,0,2.1-2.3,0.6,4.5c-0.3,2.5-0.3,5,0,7.4c0,0,1.1,1.8-2.3,4.2c-0.6,0.7-0.8,1.6-0.8,2.5c0,0-0.5,2.6-2.5,3.6
		c0,0,6.3-1,8.2,2.3c0,0,4.2,4,6.5,5.1c0,0,1.9,2.2-1.4,1.7c0,0-2.2-0.2-2.3,0.9c0,0-2.5,1.2-6.5-0.7c0,0,0.9,14.1-2.4,17.8
		c-1,3.5-3.5,6.5-6.9,7.9c0,0-5.7,3.7-7.2,3.6c0,0-1.3-0.4-1.9,6.2c0,0-0.4,3.6,0.9,3.8c0,0,2.5-1.2,3-3.3c0,0,0.7-1.3,2.1,0.3
		c0,0,3.5,1.6,4.3,4.2c0.4,1.5,0.4,3,0.1,4.6c0,0-0.6,1.3,1.7,1.4c0,0,4.6,1.8,1.3,4.1c0,0-0.2,1.3-4.4,2.1c0,0-0.3,3.5-0.9,4.6
		c0,0-0.7,2.2-1.6,0.9c-0.4-1.1-0.9-2.1-1.5-3c0,0-1.2-1.6-2.1-1.5c0,0-17.2,2.6-26-3.4c0,0-2.8-2.4,1.8-3.5l17.1-1.1l0.4-6.4
		l-0.3-5.6c0,0,0.3-8.6,1.2-9.7c0,0,1.4-1.3,1.5,1.4c0,0-1.2,6.8-0.8,8.4c0.1,0.3,0.2,0.6,0.4,0.9c1.1-2.7,1.7-5.6,1.8-8.6
		c0,0-1.7-3.7-0.8-6.1c0,0-0.2-5.6,2.8-7c0,0,3-2.8,1.8-4.7c-1.3,0.4-2.6,0.5-4,0.2c0,0,0.6,2.6,0.1,3.5c0,0-4.5,4-5.2,5.9
		S365.8,121.4,365.8,121.4z"/>
	<path class="st4" d="M365.8,121.4h0.4c0,0-0.1-1.2-0.3-3.2c-0.6-5.9-1.8-18.3-1.8-23.5c0-0.7,0-1.4,0.1-2.1l0,0v-0.2
		c0.1-1,0.3-2,0.6-2.9c0.1-0.5,0.4-1,0.6-1.4c0.1-0.1,0.2-0.3,0.3-0.4c0.1-0.1,0.2-0.1,0.2-0.1c0.2,0,0.3,0.1,0.4,0.2
		c0.3,0.3,0.5,0.6,0.7,0.9l0.4-0.2h-0.4c0,0.3,0.1,0.6,0.2,0.9c0.1,0.3,0.2,0.5,0.3,0.7c0.1,0.1,0.2,0.2,0.3,0.3
		c0.1,0.1,0.3,0.1,0.5,0.1c0.2,0,0.3-0.1,0.5-0.2c0.6-0.5,1-1.1,1.3-1.8v-0.1v-0.1l0,0c0.1-1.4,0.6-2.8,1.4-4c1.3-1.9,3.7-4,8.4-4.8
		l0,0c0.5-0.1,1.1-0.3,1.5-0.6c0.4-0.3,0.8-0.6,1.1-1c0.3-0.5,0.5-1.1,0.5-1.7h-0.4l0.4,0.1l0,0c0.1-0.2,0.2-0.4,0.3-0.6
		c0-0.1,0.1-0.2,0.2-0.3l0,0l0,0l-0.1-0.1v0.2h0.1l-0.1-0.1v-0.1l-0.1,0.2h0.1v-0.2l-0.1,0.2l0.1-0.1l-0.1,0.1l0,0l0.1-0.1l-0.1,0.1
		l0,0c0.1,0.1,0.1,0.3,0.1,0.4c0.1,0.3,0.1,0.7,0.1,1h0.4h-0.4c0,0,0,0.3,0,0.8c0,0.8,0,2,0.1,3.1c0.1,0.5,0.1,1,0.3,1.6
		c0.1,0.4,0.3,0.8,0.5,1.2l0.3-0.3l-0.4,0.2v0.1c0.5,1.4,0.8,3,0.9,4.5c0,0.5-0.1,1.1-0.2,1.6l0,0v0.1c-0.1,0.8-0.4,1.7-0.8,2.4
		l-1.3,2.2l2-1.6l0,0c1.9-1.4,4.1-2.3,6.5-2.4h0.6c0.5-0.1,1-0.3,1.5-0.4c0.4-0.1,0.8-0.3,1.2-0.5c0.4-0.2,0.7-0.5,0.8-0.9l-0.4-0.1
		l0.3,0.3l0,0l0,0l0,0l0,0l0,0l0.2-0.2l0.1-0.1h0.1v-0.1l-0.1,0.1h0.1v-0.1l-0.1,0.1l0,0l0,0l0,0l0,0l0,0c0,0,0,0.1,0.1,0.2
		c0,0.2,0.1,0.4,0.1,0.6c0,1.2-0.2,2.4-0.5,3.6l0,0c-0.2,1.4-0.3,2.8-0.2,4.2c0,1.1,0.1,2.3,0.3,3.4v0.1v0.1l0.1-0.1l-0.1,0.1l0,0
		l0.1-0.1l-0.1,0.1c0.1,0.2,0.1,0.4,0.1,0.6c0,0.4-0.1,0.9-0.4,1.2c-0.5,0.7-1.1,1.4-1.9,1.8l0,0l0,0c-0.6,0.8-1,1.8-0.9,2.8h0.4
		l-0.4-0.1l0,0c-0.1,0.5-0.3,1-0.5,1.4c-0.3,0.8-0.9,1.4-1.7,1.8l-2.7,1.3l2.9-0.4h0.1c0.6-0.1,1.2-0.1,1.8-0.1
		c1.1,0,2.2,0.1,3.3,0.4c1,0.2,2,0.9,2.5,1.8l0,0h0.1c0,0,1,1,2.4,2.2c1.3,1.2,2.7,2.2,4.2,3l0.2-0.4l-0.3,0.3l0,0
		c0.1,0.1,0.2,0.2,0.2,0.4c0.1,0.1,0.1,0.3,0.2,0.5v0.1c-0.2,0.1-0.4,0.1-0.6,0.1c-0.3,0-0.5,0-0.8-0.1h-0.3c-0.4,0-0.9,0.1-1.3,0.2
		c-0.3,0.1-0.5,0.2-0.7,0.4c-0.2,0.2-0.4,0.5-0.4,0.8l0.4,0.1l-0.2-0.4l0,0c-0.6,0.2-1.3,0.4-1.9,0.3c-1.5,0-2.9-0.4-4.2-1.1
		l-0.7-0.3v0.7c0,0,0,0.4,0,1s0.1,1.5,0.1,2.6c0,2.6-0.1,5.2-0.4,7.8c-0.3,2.6-1,5.1-2,6.2l-0.1,0.1v0.1l0,0
		c-0.3,1.1-0.8,2.2-1.4,3.1c-1.3,2-3.1,3.5-5.2,4.4l0,0l0,0l-0.9,0.6c-0.8,0.5-2,1.2-3.2,1.9c-0.6,0.3-1.2,0.6-1.7,0.8
		c-0.4,0.2-0.7,0.3-1.1,0.3h-0.1v0.4l0.1-0.4h-0.2c-0.2,0-0.4,0.1-0.6,0.2c-0.5,0.5-0.8,1.1-0.9,1.7c-0.4,1.5-0.7,3.1-0.8,4.6h0.4
		H376c0,0.4-0.1,0.9-0.1,1.3c0,0.6,0.1,1.2,0.2,1.7c0.1,0.3,0.2,0.5,0.4,0.8c0.2,0.2,0.4,0.4,0.7,0.5h0.1l0.1-0.1
		c0.5-0.3,1-0.6,1.4-0.9c0.9-0.7,1.6-1.6,1.9-2.7l-0.4-0.1l0.4,0.2l0,0c0-0.1,0.1-0.1,0.2-0.2c0.1-0.1,0.2-0.1,0.3-0.1
		c0.2,0,0.5,0.1,1,0.6l0.1,0.1h0.1l0,0c0.7,0.3,1.3,0.7,1.9,1.2c1,0.7,1.7,1.6,2.1,2.7l0,0l0,0c0.2,0.7,0.3,1.5,0.3,2.3
		c0,0.7,0,1.4-0.1,2.1l0.4,0.1l-0.4-0.2c-0.1,0.2-0.1,0.4-0.1,0.6c0,0.4,0.2,0.8,0.5,1c0.5,0.3,1.1,0.5,1.7,0.5v-0.4l-0.1,0.4l0,0
		c0.4,0.2,0.9,0.4,1.2,0.7c0.3,0.2,0.5,0.4,0.7,0.6c0.2,0.2,0.2,0.4,0.3,0.7c0,0.2-0.1,0.4-0.2,0.6c-0.2,0.3-0.5,0.6-0.8,0.8
		l-0.1,0.1v0.2l0.3,0.1l-0.3-0.1l0,0l0.3,0.1l-0.3-0.1l0,0c0,0-0.1,0.3-0.7,0.6c-1.1,0.6-2.2,1-3.4,1.2l-0.3,0.1v0.3v0.6
		c-0.1,0.5-0.2,1.3-0.3,2.1c-0.1,0.6-0.3,1.2-0.5,1.8l0,0l0,0v0.1c-0.1,0.2-0.2,0.4-0.3,0.6c-0.1,0.1-0.1,0.2-0.2,0.3l-0.1,0.1l0,0
		l0,0l0,0l0,0l0,0l0,0c-0.1-0.1-0.2-0.1-0.2-0.2l-0.4,0.2l0.4-0.1c0,0-0.2-0.6-0.6-1.3c-0.2-0.3-0.3-0.7-0.5-1
		c-0.1-0.3-0.3-0.5-0.5-0.8l-0.3,0.3l0.4-0.2c-0.2-0.3-0.5-0.6-0.7-0.8c-0.2-0.2-0.5-0.4-0.7-0.6c-0.3-0.2-0.6-0.3-0.9-0.3h-0.1
		l-0.6,0.1c-2.5,0.3-5,0.5-7.5,0.5c-5.6,0-12.9-0.7-17.6-3.9l-0.2,0.4l0.3-0.3l0,0c-0.1-0.1-0.3-0.3-0.4-0.4
		c-0.2-0.2-0.3-0.5-0.3-0.8c0-0.3,0.1-0.6,0.4-0.7c0.6-0.4,1.2-0.7,1.9-0.8l-0.1-0.4v0.4l17.4-1.1l0.3-6.4l-0.3-5.6h-0.4h0.4
		c0,0,0-0.5,0.1-1.4c0.1-1.2,0.2-3.1,0.4-4.7c0.1-0.8,0.2-1.6,0.3-2.2c0.1-0.3,0.1-0.5,0.2-0.8c0-0.1,0.1-0.3,0.2-0.4l-0.3-0.3
		l0.3,0.3l-0.1-0.1l0.1,0.1l0,0l-0.1-0.1l0.1,0.1c0.1,0,0.1,0,0.2,0c0.1,0,0.2-0.1,0.2-0.1l0,0c0,0,0.1,0.1,0.2,0.3
		c0.1,0.3,0.1,0.7,0.1,1h0.5l-0.4-0.1c0,0-0.2,1.2-0.4,2.7c-0.2,1.5-0.4,3.1-0.4,4.6c0,0.4,0,0.8,0.1,1.2l0,0c0,0,0.1,0.2,0.1,0.4
		c0,0.1,0.1,0.2,0.1,0.3c0,0.1,0.1,0.2,0.1,0.3l0.4,0.6l0.3-0.7c1.1-2.8,1.7-5.7,1.8-8.7v-0.1v-0.1v-0.1c-0.5-1.3-0.9-2.7-0.9-4.1
		c0-0.5,0.1-1.1,0.2-1.6v-0.1v-0.2c0-1.1,0.1-2.1,0.4-3.1c0.2-0.7,0.4-1.4,0.8-2c0.3-0.6,0.8-1.1,1.4-1.4h0.1h0.1
		c0.4-0.4,0.8-0.8,1.1-1.2c0.6-0.8,1-1.7,1.1-2.8c0-0.4-0.1-0.9-0.4-1.3l-0.2-0.3l-0.3,0.1l0,0c-0.8,0.2-1.6,0.3-2.4,0.4
		c-0.4,0-0.9,0-1.3-0.1l-0.7-0.2l0.2,0.7v0.2c0.2,0.7,0.2,1.4,0.3,2.1c0,0.3,0,0.6-0.1,0.9l0.4,0.2l-0.3-0.3c0,0-1.1,1-2.4,2.3
		c-0.6,0.6-1.2,1.3-1.8,2c-0.5,0.6-0.9,1.2-1.2,1.9l0,0l0.2,0.1l-0.1-0.2l-0.1,0.1l0.2,0.1l-0.1-0.2l0.2,0.3v-0.3l-0.2,0.1l0.2,0.3
		v-0.1l0.2-0.2c0,0,0-0.1-0.2-0.1v0.3l0.2-0.2l0,0c-0.1-0.1-0.1-0.2-0.2-0.3c-0.5-1.1-1-2.3-1.3-3.5c-0.8-2.4-1.6-5.5-2.3-8
		c-0.3-1.2-0.6-2.3-0.8-3.1l-0.3-1.2L365.8,121.4l0.5,0L365.8,121.4l-0.3,0.2c0,0,1.1,4.1,2.2,8.2c0.6,2.1,1.2,4.1,1.8,5.7
		c0.3,0.8,0.5,1.4,0.7,1.9c0.1,0.2,0.2,0.4,0.3,0.6c0.1,0.1,0.1,0.2,0.2,0.2c0.1,0.1,0.2,0.1,0.4,0.1c0.1,0,0.3-0.1,0.4-0.2
		c0.1-0.1,0.1-0.2,0.1-0.3c0.3-0.6,0.6-1.1,1-1.6c0.8-1,1.7-1.9,2.6-2.8c0.4-0.4,0.8-0.7,1-1l0.4-0.4l0-0.1V132
		c0.2-0.4,0.3-0.8,0.2-1.3c0-0.8-0.2-1.7-0.4-2.5l-0.4,0.1l-0.1,0.4c0.5,0.1,1,0.2,1.5,0.2c0.9,0,1.8-0.2,2.7-0.4l-0.1-0.4l-0.4,0.2
		c0.2,0.2,0.2,0.5,0.2,0.8c-0.1,0.8-0.4,1.6-0.9,2.2c-0.2,0.3-0.4,0.6-0.7,0.8l-0.2,0.2l-0.1,0.1l0,0l0.3,0.3l-0.2-0.4
		c-0.7,0.4-1.4,1-1.8,1.7c-0.9,1.7-1.3,3.7-1.3,5.6v0.1h0.4l-0.4-0.1c-0.2,0.6-0.3,1.2-0.3,1.8c0.1,1.6,0.4,3.1,1.1,4.6l0.4-0.2
		h-0.4c-0.1,2-0.4,4-0.9,5.9c-0.2,0.8-0.4,1.4-0.6,1.8l-0.2,0.5l-0.1,0.2l0.4,0.2l0.3-0.2l-0.1,0.1l0.1-0.1l0,0l-0.1,0.1l0.1-0.1
		l0,0c0-0.1-0.1-0.3-0.2-0.4l-0.1-0.3l-0.4,0.1l0.4-0.1c-0.1-0.3-0.1-0.7-0.1-1c0.1-1.5,0.2-3,0.5-4.5c0.1-0.8,0.2-1.4,0.3-1.9
		c0.1-0.5,0.1-0.8,0.1-0.8v-0.1c0-0.6-0.1-1.1-0.3-1.6c-0.1-0.2-0.2-0.3-0.4-0.4c-0.2-0.1-0.3-0.1-0.5-0.1c-0.2,0-0.5,0.1-0.7,0.2
		c-0.1,0.1-0.2,0.1-0.3,0.2l0,0l0,0c-0.2,0.3-0.3,0.6-0.4,0.9c-0.4,1.8-0.6,3.6-0.7,5.5c-0.1,2-0.2,3.6-0.2,3.6l0,0l0.3,5.6l-0.4,6
		l-16.8,1l0,0c-0.8,0.1-1.6,0.5-2.3,1c-0.4,0.3-0.7,0.8-0.7,1.4c0,0.5,0.2,1,0.5,1.3c0.1,0.2,0.3,0.4,0.5,0.5l0,0l0,0
		c5,3.4,12.4,4.1,18.1,4.1c2.8,0,5.5-0.2,8.3-0.6l-0.1-0.4l0.1,0.4l0,0c0.2,0,0.3,0.1,0.5,0.2c0.3,0.2,0.6,0.4,0.8,0.7
		c0.1,0.1,0.2,0.2,0.3,0.3l0.1,0.1l0,0l0,0l0,0c0.2,0.2,0.3,0.4,0.4,0.6c0.2,0.4,0.5,1,0.7,1.4c0.2,0.4,0.3,0.8,0.3,0.8l0,0l0,0
		c0.1,0.2,0.2,0.3,0.4,0.5c0.2,0.1,0.3,0.2,0.5,0.2c0.3,0,0.5-0.1,0.7-0.3c0.2-0.2,0.4-0.5,0.5-0.8c0.1-0.1,0.1-0.3,0.2-0.5
		l-0.4-0.1l0.4,0.2c0.2-0.4,0.4-0.8,0.5-1.3c0.2-1.1,0.4-2.3,0.5-3.5h-0.4l0.1,0.4c1.4-0.2,2.8-0.7,4-1.5c0.4-0.2,0.7-0.6,0.8-1
		l-0.4-0.1l0.2,0.4c0.4-0.3,0.7-0.6,1-1c0.2-0.3,0.3-0.7,0.3-1.1c0-0.5-0.2-0.9-0.5-1.2c-0.4-0.5-0.9-0.9-1.4-1.1
		c-0.3-0.2-0.6-0.3-0.8-0.4h-0.1h-0.1c-0.4,0-0.8-0.1-1.2-0.3c-0.1-0.1-0.2-0.2-0.2-0.3v-0.1l0,0l0,0v-0.1v-0.1
		c0.1-0.7,0.2-1.5,0.2-2.2c0-0.9-0.1-1.7-0.3-2.6l-0.4,0.1l0.4-0.1c-0.5-1.4-1.4-2.5-2.6-3.3c-0.6-0.5-1.3-0.8-1.9-1.2l-0.2,0.4
		l0.3-0.3c-0.4-0.5-1-0.9-1.6-0.9c-0.3,0-0.7,0.1-0.9,0.4c-0.1,0.1-0.2,0.2-0.3,0.4v0.1v0.1c-0.3,0.9-0.8,1.7-1.6,2.2
		c-0.3,0.2-0.6,0.4-0.9,0.6l-0.3,0.1h-0.1l0,0l0.2,0.4l0.1-0.4c-0.1,0-0.1-0.1-0.2-0.1c-0.2-0.2-0.3-0.5-0.3-0.8
		c-0.1-0.4-0.1-0.8-0.1-1.2c0-0.3,0-0.7,0-0.9s0-0.2,0-0.3v-0.1l0,0c0.1-1.8,0.4-3.5,1-5.2c0.1-0.2,0.2-0.4,0.4-0.6h0.1v-0.1v0.1
		l0,0v-0.1v-0.2l-0.1,0.3h0.1v-0.3l-0.1,0.3h0.2c0.3,0,0.6-0.1,0.9-0.2c1.4-0.5,2.8-1.2,4.1-2c1.3-0.8,2.4-1.5,2.4-1.5l-0.2-0.4
		l0.2,0.4c2.4-1.1,4.4-2.8,5.8-5.1c0.6-1,1.1-2,1.4-3.1l-0.4-0.1l0.3,0.3c1.2-1.4,1.8-3.9,2.2-6.6c0.3-2.6,0.4-5.2,0.4-7.9
		c0-2.1-0.1-3.6-0.1-3.6h-0.4l-0.2,0.4c1.4,0.7,3,1.1,4.6,1.2c0.8,0,1.6-0.1,2.3-0.4l0.2-0.1v-0.2c0-0.1,0.1-0.2,0.1-0.2
		c0.2-0.1,0.4-0.2,0.7-0.3c0.3,0,0.5-0.1,0.8-0.1h0.2v-0.4l-0.1,0.4c0.3,0,0.6,0.1,0.9,0.1c0.4,0,0.8-0.1,1.1-0.3
		c0.3-0.2,0.4-0.5,0.4-0.8c0-0.4-0.1-0.7-0.3-1c-0.1-0.2-0.2-0.3-0.3-0.4l-0.1-0.1H405c-1.4-0.8-2.8-1.8-4-2.9
		c-0.7-0.6-1.3-1.1-1.7-1.5c-0.4-0.4-0.7-0.6-0.7-0.6l-0.3,0.3l0.4-0.2c-0.7-1.1-1.8-1.9-3-2.2c-1.2-0.3-2.4-0.5-3.5-0.4
		c-0.7,0-1.4,0-2.1,0.1l0.1,0.4l0.2,0.4c1-0.5,1.8-1.3,2.2-2.3c0.2-0.5,0.4-1,0.5-1.5v-0.1c0-0.6,0.1-1.2,0.3-1.7
		c0.1-0.1,0.1-0.3,0.2-0.4l0.1-0.1l0,0l-0.2-0.2l0.2,0.2l0,0l-0.2-0.2l0.2,0.2l-0.3-0.3l0.2,0.3c0.9-0.5,1.6-1.3,2.1-2.1
		c0.3-0.5,0.5-1.1,0.5-1.7c0-0.3-0.1-0.7-0.2-1l-0.4,0.2l0.4-0.1c-0.2-1.1-0.3-2.1-0.3-3.2c0-1.1,0-2.1,0.1-2.8
		c0-0.4,0.1-0.7,0.1-0.9c0-0.2,0-0.3,0-0.3l-0.4-0.1l0.4,0.1c0.3-1.2,0.5-2.5,0.5-3.8c0-0.4,0-0.8-0.2-1.1c-0.1-0.1-0.2-0.3-0.3-0.3
		c-0.1-0.1-0.3-0.1-0.4-0.1c-0.3,0-0.5,0.1-0.7,0.3c-0.1,0.1-0.2,0.2-0.3,0.2l-0.1,0.1V88c-0.1,0.2-0.3,0.3-0.5,0.4
		c-0.5,0.3-1,0.5-1.6,0.6c-0.2,0.1-0.5,0.1-0.6,0.2l-0.3,0.1l0.1,0.4v-0.4h-0.4c-2.5,0.1-5,1.1-7,2.6l0.3,0.3l0.4,0.2
		c0.5-0.9,0.9-1.8,1-2.8h-0.4l0.4,0.2c0.2-0.6,0.3-1.3,0.3-1.9c-0.1-1.7-0.4-3.3-1-4.9v-0.1v-0.1c-0.2-0.2-0.3-0.5-0.3-0.8
		c-0.3-1.5-0.4-2.9-0.4-4.4v-0.9c0-0.5-0.1-1-0.3-1.5c-0.1-0.2-0.1-0.3-0.2-0.4c-0.1-0.1-0.3-0.2-0.5-0.2c-0.1,0-0.3,0-0.4,0.1
		c-0.2,0.1-0.3,0.2-0.4,0.4c-0.2,0.3-0.3,0.7-0.5,1v0.1v0.1c0,0.4-0.1,0.9-0.4,1.3c-0.3,0.4-0.8,0.8-1.3,1c-0.2,0.1-0.4,0.2-0.6,0.2
		l-0.2,0.1h0.1l0.1,0.4l-0.1-0.4c-5.1,0.8-7.7,3.2-9.1,5.4c-0.8,1.3-1.3,2.7-1.4,4.2h0.4l-0.4-0.2c-0.2,0.4-0.4,0.9-0.7,1.2
		c-0.1,0.1-0.1,0.2-0.2,0.2h0l0,0l0,0l0,0l0,0l0,0c-0.2-0.2-0.3-0.5-0.3-0.7c0-0.2-0.1-0.3-0.1-0.4v-0.1v-0.1l-0.1-0.1
		c-0.2-0.4-0.6-0.8-0.9-1.2c-0.3-0.3-0.6-0.4-1-0.4c-0.3,0-0.6,0.1-0.9,0.3c-0.4,0.4-0.7,0.9-0.9,1.4c-0.5,1.3-0.8,2.6-1,4h0.4
		l-0.4-0.1c-0.1,0.8-0.2,1.5-0.1,2.3c0,7.1,2.2,26.8,2.2,26.8v0.1L365.8,121.4z"/>
	<path class="st4" d="M362.6,129.9c0,0-4.3-2.6-5.3-6c0,0-0.6-2.2-2.4-1.4c-0.5,0.7-1.5,0.9-2.2,0.4c0,0,0,0,0,0
		c0,0-1.8-1.5-1.8-2.9c0,0-7-3.3-8.3-13.7c-0.2-2.4-0.8-4.7-1.6-6.9c0,0-1.6-3.8-0.9-6.8c0-1.1-0.3-2.2-0.9-3.1c0,0-1.4-2.7,1.2-2.4
		c1.5,0.1,2.9,0,4.4-0.1c0,0,4.6-0.5,6.1,2.2c0,0,8.8,8.9,10.2,14.1c0,0,2.5,5,2.8,8.9c0,0,0,5.5,0.6,6.2l3.5,0.9L362.6,129.9z"/>
	<path class="st4" d="M362.6,129.9l0.2-0.4l0,0c-0.8-0.6-1.6-1.2-2.4-1.9c-1.2-1-2.1-2.4-2.7-3.9l-0.4,0.1l0.4-0.1
		c-0.1-0.3-0.2-0.6-0.4-0.9c-0.2-0.3-0.4-0.5-0.6-0.7c-0.3-0.2-0.6-0.3-1-0.3c-0.3,0-0.6,0.1-0.9,0.2h-0.1l-0.1,0.1l0,0l0,0l0,0l0,0
		l0,0c-0.1,0.1-0.2,0.2-0.3,0.3c-0.2,0.1-0.4,0.2-0.6,0.2c-0.3,0-0.5-0.1-0.7-0.2l-0.2,0.3l0.3-0.3l-0.1-0.1c-0.3-0.3-0.6-0.6-0.9-1
		c-0.4-0.4-0.6-1-0.7-1.5v-0.2l-0.2-0.1l0,0c-1.4-0.8-2.7-1.8-3.7-3c-2.5-2.9-4.1-6.5-4.5-10.4h-0.4h0.4c0,0-0.1-1.1-0.4-2.5
		c-0.2-1.6-0.7-3.1-1.2-4.5l-0.4,0.2l0.4-0.2V99c-0.6-1.5-0.9-3.2-1-4.8c0-0.5,0-1,0.1-1.6v-0.2c0-1.1-0.4-2.3-1-3.2l-0.4,0.2
		l0.4-0.2l0,0c-0.2-0.4-0.3-0.7-0.3-1.1c0-0.2,0-0.3,0.1-0.4c0.1-0.1,0.2-0.2,0.6-0.2c0.1,0,0.2,0,0.3,0l0,0c0,0,1.1,0,2.2,0
		c0.5,0,0.9,0,1.3,0c0.3,0,0.7-0.1,1-0.2l-0.1-0.4v0.4h0c0.1,0,0.4,0,0.8,0c0.9,0,1.8,0.1,2.6,0.3c0.9,0.2,1.8,0.8,2.3,1.7l0,0l0,0
		l0.4,0.4c0.8,0.9,3,3.2,5,5.8s4.1,5.6,4.6,7.7l0,0l0,0c0,0.1,0.1,0.1,0.1,0.2c0.5,1,2.4,5.2,2.6,8.6h0.4h-0.4c0,0,0,1.4,0.1,2.9
		c0,0.7,0.1,1.5,0.2,2.1c0,0.3,0.1,0.6,0.2,0.8c0,0.2,0.1,0.4,0.3,0.6l0.1,0.1l3.1,0.8l-5.1,10.2l0.4,0.2l0.2-0.4l-0.2,0.4l0.4,0.2
		l5.5-11.2l-4-1l-0.1,0.4l0.3-0.3l0,0l0,0l0,0l0,0c-0.1-0.1-0.1-0.2-0.1-0.4c-0.2-1.1-0.3-2.2-0.3-3.3c0-0.6,0-1.2,0-1.6
		c-0.1-0.4,0-0.7,0-0.7l0,0l0,0c-0.2-2.1-0.7-4.1-1.5-6.1c-0.7-1.8-1.3-3-1.3-3l-0.4,0.2l0.4-0.1c-0.5-1.6-1.3-3.1-2.2-4.5
		c-2.4-3.5-5.1-6.7-8-9.8l-0.3,0.3l0.4-0.2c-0.6-1-1.6-1.8-2.8-2.1c-0.9-0.3-1.9-0.4-2.9-0.4c-0.5,0-0.9,0-0.9,0h-0.1l0,0
		c-0.2,0.1-0.5,0.1-0.8,0.1c-0.4,0-0.8,0-1.3,0h-1.5h-0.7V87v-0.4h-0.4c-0.5,0-0.9,0.1-1.3,0.5c-0.2,0.3-0.4,0.6-0.4,1
		c0,0.5,0.2,1.1,0.4,1.6l0,0l0,0c0.5,0.8,0.8,1.8,0.9,2.7v0.1h0.4l-0.4-0.1c-0.1,0.6-0.2,1.2-0.2,1.7c0.1,1.8,0.4,3.6,1.1,5.3l0,0
		c0.6,1.4,1,2.9,1.2,4.3c0.1,0.7,0.2,1.3,0.3,1.7c0,0.4,0.1,0.7,0.1,0.7l0,0c0.4,4.1,2.1,7.9,4.8,11c1.1,1.2,2.4,2.2,3.8,3l0.2-0.4
		h-0.4c0.1,0.8,0.5,1.6,1,2.2c0.3,0.4,0.6,0.7,0.9,1l0,0l0,0c0.3,0.3,0.8,0.4,1.2,0.4c0.4,0,0.8-0.2,1.2-0.4
		c0.2-0.1,0.3-0.3,0.4-0.4l-0.3-0.2l0.2,0.4c0.2-0.1,0.4-0.1,0.6-0.1c0.2,0,0.4,0.1,0.5,0.2c0.2,0.2,0.4,0.4,0.6,0.7
		c0.1,0.1,0.1,0.2,0.1,0.3v0.1l0,0l0,0c0.6,1.7,1.7,3.3,3.1,4.5c0.7,0.7,1.5,1.3,2.3,1.8l0.4,0.2L362.6,129.9L362.6,129.9z"/>
	<path class="st4" d="M375.8,157.6c0,0,1.9-6.1,3.3-6.2c0.9-0.7,1.4-1.9,1.3-3.1c-0.3-1.9,4.7-2.8,4.7-2.8c1.9,0.2,3.9,0.2,5.9,0.2
		c0,0,6.5,2.3,7.6,5c0,0,1.7,3.2,3,4.3c1.7,1.9,2.7,4.3,2.7,6.8l0.9,4.3c0,0,0.5,1.9-2.4,0.3c-2.9-1.7-8.6-4.6-11.1-5.3
		c0,0-1.9,0.1-2.9-2.4c0,0-1-3.9-4.1-4.4c0,0-3,0.4-4.3-0.4c-1.5,1.2-2.5,3-2.7,4.9c-0.2,3.1-2.5,0.7-2.5,0.7L375.8,157.6z"/>
	<path class="st4" d="M375.8,157.6l0.4,0.1l0.1-0.3c0.2-0.6,0.7-2,1.3-3.3c0.3-0.6,0.6-1.2,0.9-1.7c0.1-0.2,0.2-0.3,0.4-0.5
		c0.1-0.1,0.2-0.1,0.2-0.1h0.1l0.1-0.1c0.3-0.2,0.5-0.5,0.7-0.8c0.5-0.6,0.7-1.4,0.7-2.2c0-0.2,0-0.3,0-0.5v-0.1
		c0-0.1,0-0.3,0.1-0.4c0.2-0.3,0.6-0.6,0.9-0.8c0.7-0.3,1.4-0.6,2.1-0.8l0.8-0.2h0.2h0.1l-0.1-0.4v0.4c0,0,3.3,0.2,5,0.2h0.6
		c0.1,0,0.3,0,0.4-0.1l-0.1-0.4l-0.1,0.4l0.3,0.1c1.3,0.5,2.5,1.1,3.7,1.7c0.7,0.4,1.5,0.9,2.1,1.4c0.5,0.4,1,0.9,1.3,1.5l0,0l0,0
		c0,0,0.4,0.8,1,1.8c0.6,1,1.3,1.9,2.1,2.6l0.3-0.3l-0.3,0.3l0,0c1.6,1.8,2.5,4.1,2.6,6.6l0,0l0.9,4.3l0,0h0.1h-0.1l0,0h0.1h-0.1
		c0,0.1,0,0.1,0,0.2c0,0.1,0,0.1,0,0.2c0,0,0,0-0.1,0c-0.6-0.1-1.1-0.3-1.6-0.6c-1.5-0.8-3.6-2-5.7-3c-1.8-0.9-3.6-1.7-5.4-2.3h-0.1
		h-0.1c-0.3,0-0.7-0.1-0.9-0.3c-0.7-0.4-1.3-1.1-1.5-1.9l-0.4,0.2l0.4-0.1c-0.2-0.7-0.6-1.5-1-2.1c-0.4-0.6-0.8-1.1-1.4-1.6
		c-0.6-0.5-1.4-0.9-2.2-1h-0.2c-0.2,0-0.7,0.1-1.3,0.1c-0.5,0-1,0-1.5-0.1c-0.4,0-0.8-0.2-1.2-0.4l-0.2-0.1l-0.2,0.2
		c-0.5,0.4-1,0.9-1.4,1.4c-0.9,1.1-1.4,2.4-1.5,3.9c0,0.3-0.1,0.7-0.3,1c-0.1,0.1-0.2,0.2-0.3,0.1c-0.3,0-0.6-0.2-0.8-0.4
		c-0.1-0.1-0.2-0.2-0.3-0.3l-0.1-0.1l0,0l-0.3,0.3l0.4,0.1l0.7-1.9l0,0L375.8,157.6l-0.4-0.1l-0.8,2.1l0.2,0.2
		c0.2,0.2,0.4,0.3,0.6,0.5c0.4,0.3,0.8,0.5,1.3,0.5c0.4,0,0.8-0.2,1-0.5c0.3-0.4,0.4-0.9,0.4-1.4c0.1-1.2,0.6-2.4,1.4-3.4
		c0.3-0.3,0.5-0.6,0.8-0.9c0.1-0.1,0.2-0.2,0.3-0.2l0.1-0.1l0,0l-0.3-0.3l-0.2,0.4c0.5,0.3,1,0.4,1.5,0.5c0.5,0.1,1.1,0.1,1.6,0.1
		c0.8,0,1.5-0.1,1.5-0.1l-0.1-0.4l-0.1,0.4c0.6,0.1,1.2,0.4,1.8,0.8c0.7,0.6,1.2,1.3,1.6,2.1c0.1,0.3,0.3,0.6,0.4,0.9
		c0,0.1,0.1,0.2,0.1,0.2v0.1v0.1c0.3,1,1,1.8,1.9,2.3c0.4,0.2,0.9,0.4,1.4,0.4l0,0v-0.4l-0.1,0.4c1.8,0.6,3.6,1.4,5.3,2.3
		c2.1,1,4.2,2.2,5.7,3c0.6,0.4,1.3,0.7,2,0.7c0.3,0,0.6-0.1,0.8-0.4c0.1-0.2,0.2-0.4,0.2-0.7c0-0.1,0-0.3-0.1-0.4l-0.4,0.1l0.4-0.1
		l-0.9-4.3l-0.4,0.1h0.4c-0.1-2.6-1.1-5.2-2.9-7.1l0,0c-0.8-0.7-1.4-1.5-1.9-2.4c-0.3-0.5-0.5-0.9-0.7-1.2l-0.3-0.5l-0.4,0.2
		l0.4-0.2c-0.4-0.8-1-1.6-1.8-2.1c-1.9-1.3-3.9-2.4-6.1-3.1h-0.1h-0.1h-0.2H390c-0.8,0-2.1,0-3.1-0.1c-1-0.1-1.8-0.1-1.8-0.1H385
		c-0.8,0.1-1.6,0.4-2.4,0.6c-0.6,0.2-1.2,0.5-1.7,0.9c-0.2,0.2-0.5,0.4-0.6,0.6c-0.2,0.3-0.3,0.6-0.3,0.9v0.2c0,0.1,0,0.3,0,0.4
		c0,0.6-0.2,1.2-0.6,1.7c-0.1,0.2-0.2,0.3-0.4,0.5l-0.1,0.1l0,0l0,0l0.1,0.1l-0.1-0.1l0,0l0.1,0.1l-0.1-0.1l0.3,0.3V151
		c-0.3,0-0.6,0.2-0.8,0.4c-0.4,0.5-0.7,1-1,1.6c-0.7,1.5-1.3,3-1.8,4.6l0.4,0.1l-0.4-0.1L375.8,157.6z"/>
	<path class="st5" d="M369.4,114.1c0,0,0.8,0.3,0.8-0.3c-0.3-0.4-0.5-0.8-0.7-1.3c0,0-0.4-3,0.5-4c0,0,0.9-1.8,0.1-2.7
		c-0.7-1.4-0.9-2.9-0.6-4.4c0,0,0.1-1.7,0-2c0,0-0.1-1,1.1,0c0,0,0.8,0.7,0.9-1.7c0,0-0.8-4,0.2-5.4c0,0,0.9-1.3,1.3-0.2
		c0,0-0.1,1.9,0.4,1.9c0,0,1.2,0.1,1.2-3.3c0,0,0.1-3.7,0.6-4.3c0,0,0.8-1.4,1.2,0.2c0.3,1.1,0.4,2.2,0.3,3.3
		c0.3,0.3,0.8,0.2,1.1-0.2c0.1-0.1,0.1-0.2,0.1-0.3c0,0,0.6-3.7,0.1-5.1c0,0,0.8-3.1,1.2-0.7c-0.1,0.9-0.1,1.7,0.1,2.6
		c0,0,1,0.2,1.3-0.2c0.3-0.4,1,0,0.7,1.1c-0.5,0.9-1.1,1.8-2,2.4c0,0-0.1,0.7,0.8,0.6c0,0,0.9-0.6,0.9,0.2c0,0-0.6,1.9-1.7,2.1
		c-0.4,0.7-0.6,1.6-0.5,2.4c0.3,2.5-0.5,5-2.2,6.9c0,0-3.7,5.3-4.2,10.9c0,0-0.4,2.7-1.6,2.9c0,0-1.1,0.8-1.4,0.2
		C369.4,115.6,368.2,114.6,369.4,114.1z"/>
	<path class="st7" d="M344.8,99.9c1-0.4,2,0,2.5,0.9c0,0,1.3,1.7,1.3,0c0,0-1.1-4-2.8-5.6c0,0-1.6-2.1,0.5-0.8c1.2,1,2.2,2.2,3,3.5
		c0,0,1.1,1,1.3-0.1c-0.2-0.9-0.6-1.7-1.2-2.4c0,0-0.4-0.8,0.7-0.4c0,0,2.7,2.4,3.7,8.4c0,0,0.8,1.8,1.4,0.5c0,0-0.2-1.7,0.8-0.7
		c0.5,1,0.8,2.1,0.9,3.3c0,0,1.5,3.6,1.7,2.6c-0.1-0.6-0.2-1.3-0.2-1.9c0,0,0-1.1,0.7,0c0.4,0.5,0.6,1.1,0.7,1.8
		c0.4,2.1,0.7,4.3,0.8,6.5c0,0,0.2,1.5,0.9,0.6c0,0,0.7-1.1,0.8,0.2c0,0-0.3,3,0.2,3.8l0.1,0.1c0.6,0.4,0.7,1.3,0.3,1.8
		c-0.1,0.1-0.1,0.2-0.1,0.3c0,0-0.5,1-1.4-0.4c-1-2-2.7-3.4-4.8-4.2c0,0-3-0.6-1.4-2.1c0.5-0.5,0.7-1.4,0.4-2.1
		c-0.2-0.5-0.7-0.8-1.2-0.9c-0.8-0.2-2.3-0.7-2.7-2c0,0-0.9-1.7,0.1-1.8c0,0,0.7,0.4,0.5-1.2c0,0-0.4-2.6-5.8-5.8
		c-0.4-0.2-0.7-0.4-1.1-0.5C344.8,100.9,344.1,100.3,344.8,99.9z"/>
	<path class="st4" d="M350.4,102.5c0.1,0.1,0.1,0.2,0.2,0.2c0.9,1.1,4.8,6.1,6.1,10.7l0.4-0.1l-0.4,0.1c0.6,2.4,1.9,4.4,3.9,5.9
		l0.5-0.7c-1.2-0.9-2.2-2-2.9-3.4c-0.2-0.4-0.4-0.9-0.5-1.4c0-0.2-0.1-0.3-0.1-0.4v-0.1l0,0l0,0c-1.7-5.6-6.5-11.3-6.5-11.3
		L350.4,102.5L350.4,102.5z"/>
	<path class="st8" d="M346.3,143.4c0,0,2.7-1.3,4.1,0.7c0,0,0.7,1-0.3,0.9c0,0-2.4-0.8-3.3-0.6C346.9,144.4,344.8,144.5,346.3,143.4
		z"/>
	<path class="st8" d="M337.8,129.4c0.1,0.5,0.4,0.9,0.7,1.2c0,0,1.3,2.9,3.8,3c0,0,2.1-0.1,1.8,0.9c-0.2,0.3-0.4,0.6-0.6,0.9
		c0,0-0.6,0.6,0.4,0.9c1.5,0.8,3.1,1.5,4.8,1.9c1.4,0.4,2.9,0.6,4.4,0.7c0,0,1.3,0.3,1.4-0.9c0,0-0.5-2.8,0-3.3
		c0.4-0.3,0.8-0.7,1.2-1.1c0,0,0.4-1.6-1.7-2.3c-0.5-0.2-0.9-0.6-1.2-1c-0.3-0.5-1.7,0-1.7,0s-1.8-2.2-2.7-2.1
		c-0.6-0.3-1.3-0.1-1.7,0.5c-0.1,0.1-0.1,0.2-0.1,0.3c0,0-0.3,0.4-1.2-0.1c0,0-0.9-1.1-1.3-0.8c0,0-0.7,0.2-0.5,1.2c0,0-1,0-1.2-0.4
		c0,0-0.9-0.4-0.6,0.4C341.8,129.2,337.1,128.1,337.8,129.4z"/>
	<path class="st4" d="M340.6,130.6c0,0,0.8,0.6,2,1.4c1.3,0.8,2.7,1.4,4.2,1.8c1,0.2,2,0.4,2.9,0.7c0.7,0.2,1.5,0.5,2.2,0.9
		c0.5,0.2,1,0.5,1.4,0.9l0.7-0.5c-0.5-0.5-1.1-0.9-1.7-1.2c-0.7-0.3-1.5-0.6-2.3-0.9c-1-0.3-2-0.5-3-0.7c-1.4-0.3-2.7-0.9-4-1.7
		c-0.6-0.3-1-0.7-1.4-0.9l-0.4-0.3l-0.1-0.1L340.6,130.6L340.6,130.6z"/>
	<path class="st5" d="M370.9,119.4c0,0,1.5-1.4,3.6,1.4c0,0,0.7,0.9,0.3,1.1C374.8,121.9,371.9,119.1,370.9,119.4z"/>
	<path class="st5" d="M378.8,143.7c0,0-0.6-3.6,3.4-6.1c0,0,3.3-4.2,3.3-5.4c-0.3,2.4-1.2,4.7-2.6,6.7
		C382.9,138.9,379.7,144.4,378.8,143.7z"/>
	<path class="st5" d="M389,118c-0.2,0.2-0.2,0.6,0,0.8c0,0,0.1,0.1,0.1,0.1c0.2,0.2,0.3,0.6,0.2,0.9c0,0,0.6,0.9,1.2-0.1
		c0.3-0.3,0.7-0.4,1.1-0.3c0,0,0.9-0.6-0.6-1c0,0-0.8,0.2-0.9,0.2C389.9,118.1,389.4,117.9,389,118z"/>
	<path class="st6" d="M381.2,149.8c0,0-0.4-0.9,3.1-0.6c0,0,2.5-0.6,3.4-1.7c0,0,2.2-0.8,3.4,0.6c0,0,0.5,0.5-0.5,1.4
		c0,0-0.2,1.4,1.4,1.1c0,0,2.2-0.8,2.3-0.2c0,0,0.5,0.7-0.5,1c0,0,2,0.9,1.2,2.7c0,0-0.6,0.7,0.5,0.9c0,0,1.5,1.3,2.6,0.7
		c0,0,1.2,0.8-0.4,1.4c0,0-0.6-0.1-0.5,0.2c0,0,0.3,0.8-1.2,0.4c0,0-0.9,0.4-0.6,1.2c0.3,0.8-2.5,0-4.3-2.9c0,0-0.1-1.4-1.5-0.9
		c0,0,0.1,1.1-1.2,0.2c0,0,0.2-1.8-0.5-2c0,0-0.9-0.9-1.2-0.5c0,0,0.1,1.1-1.2-0.1C385.3,152.7,381.6,151.5,381.2,149.8z"/>
	<path class="st5" d="M374,117.4c0-0.5-0.2-1.1-0.5-1.5c0,0-0.3-2.2,1.7-2.1c0,0,1.4-0.3,1.8,0.2c0,0,0.7,1,1.5,0.9
		c0,0,1.5-0.2,2.1,2.2c0.2,0.9,1,1.6,1.9,1.8c0,0,3.6,0.3,4.8,1.7c0,0,1.6,1.4-0.4,1.4c0,0-3-0.5-2.8,0.3c0,0-0.8,1.3,2.2,3.3
		c0,0,1.4,1.9-1.2,1.6c0,0-2.2,0.1-4.1-3.7c0,0-0.8-1.6-1.7-1.1c0,0-0.5,0.5-1.1-0.2c-0.5-1.1-0.7-2.2-0.8-3.4c0,0-0.5-2.1-0.8-1.6
		c0,0.5-0.1,1.1-0.4,1.5c0,0-1.1,0.8-1.1-0.2c0,0,0.5-1.4,0.2-2c0,0,0,1.1-0.5,1.1C374.8,117.7,374.1,118.4,374,117.4z"/>
	<path class="st5" d="M377.1,112.1c0,0-0.2-1.5,0.4-1.9c0.1-0.7,0.1-1.3,0.1-2c0.2-0.2,0.4-0.2,0.6,0c0.1,0.1,0.1,0.1,0.1,0.2
		c0.3,0.6,0.2,1.2,0,1.8c-0.1,0.7,0.1,1.4,0.4,2.1C378.6,112.3,378.3,113.4,377.1,112.1z"/>
	<path class="st9" d="M382.6,150.4h0.2c1.6,0,3.3,0.2,4.8,0.6c1,0.2,2,0.6,2.9,1.2c0.8,0.5,1.4,1.2,1.7,2.1l0.4-0.1h-0.4
		c0,0.3,0.1,0.7,0.3,1c0.3,0.7,1,1.3,1.7,1.6l0.3-0.8c-0.6-0.2-1-0.6-1.2-1.1c-0.1-0.2-0.1-0.3-0.2-0.5V154l0,0l0,0v0v-0.1
		c-0.3-1.1-1.1-1.9-2-2.5c-1.4-0.9-3.1-1.4-4.7-1.6c-1.1-0.2-2.3-0.3-3.5-0.2h-0.2L382.6,150.4L382.6,150.4z"/>
	<path class="st4" d="M375.7,115.1l0.2,0.2c1.1,0.8,2.1,1.7,3,2.6c1.3,1.1,2.3,2.5,3.1,4l0.8-0.3c-1-1.8-2.3-3.5-3.8-4.8
		c-0.9-0.8-1.8-1.6-2.7-2.3L375.7,115.1L375.7,115.1z"/>
	<path class="st4" d="M371.5,113c0,0,0-0.4,0-1.1c0-1,0.1-2.6,0.3-4.2c0.1-1.5,0.4-2.9,0.8-4.3l0,0c0.5-1.6,0.8-3.2,0.9-4.9l0,0l0,0
		c0.1-1.5,0.7-3,1.8-4.1l-0.6-0.6c-1.3,1.2-2,2.9-2,4.7l0,0h0.4h-0.4c0,1-0.2,2.1-0.4,3.1c-0.1,0.5-0.2,0.9-0.3,1.2
		c-0.1,0.3-0.1,0.4-0.1,0.4l0.4,0.1l-0.4-0.1c-0.5,2-0.9,4-1,6.1c-0.2,2-0.2,3.7-0.2,3.7L371.5,113L371.5,113z"/>
	<path class="st5" d="M380.5,111.2c0,0-1.1,0.2-0.9-0.8c0.3-0.7,0.5-1.4,0.6-2.2c0,0,0-1.3,0.8-0.5c0,0,0.8-0.3,0.8-1.6
		c0,0,0-1.2,2.2-1.8c0,0,0.7-1.4,1-1.3c0,0,0.4-0.3,0.5,0.6c0.4-1.6,0.8-3.2,1.4-4.7c0.3-0.3,0.5-0.7,0.6-1.1c0,0,0.3-1.4,1.2-0.5
		c0.5,0.2,1.1,0,1.4-0.4c0,0,1.1-0.7,0.8,0.8c-0.6,1.1-1.4,2.2-2.3,3.1c-0.4,0.3-0.7,0.7-0.8,1.2c-0.1,1.2-0.6,2.4-1.3,3.4
		c0,0-1.4,1.3-1.2,2.4c0,0,1.3-0.7,1.6-0.1c0,0,0.4,0.9-1.5,1.6c-0.8,1-1.7,1.8-2.8,2.6c-0.3,0.4-0.8,0.5-1.2,0.2c0,0,0,0,0,0
		C381.3,112,380.9,111.2,380.5,111.2z"/>
	<path class="st4" d="M380.5,112.2c0.3-0.2,0.5-0.5,0.8-0.8c0.5-0.5,0.8-1.2,0.9-1.9h-0.4l0.4,0.1v-0.1c0.2-0.5,0.4-0.9,0.6-1.4
		c0.3-0.5,0.7-0.9,1.2-1.2h0.1h0.1c0.5-0.4,0.9-0.8,1.3-1.3c0.8-0.8,1.3-1.8,1.4-2.9l0,0l0,0c0-0.4,0.1-0.9,0.3-1.3
		c0.2-0.6,0.5-1.1,1.1-1.5c0,0,0.2-0.1,0.4-0.3c0.1-0.1,0.2-0.2,0.3-0.2c0.1-0.1,0.2-0.3,0.3-0.4l-0.8-0.2h0.2l-0.2-0.1l0,0h0.2
		l-0.2-0.1h0.1h-0.1l0,0h0.1h-0.1l0,0c-0.1,0.1-0.2,0.2-0.3,0.3l-0.2,0.1h-0.1c-0.8,0.5-1.3,1.2-1.5,2.1c-0.1,0.4-0.2,0.9-0.3,1.4
		h0.4H386c-0.2,0.9-0.6,1.7-1.2,2.4c-0.3,0.3-0.6,0.7-0.8,0.9l-0.3,0.2l-0.1,0.1l0.3,0.3l-0.1-0.4c-0.4,0.2-0.8,0.4-1.1,0.8
		c-0.6,0.7-1,1.6-1.3,2.4v0.1c-0.1,0.5-0.3,1-0.7,1.4c-0.1,0.2-0.3,0.3-0.5,0.5l-0.1,0.1l0,0l0,0l0.5,0.7L380.5,112.2z"/>
	<path class="st2" d="M347.1,171.6l4.2,22.9c1.4,7.9,8.3,13.6,16.2,13.5l8.6-0.1c9.1,0,16.8-6.9,17.8-15.9l2.5-20.4
		C396.4,171.6,380.1,184.1,347.1,171.6z"/>
	<path class="st2" d="M347.1,171.6l-0.4,0.1l4.2,22.9c1.5,8,8.5,13.9,16.7,13.8l8.6-0.1c9.3-0.1,17.1-7,18.2-16.2l2.6-21.4l-0.8,0.6
		l0,0c-0.4,0.3-7.4,5.3-21.2,5.4c-7.3,0-16.6-1.3-27.8-5.6l-0.7-0.3l0.1,0.8L347.1,171.6L347,172c11.3,4.3,20.6,5.7,28.1,5.6
		c14.4-0.1,21.6-5.5,21.7-5.6l-0.3-0.3l-0.4-0.1l-2.5,20.4c-1.1,8.8-8.5,15.4-17.4,15.5l-8.6,0.1c-7.8,0-14.4-5.5-15.8-13.1
		l-4.2-22.9L347.1,171.6L347,172L347.1,171.6z"/>
	<polygon class="st10" points="391.5,230.5 432,269.1 493.5,248.3 448.6,209.9 	"/>
	<polygon class="st11" points="388.8,240.1 442.4,260.7 491.8,222.2 426.6,198.4 	"/>
	<polygon class="st12" points="237.4,201.6 273.9,187.8 348,200.2 354.4,203.1 317.2,230.4 	"/>
	<polygon class="st13" points="237.5,202.5 238.9,221 316.4,252.3 353.8,219.8 353.8,203.6 316.4,230.2 	"/>
	<line class="st14" x1="236.8" y1="201.9" x2="279.8" y2="185.4"/>
	<line class="st14" x1="316.4" y1="230.2" x2="316.4" y2="252.3"/>
	<line class="st14" x1="354.5" y1="202.7" x2="344.4" y2="199.6"/>
	<line class="st15" x1="242.1" y1="201.7" x2="316.8" y2="226.4"/>
	<path class="st16" d="M319.7,223.2l1.9-1.4c0.3-0.2,0.4-0.7,0.2-1c-0.1-0.1-0.2-0.2-0.4-0.3l-8-2.4c-0.5-0.1-1-0.1-1.3,0.2
		l-2.5,1.9c-0.2,0.2-0.2,0.4-0.1,0.6c0.1,0.1,0.1,0.1,0.2,0.2l8.2,2.5C318.5,223.7,319.2,223.6,319.7,223.2z"/>
	
		<ellipse transform="matrix(6.122278e-02 -0.9981 0.9981 6.122278e-02 87.0368 489.8316)" class="st16" cx="303.9" cy="198.6" rx="14.9" ry="43.5"/>
	
		<ellipse transform="matrix(6.122278e-02 -0.9981 0.9981 6.122278e-02 88.0625 486.5707)" class="st12" cx="302.7" cy="196.5" rx="4.3" ry="12.7"/>
	
		<ellipse transform="matrix(6.122278e-02 -0.9981 0.9981 6.122278e-02 87.9421 486.4422)" class="st16" cx="302.6" cy="196.5" rx="1" ry="2.3"/>
	<polyline class="st15" points="245.1,191.7 255.7,192.1 256.7,190.4 262,190.1 	"/>
	<rect x="262" y="188.4" class="st17" width="11.3" height="3.1"/>
	<line class="st15" x1="245.6" y1="191.6" x2="245.6" y2="200.5"/>
	<path class="st2" d="M243.4,199.8l2.9-1.2c0,0,0.1,0,0.2,0l4.3,1.2c0.1,0.1,0.2,0.2,0.1,0.3c0,0.1-0.1,0.1-0.1,0.1l-3.1,1.6
		c-0.1,0-0.1,0-0.2,0l-4.2-1.6c-0.1-0.1-0.2-0.2-0.1-0.3C243.3,199.9,243.3,199.8,243.4,199.8z"/>
	<polyline class="st15" points="350.1,209.7 350.1,218.7 320.3,244.4 	"/>
	<path class="st18" d="M244,199.9l3.1-1.2l2.9,0.9l-2.8,1.4c-0.1,0.1-0.5,0-0.6-0.1L244,199.9"/>
	<polyline class="st19" points="245.8,199.6 245.6,191.6 256.1,192.1 257.2,190.2 262.2,189.9 	"/>
	<path class="st20" d="M272.5,192c0.1,0.2,0.3,0.3,0.4,0.5v3.2c-0.1,0.2-0.2,0.4-0.4,0.5c-0.1-0.2-0.3-0.3-0.4-0.5v-3.2
		C272.3,192.3,272.4,192.2,272.5,192z"/>
	<line class="st21" x1="262.8" y1="189.6" x2="266.9" y2="189.6"/>
	<rect x="262.3" y="188.7" class="st22" width="10.7" height="3.4"/>
	
		<ellipse transform="matrix(5.181320e-02 -0.9987 0.9987 5.181320e-02 142.3172 624.5576)" class="st16" cx="400.1" cy="237.3" rx="17.6" ry="42.3"/>
	
		<ellipse transform="matrix(5.181309e-02 -0.9987 0.9987 5.181309e-02 197.1235 630.6675)" class="st16" cx="430.7" cy="211.5" rx="16.1" ry="38.7"/>
	
		<ellipse transform="matrix(8.506908e-02 -0.9964 0.9964 8.506908e-02 130.4515 609.8508)" class="st12" cx="397.3" cy="233.9" rx="5.5" ry="13.9"/>
	
		<ellipse transform="matrix(5.529868e-02 -0.9985 0.9985 5.529868e-02 141.9247 617.5482)" class="st16" cx="397.3" cy="233.8" rx="1" ry="2"/>
	
		<ellipse transform="matrix(8.506908e-02 -0.9964 0.9964 8.506908e-02 184.0425 621.6105)" class="st12" cx="430.5" cy="210.6" rx="5.1" ry="12.7"/>
	
		<ellipse transform="matrix(5.529868e-02 -0.9985 0.9985 5.529868e-02 196.5218 628.6985)" class="st16" cx="430.5" cy="210.5" rx="0.9" ry="1.8"/>
	<line class="st15" x1="438.8" y1="254" x2="482.6" y2="223.4"/>
	<path class="st5" d="M339.1,251c0,0-0.3,9.6,3.6,13.1c3.1,2.7,7.5,3.4,11.3,1.9c0,0,5.8-0.9,7.1-14.1L339.1,251z"/>
	<path class="st23" d="M347.4,266c2.6-0.3,5.1-1.2,7.2-2.8c3-2.4,5.1-7.2,5.3-7.8C359.9,255.5,359,269.5,347.4,266z"/>
	<path class="st2" d="M339.1,251h-0.6c0,0,0,0.2,0,0.4c0,2,0.2,4,0.6,6c0.2,1.3,0.6,2.6,1.1,3.9c0.5,1.2,1.2,2.3,2.2,3.2l0.4-0.5
		l-0.4,0.4c0.6,0.6,1.3,1.1,2.1,1.4c1.7,0.9,3.6,1.4,5.6,1.4c1.4,0,2.9-0.3,4.2-0.8L354,266l0.1,0.6c1.4-0.4,2.6-1.2,3.4-2.3
		c1.7-2,3.5-5.7,4.2-12.4l0.1-0.6l-23.3-0.9v0.6L339.1,251l0,0.5l22,0.9v-0.6l-0.6-0.1c-0.7,6.6-2.4,10-3.9,11.7
		c-0.6,0.7-1.2,1.2-2,1.6c-0.2,0.1-0.4,0.2-0.6,0.2h-0.1l0,0l0.1,0.4l0-0.4l0,0l0.1,0.4l-0.1-0.4h-0.1h-0.1
		c-1.2,0.4-2.5,0.7-3.8,0.7c-1.7,0-3.5-0.4-5-1.3c-0.5-0.3-0.9-0.5-1.4-0.9l-0.3-0.3l-0.1-0.1l0,0l0,0l-0.1,0.1l0.1-0.1l0,0
		l-0.1,0.1l0.1-0.1l0,0c-0.8-0.8-1.4-1.7-1.9-2.8c-0.7-1.8-1.1-3.6-1.3-5.5c-0.2-1.3-0.2-2.6-0.2-3.9V251H339.1l0.1,0.6L339.1,251z"
		/>
	<path class="st5" d="M357.4,245.2c1.1-0.9,2.3-1.7,3.6-2.4c0,0,2.7-1.7,3.3,1.5c0,0-4.2,1.1-4.5,3.5"/>
	<path class="st2" d="M357.8,245.7l0.1-0.1c0.2-0.2,0.8-0.6,1.4-1.1c0.6-0.4,1.2-0.9,1.9-1.2l0,0l0,0c0.1-0.1,0.3-0.1,0.4-0.2
		c0.2-0.1,0.5-0.2,0.8-0.2c0.2,0,0.5,0.1,0.7,0.2c0.3,0.3,0.5,0.8,0.6,1.2l0.6-0.1l-0.2-0.6c-0.8,0.2-1.5,0.5-2.2,0.9
		c-0.6,0.3-1.2,0.7-1.7,1.2c-0.5,0.5-0.9,1.2-1,1.9l1.2,0.1c0.1-0.5,0.3-0.9,0.6-1.2c0.6-0.6,1.3-1,2.1-1.3c0.4-0.1,0.7-0.3,0.9-0.3
		l0.3-0.1h0.1l0,0l0.6-0.1l-0.1-0.6c-0.1-0.7-0.5-1.4-1-1.9c-0.4-0.4-0.9-0.6-1.5-0.6c-0.4,0-0.9,0.1-1.3,0.3
		c-0.2,0.1-0.4,0.2-0.6,0.3l0.3,0.5l-0.3-0.6c-0.8,0.5-1.6,1-2.4,1.5c-0.7,0.5-1.3,1-1.3,1l0.8,1L357.8,245.7z"/>
	<path class="st5" d="M361.1,251.9c-0.4,4.2-5.7,7-11.8,6.5c-6.1-0.6-10.7-4.5-10.3-8.6s5.7-7,11.8-6.4
		C356.9,243.8,361.5,247.7,361.1,251.9z"/>
	<path class="st2" d="M361.1,251.9l-0.6-0.1c-0.1,0.8-0.4,1.6-0.9,2.3c-0.9,1.2-2.1,2.1-3.4,2.6c-1.7,0.7-3.4,1-5.2,1
		c-0.5,0-1,0-1.5-0.1c-2.5-0.2-5-1.1-7-2.7c-0.8-0.6-1.5-1.4-2-2.3c-0.5-0.8-0.7-1.7-0.7-2.6c0-0.1,0-0.3,0-0.5
		c0.1-0.8,0.4-1.6,0.9-2.3c0.9-1.2,2.1-2.1,3.4-2.6c1.7-0.7,3.4-1,5.2-1c0.5,0,1,0,1.5,0.1c2.5,0.2,5,1.1,7,2.7
		c0.8,0.6,1.5,1.4,2,2.3c0.5,0.8,0.7,1.7,0.7,2.6c0,0.2,0,0.3,0,0.5L361.1,251.9l0.6,0.1c0-0.2,0-0.4,0-0.6c0-1.1-0.3-2.2-0.9-3.2
		c-1-1.6-2.3-2.8-3.9-3.7c-1.9-1-3.9-1.7-6.1-1.9c-0.6-0.1-1.1-0.1-1.7-0.1c-2.6,0-5.1,0.6-7.3,1.9c-0.9,0.6-1.7,1.3-2.4,2.2
		c-0.6,0.9-1,1.9-1.1,2.9c0,0.2,0,0.4,0,0.6c0,1.1,0.3,2.2,0.9,3.2c0.9,1.6,2.3,2.9,3.9,3.7c2.4,1.3,5,1.9,7.7,1.9
		c2.6,0,5.1-0.6,7.3-1.9c0.9-0.6,1.8-1.3,2.4-2.2c0.6-0.9,1-1.9,1.1-2.9L361.1,251.9z"/>
	<path class="st24" d="M358.4,251.1c-0.3,3-4.4,5-9.1,4.5s-8.4-3.2-8.1-6.2c0.3-3,4.4-5,9.1-4.5S358.7,248.1,358.4,251.1z"/>
	<path class="st24" d="M358.4,251.1h-0.3c-0.2,1.3-1.1,2.5-2.3,3.1c-1.6,0.9-3.4,1.3-5.2,1.2c-0.4,0-0.9,0-1.3-0.1
		c-2-0.2-3.9-0.9-5.6-2c-1.3-0.8-2.1-2.1-2.2-3.6c0-0.1,0-0.2,0-0.3c0.2-1.3,1.1-2.5,2.3-3.1c1.6-0.9,3.4-1.3,5.2-1.2
		c0.4,0,0.9,0,1.3,0.1c2,0.2,3.9,0.9,5.6,2c1.3,0.8,2.1,2.1,2.2,3.6c0,0.1,0,0.2,0,0.3L358.4,251.1l0.3,0c0-0.1,0-0.2,0-0.4
		c-0.1-1.7-1-3.2-2.5-4.1c-1.7-1.2-3.8-1.9-5.9-2.1c-0.5,0-0.9-0.1-1.4-0.1c-1.9,0-3.8,0.4-5.5,1.3c-1.4,0.7-2.3,2-2.6,3.5
		c0,0.1,0,0.2,0,0.4c0.1,1.7,1,3.2,2.5,4.1c1.8,1.2,3.8,1.9,5.9,2.1c0.5,0,0.9,0.1,1.4,0.1c1.9,0,3.8-0.4,5.5-1.3
		c1.4-0.7,2.3-2,2.6-3.5L358.4,251.1z"/>
	<path class="st25" d="M342.4,253c0,0,4-6.7,14.6-5.6c0,0-3.8-4.4-11.7-2.3C345.3,245.1,337.6,247.4,342.4,253z"/>
	<path class="st2" d="M365,244.7c0,0-3,9.6-5.4,11c0,0,0.9-3.1,1.6-6c0.5-1.8,1.2-4,0.7-4.2L365,244.7z"/>
	<path class="st26" d="M346.3,247.6c0.5-0.4,0.9-0.9,1.3-1.5c0.3-0.4,0.4-0.8,0.5-1.3c0-0.4-0.1-0.8-0.3-1.1c-0.2-0.4-0.5-0.7-0.8-1
		c-0.1-0.1-0.2-0.2-0.3-0.3l-0.5-0.4c-0.3-0.3-0.6-0.6-0.8-0.9c-0.5-0.7-0.8-1.6-0.9-2.5c0-0.9,0.3-1.8,0.9-2.4
		c0.5-0.5,1.2-0.9,1.9-1.1c-0.3,0.6-0.5,1.2-0.6,1.9c-0.1,0.5-0.1,0.9,0.1,1.4c0.2,0.4,0.4,0.7,0.8,1c0.2,0.2,0.4,0.4,0.6,0.5
		l0.3,0.2c0.1,0.1,0.3,0.2,0.5,0.4c1.5,1.2,2,3.2,1.4,5c-0.4,0.8-1,1.5-1.8,1.8C347.8,247.6,347,247.7,346.3,247.6z"/>
	<path class="st26" d="M351.8,246.9c0.7-0.6,1.3-1.3,1.6-2.2c0.3-0.7,0.3-1.5,0.1-2.3c-0.2-0.8-0.4-1.6-0.8-2.3
		c-0.3-0.8-0.8-1.5-1.2-2.2l-0.4-0.6c-0.2-0.2-0.3-0.5-0.5-0.7c-0.3-0.5-0.5-1.1-0.6-1.7c-0.3-1.2-0.2-2.4,0.2-3.5
		c0.8-2,2.5-3.5,4.6-4.2c-1.1,1.4-1.9,3.1-2.3,4.8c-0.1,0.7,0,1.5,0.2,2.2c0.1,0.3,0.3,0.7,0.5,1c0.1,0.2,0.2,0.3,0.3,0.5l0.4,0.6
		c0.6,0.9,1.1,1.8,1.4,2.9c0.4,1,0.5,2.2,0.5,3.3c0,1.2-0.5,2.3-1.2,3.2C353.9,246.4,352.9,246.9,351.8,246.9z"/>
	<polygon class="st13" points="114.1,236 135.5,219.6 157.9,244.4 135.1,259.9 	"/>
	<polygon class="st0" points="109.3,237 128,217.1 154.4,238.2 134.1,257.3 	"/>
	<path class="st15" d="M196.7,375.7c0,0-44.2,13.4-52,0.9"/>
	<path class="st15" d="M167.1,381.6c0,0-11.6,6.9-17.9,7.4c0,0-11.8,1.4-14.1,6.9"/>
	<path class="st15" d="M158.1,381.6c0,0-7-4.8-5.7-8.4"/>
	<path class="st15" d="M149.7,389.1c0,0-11.1,6.4-5.6,11.3"/>
	<path class="st15" d="M182.8,379.2c0,0-12.5,11.5-18.7,12.9c0,0-8.9,1.6-11.3,4"/>
	<path class="st15" d="M161.3,382c0,0-23.4,4.6-31.8,3.8"/>
	<path class="st15" d="M178.8,379.9c-4.7-0.5-9.2-2.1-13.1-4.7c-6.4-4.3-9.4-2-10.1-7.5"/>
	<path class="st15" d="M196.5,379.8c0,0-23.8,20.6-33,22.8c0,0-17.8,6.2-26.3,4.7"/>
	<path class="st15" d="M180,393.1c0,0-13.4,0.6-22.1-1.7s-22.6,8.2-22.6,8.2"/>
	<path class="st15" d="M164.4,402.5c0,0-7.6,12.9-19.3,14.8"/>
	<path class="st15" d="M189.7,385.5c-2.8,3.4-5.4,7-7.8,10.7c-1,1.4-1.7,3-2,4.7c0,1.2-0.2,2.4-0.7,3.6c-1.6,2.9-4.3,5.1-7.4,6.2"/>
	<path class="st15" d="M181.3,397.1c-2.8,2.9-6.1,5.3-9.8,7c-3.8,1.7-7.2,4.2-10,7.3"/>
	<path class="st27" d="M152.3,377c0,0-2.3-7.1-0.9-8.2c0,0,5.1-3.5,4.1,1.7c0,0-0.2,0.8-0.4,1.7c-0.4,1.2-1.1,2.3-2.2,3.1
		C152.3,375.6,152,376.3,152.3,377z"/>
	<path class="st28" d="M156.1,370.3c0,0-3-3.9-2.5-4.9c0,0,2.3-3.4,2.9,0.1c0,0,0.1,0.5,0.1,1.2c0,0.8-0.2,1.7-0.6,2.4
		C155.8,369.5,155.8,370,156.1,370.3z"/>
	<path class="st27" d="M147.7,417.3c0,0-8,1.9-9.2,0.6c0,0-3.8-4.9,2-3.7c0,0,0.9,0.2,1.9,0.4c1.3,0.4,2.5,1.1,3.5,2.1
		C146.3,417.3,147.1,417.5,147.7,417.3z"/>
	<path class="st27" d="M164,409.5c0,0-5,6.5-6.8,6c0,0-6.3-2.1-0.9-4.6c0,0,0.8-0.4,1.8-0.7c1.3-0.5,2.7-0.5,4.1-0.1
		C162.9,410.3,163.6,410.1,164,409.5z"/>
	<path class="st29" d="M174.9,410c0,0-6.5,3.6-7.9,2.4c0,0-4.4-4.4,0.9-4.3c0,0,0.8,0,1.8,0.1c1.3,0.2,2.5,0.7,3.4,1.6
		C173.5,410.2,174.3,410.3,174.9,410z"/>
	<path class="st29" d="M148.8,416.6c0,0-6.8-0.5-7.5,1c0,0-2,5.4,2.4,3.3c0,0,0.7-0.3,1.5-0.8c1-0.6,1.8-1.5,2.3-2.6
		C147.6,416.9,148.2,416.5,148.8,416.6z"/>
	<path class="st27" d="M169.5,377.1c0,0-3.4-0.6-3.8,0.1c0,0-1.3,2.5,1,1.8c0.3-0.1,0.5-0.2,0.8-0.3c0.5-0.3,1-0.7,1.3-1.2
		C168.9,377.2,169.2,377,169.5,377.1z"/>
	<path class="st27" d="M137.7,392.3c0,0-2.8,4.1-2.1,5.1c0,0,2.5,3.2,2.9-0.3c0,0,0-0.5,0-1.2c0-0.8-0.3-1.7-0.8-2.4
		C137.5,393.2,137.4,392.6,137.7,392.3z"/>
	<path class="st29" d="M149.3,389.5c0,0-4.1-0.5-4.4-1.5c0,0-0.6-3.4,1.8-1.7c0,0,0.4,0.3,0.8,0.6c0.5,0.5,0.9,1.1,1.1,1.8
		C148.7,389.2,148.9,389.5,149.3,389.5z"/>
	<path class="st27" d="M140.6,408.1c0,0-7-0.2-7.6-1.7c0,0-1.5-5.6,2.8-3.1c0,0,0.7,0.4,1.4,0.9c1,0.7,1.7,1.7,2.1,2.9
		C139.5,407.6,139.8,408.2,140.6,408.1z"/>
	<path class="st29" d="M193.1,392.9c0,0-3.8,1.7-3.7,2.7c0,0,0.5,3.4,2.2,1c0,0,0.3-0.4,0.6-0.8c0.4-0.6,0.5-1.3,0.5-2
		C192.5,393.4,192.7,393.1,193.1,392.9z"/>
	<path class="st27" d="M146,378.7c0,0-1.7-6.2-0.6-7.2c0,0,4-3.1,3.2,1.5c0,0-0.1,0.7-0.3,1.5c-0.3,1-0.9,2-1.7,2.7
		C146,377.5,145.8,378.1,146,378.7z"/>
	<path class="st29" d="M133.4,385.8c0,0-2.5,3.7-3.6,3.5c0,0-3.6-1-0.7-2.5c0.3-0.2,0.7-0.3,1-0.5c0.7-0.3,1.5-0.4,2.3-0.2
		C132.8,386.3,133.2,386.2,133.4,385.8z"/>
	<path class="st29" d="M142.6,397.1c0,0,0,3.7-0.9,4c0,0-3.2,0.7-1.8-1.6c0.2-0.3,0.3-0.5,0.5-0.7c0.4-0.5,1-0.9,1.6-1
		C142.3,397.7,142.6,397.5,142.6,397.1z"/>
	<path class="st27" d="M142.3,397.4c0,0,0,5.2,1.2,5.7c0,0,4.2,1.3,2.4-2c0,0-0.3-0.5-0.6-1.1c-0.5-0.7-1.3-1.3-2.1-1.6
		C142.6,398.2,142.2,397.9,142.3,397.4z"/>
	<path class="st27" d="M138.3,392.6c0,0-7.4,0.4-8,2.2c0,0-1.4,6.1,3.1,3.2c0,0,0.7-0.4,1.5-1c1-0.8,1.7-1.9,2.1-3.1
		C137.2,393.2,137.6,392.5,138.3,392.6z"/>
	<path class="st29" d="M146.5,379.3c0,0-4.4-2.2-4.3-3.3c0,0,0.7-4,2.7-1.1c0.2,0.3,0.4,0.7,0.6,1c0.4,0.7,0.6,1.6,0.5,2.4
		C145.9,378.6,146.1,379.1,146.5,379.3z"/>
	<path class="st27" d="M176.5,408.3c0,0-2.7,6.1-4.2,6.2c0,0-5.2-0.1-1.5-3.3c0,0,0.6-0.5,1.3-1c0.9-0.7,2-1.1,3.1-1.1
		C175.8,409.1,176.3,408.8,176.5,408.3z"/>
	<path class="st29" d="M153.1,377.6c0,0-3.7-4.3-3-5.5c0,0,2.5-3.9,3.3,0c0,0,0.1,0.6,0.2,1.3c0.1,1-0.1,1.9-0.6,2.8
		C152.7,376.7,152.8,377.3,153.1,377.6z"/>
	<path class="st27" d="M164.6,401.9c0,0-5.8,2.1-6.8,1c0,0-3.1-4.1,1.3-3.4c0,0,0.7,0.1,1.4,0.3c1,0.3,2,0.9,2.6,1.7
		C163.5,401.9,164.1,402.1,164.6,401.9z"/>
	<path class="st27" d="M134.7,386.3c0,0-6.8,0.7-7.6-0.8c0,0-2.2-5.3,2.4-3.3c0,0,0.7,0.3,1.5,0.7c1,0.6,1.9,1.5,2.4,2.5
		C133.6,386,134,386.5,134.7,386.3z"/>
	<path class="st29" d="M137.1,394c0,0-6.4,4.3-5.9,6.1c0,0,1.9,6.1,4.4,1.2c0,0,0.4-0.8,0.8-1.7c0.4-1.2,0.5-2.6,0.2-3.8
		C136.2,395.1,136.5,394.3,137.1,394z"/>
	<path class="st27" d="M148.6,389c0,0-5.6,2.2-6.6,1.1c0,0-3.1-4,1.2-3.4c0.5,0.1,1,0.1,1.4,0.3c1,0.3,1.9,0.8,2.5,1.6
		C147.4,389.1,148.1,389.3,148.6,389z"/>
	<path class="st27" d="M188.1,405.2c0,0,8,0.6,9.2,2.9c0,0,1.8,2.7,2.3,3.8c0.3,0.7-0.8,0.9-3.4-0.2c-1,0-2.1-0.2-3-0.6
		c-1.6-0.9-2.9-2.3-3.7-3.9C189.1,406.3,189.2,404.9,188.1,405.2z"/>
	<path class="st29" d="M163.1,409.6c0,0-6.3,1.6-7.3,0.5c0,0-3-4.1,1.6-3.1c0,0,0.7,0.1,1.5,0.4c1,0.3,2,0.9,2.7,1.8
		C162,409.6,162.6,409.8,163.1,409.6z"/>
	<path class="st28" d="M163.7,409.2c0,0-2.3,4.3-3.5,4.2c0,0-4-0.8-1.1-2.7c0,0,0.4-0.3,1-0.6c0.8-0.4,1.6-0.5,2.4-0.4
		C163.1,409.8,163.5,409.6,163.7,409.2z"/>
	<path class="st29" d="M153.8,394.8c0,0-2.3,3.4-1.7,4.2c0,0,2.2,2.6,2.4-0.3c0,0,0-0.4,0-1c0-0.7-0.2-1.4-0.7-2
		C153.6,395.5,153.6,395.1,153.8,394.8z"/>
	<path class="st27" d="M154.3,395.1c0,0-6.2,0.4-6.6,1.8c0,0-1.2,5.1,2.5,2.6c0,0,0.6-0.4,1.3-0.9c0.8-0.7,1.4-1.6,1.7-2.6
		C153.3,395.5,153.7,395.1,154.3,395.1z"/>
	<path class="st30" d="M153.2,396.2c0,0-5.2,3.6-4.9,5.1c0,0,1.6,5.1,3.6,1c0,0,0.3-0.6,0.6-1.4c0.4-1,0.4-2.1,0.2-3.2
		C152.5,397.1,152.7,396.5,153.2,396.2z"/>
	<path class="st27" d="M158,381.3c0,0-3.1,1.9-3,2.7c0,0,0.8,2.9,2,0.7c0,0,0.2-0.3,0.4-0.8c0.3-0.6,0.3-1.2,0.2-1.8
		C157.6,381.8,157.7,381.4,158,381.3z"/>
	<path class="st27" d="M158.3,381.6c0,0-5.1-2-6-1c0,0-2.8,3.6,1.1,3.1c0,0,0.6-0.1,1.3-0.2c0.9-0.2,1.7-0.7,2.4-1.5
		C157.3,381.6,157.9,381.4,158.3,381.6z"/>
	<path class="st29" d="M157,382.2c0,0-5.6,0.9-5.9,2.3c0,0-0.6,4.7,2.5,2.2c0,0,0.5-0.4,1-0.9c0.7-0.7,1.1-1.6,1.3-2.5
		C156.2,382.7,156.5,382.2,157,382.2z"/>
	<path class="st29" d="M163.7,410c0,0-1,4-2,4.2c0,0-3.5,0.2-1.4-2c0,0,0.3-0.3,0.7-0.7c0.5-0.5,1.2-0.8,1.9-0.8
		C163.3,410.6,163.7,410.4,163.7,410z"/>
	<path class="st27" d="M163.7,408.6c0,0,1.5,3.4,1,4.1c0,0-2,2.1-1.9-0.6c0,0,0-0.4,0.1-0.9c0.1-0.6,0.3-1.2,0.7-1.7
		C163.8,409.3,163.9,408.9,163.7,408.6z"/>
	<path class="st27" d="M161.4,392c0,0-5.4-1.4-5.7-2.6c0,0-0.7-4.1,2.4-1.6c0,0,0.5,0.4,1,0.9c0.7,0.6,1.1,1.4,1.4,2.3
		C160.5,391.5,160.9,391.8,161.4,392z"/>
	<path class="st29" d="M162.2,391.9c0,0-3.9-2.5-4.8-1.8c0,0-2.9,2.5,0.4,2.7c0,0,0.5,0,1.1,0c0.8,0,1.6-0.3,2.2-0.8
		C161.4,391.6,161.9,391.6,162.2,391.9z"/>
	<path class="st29" d="M141.5,407.8c0,0-3.3,1.8-4,1.2c0,0-2.2-2.5,0.5-2.3c0,0,0.4,0,0.9,0.1c0.7,0.1,1.3,0.4,1.7,0.9
		C140.8,407.8,141.2,408,141.5,407.8z"/>
	<path class="st27" d="M141.1,407.7c0,0-4.5,2.5-4.4,3.8c0,0,1,4.2,2.9,1c0,0,0.3-0.5,0.6-1.1c0.4-0.8,0.5-1.7,0.3-2.6
		C140.5,408.4,140.7,407.9,141.1,407.7z"/>
	<path class="st29" d="M169.4,377.1c0,0-3.3-1.8-4-1.2c0,0-2.2,2.2,0.5,2.2c0,0,0.4,0,0.9,0c0.6-0.1,1.3-0.4,1.7-0.8
		C168.7,377,169.1,376.9,169.4,377.1z"/>
	<path class="st31" d="M197.3,419.7l3.6,1.3c1,0.6,1.7,1.4,2.3,2.4c0,0,0.7,2.4,1.3,2.8c0,0,0,0.6-1.6,0.1c-1-0.6-1.9-1.4-2.7-2.2
		c-0.4-0.7-1.4-2.9-2.5-2.9c0,0-2.1-2.1-1.9-2.5L197.3,419.7z"/>
	<path class="st27" d="M201.4,407.5c0,0,3.3,0,3.7,1.4c0,0,0.6,1.7,0.8,2.3c0.1,0.4-0.4,0.7-1.4,0.1c-0.4,0.1-0.9,0-1.3-0.2
		c-0.7-0.6-1.1-1.5-1.3-2.4C201.8,408.2,201.8,407.3,201.4,407.5z"/>
	<path class="st29" d="M164.1,402.1c0,0-3.4,1.6-4.1,0.9c0,0-2.1-2.4,0.6-2.2c0,0,0.4,0,0.9,0.1c0.6,0.1,1.2,0.4,1.7,0.9
		C163.4,402.2,163.8,402.2,164.1,402.1z"/>
	<path class="st31" d="M136.2,395.5l-0.7,1.8c0,0-1.4,1.4-1.3-1c0,0,0.8-1.2,1.6-1.4c0,0,0.2-0.1,0.5-0.1L136.2,395.5z"/>
	<path class="st31" d="M153.2,396.2l-0.7,1.8c0,0-1.4,1.4-1.3-1c0,0,0.8-1.2,1.6-1.4c0,0,0.2-0.1,0.5-0.1L153.2,396.2z"/>
	<path class="st31" d="M162.9,410.6l-0.7,1.8c0,0-1.4,1.4-1.3-1c0,0,0.8-1.2,1.6-1.4c0,0,0.2-0.1,0.5-0.1L162.9,410.6z"/>
	<path class="st31" d="M146.9,416.9l-1.8,0.6c0,0-1.4,1.4,1,1.3c0,0,1.2-0.8,1.5-1.6c0,0,0.1-0.2,0.1-0.5L146.9,416.9z"/>
	<path class="st31" d="M161,409.4l-1.4-0.5c0,0-1.5,0.1-0.1,1.2c0,0,1.1,0.1,1.7-0.2c0,0,0.2-0.1,0.3-0.2L161,409.4z"/>
	<path class="st31" d="M175.2,409.2l-1.8,0.6c0,0-1.4,1.4,1,1.3c0,0,1.2-0.8,1.5-1.6c0,0,0.1-0.2,0.1-0.5L175.2,409.2z"/>
	<path class="st31" d="M160.6,391.1l-1.3-1.4c0,0-1.8-0.8-0.8,1.4c0,0,1.2,0.8,2,0.8c0,0,0.2,0,0.5-0.1L160.6,391.1z"/>
	<path class="st31" d="M147.3,388.8l-1.7-0.9c0,0-2-0.1-0.3,1.6c0,0,1.4,0.4,2.2,0.1c0,0,0.2-0.1,0.5-0.3L147.3,388.8z"/>
	<path class="st31" d="M152.3,374.8l0.6-1.8c0,0-0.3-2-1.6,0c0,0-0.1,1.4,0.4,2.2c0,0,0.1,0.2,0.3,0.4L152.3,374.8z"/>
	<path class="st31" d="M145.6,378l-0.5-1.5c0,0-1.2-1.2-1.1,0.8c0,0,0.6,1,1.3,1.2c0,0,0.2,0.1,0.4,0.1L145.6,378z"/>
	<path class="st31" d="M146.5,376.1l0.8-1.7c0,0,0-2-1.6-0.2c0,0-0.3,1.4,0.1,2.2c0,0,0.1,0.2,0.3,0.5L146.5,376.1z"/>
	<path class="st31" d="M133,385.6l-1.3-1.4c0,0-1.8-0.8-0.8,1.4c0,0,1.2,0.8,2,0.8c0,0,0.2,0,0.5-0.1L133,385.6z"/>
	<path class="st31" d="M140.3,407.6l-1.1-0.5c0,0-1.3,0-0.1,1c0,0,0.9,0.2,1.4-0.1c0,0,0.1-0.1,0.3-0.2L140.3,407.6z"/>
	<path class="st31" d="M140.4,408.3l-1.4,1.3c0,0-0.7,1.8,1.4,0.8c0,0,0.8-1.2,0.7-2.1c0,0,0-0.2-0.1-0.5L140.4,408.3z"/>
	<path class="st13" d="M86.1,248.4c0,0-5.2,2.7-4.5,6.9l29.7,21.9c0,0,8.8-20.4,20.1-17.3l1.6-2.1l-22.8-20L86.1,248.4z"/>
	<path class="st0" d="M108.5,237.5c0,0-17.7-5.4-26.2,5.8l28.2,26.2c0,0,5.4-14.9,22.8-11.7L108.5,237.5z"/>
	
		<rect x="123.3" y="242.6" transform="matrix(0.9255 0.3787 -0.3787 0.9255 102.4757 -33.1166)" class="st32" width="24.2" height="2.8"/>
	<polygon class="st33" points="124.3,238 123.3,240.4 120,237.6 	"/>
	
		<rect x="123.4" y="243.2" transform="matrix(0.9255 0.3787 -0.3787 0.9255 102.358 -33.2028)" class="st34" width="24.3" height="0.8"/>
	<path class="st15" d="M238.7,209.2c0,0-44.2,13.4-52,0.9"/>
	<path class="st15" d="M209.1,215.2c0,0-11.6,6.9-17.9,7.4c0,0-11.8,1.4-14.1,6.9"/>
	<path class="st15" d="M200.1,215.2c0,0-7-4.8-5.7-8.4"/>
	<path class="st15" d="M191.7,222.6c0,0-11.1,6.4-5.6,11.3"/>
	<path class="st15" d="M224.8,212.8c0,0-12.5,11.5-18.7,12.9c0,0-8.9,1.6-11.3,4"/>
	<path class="st15" d="M203.3,215.5c0,0-23.4,4.6-31.8,3.8"/>
	<path class="st15" d="M220.8,213.5c-4.7-0.5-9.2-2.1-13.1-4.7c-6.4-4.3-9.4-2-10.1-7.5"/>
	<path class="st15" d="M238.5,213.4c0,0-23.8,20.6-33,22.8c0,0-17.8,6.2-26.3,4.7"/>
	<path class="st15" d="M222,226.6c0,0-13.4,0.6-22.1-1.7c-8.7-2.3-22.6,8.2-22.6,8.2"/>
	<path class="st15" d="M206.4,236c0,0-7.6,12.9-19.3,14.8"/>
	<path class="st15" d="M231.7,219c-2.8,3.4-5.4,7-7.8,10.7c-1,1.4-1.7,3-2,4.7c0,1.2-0.2,2.4-0.7,3.6c-1.6,2.9-4.3,5.1-7.4,6.2"/>
	<path class="st15" d="M223.3,230.7c-2.8,2.9-6.1,5.3-9.8,7c-3.8,1.7-7.2,4.2-10,7.3"/>
	<path class="st27" d="M194.3,210.5c0,0-2.3-7.1-0.9-8.2c0,0,5.1-3.5,4.1,1.7c0,0-0.2,0.8-0.4,1.7c-0.4,1.2-1.1,2.3-2.2,3.1
		C194.3,209.2,194,209.9,194.3,210.5z"/>
	<path class="st28" d="M198.1,203.9c0,0-3-3.9-2.5-4.9c0,0,2.3-3.4,2.9,0.1c0,0,0.1,0.5,0.1,1.2c0,0.8-0.2,1.7-0.6,2.4
		C197.8,203.1,197.8,203.6,198.1,203.9z"/>
	<path class="st27" d="M189.7,250.9c0,0-8,1.9-9.2,0.6c0,0-3.8-4.9,2-3.7c0,0,0.9,0.2,1.9,0.4c1.3,0.4,2.5,1.1,3.5,2.1
		C188.3,250.8,189.1,251.1,189.7,250.9z"/>
	<path class="st27" d="M206.1,243.1c0,0-5,6.5-6.8,6c0,0-6.3-2.1-0.9-4.6c0,0,0.8-0.4,1.8-0.7c1.3-0.5,2.7-0.5,4.1-0.1
		C204.9,243.9,205.6,243.7,206.1,243.1z"/>
	<path class="st31" d="M305.2,265.9c0,0,6.1-4.9,7.7-4.6c0,0,5.1,1.5-0.3,3.4c0,0-0.8,0.3-1.8,0.6c-1.2,0.4-2.5,0.4-3.7,0.2
		C306.4,265.3,305.7,265.4,305.2,265.9z"/>
	<path class="st29" d="M216.9,243.5c0,0-6.5,3.6-7.9,2.4c0,0-4.4-4.4,0.9-4.3c0,0,0.8,0,1.8,0.1c1.3,0.2,2.5,0.7,3.4,1.6
		C215.5,243.7,216.3,243.9,216.9,243.5z"/>
	<path class="st29" d="M190.8,250.1c0,0-6.8-0.5-7.5,1c0,0-2,5.4,2.4,3.3c0,0,0.7-0.3,1.5-0.8c1-0.6,1.8-1.5,2.3-2.6
		C189.6,250.5,190.2,250.1,190.8,250.1z"/>
	<path class="st27" d="M211.5,210.6c0,0-3.4-0.6-3.8,0.1c0,0-1.3,2.5,1,1.8c0.3-0.1,0.5-0.2,0.8-0.3c0.5-0.3,1-0.7,1.3-1.2
		C210.9,210.7,211.2,210.6,211.5,210.6z"/>
	<path class="st27" d="M179.8,225.8c0,0-2.8,4.1-2.1,5.1c0,0,2.5,3.2,2.9-0.3c0,0,0-0.5,0-1.2c0-0.8-0.3-1.7-0.8-2.4
		C179.5,226.7,179.4,226.2,179.8,225.8z"/>
	<path class="st29" d="M191.3,223.1c0,0-4.1-0.5-4.4-1.5c0,0-0.6-3.4,1.8-1.7c0,0,0.4,0.3,0.8,0.6c0.5,0.5,0.9,1.1,1.1,1.8
		C190.7,222.7,190.9,223.1,191.3,223.1z"/>
	<path class="st27" d="M419.2,271.8c0,0,10.2-0.3,11.3,2c0,0,2.7,8.2-3.9,4.7c0,0-1-0.5-2.1-1.2c-1.5-1-2.6-2.4-3.3-4.1
		C420.8,272.4,420.2,271.6,419.2,271.8z"/>
	<path class="st27" d="M182.6,241.6c0,0-7-0.2-7.6-1.7c0,0-1.5-5.6,2.8-3.1c0,0,0.7,0.4,1.4,0.9c1,0.7,1.7,1.7,2.1,2.9
		C181.5,241.2,181.9,241.7,182.6,241.6z"/>
	<path class="st29" d="M235.1,226.5c0,0-3.8,1.7-3.7,2.7c0,0,0.5,3.4,2.2,1c0,0,0.3-0.4,0.6-0.8c0.4-0.6,0.5-1.3,0.5-2
		C234.5,227,234.7,226.6,235.1,226.5z"/>
	<path class="st27" d="M188,212.2c0,0-1.7-6.2-0.6-7.2c0,0,4-3.1,3.2,1.5c0,0-0.1,0.7-0.3,1.5c-0.3,1-0.9,2-1.7,2.7
		C188,211.1,187.8,211.7,188,212.2z"/>
	<path class="st29" d="M175.4,219.4c0,0-2.5,3.7-3.6,3.5c0,0-3.6-1-0.7-2.5c0.3-0.2,0.7-0.3,1-0.5c0.7-0.3,1.5-0.4,2.3-0.2
		C174.8,219.9,175.2,219.7,175.4,219.4z"/>
	<path class="st29" d="M184.6,230.7c0,0,0,3.7-0.9,4c0,0-3.2,0.7-1.8-1.6c0.2-0.3,0.3-0.5,0.5-0.7c0.4-0.5,1-0.9,1.6-1
		C184.3,231.3,184.6,231.1,184.6,230.7z"/>
	<path class="st29" d="M462,255.9c0,0-2-5.6-3.4-5.6c0,0-4.9,0.2-1.8,3c0,0,0.5,0.4,1.1,0.9c0.8,0.6,1.8,0.9,2.8,0.9
		C461.3,255,461.8,255.3,462,255.9z"/>
	<path class="st27" d="M184.3,230.9c0,0,0,5.2,1.2,5.7c0,0,4.2,1.3,2.4-2c0,0-0.3-0.5-0.6-1.1c-0.5-0.7-1.3-1.3-2.1-1.6
		C184.6,231.8,184.2,231.5,184.3,230.9z"/>
	<path class="st27" d="M180.4,226.2c0,0-7.4,0.4-8,2.2c0,0-1.4,6.1,3.1,3.2c0,0,0.7-0.4,1.5-1c1-0.8,1.7-1.9,2.1-3.1
		C179.2,226.7,179.6,226.1,180.4,226.2z"/>
	<path class="st29" d="M188.5,212.8c0,0-4.4-2.2-4.3-3.3c0,0,0.7-4,2.7-1.1c0.2,0.3,0.4,0.7,0.6,1c0.4,0.7,0.6,1.6,0.5,2.4
		C187.9,212.2,188.1,212.6,188.5,212.8z"/>
	<path class="st27" d="M218.5,241.8c0,0-2.7,6.1-4.2,6.2c0,0-5.2-0.1-1.5-3.3c0,0,0.6-0.5,1.3-1c0.9-0.7,2-1.1,3.1-1.1
		C217.8,242.7,218.3,242.3,218.5,241.8z"/>
	<path class="st29" d="M195.1,211.2c0,0-3.7-4.3-3-5.5c0,0,2.5-3.9,3.3,0c0,0,0.1,0.6,0.2,1.3c0.1,1-0.1,1.9-0.6,2.8
		C194.7,210.3,194.8,210.8,195.1,211.2z"/>
	<path class="st27" d="M206.6,235.4c0,0-5.8,2.1-6.8,1c0,0-3.1-4.1,1.3-3.4c0,0,0.7,0.1,1.4,0.3c1,0.3,2,0.9,2.6,1.7
		C205.5,235.5,206.1,235.7,206.6,235.4z"/>
	<path class="st27" d="M176.7,219.9c0,0-6.8,0.7-7.6-0.8c0,0-2.2-5.3,2.4-3.3c0,0,0.7,0.3,1.5,0.7c1,0.6,1.9,1.5,2.4,2.5
		C175.6,219.5,176,220,176.7,219.9z"/>
	<path class="st29" d="M179.1,227.5c0,0-6.4,4.3-5.9,6.1c0,0,1.9,6.1,4.4,1.2c0,0,0.4-0.8,0.8-1.7c0.4-1.2,0.5-2.6,0.2-3.8
		C178.2,228.6,178.5,227.9,179.1,227.5z"/>
	<path class="st27" d="M190.6,222.6c0,0-5.6,2.2-6.6,1.1c0,0-3.1-4,1.2-3.4c0.5,0.1,1,0.1,1.4,0.3c1,0.3,1.9,0.8,2.5,1.6
		C189.4,222.7,190.1,222.9,190.6,222.6z"/>
	<path class="st27" d="M230.1,238.7c0,0,8,0.6,9.2,2.9c0,0,1.8,2.7,2.3,3.8c0.3,0.7-0.8,0.9-3.4-0.2c-1,0-2.1-0.2-3-0.6
		c-1.6-0.9-2.9-2.3-3.7-3.9C231.1,239.8,231.2,238.5,230.1,238.7z"/>
	<path class="st29" d="M205.1,243.2c0,0-6.3,1.6-7.3,0.5c0,0-3-4.1,1.6-3.1c0,0,0.7,0.1,1.5,0.4c1,0.3,2,0.9,2.7,1.8
		C204,243.2,204.6,243.4,205.1,243.2z"/>
	<path class="st28" d="M205.7,242.7c0,0-2.3,4.3-3.5,4.2c0,0-4-0.8-1.1-2.7c0,0,0.4-0.3,1-0.6c0.8-0.4,1.6-0.5,2.4-0.4
		C205.1,243.3,205.5,243.1,205.7,242.7z"/>
	<path class="st29" d="M195.8,228.4c0,0-2.3,3.4-1.7,4.2c0,0,2.2,2.6,2.4-0.3c0,0,0-0.4,0-1c0-0.7-0.2-1.4-0.7-2
		C195.6,229.1,195.6,228.6,195.8,228.4z"/>
	<path class="st27" d="M196.3,228.6c0,0-6.2,0.4-6.6,1.8c0,0-1.2,5.1,2.5,2.6c0,0,0.6-0.4,1.3-0.9c0.8-0.7,1.4-1.6,1.7-2.6
		C195.3,229.1,195.7,228.6,196.3,228.6z"/>
	<path class="st30" d="M195.2,229.7c0,0-5.2,3.6-4.9,5.1c0,0,1.6,5.1,3.6,1c0,0,0.3-0.6,0.6-1.4c0.4-1,0.4-2.1,0.2-3.2
		C194.6,230.7,194.8,230.1,195.2,229.7z"/>
	<path class="st27" d="M200,214.8c0,0-3.1,1.9-3,2.7c0,0,0.8,2.9,2,0.7c0,0,0.2-0.3,0.4-0.8c0.3-0.6,0.3-1.2,0.2-1.8
		C199.6,215.3,199.7,215,200,214.8z"/>
	<path class="st27" d="M200.3,215.2c0,0-5.1-2-6-1c0,0-2.8,3.6,1.1,3.1c0,0,0.6-0.1,1.3-0.2c0.9-0.2,1.7-0.7,2.4-1.5
		C199.3,215.1,199.9,215,200.3,215.2z"/>
	<path class="st29" d="M199.1,215.7c0,0-5.6,0.9-5.9,2.3c0,0-0.6,4.7,2.5,2.2c0,0,0.5-0.4,1-0.9c0.7-0.7,1.1-1.6,1.3-2.5
		C198.2,216.2,198.5,215.7,199.1,215.7z"/>
	<path class="st29" d="M205.7,243.5c0,0-1,4-2,4.2c0,0-3.5,0.2-1.4-2c0,0,0.3-0.3,0.7-0.7c0.5-0.5,1.2-0.8,1.9-0.8
		C205.3,244.1,205.7,243.9,205.7,243.5z"/>
	<path class="st27" d="M205.7,242.2c0,0,1.5,3.4,1,4.1c0,0-2,2.1-1.9-0.6c0,0,0-0.4,0.1-0.9c0.1-0.6,0.3-1.2,0.7-1.7
		C205.8,242.8,205.9,242.5,205.7,242.2z"/>
	<path class="st27" d="M203.4,225.5c0,0-5.4-1.4-5.7-2.6c0,0-0.7-4.1,2.4-1.6c0,0,0.5,0.4,1,0.9c0.7,0.6,1.1,1.4,1.4,2.3
		C202.6,225,202.9,225.4,203.4,225.5z"/>
	<path class="st29" d="M204.2,225.4c0,0-3.9-2.5-4.8-1.8c0,0-2.9,2.5,0.4,2.7c0,0,0.5,0,1.1,0c0.8,0,1.6-0.3,2.2-0.8
		C203.4,225.2,203.9,225.2,204.2,225.4z"/>
	<path class="st29" d="M183.5,241.4c0,0-3.3,1.8-4,1.2c0,0-2.2-2.5,0.5-2.3c0,0,0.4,0,0.9,0.1c0.7,0.1,1.3,0.4,1.7,0.9
		C182.8,241.4,183.2,241.6,183.5,241.4z"/>
	<path class="st27" d="M183.1,241.2c0,0-4.5,2.5-4.4,3.8c0,0,1,4.2,2.9,1c0,0,0.3-0.5,0.6-1.1c0.4-0.8,0.5-1.7,0.3-2.6
		C182.5,241.9,182.7,241.4,183.1,241.2z"/>
	<path class="st29" d="M211.4,210.6c0,0-3.3-1.8-4-1.2c0,0-2.2,2.2,0.5,2.2c0,0,0.4,0,0.9,0c0.6-0.1,1.3-0.4,1.7-0.8
		C210.7,210.5,211.1,210.5,211.4,210.6z"/>
	<path class="st31" d="M239.3,253.3l3.6,1.3c1,0.6,1.7,1.4,2.3,2.4c0,0,0.7,2.4,1.3,2.8c0,0,0,0.6-1.6,0.1c-1-0.6-1.9-1.4-2.7-2.2
		c-0.4-0.7-1.4-2.9-2.5-2.9c0,0-2.1-2.1-1.9-2.5L239.3,253.3z"/>
	<path class="st27" d="M243.4,241c0,0,3.3,0,3.7,1.4c0,0,0.6,1.7,0.8,2.3c0.1,0.4-0.4,0.7-1.4,0.1c-0.4,0.1-0.9,0-1.3-0.2
		c-0.7-0.6-1.1-1.5-1.3-2.4C243.8,241.7,243.8,240.8,243.4,241z"/>
	<path class="st27" d="M323.7,261.4c0,0,8.8,4.6,9,7.7c0,0,0.7,3.9,0.7,5.4c0,0.9-1.4,0.7-3.7-1.8c-1.2-0.5-2.2-1.2-3.1-2.2
		c-1.4-1.8-2.1-4-2.2-6.2C324.3,263.2,325,261.7,323.7,261.4z"/>
	<path class="st27" d="M358.7,259.4c0,0,2,1.7,1.5,2.7c0,0-0.5,1.3-0.8,1.8c-0.2,0.3-0.6,0.2-0.9-0.7c-0.3-0.2-0.5-0.5-0.6-0.8
		c-0.1-0.7,0.1-1.5,0.4-2.1C358.6,260,359.1,259.5,358.7,259.4z"/>
	<path class="st27" d="M471.4,260c-1.6-0.9-3.1-2-4.4-3.3c-1.7-1.6-1.8-4.3-0.3-6c1.1-1.1,1.9-1.8,3.1,0.9c0,0.6,0.1,1.3,0.3,1.8
		c0.4,1.4,0.3,2.6,0.8,4.6C471.1,258.9,470.6,259.7,471.4,260z"/>
	<path class="st29" d="M206.1,235.6c0,0-3.4,1.6-4.1,0.9c0,0-2.1-2.4,0.6-2.2c0,0,0.4,0,0.9,0.1c0.6,0.1,1.2,0.4,1.7,0.9
		C205.4,235.7,205.8,235.8,206.1,235.6z"/>
	<path class="st31" d="M178.2,229l-0.7,1.8c0,0-1.4,1.4-1.3-1c0,0,0.8-1.2,1.6-1.4c0,0,0.2-0.1,0.5-0.1L178.2,229z"/>
	<path class="st31" d="M195.2,229.7l-0.7,1.8c0,0-1.4,1.4-1.3-1c0,0,0.8-1.2,1.6-1.4c0,0,0.2-0.1,0.5-0.1L195.2,229.7z"/>
	<path class="st31" d="M204.9,244.1l-0.7,1.8c0,0-1.4,1.4-1.3-1c0,0,0.8-1.2,1.6-1.4c0,0,0.2-0.1,0.5-0.1L204.9,244.1z"/>
	<path class="st31" d="M188.9,250.5l-1.8,0.6c0,0-1.4,1.4,1,1.3c0,0,1.2-0.8,1.5-1.6c0,0,0.1-0.2,0.1-0.5L188.9,250.5z"/>
	<path class="st31" d="M203,243l-1.4-0.5c0,0-1.5,0.1-0.1,1.2c0,0,1.1,0.1,1.7-0.2c0,0,0.2-0.1,0.3-0.2L203,243z"/>
	<path class="st31" d="M217.2,242.8l-1.8,0.6c0,0-1.4,1.4,1,1.3c0,0,1.2-0.8,1.5-1.6c0,0,0.1-0.2,0.1-0.5L217.2,242.8z"/>
	<path class="st31" d="M202.6,224.7l-1.3-1.4c0,0-1.8-0.8-0.8,1.4c0,0,1.2,0.8,2,0.8c0,0,0.2,0,0.5-0.1L202.6,224.7z"/>
	<path class="st31" d="M189.3,222.4l-1.7-0.9c0,0-2-0.1-0.3,1.6c0,0,1.4,0.4,2.2,0.1c0,0,0.2-0.1,0.5-0.3L189.3,222.4z"/>
	<path class="st31" d="M194.3,208.3l0.6-1.8c0,0-0.3-2-1.6,0c0,0-0.1,1.4,0.4,2.2c0,0,0.1,0.2,0.3,0.4L194.3,208.3z"/>
	<path class="st31" d="M187.6,211.6l-0.5-1.5c0,0-1.2-1.2-1.1,0.8c0,0,0.6,1,1.3,1.2c0,0,0.2,0.1,0.4,0.1L187.6,211.6z"/>
	<path class="st31" d="M188.5,209.6l0.8-1.7c0,0,0-2-1.6-0.2c0,0-0.3,1.4,0.1,2.2c0,0,0.1,0.2,0.3,0.5L188.5,209.6z"/>
	<path class="st31" d="M175,219.2l-1.3-1.4c0,0-1.8-0.8-0.8,1.4c0,0,1.2,0.8,2,0.8c0,0,0.2,0,0.5-0.1L175,219.2z"/>
	<path class="st31" d="M182.3,241.2l-1.1-0.5c0,0-1.3,0-0.1,1c0,0,0.9,0.2,1.4-0.1c0,0,0.1-0.1,0.3-0.2L182.3,241.2z"/>
	<path class="st31" d="M182.4,241.8l-1.4,1.3c0,0-0.7,1.8,1.4,0.8c0,0,0.8-1.2,0.7-2.1c0,0,0-0.2-0.1-0.5L182.4,241.8z"/>
	<polygon class="st2" points="122.5,237.8 121.8,239.1 120,237.6 	"/>
	<path class="st0" d="M14.5,245.6l16.6-12.8c0,0,26.3,3.7,37,13.1l-17,18.2C51.1,264.1,36.5,251.4,14.5,245.6z"/>
	<path class="st31" d="M0.5,258.4c0,0,6.1-4.9,7.7-4.6c0,0,5.1,1.5-0.3,3.4c0,0-0.8,0.3-1.8,0.6c-1.2,0.4-2.5,0.4-3.7,0.2
		C1.7,257.8,1,258,0.5,258.4z"/>
	<path class="st29" d="M88.3,276.2c-0.8-0.6-1.8-1-2.8-1c-0.7,0-1.4,0.1-1.4,0.1c-4.2,0.3-0.5,3.5-0.5,3.5c1.2,0.8,6.1-2.4,6.1-2.4
		C89.4,276.7,88.7,276.6,88.3,276.2z"/>
	<path class="st27" d="M19,254c0,0,8.8,4.6,9,7.7c0,0,0.7,3.9,0.7,5.4c0,0.9-1.4,0.7-3.7-1.8c-1.2-0.5-2.2-1.2-3.1-2.2
		c-1.4-1.8-2.1-4-2.2-6.2C19.6,255.7,20.3,254.2,19,254z"/>
	<path class="st27" d="M54,251.9c0,0,2,1.7,1.5,2.7c0,0-0.5,1.3-0.8,1.8c-0.2,0.3-0.6,0.2-0.9-0.7c-0.3-0.2-0.5-0.5-0.6-0.8
		c-0.1-0.7,0.1-1.5,0.4-2.1C53.9,252.5,54.4,252,54,251.9z"/>
	<path class="st27" d="M103.7,278c-2.5,0.6-4,1.3-5.7,1.6c-0.8,0.1-1.5,0.4-2.3,0.7c-3.6,0.2-3.1-0.9-2.2-2.4
		c1.5-2.3,4.6-3.5,7.2-2.8c2,0.6,3.9,1.3,5.5,2.3C105.4,277,104.7,277.8,103.7,278z"/>
	<path class="st27" d="M153.1,244.7c0,0,2,3.4,0.9,5c0,0-1.2,2-1.7,2.7c-0.3,0.4-0.8,0.1-0.9-1.4c-0.3-0.4-0.5-0.9-0.5-1.5
		c0.2-1.2,0.6-2.4,1.4-3.3C152.7,245.7,153.5,245,153.1,244.7z"/>
</g>
</svg>
