<svg xmlns="http://www.w3.org/2000/svg" xmlns:xlink="http://www.w3.org/1999/xlink" viewBox="0 0 340.53 280.27"><defs><style>.cls-1,.cls-16{fill:#2c2c2c;}.cls-2{fill:#fafcfd;}.cls-3{fill:#094c38;}.cls-13,.cls-4{fill:#fdfefe;}.cls-10,.cls-5{fill:#f9f9fa;}.cls-6{fill:#fcf8f7;}.cls-7{fill:#f9f8f7;}.cls-8{fill:#0d4d39;}.cls-9{fill:#f8f7f7;}.cls-10,.cls-13,.cls-14,.cls-15,.cls-16,.cls-17,.cls-9{stroke:#2c2c2c;}.cls-10,.cls-11,.cls-13,.cls-14,.cls-15,.cls-16,.cls-17,.cls-19,.cls-48,.cls-68,.cls-9{stroke-miterlimit:10;}.cls-10,.cls-13,.cls-14,.cls-9{stroke-width:2px;}.cls-11,.cls-14,.cls-15,.cls-19,.cls-48,.cls-68{fill:none;}.cls-11{stroke:#5c5c5c;stroke-width:0.75px;}.cls-12{fill:#fff;}.cls-17{fill:#feffff;}.cls-18{fill:#969696;}.cls-19,.cls-68{stroke:#969696;}.cls-20{fill:#9e9d9c;}.cls-21{fill:url(#New_Gradient_Swatch);}.cls-22{fill:url(#New_Gradient_Swatch-2);}.cls-23{fill:url(#New_Gradient_Swatch-3);}.cls-24{fill:url(#New_Gradient_Swatch-4);}.cls-25{fill:url(#New_Gradient_Swatch-5);}.cls-26{fill:url(#New_Gradient_Swatch-6);}.cls-27{fill:url(#New_Gradient_Swatch-7);}.cls-28{fill:url(#New_Gradient_Swatch-8);}.cls-29{fill:url(#New_Gradient_Swatch-9);}.cls-30{fill:url(#New_Gradient_Swatch-10);}.cls-31{fill:url(#New_Gradient_Swatch-11);}.cls-32{fill:url(#New_Gradient_Swatch-12);}.cls-33{fill:url(#New_Gradient_Swatch-13);}.cls-34{fill:url(#New_Gradient_Swatch-14);}.cls-35{fill:url(#New_Gradient_Swatch-15);}.cls-36{fill:url(#New_Gradient_Swatch-16);}.cls-37{fill:url(#New_Gradient_Swatch-17);}.cls-38{fill:url(#New_Gradient_Swatch-18);}.cls-39{fill:url(#New_Gradient_Swatch-19);}.cls-40{fill:url(#New_Gradient_Swatch-20);}.cls-41{fill:url(#New_Gradient_Swatch-21);}.cls-42{fill:url(#New_Gradient_Swatch-22);}.cls-43{fill:url(#New_Gradient_Swatch-23);}.cls-44{fill:url(#New_Gradient_Swatch-24);}.cls-45{fill:url(#New_Gradient_Swatch-25);}.cls-46{fill:url(#New_Gradient_Swatch-26);}.cls-47{fill:url(#New_Gradient_Swatch-27);}.cls-48{stroke:#5c5b5b;}.cls-48,.cls-68{stroke-width:0.5px;}.cls-49{fill:url(#New_Gradient_Swatch-28);}.cls-50{fill:url(#New_Gradient_Swatch-29);}.cls-51{fill:url(#New_Gradient_Swatch-30);}.cls-52{fill:url(#New_Gradient_Swatch-31);}.cls-53{fill:url(#New_Gradient_Swatch-32);}.cls-54{fill:url(#New_Gradient_Swatch-33);}.cls-55{fill:url(#New_Gradient_Swatch-34);}.cls-56{fill:url(#New_Gradient_Swatch-35);}.cls-57{fill:url(#New_Gradient_Swatch-36);}.cls-58{fill:url(#New_Gradient_Swatch-37);}.cls-59{fill:url(#New_Gradient_Swatch-38);}.cls-60{fill:url(#New_Gradient_Swatch-39);}.cls-61{fill:url(#New_Gradient_Swatch-40);}.cls-62{fill:url(#New_Gradient_Swatch-41);}.cls-63{fill:url(#New_Gradient_Swatch-42);}.cls-64{fill:url(#New_Gradient_Swatch-43);}.cls-65{fill:url(#New_Gradient_Swatch-44);}.cls-66{fill:url(#New_Gradient_Swatch-45);}.cls-67{fill:url(#New_Gradient_Swatch-46);}.cls-69{fill:url(#New_Gradient_Swatch-47);}.cls-70{fill:#dfe9ee;}.cls-71{fill:#845e38;}.cls-72{fill:#6d4d31;}.cls-73{fill:#d8d8d8;}</style><linearGradient id="New_Gradient_Swatch" x1="43.93" y1="204.09" x2="47.6" y2="204.09" gradientUnits="userSpaceOnUse"><stop offset="0" stop-color="#e1d1e7"/><stop offset="0.18" stop-color="#e7cadb"/><stop offset="0.52" stop-color="#efc0ca"/><stop offset="0.72" stop-color="#f5b2b3"/><stop offset="0.85" stop-color="#f8aca9"/></linearGradient><linearGradient id="New_Gradient_Swatch-2" x1="67.08" y1="195.32" x2="70.46" y2="195.32" gradientTransform="matrix(0.66, -0.25, 0.25, 0.67, -47.62, 85.56)" xlink:href="#New_Gradient_Swatch"/><linearGradient id="New_Gradient_Swatch-3" x1="34.32" y1="238.55" x2="41.13" y2="238.55" gradientTransform="matrix(0.47, -0.48, 0.58, 0.39, -119.02, 162.76)" xlink:href="#New_Gradient_Swatch"/><linearGradient id="New_Gradient_Swatch-4" x1="-122.07" y1="227.03" x2="-112.58" y2="227.03" gradientTransform="matrix(-0.39, 0.62, -0.61, -0.35, 142.71, 387.05)" xlink:href="#New_Gradient_Swatch"/><linearGradient id="New_Gradient_Swatch-5" x1="-235.62" y1="227.03" x2="-227.32" y2="227.03" gradientTransform="matrix(0.7, -0.65, 0.62, 0.35, 180.48, 32.8)" xlink:href="#New_Gradient_Swatch"/><linearGradient id="New_Gradient_Swatch-6" x1="-0.9" y1="272.24" x2="2.77" y2="272.24" gradientTransform="translate(-208.42 284.72) rotate(-100.63)" xlink:href="#New_Gradient_Swatch"/><linearGradient id="New_Gradient_Swatch-7" x1="34.88" y1="243.69" x2="38.26" y2="243.69" gradientTransform="matrix(0.24, 0.97, 0.97, -0.24, -206.2, 263.39)" xlink:href="#New_Gradient_Swatch"/><linearGradient id="New_Gradient_Swatch-8" x1="-15.19" y1="124.49" x2="-12.26" y2="124.49" gradientTransform="matrix(-0.96, -0.26, -0.26, 0.96, 76.31, 84.86)" xlink:href="#New_Gradient_Swatch"/><linearGradient id="New_Gradient_Swatch-9" x1="33.18" y1="225.62" x2="35.6" y2="225.62" gradientTransform="matrix(0.96, 0.28, 0.28, -0.96, -63.11, 429.1)" xlink:href="#New_Gradient_Swatch"/><linearGradient id="New_Gradient_Swatch-10" x1="-85.76" y1="198.18" x2="-83.72" y2="198.18" gradientTransform="matrix(0.42, -0.91, 0.91, 0.42, -103.92, 56.83)" xlink:href="#New_Gradient_Swatch"/><linearGradient id="New_Gradient_Swatch-11" x1="358.92" y1="296.07" x2="366.46" y2="296.07" gradientTransform="translate(736.15 299.75) rotate(144.2)" xlink:href="#New_Gradient_Swatch"/><linearGradient id="New_Gradient_Swatch-12" x1="-103.53" y1="216.66" x2="-97.59" y2="216.66" gradientTransform="matrix(-1, 0.07, -0.07, -1, -51.88, 453.48)" xlink:href="#New_Gradient_Swatch"/><linearGradient id="New_Gradient_Swatch-13" x1="-140.98" y1="238.14" x2="-137.48" y2="238.14" gradientTransform="matrix(-0.95, 0.32, 0.32, 0.95, -133.07, 42.04)" xlink:href="#New_Gradient_Swatch"/><linearGradient id="New_Gradient_Swatch-14" x1="39.3" y1="205.88" x2="42.15" y2="205.88" gradientTransform="translate(1.3 -0.29) rotate(0.36)" xlink:href="#New_Gradient_Swatch"/><linearGradient id="New_Gradient_Swatch-15" x1="-21.58" y1="187.65" x2="-19.33" y2="187.65" gradientTransform="matrix(-0.59, -0.76, 0.79, -0.62, -131.61, 316.19)" xlink:href="#New_Gradient_Swatch"/><linearGradient id="New_Gradient_Swatch-16" x1="130.75" y1="206.5" x2="137.56" y2="206.5" gradientTransform="matrix(-0.2, -0.29, 0.3, -0.17, 1.33, 299.27)" xlink:href="#New_Gradient_Swatch"/><linearGradient id="New_Gradient_Swatch-17" x1="-369.17" y1="284.57" x2="-363.12" y2="284.57" gradientTransform="matrix(-0.24, -0.97, -0.97, 0.24, 493.37, -171.66)" xlink:href="#New_Gradient_Swatch"/><linearGradient id="New_Gradient_Swatch-18" x1="5.57" y1="218.15" x2="10" y2="218.15" gradientTransform="matrix(-0.09, 1, 1, 0.09, -177.75, 197.83)" xlink:href="#New_Gradient_Swatch"/><linearGradient id="New_Gradient_Swatch-19" x1="30.58" y1="224.64" x2="34.25" y2="224.64" gradientTransform="matrix(0.36, 0.93, 0.93, -0.36, -190.15, 273.57)" xlink:href="#New_Gradient_Swatch"/><linearGradient id="New_Gradient_Swatch-20" x1="38.01" y1="204.31" x2="40.41" y2="204.31" gradientTransform="translate(-134.52 92.88) rotate(-45.7)" xlink:href="#New_Gradient_Swatch"/><linearGradient id="New_Gradient_Swatch-21" x1="75.8" y1="224.11" x2="79.9" y2="224.11" gradientTransform="matrix(-0.15, -0.91, 0.92, -0.27, -132.6, 366.63)" xlink:href="#New_Gradient_Swatch"/><linearGradient id="New_Gradient_Swatch-22" x1="31.45" y1="284.26" x2="36.23" y2="284.26" gradientTransform="translate(-127.91 433.24) rotate(-135.99)" xlink:href="#New_Gradient_Swatch"/><linearGradient id="New_Gradient_Swatch-23" x1="40.37" y1="226.95" x2="43.4" y2="226.95" gradientTransform="translate(-173.55 277.54) rotate(-92.24)" xlink:href="#New_Gradient_Swatch"/><linearGradient id="New_Gradient_Swatch-24" x1="30.78" y1="203.88" x2="34.16" y2="203.88" gradientTransform="translate(-178.07 201.95) rotate(-77.69)" xlink:href="#New_Gradient_Swatch"/><linearGradient id="New_Gradient_Swatch-25" x1="28.4" y1="232.95" x2="33.06" y2="232.95" gradientTransform="matrix(1, 0, 0, -1, 0, 457.67)" xlink:href="#New_Gradient_Swatch"/><linearGradient id="New_Gradient_Swatch-26" x1="13.17" y1="249.74" x2="18.31" y2="249.74" gradientTransform="translate(165.19 432.62) rotate(153.29)" xlink:href="#New_Gradient_Swatch"/><linearGradient id="New_Gradient_Swatch-27" x1="73.57" y1="232.99" x2="81.45" y2="232.99" gradientTransform="translate(-43.59 19.21) rotate(-11.2)" xlink:href="#New_Gradient_Swatch"/><linearGradient id="New_Gradient_Swatch-28" x1="36.35" y1="222.79" x2="39.2" y2="222.79" gradientTransform="translate(-173.5 264.03) rotate(-88.34)" xlink:href="#New_Gradient_Swatch"/><linearGradient id="New_Gradient_Swatch-29" x1="23.79" y1="213.92" x2="26.19" y2="213.92" gradientTransform="translate(-83.43 401.92) rotate(-134.4)" xlink:href="#New_Gradient_Swatch"/><linearGradient id="New_Gradient_Swatch-30" x1="45.96" y1="227.69" x2="47.97" y2="227.69" gradientTransform="matrix(0.96, 0.28, 0.28, -0.96, -63.11, 429.1)" xlink:href="#New_Gradient_Swatch"/><linearGradient id="New_Gradient_Swatch-31" x1="37.12" y1="236.24" x2="40.17" y2="236.24" gradientTransform="matrix(0.36, 0.93, 0.93, -0.36, -190.15, 273.57)" xlink:href="#New_Gradient_Swatch"/><linearGradient id="New_Gradient_Swatch-32" x1="41.9" y1="231.81" x2="45.76" y2="231.81" gradientTransform="matrix(1, 0, 0, -1, 0, 457.67)" xlink:href="#New_Gradient_Swatch"/><linearGradient id="New_Gradient_Swatch-33" x1="45.9" y1="238.33" x2="47.69" y2="238.33" gradientTransform="matrix(0.75, 0.66, 0.66, -0.75, -143.39, 361.48)" xlink:href="#New_Gradient_Swatch"/><linearGradient id="New_Gradient_Swatch-34" x1="28.85" y1="242.82" x2="31.56" y2="242.82" gradientTransform="matrix(-0.06, 1, 1, 0.06, -193.55, 167.03)" xlink:href="#New_Gradient_Swatch"/><linearGradient id="New_Gradient_Swatch-35" x1="45.19" y1="242.3" x2="48.63" y2="242.3" gradientTransform="matrix(0.91, 0.42, 0.42, -0.91, -98.06, 413.88)" xlink:href="#New_Gradient_Swatch"/><linearGradient id="New_Gradient_Swatch-36" x1="5.11" y1="267.53" x2="7.17" y2="267.53" gradientTransform="translate(-83.48 465.67) rotate(-148.13)" xlink:href="#New_Gradient_Swatch"/><linearGradient id="New_Gradient_Swatch-37" x1="83.87" y1="217.99" x2="86.17" y2="217.99" gradientTransform="matrix(-0.77, -0.51, 0.42, -0.86, 28.14, 465.09)" xlink:href="#New_Gradient_Swatch"/><linearGradient id="New_Gradient_Swatch-38" x1="71.99" y1="233.19" x2="76.6" y2="233.19" gradientTransform="matrix(0.64, -0.2, 0.32, 0.62, -73.14, 87.23)" xlink:href="#New_Gradient_Swatch"/><linearGradient id="New_Gradient_Swatch-39" x1="19.23" y1="261.44" x2="21.53" y2="261.44" gradientTransform="matrix(-0.25, 0.97, 0.97, 0.25, -197.63, 134.45)" xlink:href="#New_Gradient_Swatch"/><linearGradient id="New_Gradient_Swatch-40" x1="104.07" y1="201.52" x2="110.87" y2="201.52" gradientTransform="matrix(0.15, -0.32, 0.29, 0.18, -41.51, 230.45)" xlink:href="#New_Gradient_Swatch"/><linearGradient id="New_Gradient_Swatch-41" x1="13.74" y1="222.76" x2="18.17" y2="222.76" gradientTransform="matrix(-0.91, 0.41, 0.41, 0.91, -41.77, 24.62)" xlink:href="#New_Gradient_Swatch"/><linearGradient id="New_Gradient_Swatch-42" x1="-15.58" y1="124.71" x2="-12.37" y2="124.71" gradientTransform="matrix(-0.83, -0.55, -0.55, 0.83, 113.96, 96.52)" xlink:href="#New_Gradient_Swatch"/><linearGradient id="New_Gradient_Swatch-43" x1="78.92" y1="243.89" x2="84.59" y2="243.89" gradientTransform="translate(-45.09 20.19) rotate(-11.2)" xlink:href="#New_Gradient_Swatch"/><linearGradient id="New_Gradient_Swatch-44" x1="73.27" y1="228.05" x2="81.16" y2="228.05" gradientTransform="matrix(0.42, -0.18, 0.03, 0.63, 45.87, 103.46)" xlink:href="#New_Gradient_Swatch"/><linearGradient id="New_Gradient_Swatch-45" x1="159.79" y1="285.71" x2="171.42" y2="285.71" gradientTransform="translate(75.33 -48.36) rotate(12.25)" xlink:href="#New_Gradient_Swatch"/><linearGradient id="New_Gradient_Swatch-46" x1="355.89" y1="350.96" x2="363.78" y2="350.96" gradientTransform="matrix(0.43, 0.14, -0.39, 0.49, 189.85, 35.31)" xlink:href="#New_Gradient_Swatch"/><linearGradient id="New_Gradient_Swatch-47" x1="317.01" y1="248.9" x2="322.36" y2="248.9" gradientTransform="matrix(1.13, -0.11, -0.11, 1.08, -22.77, 17.73)" xlink:href="#New_Gradient_Swatch"/></defs><title>Artboard 1</title><g id="Layer_8" data-name="Layer 8"><path class="cls-1" d="M66.47,174.37s21.25,13.79,43.37.89l-.52,25.64S86,210.11,66.86,200Z"/><path class="cls-1" d="M65.45,176.11c13.54,8.66,31.6,8.6,45.41.88l-3-1.73q-.25,12.83-.53,25.64l1.48-1.94c-12.78,5-28.56,5.56-40.92-.67l1,1.73-.39-25.65c0-2.57-4-2.58-4,0L64.85,200a2,2,0,0,0,1,1.74c13.31,6.69,30.21,6.45,44,1.07a2.09,2.09,0,0,0,1.47-1.93q.27-12.83.53-25.64a2,2,0,0,0-3-1.73c-12.6,7.05-29,7-41.35-.89C65.3,171.25,63.29,174.72,65.45,176.11Z"/><polygon class="cls-1" points="64.48 174.94 64.34 168.22 67.1 172.65 64.48 174.94"/><path class="cls-2" d="M81.47,161.09s-23.42,3.41-14.66,11.77a41.25,41.25,0,0,0,33.82,4.58s19-5.95,8.36-11.7C109,165.74,103.42,159.9,81.47,161.09Z"/><path class="cls-1" d="M81.47,161.09l-.11-.79a59.49,59.49,0,0,0-8.44,1.95A24.79,24.79,0,0,0,67,164.89a8.12,8.12,0,0,0-2.08,1.9,4.15,4.15,0,0,0-.87,2.48,4.42,4.42,0,0,0,.56,2.08,8.51,8.51,0,0,0,1.65,2.09l0,0,0,0A41.36,41.36,0,0,0,88.77,180a42.57,42.57,0,0,0,12.09-1.77h0a45.65,45.65,0,0,0,5.92-2.4,20.56,20.56,0,0,0,4.15-2.65,7.18,7.18,0,0,0,1.47-1.67,3.74,3.74,0,0,0,.62-2,3.7,3.7,0,0,0-.93-2.36,9.06,9.06,0,0,0-2.73-2.08l-.38.7.58-.55a13.06,13.06,0,0,0-4.76-2.61c-3.41-1.24-9-2.45-17.68-2.45-1.77,0-3.66.05-5.7.16h-.07l.11.79,0,.8c2-.11,3.88-.16,5.62-.16,8.56,0,13.93,1.2,17.13,2.36a16.38,16.38,0,0,1,3.31,1.58,5.64,5.64,0,0,1,.68.49l.14.12,0,0h0l.34-.33-.34.33h0l.34-.33-.34.33.09.09.11.06a7.54,7.54,0,0,1,2.25,1.69,2.11,2.11,0,0,1,.57,1.34,2.2,2.2,0,0,1-.38,1.16,8.22,8.22,0,0,1-2.44,2.27,30.33,30.33,0,0,1-5.36,2.71c-.82.34-1.54.6-2,.78l-.6.2-.21.07.24.77-.23-.77a40.73,40.73,0,0,1-27.23-1.4,35.52,35.52,0,0,1-4.37-2.12c-.51-.29-.89-.53-1.15-.69l-.28-.19-.07-.05h0l-.47.65.56-.58A7,7,0,0,1,66,170.6a2.8,2.8,0,0,1-.37-1.33,2.49,2.49,0,0,1,.56-1.53,9.37,9.37,0,0,1,3.53-2.54,39.52,39.52,0,0,1,7.72-2.52c1.18-.27,2.22-.47,3-.6l.86-.15.31-.05-.12-.79,0,.8Z"/><path class="cls-3" d="M78.77,164.19s-15,3-2.58,7.87c0,0,20.32,7.24,30.64-1.79,0,0,7-6.46-20.33-7.24,0,0-2.79-46.51-1.54-53.53,0,0,.36-7,2.35-7.22,0,0,6.74-6.9,6.79-9.1,0,0,6-1.2,10-3.76,0,0,9.72-1.56,15.2-.35,0,0,7.2,3,8.09,2.59,0,0,2.23-1.28-2.58-2.92,0,0-4.6-1.41-7-1.9,0,0-17.79-1.91-26.07,4.53,0,0,5.44-7.38,18.67-8.43,0,0,12.33-.41,14.8-2.34,0,0,5.31-1.43,6.38-.09,0,0,3.77-1.24.92-2,0,0-15.13-2.73-23.56.18,0,0-5.55,2.31-8.18,2a20.48,20.48,0,0,0-13.85,9.63,9.15,9.15,0,0,1,1.51-6.84S92,76.48,94,76.33c0,0,15-.45,12.13-1.84,0,0-.73-1.54-3.88-1.22,0,0,17.23-9.17,25.51-9.1,0,0,4.2-.1,3.64-1,0,0-8.32-2.74-15.78-1,0,0-14.76,4.55-12.32,1.65,0,0,8.89-6.39,13.17-6.2,0,0,5.37-1.8,14.7,3,0,0,20.77,8.71,26.77,8.46,0,0,2.74,1.19-.69-3.73,0,0-4.36-5.52-4.32-7.33,0,0-3.32-5-8.87-3.89,0,0-9.6-1-5.09-2.68,0,0,5.47-2,8.3-5.35,0,0,1.46-1.59-1.6-.89,0,0-11.61,4.52-16.94,4.42,0,0-8.09-.07-9.75,1.89,0,0-3.33,0,2.44-3.19,0,0,3.58-2.49,3.54-10,0,0,1-4.83,4.53-7,0,0,3.3-3.46,2.28-4.43,0,0-3.45,1.07-7.85,6.5,0,0-5.68,7.69-13.08,11.16,0,0-7.85,2.31-10.53,7.21,0,0-2.16,3.19-3.41,3.83a6,6,0,0,0-2.27,4.24s-1.3,2.93-2.44,2.9c0,0-1.43.16-.54-1.44,0,0,3.43-4.78,3.75-6.87,0,0,.41-1.23,1.27-1.31,0,0,1.6.7.38-4.56,0,0-1.64-8.13,1.12-12.93s1.27-6.35.91-7.4,1.83-5.3,3.08-6.22,2.44-2.81,1.67-6.82-2.91-2.35-2.91-2.35a24.93,24.93,0,0,0-5.13,9S93,29.66,91.57,31.06a3.43,3.43,0,0,0-1.11,3s-1.64.92-1.6-1c0,0,1.61-4.35,1.46-6.25,0,0-.47-4.87-3.29-6.64s0-11.61,0-11.61,1.3-3.12.74-3.61c0,0-1.72-4.32-2.41,1.29a13.06,13.06,0,0,1-.61,6.36c-1.2,2.83-4.8-2.57-4.8-2.57a14.69,14.69,0,0,1-1.35-3.55s-1.47-2.79-1.72.25a59.63,59.63,0,0,0-.13,6.37,11.76,11.76,0,0,1-.91,2.27s-1.3,3.12,2.31,8.24S79,35.47,79,35.47s-8.32-21.34-10.62-22.1c0,0-1.44,1.21-2.43,5.81,0,0-1.5,3.89-.83,5.85S67.42,34.86,70,37.94a15.7,15.7,0,0,1,.57,6.94S65,38.19,64.05,34.43c0,0-6.18-10.61-15.67-16,0,0-1.25.33,1,3.93,0,0-.66,6.21.87,9.62,0,0-1.39,7.44,2.27,10.71,0,0,7.45,9.75,6.71,11.16,0,0-11.39-8.23-24.58-6.55,0,0-6.08,1.66,1.55,2.7,0,0,13.47,1.7,17.85,5.17,0,0-7.11-.15-9.21-2,0,0-3.54-.6.49,2s.51,1.43.51,1.43S29,52.21,20.46,53.28c0,0-3.75,1.16-5.57,3.08,0,0-12.68,2.59-11.82,4.2,0,0,14.77-.58,23.89-3.42,0,0,5.17-.43,14.34,3.32,0,0-11.76,1.18-14.76,0,0,0-9.43.16,1,3.4,0,0,5.12,1.35,6.17,2.26A25.78,25.78,0,0,0,44,69.4s8.68,1.42,4.69,5.25,8.93,6.76,8.93,6.76,7.62.87,9,2.68c0,0,4.36,4.18,4.84,6.68,0,0,.3,2.85-5.79-3.5,0,0-4.37-3.82-13.26-3.65,0,0-13.49-1.17-16.27,4.47a10,10,0,0,0,5.28,2.42s5,.27,5.46,2.6c0,0,4.75,2.58,9.81-1.58,0,0,5.6-4.15,16.28,3.71,0,0,2.54,6.28,2.32,17.12,0,0-1.3,2.64,1.38,10.34C76.64,122.7,81.1,152.35,78.77,164.19Z"/><path class="cls-3" d="M78.77,164.19l-.08-.39a28.32,28.32,0,0,0-3.82,1.09,12,12,0,0,0-2.68,1.34,4,4,0,0,0-.94.9,2,2,0,0,0-.4,1.16,2,2,0,0,0,.32,1.05,5.1,5.1,0,0,0,1.64,1.52A19.09,19.09,0,0,0,76,172.44h0a54.37,54.37,0,0,0,16.18,2.77c5.25,0,10.79-1.07,14.86-4.64h0a2.61,2.61,0,0,0,.46-.57,2.75,2.75,0,0,0,.46-1.46,2.67,2.67,0,0,0-.88-1.91c-.94-.94-2.71-1.82-5.93-2.54a81.32,81.32,0,0,0-14.7-1.45v.4l.4,0s0-.48-.08-1.36C86.46,155.48,85,130,85,116.76a52.48,52.48,0,0,1,.31-7.19v0s0-.1,0-.29a25.76,25.76,0,0,1,.54-3.85,7.92,7.92,0,0,1,.66-1.95,2.33,2.33,0,0,1,.4-.57.64.64,0,0,1,.36-.18h.15l.1-.11s1.7-1.73,3.4-3.75a34.06,34.06,0,0,0,2.36-3.06,10.28,10.28,0,0,0,.8-1.38,3.07,3.07,0,0,0,.35-1.19h-.4l.08.39a35.37,35.37,0,0,0,10.12-3.81l-.22-.34.06.39.86-.12a69.73,69.73,0,0,1,9-.68,25.06,25.06,0,0,1,5.2.45l.09-.39-.16.37s1.58.66,3.36,1.32c.88.33,1.82.66,2.64.91a8.41,8.41,0,0,0,2,.43.92.92,0,0,0,.42-.08h0a1.49,1.49,0,0,0,.35-.28,1.3,1.3,0,0,0,.37-.85,1.65,1.65,0,0,0-.77-1.26,9.35,9.35,0,0,0-2.6-1.25h0s-4.6-1.42-7-1.92h0s-2.49-.27-6-.27a56.75,56.75,0,0,0-10.4.89,23.49,23.49,0,0,0-9.93,4l.24.32.32.23h0c.29-.38,5.68-7.24,18.36-8.25l0-.4v.4s3.1-.1,6.5-.44c1.71-.18,3.49-.41,5-.72a18.23,18.23,0,0,0,2-.54,5.09,5.09,0,0,0,1.46-.72l-.24-.32.1.39.4-.1a19.21,19.21,0,0,1,3.87-.55,5.08,5.08,0,0,1,1.11.11,1.17,1.17,0,0,1,.59.31l.17.22.27-.09a9.64,9.64,0,0,0,1-.42,4.52,4.52,0,0,0,.76-.46,1.81,1.81,0,0,0,.3-.32.73.73,0,0,0,0-.86,1.21,1.21,0,0,0-.49-.4,3.87,3.87,0,0,0-.76-.27h0A83.84,83.84,0,0,0,119.22,77a33.48,33.48,0,0,0-10.43,1.36h0l-.21.09c-.49.19-1.75.68-3.18,1.12a16.05,16.05,0,0,1-4.17.81,2.89,2.89,0,0,1-.43,0h-.1A18.77,18.77,0,0,0,95.52,82a20.65,20.65,0,0,0-9,8.15l.35.21.39-.11h0a6.47,6.47,0,0,1-.13-1.36,9.46,9.46,0,0,1,1.59-5.14l0,0v0s0-.11.15-.3a41.17,41.17,0,0,1,2.3-3.87,15.32,15.32,0,0,1,1.56-2,4.5,4.5,0,0,1,.72-.61,1.2,1.2,0,0,1,.51-.22l0-.4v.4s3.13-.09,6.26-.33c1.57-.12,3.14-.27,4.33-.47a8.64,8.64,0,0,0,1.48-.34,1.91,1.91,0,0,0,.5-.23.76.76,0,0,0,.2-.2.57.57,0,0,0,.11-.33.66.66,0,0,0-.21-.46,1.57,1.57,0,0,0-.37-.24l-.18.36.36-.17a2.09,2.09,0,0,0-.74-.79,4.56,4.56,0,0,0-2.68-.71c-.26,0-.55,0-.86.05l0,.4.19.35.75-.39c1.68-.87,6-3,10.83-5s10.12-3.67,13.64-3.67h.11s.94,0,1.89-.14a8.38,8.38,0,0,0,1.34-.26,1.85,1.85,0,0,0,.53-.25.77.77,0,0,0,.22-.22.65.65,0,0,0,.1-.35.67.67,0,0,0-.11-.37l-.08-.12-.13,0A37.54,37.54,0,0,0,121,61.22a24.45,24.45,0,0,0-5.53.6h0l-1.37.4c-1.26.37-3.22.92-5.15,1.38a25.78,25.78,0,0,1-4.88.82,2,2,0,0,1-.64-.08l-.05,0h0l0,0,0,0h0l0,0,0,0-.08.07h.11l0-.07-.08.07h.11a.93.93,0,0,1,.18-.28l-.31-.26.24.33.37-.27c.85-.58,3-2.06,5.48-3.39a30.84,30.84,0,0,1,3.71-1.74,9.55,9.55,0,0,1,3.19-.74h.24l.07,0h0a9.54,9.54,0,0,1,2.73-.31c2.42,0,6.38.56,11.65,3.25h0s5.05,2.12,10.9,4.24c2.92,1.06,6,2.12,8.84,2.92a28.92,28.92,0,0,0,6.92,1.33h.29l0-.4-.16.36a1.79,1.79,0,0,0,.73.16.93.93,0,0,0,.58-.18.91.91,0,0,0,.29-.69,3.29,3.29,0,0,0-.41-1.34,17.24,17.24,0,0,0-1.39-2.27h0a2.87,2.87,0,0,1-.18-.24c-.41-.53-1.44-1.89-2.36-3.3a19.5,19.5,0,0,1-1.21-2.06,3.81,3.81,0,0,1-.49-1.45h0v-.13l-.08-.11a10.52,10.52,0,0,0-2-2.12,8.87,8.87,0,0,0-5.6-2.12,8.38,8.38,0,0,0-1.69.18l.08.39,0-.4-1-.11a32.26,32.26,0,0,1-3.27-.59,7,7,0,0,1-1.33-.45.92.92,0,0,1-.32-.21l0,0h0l-.08,0h.08v0l-.08,0h0l.07,0v0h-.07l.07,0h0a.76.76,0,0,1,.25-.2,3.59,3.59,0,0,1,.7-.33l-.15-.38.14.38a25.92,25.92,0,0,0,3.14-1.43,18.44,18.44,0,0,0,5.33-4l-.31-.26.3.27a2.14,2.14,0,0,0,.21-.28,1.29,1.29,0,0,0,.24-.67.71.71,0,0,0-.33-.61,1.51,1.51,0,0,0-.77-.18,6.23,6.23,0,0,0-1.34.19h-.05L145,45c-1.11.42-4,1.47-7.16,2.42a37,37,0,0,1-9,1.78h-.3a43.51,43.51,0,0,0-4.64.27,18.39,18.39,0,0,0-3.09.58,4.54,4.54,0,0,0-2.22,1.19l.31.26v-.4h0a1.65,1.65,0,0,1-.4,0,.78.78,0,0,1-.17-.07h0l0,0h.06v0l0,0h.06v0a2.38,2.38,0,0,1,.74-.78,20.39,20.39,0,0,1,2.45-1.55h0c.08,0,3.72-2.67,3.71-10.23v-.12h-.4l.39.09v0a14.18,14.18,0,0,1,1.06-2.83,9.6,9.6,0,0,1,3.28-3.92l0,0,0,0A19.44,19.44,0,0,0,131,30.05a10.74,10.74,0,0,0,.89-1.34,3.15,3.15,0,0,0,.44-1.36,1.09,1.09,0,0,0-.33-.8l-.17-.16-.22.07c-.07,0-3.6,1.14-8,6.63h0l-.06.09c-.63.83-6.05,7.76-12.87,11l.17.36-.11-.39a27.78,27.78,0,0,0-4.34,1.8c-2.33,1.21-5,3-6.43,5.61l.35.19-.33-.23s-.13.2-.35.5c-.33.46-.85,1.17-1.4,1.81a6.65,6.65,0,0,1-1.51,1.4h0a5.36,5.36,0,0,0-1.14,1.14,6.48,6.48,0,0,0-1.31,3.4l.4,0-.37-.16,0,.11a12.06,12.06,0,0,1-.88,1.54,3.79,3.79,0,0,1-.64.75.79.79,0,0,1-.49.26h-.06v0h0v0h-.06a.75.75,0,0,1-.26,0l-.05,0,0-.09a1.51,1.51,0,0,1,.25-.67l-.35-.2.32.24s.87-1.21,1.77-2.68c.46-.74.92-1.54,1.3-2.3a8.15,8.15,0,0,0,.76-2.07l-.4-.06.39.13h0a2.23,2.23,0,0,1,.29-.57,1.32,1.32,0,0,1,.3-.32.64.64,0,0,1,.33-.14l0-.4-.16.37a.92.92,0,0,0,.33.06.9.9,0,0,0,.76-.43,2.55,2.55,0,0,0,.31-1.42,15,15,0,0,0-.47-3.23L97,48.5l.39-.08,0-.1a30.21,30.21,0,0,1-.46-5.18,15.2,15.2,0,0,1,1.56-7.36,10.38,10.38,0,0,0,1.69-5A6.46,6.46,0,0,0,99.43,28a1.08,1.08,0,0,1,0-.16,4.48,4.48,0,0,1,.3-1.25A15.84,15.84,0,0,1,101,24a6.81,6.81,0,0,1,1.39-1.77,5.53,5.53,0,0,0,2.07-4.78,13.37,13.37,0,0,0-.25-2.44,5,5,0,0,0-1-2.35,1.72,1.72,0,0,0-1.35-.66,2.2,2.2,0,0,0-1.24.43l0,0,0,0a25.29,25.29,0,0,0-5.23,9.2l.39.11-.38-.14s-.17.49-.45,1.25c-.42,1.13-1.08,2.86-1.76,4.43-.35.79-.7,1.53-1,2.14a5.74,5.74,0,0,1-.85,1.27A4,4,0,0,0,90,33.64a2.13,2.13,0,0,0,0,.53l.39-.09-.2-.34h0a1.68,1.68,0,0,1-.59.17c-.14,0-.2,0-.26-.1a1,1,0,0,1-.15-.64v-.06h-.4l.38.14s.37-1,.74-2.26a15.61,15.61,0,0,0,.75-3.86,2.81,2.81,0,0,0,0-.3h0a13.62,13.62,0,0,0-.61-2.74,7.61,7.61,0,0,0-2.87-4.2,2.09,2.09,0,0,1-.8-1.23,8.14,8.14,0,0,1-.25-2.17,26.67,26.67,0,0,1,.64-5.15c.15-.76.31-1.42.43-1.88s.2-.73.2-.73l-.38-.11.37.15s.22-.54.45-1.21a7.83,7.83,0,0,0,.46-2.07,1.33,1.33,0,0,0,0-.4.77.77,0,0,0-.23-.38l-.26.3.37-.15A6.07,6.07,0,0,0,87.76,4a2.82,2.82,0,0,0-.47-.62A1.13,1.13,0,0,0,86.53,3a.9.9,0,0,0-.59.25,2.31,2.31,0,0,0-.55,1,11.55,11.55,0,0,0-.38,2v.11a.86.86,0,0,0,0,.15,14.35,14.35,0,0,1,.12,1.89,10.92,10.92,0,0,1-.72,4.11,1.2,1.2,0,0,1-.33.47.5.5,0,0,1-.31.1,1.83,1.83,0,0,1-1-.45,10.58,10.58,0,0,1-1.69-1.72c-.23-.29-.43-.55-.56-.74a2.56,2.56,0,0,1-.16-.23l0-.07-.34.22.36-.18-.21-.43c-.19-.38-.47-1-.7-1.57a8.26,8.26,0,0,1-.29-.82,2,2,0,0,1-.11-.54h0v-.1l0-.1a4.32,4.32,0,0,0-.4-.63,2.67,2.67,0,0,0-.42-.47A1,1,0,0,0,77.53,5a.71.71,0,0,0-.45.16,1.34,1.34,0,0,0-.38.62,4.46,4.46,0,0,0-.17,1c-.13,1.56-.16,3.19-.16,4.42s0,2,0,2l.4,0L76.41,13l-.08.27c-.08.25-.21.63-.35,1a5.4,5.4,0,0,1-.41.88l0,0,0,0A4.92,4.92,0,0,0,75.26,17a12.23,12.23,0,0,0,2.61,6.91,10.29,10.29,0,0,1,1.77,6,15.88,15.88,0,0,1-.5,3.85c-.13.49-.26.89-.35,1.16s-.09.24-.11.31l0,.1.37.16.37-.15S77.3,30,74.93,24.54c-1.19-2.72-2.44-5.46-3.55-7.58a28.36,28.36,0,0,0-1.54-2.65,6.49,6.49,0,0,0-.66-.84,1.67,1.67,0,0,0-.66-.48l-.21-.07-.17.14c-.08.07-1.57,1.38-2.57,6l.39.08L65.59,19s-.26.67-.51,1.59a12.22,12.22,0,0,0-.52,3.17,4.3,4.3,0,0,0,.19,1.36c.16.47.39,1.33.68,2.39.43,1.6,1,3.65,1.7,5.61a17,17,0,0,0,2.59,5l.3-.25-.37.15h0a13.64,13.64,0,0,1,.65,4.57,21.62,21.62,0,0,1-.12,2.17l.4,0,.31-.26-.24-.29c-.53-.66-1.88-2.37-3.21-4.31a21.84,21.84,0,0,1-3-5.69v0l0-.05S58.19,23.55,48.58,18.12L48.43,18l-.15,0a.74.74,0,0,0-.38.25,1.27,1.27,0,0,0-.27.85A7.18,7.18,0,0,0,49,22.61l.34-.21-.39,0a28.49,28.49,0,0,0-.15,3.14,17.63,17.63,0,0,0,1,6.68l.36-.16-.39-.08a20.09,20.09,0,0,0-.27,3.31,15.54,15.54,0,0,0,.5,4.06A7.67,7.67,0,0,0,52.24,43l.26-.3-.32.25s.42.54,1.06,1.4c.94,1.29,2.36,3.28,3.54,5.12.59.92,1.12,1.81,1.5,2.55a8.45,8.45,0,0,1,.44,1,2,2,0,0,1,.14.61v.06h0l.36.18.23-.32S50,46.72,38.25,46.72a28.7,28.7,0,0,0-3.67.23h0a9.57,9.57,0,0,0-1.21.42,4.55,4.55,0,0,0-.87.47,1.82,1.82,0,0,0-.34.34.82.82,0,0,0-.18.5.89.89,0,0,0,.32.65,3.57,3.57,0,0,0,1.31.6,18.06,18.06,0,0,0,2.56.5h0l.58.08c1.31.18,4.66.7,8.14,1.54a46.13,46.13,0,0,1,5.1,1.5,14.61,14.61,0,0,1,3.83,2l.25-.31v-.4h-.3a40.05,40.05,0,0,1-4.23-.4,19,19,0,0,1-2.59-.57,5.28,5.28,0,0,1-1.83-.89L45,52.87l-.11,0a4.1,4.1,0,0,0-.79-.07,1.89,1.89,0,0,0-.62.08.82.82,0,0,0-.32.19.6.6,0,0,0-.18.43.86.86,0,0,0,.16.48,7,7,0,0,0,2,1.59,14.71,14.71,0,0,1,1.47,1,1.79,1.79,0,0,1,.27.25l0,0h0l.17-.1h-.19l0,.1.17-.1h.12l-.25-.19-.06.19h.31l-.25-.19.2.15L47,56.49a.25.25,0,0,0-.13.09l.2.15L47,56.49l0,0v0h0l0,0v0h0a3.37,3.37,0,0,1-.65-.11l-.3-.09-.12,0h0s-13.39-3.54-22.44-3.54a24.7,24.7,0,0,0-3.07.17h-.06a21.22,21.22,0,0,0-2.16.84,11.88,11.88,0,0,0-3.59,2.36l.29.27L14.81,56s-3,.61-6,1.42a35.81,35.81,0,0,0-4.12,1.33,7.8,7.8,0,0,0-1.42.71,2.31,2.31,0,0,0-.46.41.88.88,0,0,0-.22.56.7.7,0,0,0,.09.35l.11.22h.26s3.7-.14,8.55-.65a85.14,85.14,0,0,0,15.44-2.79L27,57.14l0,.4h.49c1.48,0,6.24.27,13.65,3.3l.16-.37,0-.4-.91.08c-1.72.16-5.57.46-8.85.46-1.05,0-2,0-2.87-.11a7.89,7.89,0,0,1-1.95-.35l-.07,0h-.08s-1,0-2,.15a6.81,6.81,0,0,0-1.43.32,1.59,1.59,0,0,0-.56.3.79.79,0,0,0-.31.61,1,1,0,0,0,.37.72,5.75,5.75,0,0,0,1.59.93,31.26,31.26,0,0,0,3.23,1.15h0l.81.22c.74.21,1.88.55,2.92.91.52.19,1,.38,1.43.56a4.2,4.2,0,0,1,.86.48l0,0,0,0A26,26,0,0,0,43.91,69.8l.05-.4-.07.4.24,0a15.43,15.43,0,0,1,3.07.92,5.37,5.37,0,0,1,1.52.91,1.49,1.49,0,0,1,.58,1.08,2.37,2.37,0,0,1-.93,1.61,2.53,2.53,0,0,0-.89,1.78,2.27,2.27,0,0,0,.5,1.35,7.07,7.07,0,0,0,2.37,1.81,34.72,34.72,0,0,0,7.14,2.51h0l.33,0c.73.1,2.59.36,4.4.79a18.34,18.34,0,0,1,2.52.77,3.66,3.66,0,0,1,1.49.92l0,0,0,0,.19.18C66.91,85,68,86,69,87.26a20.1,20.1,0,0,1,1.35,1.89A5.61,5.61,0,0,1,71,90.84l.39-.07-.4,0,.21,0-.21,0h0l.21,0-.21,0v0L71,91h-.08a3,3,0,0,1-1.44-.73A30.73,30.73,0,0,1,65.92,87h0c-.05,0-4.32-3.76-12.94-3.76h-.59v.4l0-.4s-1.17-.1-2.89-.1a32.64,32.64,0,0,0-7.61.8,13.3,13.3,0,0,0-3.66,1.43,6.22,6.22,0,0,0-2.5,2.56l-.13.25.2.2a10.4,10.4,0,0,0,5.5,2.54h.25a13.05,13.05,0,0,1,2.73.54,5.11,5.11,0,0,1,1.44.72,1.7,1.7,0,0,1,.72,1l0,.18.17.09a8.52,8.52,0,0,0,3.81.84,10,10,0,0,0,6.44-2.46l-.25-.31.24.32,0,0,0,0h0l0,0,0,0a7.45,7.45,0,0,1,4.12-1c2.63,0,6.54,1,11.68,4.73l.24-.32-.37.15,0,.06c.24.63,2.28,6.24,2.28,15.57,0,.43,0,.88,0,1.33h.41l-.36-.18a5.74,5.74,0,0,0-.36,2.38,26,26,0,0,0,1.72,8.27l.38-.13-.39,0s0,.29.12.83c.53,3.74,2.68,19.5,2.68,31.38a50.59,50.59,0,0,1-.67,9.15l.39.08-.08-.39.08.39.4.08a51,51,0,0,0,.68-9.31c0-13.67-2.81-32.31-2.81-32.32v-.08a25.11,25.11,0,0,1-1.68-8,7.48,7.48,0,0,1,.15-1.6c0-.17.07-.28.09-.35l0-.07h0l-.12,0,.11,0h0l-.12,0,.11,0,0-.08v-.09c0-.45,0-.9,0-1.34,0-10.08-2.34-15.89-2.36-15.93l0-.1-.09-.07C67.93,91.05,63.85,90,61,90a8,8,0,0,0-4.6,1.18h0a9.14,9.14,0,0,1-5.93,2.28,8.37,8.37,0,0,1-2.5-.38,6.08,6.08,0,0,1-.7-.26l-.18-.08,0,0h0l-.19.36.39-.09A2.6,2.6,0,0,0,46,91.39a8.42,8.42,0,0,0-2.95-1.07,14.19,14.19,0,0,0-1.65-.21l0,.4.07-.4a10.8,10.8,0,0,1-3.83-1.39,7.19,7.19,0,0,1-.94-.65l-.23-.2-.05-.05h0l-.29.28.36.17A5.43,5.43,0,0,1,38.66,86c2.94-1.78,7.8-2.13,10.86-2.12.84,0,1.55,0,2,0l.57,0,.2,0H53a23.36,23.36,0,0,1,9.37,1.8A16.08,16.08,0,0,1,64.63,87l.57.4.13.11,0,0h0l.27-.3-.29.28A28.42,28.42,0,0,0,69,90.91a3.47,3.47,0,0,0,1.91.89.89.89,0,0,0,.49-.12.84.84,0,0,0,.36-.48,1,1,0,0,0,.06-.38v-.1h0v0a6.87,6.87,0,0,0-1-2.24,30.73,30.73,0,0,0-3.94-4.65l-.28.29.32-.25a5,5,0,0,0-2.17-1.31A37.49,37.49,0,0,0,57.62,81l0,.39.09-.39-.41-.09A36.61,36.61,0,0,1,52,79.19a12.09,12.09,0,0,1-2.67-1.49,3.66,3.66,0,0,1-.78-.81,1.37,1.37,0,0,1-.25-.75,1.68,1.68,0,0,1,.64-1.2,3.15,3.15,0,0,0,1.17-2.19,2,2,0,0,0-.31-1,3.91,3.91,0,0,0-1.46-1.29A15.1,15.1,0,0,0,44,69h0a27.19,27.19,0,0,1-7.34-1.83c-.88-.36-1.57-.7-2-.94l-.53-.29L34,65.86l0,0-.22.34.26-.3a6,6,0,0,0-1.52-.81,48.08,48.08,0,0,0-4.81-1.54l-.1.39.11-.38a23.67,23.67,0,0,1-3.77-1.43,3.4,3.4,0,0,1-.73-.47L23,61.5v0H23l.06,0v0H23l.06,0,0,0a1.89,1.89,0,0,1,.73-.29A12,12,0,0,1,25.57,61l.7,0h.28v-.4l-.14.38a9,9,0,0,0,2.16.4c.87.08,1.88.11,2.94.11,4.44,0,9.83-.54,9.84-.54l1.6-.16-1.49-.61c-7.51-3.07-12.38-3.36-14-3.36h-.65a85.71,85.71,0,0,1-15.29,2.76c-2.41.25-4.53.41-6.06.51l-1.79.1-.65,0,0,.4.35-.18,0,0h.06v0l0,0h.06v0a1.84,1.84,0,0,1,.65-.48,16.82,16.82,0,0,1,2.8-1.1c1.72-.55,3.74-1.06,5.33-1.44l2-.44.78-.17.12,0,.09-.09a11.09,11.09,0,0,1,3.34-2.18c.58-.26,1.09-.46,1.47-.6l.44-.15.15-.05-.12-.38.05.39a24.76,24.76,0,0,1,3-.16,81.24,81.24,0,0,1,14.45,1.76c2.23.44,4.18.88,5.57,1.21l1.63.4.59.15.1-.39L45.7,57s.2.07.46.13a3.43,3.43,0,0,0,.85.14.7.7,0,0,0,.33-.06.44.44,0,0,0,.21-.16.47.47,0,0,0,.1-.3.72.72,0,0,0-.19-.44,3.64,3.64,0,0,0-.65-.59c-.31-.23-.72-.52-1.28-.87a11,11,0,0,1-1.46-1.06,2.38,2.38,0,0,1-.26-.29l0-.06h0l-.11,0h.11v0l-.11,0H43.6l.13.13.05-.13H43.6l.13.13-.07-.07.05.09,0,0-.07-.07.05.09h0a1.15,1.15,0,0,1,.38-.05,3.19,3.19,0,0,1,.45,0l.15,0h0l.07-.4-.26.3A6.49,6.49,0,0,0,47,54.7a33.52,33.52,0,0,0,7,.91l1.19,0-.94-.74a16.55,16.55,0,0,0-4.75-2.33,80.44,80.44,0,0,0-13.29-2.92l0,.4,0-.4A13.55,13.55,0,0,1,33.3,49a1.57,1.57,0,0,1-.51-.27l-.06-.06h0a1.15,1.15,0,0,1,.35-.3,6.32,6.32,0,0,1,1.06-.47l.42-.14.17-.05-.11-.39,0,.4a29,29,0,0,1,3.57-.22,36.56,36.56,0,0,1,14.66,3.35,42.12,42.12,0,0,1,4.45,2.31c.52.31.93.57,1.2.75l.31.21.1.08.38.27.21-.41a.91.91,0,0,0,.1-.44,3.35,3.35,0,0,0-.32-1.22,42,42,0,0,0-3.76-6.15c-1.46-2.08-2.76-3.78-2.76-3.78l0,0,0,0a6.9,6.9,0,0,1-1.93-3.33,14.58,14.58,0,0,1-.47-3.85A21.43,21.43,0,0,1,50.5,33c0-.28.07-.51.09-.66a2.26,2.26,0,0,1,0-.24l0-.12,0-.12a17,17,0,0,1-1-6.35c0-.87,0-1.64.07-2.19,0-.27,0-.49.05-.64s0-.23,0-.23l0-.13-.07-.12a6.55,6.55,0,0,1-1.28-3c0-.24.06-.3.08-.32v0l-.08-.14,0,.16,0,0-.08-.14,0,.16-.1-.39-.2.35a41.85,41.85,0,0,1,11.28,9.89c1.36,1.65,2.42,3.14,3.15,4.21.36.53.63,1,.82,1.26l.21.34a.86.86,0,0,0,.07.12l.34-.21-.39.11a25.29,25.29,0,0,0,3.71,6.76c1.52,2.15,2.91,3.83,2.91,3.84l.62.73.09-.95q.12-1.22.12-2.25a14.17,14.17,0,0,0-.71-4.88l0-.06,0,0C69.1,36.23,68,33.52,67.24,31c-.41-1.29-.75-2.55-1-3.61s-.51-1.92-.69-2.43a3.63,3.63,0,0,1-.15-1.11,11.67,11.67,0,0,1,.49-3c.12-.44.24-.82.34-1.09s.08-.24.11-.31a.7.7,0,0,1,0-.11v-.06a16.59,16.59,0,0,1,1.54-4.53,6.43,6.43,0,0,1,.56-.86,1.42,1.42,0,0,1,.16-.17l0,0h0l-.12-.13.11.13h0l-.12-.13.11.13-.26-.3-.12.38a.93.93,0,0,1,.33.27,10.1,10.1,0,0,1,1.19,1.71,124.56,124.56,0,0,1,5.64,12c.9,2.14,1.7,4.1,2.28,5.54l.92,2.32.36.93.38-.92a16,16,0,0,0,1.07-5.73,11.08,11.08,0,0,0-1.91-6.47c-2.06-2.92-2.46-5.13-2.46-6.45a5.21,5.21,0,0,1,.1-1.07c0-.12,0-.21.07-.27l0-.05v0l-.06,0,.06,0h0l-.06,0,.06,0-.37-.16.33.23a3.69,3.69,0,0,0,.35-.66,18.24,18.24,0,0,0,.61-1.72l0-.06v-.07s0-.2,0-.54,0-.84,0-1.43c0-1.21,0-2.83.16-4.36a3,3,0,0,1,.19-1l.06-.1,0-.06v.08l0,0,0-.06v.08h0v0a.53.53,0,0,1,.19.13,3.42,3.42,0,0,1,.4.52c.06.09.1.17.14.22l0,.06v0l.36-.18-.4,0v0a3.44,3.44,0,0,0,.23,1,26.7,26.7,0,0,0,1.16,2.67l0,0v0A16.2,16.2,0,0,0,81,12a8.72,8.72,0,0,0,1.29,1.22,2.57,2.57,0,0,0,1.48.61,1.24,1.24,0,0,0,.81-.27,1.88,1.88,0,0,0,.56-.79A11.47,11.47,0,0,0,86,8.38a14.94,14.94,0,0,0-.15-2.17l-.4.07.4,0a8.59,8.59,0,0,1,.47-2.15,1.26,1.26,0,0,1,.21-.34l0,0h0l0,0a1,1,0,0,1,.28.27,3.66,3.66,0,0,1,.42.68L87.4,5l0,.08v0l0,.09.07.07.07-.08-.09,0,0,0,.07-.08-.09,0h0a.61.61,0,0,1,0,.19,7.65,7.65,0,0,1-.42,1.82c-.11.32-.22.61-.3.82l-.13.33v0a34.77,34.77,0,0,0-1.3,8,8.58,8.58,0,0,0,.29,2.4,2.89,2.89,0,0,0,1.14,1.68,6.92,6.92,0,0,1,2.53,3.77,14.14,14.14,0,0,1,.46,1.81l.09.56,0,.15v0l.4,0-.4,0a1.77,1.77,0,0,1,0,.24,15,15,0,0,1-.72,3.63c-.18.62-.36,1.17-.5,1.57s-.23.64-.23.64l0,.06v.15a1.71,1.71,0,0,0,.35,1.17,1.15,1.15,0,0,0,.86.37,2.11,2.11,0,0,0,1-.28l.25-.14L90.85,34h0a2.17,2.17,0,0,1,0-.36,3.19,3.19,0,0,1,1-2.29A8.74,8.74,0,0,0,93.2,29.2,76.85,76.85,0,0,0,96.13,22v0h0a21.58,21.58,0,0,1,3-6.24c.55-.81,1.06-1.47,1.43-1.93l.44-.52.12-.13,0,0-.3-.27.25.32,0-.06,0,.06h0l0-.06,0,.06a1.32,1.32,0,0,1,.74-.26.92.92,0,0,1,.75.38,4.39,4.39,0,0,1,.77,2,12,12,0,0,1,.24,2.29c0,2.34-.86,3.47-1.75,4.13a5.55,5.55,0,0,0-1.06,1.19,16.13,16.13,0,0,0-1.5,2.65,10.12,10.12,0,0,0-.51,1.32,3.71,3.71,0,0,0-.21,1.1,1.52,1.52,0,0,0,.06.42,6,6,0,0,1,.71,2.47,9.56,9.56,0,0,1-1.59,4.6,16.11,16.11,0,0,0-1.66,7.77,29.29,29.29,0,0,0,.5,5.44h0a14.52,14.52,0,0,1,.45,3,1.88,1.88,0,0,1-.18,1c-.07.09-.06.06-.09.07h0l-.08.2.09-.19h0l-.08.2.09-.19-.09-.05H96.6a1.42,1.42,0,0,0-.77.33A3,3,0,0,0,95,54.24v.07a7.46,7.46,0,0,1-.69,1.84,33.88,33.88,0,0,1-1.91,3.25l-.78,1.16-.31.45v0a2.35,2.35,0,0,0-.35,1.06,1,1,0,0,0,.15.53,1,1,0,0,0,.54.38,1.4,1.4,0,0,0,.44.07h.15l0-.4v.4h0a1.69,1.69,0,0,0,1.14-.56,7.53,7.53,0,0,0,1.17-1.63,8.28,8.28,0,0,0,.48-1l0-.06v-.06a5.52,5.52,0,0,1,1.15-3,5.26,5.26,0,0,1,.67-.74l.21-.18.06,0h0l-.23-.33.19.36A4.81,4.81,0,0,0,98.22,55a26.25,26.25,0,0,0,2.4-3h0v0c1.26-2.33,3.83-4.11,6.09-5.28a29.91,29.91,0,0,1,3-1.31l.91-.32.25-.08.08,0H111c7.53-3.53,13.21-11.26,13.23-11.28l-.32-.24.31.25a25.51,25.51,0,0,1,5.49-5.2,12,12,0,0,1,1.61-.94l.42-.18.11,0h0l-.12-.38-.28.29s.07.09.07.22a2.27,2.27,0,0,1-.34,1,11.29,11.29,0,0,1-1.26,1.79c-.21.26-.4.48-.54.63l-.22.24.29.28-.22-.34a10.72,10.72,0,0,0-3.71,4.52,14.74,14.74,0,0,0-1,2.78v.2A15.09,15.09,0,0,1,122.82,46a8.26,8.26,0,0,1-1.16,1.58c-.16.17-.29.28-.37.36l-.1.08h0l.07.09-.07-.1h0l.07.09-.07-.1.23.33L121.2,48a18.5,18.5,0,0,0-2.77,1.8,3.51,3.51,0,0,0-.61.64,1.08,1.08,0,0,0-.23.62.75.75,0,0,0,.3.59,1.45,1.45,0,0,0,.67.26,2.62,2.62,0,0,0,.39,0v0h0v0h.19l.13-.14a3.8,3.8,0,0,1,1.83-.94,32.13,32.13,0,0,1,7.5-.81h.11v0h.2c2.81,0,7-1.12,10.53-2.23s6.36-2.21,6.37-2.21l-.15-.38.09.39a5.49,5.49,0,0,1,1.16-.16.73.73,0,0,1,.33,0l0,0,0,0h0l0,0,0,0,.08-.08-.11,0,0,0,.08-.08-.11,0,.07,0h-.07v0l.07,0h-.07a.65.65,0,0,1-.11.23l-.1.14,0,0h0a17.43,17.43,0,0,1-5.09,3.85c-.84.45-1.61.8-2.16,1L139,51l-.23.09h0a3.81,3.81,0,0,0-1,.53,1.14,1.14,0,0,0-.31.31.83.83,0,0,0-.13.43.79.79,0,0,0,.14.44,1.65,1.65,0,0,0,.61.49,8.14,8.14,0,0,0,1.63.55,36.69,36.69,0,0,0,4.27.7h.12a7.48,7.48,0,0,1,1.53-.15,8.11,8.11,0,0,1,5.09,1.93,10.33,10.33,0,0,1,1.37,1.35,3.84,3.84,0,0,1,.35.44l.09.12,0,0,.33-.23h-.4v0a2.83,2.83,0,0,0,.21,1,21.24,21.24,0,0,0,2.43,4.18c.94,1.34,1.77,2.39,1.77,2.4l.31-.25-.32.23a16.32,16.32,0,0,1,1.32,2.16,2.76,2.76,0,0,1,.33,1v.08h0l0,0h0l0,0,0,0,0,0h0l0,0,0,0h-.07a1.26,1.26,0,0,1-.27,0l-.11,0h0l-.08,0h-.35a28.55,28.55,0,0,1-6.7-1.31c-4.16-1.18-9.07-3-12.94-4.44-1.94-.75-3.62-1.41-4.81-1.9l-1.9-.78-.15.37.18-.35c-5.37-2.74-9.47-3.35-12-3.34a10.35,10.35,0,0,0-3,.35l.12.38,0-.4h-.2a11.53,11.53,0,0,0-4,1,54.31,54.31,0,0,0-9.2,5.29l0,0,0,0a1.32,1.32,0,0,0-.37.8.69.69,0,0,0,.17.46,1.09,1.09,0,0,0,.58.3,3.14,3.14,0,0,0,.72.07,17.55,17.55,0,0,0,3.16-.42c3.7-.74,8.47-2.22,8.48-2.22l-.12-.38.09.39A23.3,23.3,0,0,1,121,62a36,36,0,0,1,7.18.78c.93.19,1.69.38,2.22.53l.61.18.21.06.12-.38-.34.22.05,0H131v0l.05,0H131l.15,0H131v0l.15,0h0l-.14-.09,0,.09h.17l-.14-.09,0,0,0,0h0l0,0,0,0a1.56,1.56,0,0,1-.6.23,12.29,12.29,0,0,1-1.75.24l-.7,0h-.28v0h-.11A27.39,27.39,0,0,0,120,65.21a124.57,124.57,0,0,0-18,7.7l-1.79,1,2-.21c.28,0,.54,0,.78,0a3.9,3.9,0,0,1,2.23.56,2.42,2.42,0,0,1,.39.36l.07.1v0h0l.22-.1-.22.1h0l.22-.1-.22.1.06.13.12.06.17.1h0l.16-.12h-.19l0,.12.16-.12h0l-.18-.13,0,.13h.21l-.18-.13.06,0-.05,0h0l.06,0-.05,0a1.05,1.05,0,0,1-.19.1,12.07,12.07,0,0,1-2.67.52c-1.84.23-4.16.38-6,.48l-2.33.11-.93,0h0a2.12,2.12,0,0,0-1,.43,9,9,0,0,0-1.68,1.77A40.42,40.42,0,0,0,88,83.37l.36.18-.34-.22a10.3,10.3,0,0,0-1.72,5.58,6.59,6.59,0,0,0,.16,1.58l.25.92.48-.82a19.71,19.71,0,0,1,8.64-7.83,20.93,20.93,0,0,1,3.51-1.3c.44-.12.8-.19,1-.24l.28,0h.09l-.05-.4,0,.4a4.41,4.41,0,0,0,.52,0,18.7,18.7,0,0,0,5-1c1.6-.52,2.84-1,2.85-1l-.16-.37.13.38a32.65,32.65,0,0,1,10.17-1.32,79.73,79.73,0,0,1,9.14.58c1.23.14,2.24.29,2.95.4s1.1.18,1.1.18l.07-.4-.1.39a2.32,2.32,0,0,1,.7.26l.08.07.06,0h-.07v0l.06,0h-.07a1,1,0,0,1-.26.24,5,5,0,0,1-.92.48l-.38.15-.15,0,.12.38.32-.25a1.87,1.87,0,0,0-1-.58,5.37,5.37,0,0,0-1.31-.14,20,20,0,0,0-4.48.68l-.08,0-.06.05a4.7,4.7,0,0,1-1.23.59,40.17,40.17,0,0,1-8.13,1.33c-1.43.13-2.73.21-3.68.26l-1.53.07h0c-13.38,1.06-18.92,8.53-19,8.59l-1.72,2.33L92,91.68a22.68,22.68,0,0,1,9.59-3.83A55.8,55.8,0,0,1,111.8,87c1.75,0,3.24.07,4.29.13l1.22.09.43,0,0-.39-.08.39c1.19.24,2.93.71,4.38,1.13.72.2,1.37.4,1.84.54l.75.22.12-.38-.13.38A8.88,8.88,0,0,1,127,90.24c.41.33.45.53.45.63a.4.4,0,0,1-.14.3l-.13.11,0,0h0l.06.1-.06-.1h0l.06.1-.06-.1.2.35-.17-.37,0,.08,0-.08h0l0,.08,0-.08h-.09a7.67,7.67,0,0,1-1.76-.4c-1.2-.36-2.68-.91-3.86-1.37L120,88.94l-.59-.24,0,0h0a25.63,25.63,0,0,0-5.37-.47A72.88,72.88,0,0,0,104,89h-.09l-.07,0a27.24,27.24,0,0,1-6.4,2.79c-1,.31-1.85.54-2.46.69l-.73.17-.25,0-.32.07v.32a2.34,2.34,0,0,1-.27.86,27.71,27.71,0,0,1-3.68,5c-.72.83-1.41,1.57-1.91,2.11S87,102,87,102l.29.28,0-.4a1.52,1.52,0,0,0-.93.49,4.76,4.76,0,0,0-.94,1.84,25.49,25.49,0,0,0-.84,5.27l.4,0-.4-.07a53.74,53.74,0,0,0-.32,7.33c0,15.2,1.86,46.29,1.86,46.29l0,.37h.37c9,.25,14.26,1.14,17.21,2.18a7.65,7.65,0,0,1,2.88,1.58,1.87,1.87,0,0,1,.64,1.34,2,2,0,0,1-.33,1,3.88,3.88,0,0,1-.24.31l-.08.08v0h0l.08.08-.08-.08h0l.08.08-.08-.08.28.29-.27-.3c-3.85,3.37-9.19,4.44-14.33,4.44a50.51,50.51,0,0,1-11.06-1.36c-1.47-.35-2.69-.69-3.53-.94l-1-.31-.34-.11-.13.37.14-.37a14.12,14.12,0,0,1-3.72-2,2.85,2.85,0,0,1-.75-.81,1.1,1.1,0,0,1,0-1.32,4.59,4.59,0,0,1,1.6-1.23A18.33,18.33,0,0,1,77,165.05c.54-.16,1-.27,1.34-.35l.53-.12.26-.05.06-.26Z"/><path class="cls-4" d="M78.09,34.72s.14,10.49,4.8,17.52a17.39,17.39,0,0,1,2.36,6.27A10.24,10.24,0,0,0,87.84,62s2.52-1.55-.32-10.14C87.52,51.81,77.67,37.91,78.09,34.72Z"/><path class="cls-4" d="M70.6,44.35s3,11.26,7.63,18.47c0,0,4.19,3.64,6.32,3.5,0,0-7.64-8.69-7.92-12.43a11.63,11.63,0,0,0-2.16-7.15l-3.88-6.58Z"/><path class="cls-4" d="M64.21,51.91s-1.78,0,.52,1.25a8.18,8.18,0,0,1,4.49,8.56s.13,5,4,7.92c0,0,1.11,6.32.06,8.24,0,0-4.51-6.93-10.17-11.24,0,0-4.34-4.21-5.12-4,0,0-1.56.05.81,1.88a47.43,47.43,0,0,1,3.87,4.74s-1.17,0-3.55-1.47c0,0-4.67-2.89-2.78-.37,0,0,2.65,3.24,4.66,3.67A10.52,10.52,0,0,1,64,73.34a9.9,9.9,0,0,0,4.31,2s4.18,4.12,4.28,7.23c0,0,1.41,3,1.78,0,0,0-.56-3.2.79-4.64,0,0,3.38-5.45.28-9.71,0,0-3.94-4.5-4.19-7.61C71.26,60.6,73.68,56.06,64.21,51.91Z"/><path class="cls-4" d="M84.46,87.27s.74-5.89-.15-8.16c0,0-.23-3.81,4.16-1.93C88.47,77.18,86.36,89.17,84.46,87.27Z"/><path class="cls-4" d="M80.23,108s1.4-.2,1.61,1.05c0,0,1.45,1.27.93-3.87,0,0-.62-7.46-4.41-8.32,0,0-4.63-1.72-1.48,3.85,0,0,.9,1.81.8,6.7,0,0-.51,1.93,2,4.85,0,0,2,3.62,1.49-.35A6.06,6.06,0,0,0,80.23,108Z"/><path class="cls-4" d="M88.64,63.34s-1.17,1.59-.46,2.45c0,0,1.43,1.26,1.46-.36,0,0,.33-2.07-.11-2.58C89.53,62.85,89.19,62.36,88.64,63.34Z"/><path class="cls-4" d="M87.52,73.12s2.64-3,3.13-4.59A3.11,3.11,0,0,1,94,66s4.82-2.82,5.67-5.6c0,0,.79-3.3,3-3.64,0,0,1.65-1.48,1.56-2.66,0,0,1.33-4.35,1.25-.71a6.68,6.68,0,0,1-2.68,4.83s-2,2,0,2.86A3.52,3.52,0,0,0,105.48,59s2-1.64,3.56-1.28c0,0,3.32-.88-1.33,1.72,0,0-8.4,5.09-10.69,7.23,0,0-.93,1.44.87,1.53,0,0,1.28,3-2.13,2.43,0,0-2.88-1.63-4.41-.71C91.35,69.89,87.78,74.19,87.52,73.12Z"/><path class="cls-1" d="M110.46,171.75c.15-.11.25-.43.45-.6.78-.64,1.77-1.54,1.73-.48l-1.17,30a1.14,1.14,0,0,1,0,.33l0,0a1.15,1.15,0,0,1-2.24-.46l.54-28.09C109.71,172.13,110.16,172,110.46,171.75Z"/><path class="cls-4" d="M58.36,78.58s.77-1.92,3.68-.39a26.39,26.39,0,0,0,4.5.37s3.21.71,2.37,1.43c0,0-4-1.37-4.77-.65C64.14,79.34,59.43,80,58.36,78.58Z"/><path class="cls-4" d="M35.47,63.3a6.82,6.82,0,0,1,6.34.13s3.92,2.17,4.26,3.26c0,0,.61,1.67-1.88.25a5.2,5.2,0,0,0-3-2S32.56,64.54,35.47,63.3Z"/><path class="cls-4" d="M49.12,88.09s9.85-3.45,15,.38c0,0,.6.72-5.13,0A14.12,14.12,0,0,0,51.2,89Z"/><path class="cls-5" d="M196.45,165s-17.12,4.31-1.14,9.18c0,0,28.63,6.75,43.16-2.52,0,0,5.39-4.7-9.67-7.92S196.45,165,196.45,165Z"/><path class="cls-1" d="M196.45,165l-.21-.84a32.14,32.14,0,0,0-4.11,1.41,13,13,0,0,0-2.93,1.64,5.07,5.07,0,0,0-1.09,1.13,2.76,2.76,0,0,0-.48,1.5,2.66,2.66,0,0,0,.51,1.5,6.67,6.67,0,0,0,2.38,1.89,26.26,26.26,0,0,0,4.54,1.77h.05a105.66,105.66,0,0,0,22,2.39c7.65-.06,15.82-1.19,21.85-5l.06,0,0,0a4.19,4.19,0,0,0,.62-.74,3.5,3.5,0,0,0,.61-1.93,3.42,3.42,0,0,0-.57-1.82,8,8,0,0,0-3.33-2.6A33,33,0,0,0,229,162.9a59.54,59.54,0,0,0-12.71-1.19,91.29,91.29,0,0,0-20,2.45h0l.21.84.22.83.1,0a90.31,90.31,0,0,1,19.51-2.36,57.58,57.58,0,0,1,12.34,1.14c4.32.92,6.88,2,8.29,2.91a4.51,4.51,0,0,1,1.35,1.26,1.59,1.59,0,0,1,.29.9,1.74,1.74,0,0,1-.32,1,3.45,3.45,0,0,1-.24.3l-.07.07v0l.17.18-.17-.19h0l.17.18-.17-.19.56.65-.46-.72c-5.55,3.55-13.46,4.71-20.94,4.75a98.44,98.44,0,0,1-15-1.15c-2-.29-3.63-.6-4.77-.82l-1.31-.27-.34-.08-.12,0-.19.83.25-.82a19.63,19.63,0,0,1-5.08-2.15,3.63,3.63,0,0,1-.93-.85.94.94,0,0,1-.2-.53.93.93,0,0,1,.19-.54,4.92,4.92,0,0,1,1.56-1.3,19.73,19.73,0,0,1,3.62-1.57c.56-.19,1.05-.34,1.4-.44l.4-.12.14,0h0Z"/><polygon class="cls-3" points="208.03 157.01 212.7 156.75 216.72 165.95 206.34 166.48 208.03 157.01"/><polygon class="cls-3" points="208.03 157.01 208.05 157.44 212.42 157.19 216.08 165.55 206.85 166.02 208.45 157.09 208.03 157.01 208.05 157.44 208.03 157.01 207.61 156.94 205.82 166.93 217.36 166.34 212.97 156.3 207.67 156.6 207.61 156.94 208.03 157.01"/><path class="cls-3" d="M213.55,151.25a22.86,22.86,0,0,0,1,5.51c.89,2.55-1.4.75-1.4.75Z"/><path class="cls-3" d="M213.55,151.25l-.43,0a23,23,0,0,0,1.07,5.62,2.85,2.85,0,0,1,.18.78v.09h0l.12,0-.06-.11-.06.06.12,0-.06-.11.06.1,0-.11h0l.06.1,0-.11v0h0v0h0a.73.73,0,0,1-.23-.07,2.61,2.61,0,0,1-.52-.28l-.19-.13,0,0h0l-.26.34.42,0,.37-6.25-.43,0-.43,0,.43,0-.43,0-.38,6.48.18.14s.22.17.5.34a4.12,4.12,0,0,0,.47.24,1.44,1.44,0,0,0,.56.12.72.72,0,0,0,.57-.24,1,1,0,0,0,.21-.64,3.58,3.58,0,0,0-.23-1,20.12,20.12,0,0,1-.84-3.63c-.07-.52-.12-1-.14-1.27s0-.49,0-.49h-.86Z"/><path class="cls-3" d="M199.6,135.91s1.71-4.33,4.94-5.21c0,0,1.28-2.5-.67-3.13,0,0-1.42-3.88.94-5.4l2.88-5.2,6.28,2.44,2.61,2.58,1.65,6s-.31,1.3,0,1.73c0,0,.78,2.59-1.38,3.46,0,0-4,3.18-4.1,4.89a4.29,4.29,0,0,1,1.63,3.12s-1.34,12-.81,15.25l2.24,4.22-3.31,3.45-.94-6.45L209.35,142s-.92-2.12.59-3.13a4.77,4.77,0,0,0-3.75-2.4s-1.41.21-1.11.81c0,0,1.93,1.71,1.64,3,0,0-1.2,2.63-.69,3.43a7.88,7.88,0,0,1,1.83,2.32s1.62-.12,1.34,4.93c0,0-.8,1.12-.39,1.92l1.84,4.13.86,7.16-8.67,2.48s-1-4.94-.14-6.77a4.92,4.92,0,0,0,1.7-2.73s-1.54-3.42-.63-4a2.94,2.94,0,0,1,2.31-1.43s1-1.22.19-2.22c0,0-1.12-1.71-.52-2.73,0,0-6.76,1.26-8.25,4.4,0,0,.83,4.73-.06,6.66a3.15,3.15,0,0,0,1.73,2.61,10.68,10.68,0,0,1,3,5.53l-4.22,3.36s.49-2.53-.32-3.43c0,0-2.34-1.9-2.24-3.22a4.51,4.51,0,0,0-1.13-2,6.49,6.49,0,0,1-.95-7.06,3.58,3.58,0,0,1,1.6-2.23s1.21-1.52-.51-2.11c0,0-2.43-.59-3.33,0a3,3,0,0,1-2.24-1.6,3.16,3.16,0,0,0-2.22-.7s-2.22,0-2.73-.69a2.33,2.33,0,0,0-3-.08s-2.11,1.73-3.83.73c0,0-2.32.32.29-1.72a4.15,4.15,0,0,0,2-1.62s.3-1.12,2.42-1.23c0,0,2.11-.62,2.51-1.73,0,0,1.4-1.83,3,.48a3.57,3.57,0,0,0,3.94,0,16.43,16.43,0,0,0-3.85-1.59s-6.36-1-9-5.5c0,0-1.24-3.32-2.35-4.12,0,0-2.32-.19-1.72-1.2,0,0,.89-2.23,2.81-2.54,0,0,1.7-1.53,5.44-1.55a17.14,17.14,0,0,0,2.11-.92,3.27,3.27,0,0,1,3.13.38,7.77,7.77,0,0,0,3.34.89s3.84.89,8.31,5.1c0,0,1.42,1.1.62,2.42,0,0-.09,1.71-1.1,2.33C198.91,134.76,198.27,135.86,199.6,135.91Z"/><path class="cls-3" d="M199.6,135.91l.4.16,0,0a12.16,12.16,0,0,1,1.35-2.36,6.4,6.4,0,0,1,3.28-2.55l.18-.05.09-.17a4.44,4.44,0,0,0,.46-1.83,2.06,2.06,0,0,0-.29-1.1,2,2,0,0,0-1.08-.8l-.14.41.4-.15v0a7.91,7.91,0,0,1-.39-2.24,4,4,0,0,1,.25-1.47,2.26,2.26,0,0,1,.92-1.14l.09-.06,2.76-5,5.84,2.28,2.46,2.43,1.63,5.92.41-.11-.41-.1a5.3,5.3,0,0,0-.15,1.19,1.52,1.52,0,0,0,.23.9l.34-.26-.41.12h0a3.65,3.65,0,0,1,.11.89,2.6,2.6,0,0,1-.24,1.14,1.82,1.82,0,0,1-1,.9l-.06,0,0,0a24.85,24.85,0,0,0-2.06,1.83,13.18,13.18,0,0,0-1.45,1.65,3.5,3.5,0,0,0-.76,1.72v.23l.18.14h0a4.6,4.6,0,0,1,.79.85,3.27,3.27,0,0,1,.66,1.92h.43l-.42-.05s-1,8.66-.94,13.3a14.59,14.59,0,0,0,.12,2.07l0,.07,2.13,4-2.49,2.6-.82-5.59h0l-2.22-15.79,0-.05v0a3.26,3.26,0,0,1-.24-1.18,2,2,0,0,1,.14-.77,1.4,1.4,0,0,1,.54-.64l.3-.2-.15-.33a4.12,4.12,0,0,0-.91-1.19,5.72,5.72,0,0,0-3.17-1.46h-.13a5.08,5.08,0,0,0-.65.17,2.11,2.11,0,0,0-.52.26,1.19,1.19,0,0,0-.23.26.78.78,0,0,0-.11.39.91.91,0,0,0,.09.36l0,.07.06.05.06.06a6.92,6.92,0,0,1,.86,1,2.65,2.65,0,0,1,.6,1.38l0,.2.42.09-.39-.18a10.78,10.78,0,0,0-.43,1.07,6.55,6.55,0,0,0-.42,2,1.35,1.35,0,0,0,.19.78l0,.06,0,.05h0a7.42,7.42,0,0,1,1.71,2.16l.13.26.29,0,0-.34v.34h0l0-.34v.34h0v0s.17,0,.42.39a6,6,0,0,1,.53,2.94c0,.35,0,.73,0,1.16l.42,0-.34-.25a4.63,4.63,0,0,0-.3.51,2.75,2.75,0,0,0-.29,1.16,1.52,1.52,0,0,0,.16.7l.38-.2-.39.18,1.82,4.06.8,6.74-8.32,2.37.12.42.42-.09-.08-.39a25.7,25.7,0,0,1-.42-3.93,5.45,5.45,0,0,1,.32-2.17l-.38-.19.27.34a8.39,8.39,0,0,0,.87-.9,4,4,0,0,0,1-2.14v-.11l0-.1,0-.08c-.08-.19-.3-.71-.49-1.29a6.29,6.29,0,0,1-.35-1.69,1.31,1.31,0,0,1,0-.34l.06-.1.09-.06.05-.1h0a2.29,2.29,0,0,1,.48-.55,2.76,2.76,0,0,1,1.5-.64l.17,0,.11-.13a2.72,2.72,0,0,0,.6-1.62,1.76,1.76,0,0,0-.41-1.14l-.33.27.36-.24,0,0a4.74,4.74,0,0,1-.35-.68,2.87,2.87,0,0,1-.25-1,1,1,0,0,1,.12-.51l.48-.81-.93.17a25,25,0,0,0-3.64,1,14,14,0,0,0-2.85,1.41,5.61,5.61,0,0,0-2.07,2.18l-.06.12,0,.14.06.32a27.16,27.16,0,0,1,.29,3.45,6.91,6.91,0,0,1-.37,2.64l0,.08v.1a3.18,3.18,0,0,0,.25,1.13,3.59,3.59,0,0,0,1.71,1.86l.2-.38-.3.31,0,0a10.33,10.33,0,0,1,2.8,5.26l.43-.06-.27-.33L197.64,169l.27.33.42.08a9.54,9.54,0,0,0,.15-1.71,5.13,5.13,0,0,0-.11-1.1,2.2,2.2,0,0,0-.46-1l0,0,0,0-.09-.08a10.53,10.53,0,0,1-1.18-1.18,4.94,4.94,0,0,1-.59-.84,1.58,1.58,0,0,1-.23-.7v-.13l0-.07a6.24,6.24,0,0,0-.32-.87,3.26,3.26,0,0,0-1-1.38l-.25.35.3-.3h0a5.74,5.74,0,0,1-1.43-3.81,7.13,7.13,0,0,1,.58-2.77l0,0v-.05h0a3.14,3.14,0,0,1,1.41-1.93l.06,0,0-.05a3.54,3.54,0,0,0,.25-.4,2.09,2.09,0,0,0,.25-.94,1.34,1.34,0,0,0-.29-.84,1.91,1.91,0,0,0-.92-.61h0a10.89,10.89,0,0,0-2.17-.27,2.73,2.73,0,0,0-1.5.35l.24.36,0-.43h0a2.14,2.14,0,0,1-.73-.23,2.73,2.73,0,0,1-1.15-1.15l0-.07-.07-.06a4.06,4.06,0,0,0-.64-.41,3.36,3.36,0,0,0-1.52-.41,3,3,0,0,0-.41,0l.08.42v-.43h-.09a8.21,8.21,0,0,1-1.25-.11,3.15,3.15,0,0,1-.69-.18.73.73,0,0,1-.35-.22l0,0,0,0a2.46,2.46,0,0,0-.52-.38,2.79,2.79,0,0,0-1.34-.35,3,3,0,0,0-1.72.6h0a5.2,5.2,0,0,1-.81.5,3.44,3.44,0,0,1-1.54.43,1.91,1.91,0,0,1-1-.25l-.13-.07-.15,0h-.22a1.1,1.1,0,0,1-.3,0h0l-.07.11.11-.07,0,0-.07.11.11-.07-.15.1h.18l0-.1-.15.1h.18a1.56,1.56,0,0,1,.27-.36,6.77,6.77,0,0,1,.81-.71l-.27-.34.15.41a5.34,5.34,0,0,0,.86-.44,4,4,0,0,0,1.38-1.39l0,0,0,0h0a1.07,1.07,0,0,1,.38-.45,3,3,0,0,1,1.64-.46h.1a6.82,6.82,0,0,0,1.18-.48,4.68,4.68,0,0,0,.93-.59,2.19,2.19,0,0,0,.68-.93l-.4-.14.34.26h0a1.3,1.3,0,0,1,.31-.28,1.15,1.15,0,0,1,.65-.24c.33,0,.78.16,1.38,1l0,.06,0,0a3.87,3.87,0,0,0,2.2.65,4.31,4.31,0,0,0,2.22-.65L192,141l-.66-.36s-.69-.38-1.53-.77c-.41-.19-.87-.39-1.3-.55a4.76,4.76,0,0,0-1.18-.32l0,.43.07-.42-.07,0a16.28,16.28,0,0,1-3.7-1.16,10.61,10.61,0,0,1-4.94-4.11l-.37.21.4-.15S178.4,133,178,132a15.19,15.19,0,0,0-.78-1.43,4,4,0,0,0-.95-1.1l-.1-.07h-.18a4,4,0,0,1-.91-.19,1,1,0,0,1-.39-.19l-.06-.06h0l0-.09,0,0v-.05a5,5,0,0,1,.7-1.13,3,3,0,0,1,1.78-1.13l.12,0,.09-.08,0,0,0,0h0l0,0,0,0S179,125,182.5,125h.07l.07,0,.81-.31a12.54,12.54,0,0,0,1.38-.64l-.22-.37.19.38-.06-.13.06.13h0l-.06-.13.06.13a2.54,2.54,0,0,1,.95-.18,3.27,3.27,0,0,1,1.76.54h0a8.35,8.35,0,0,0,3.55.94v-.43l-.1.42h0a20.12,20.12,0,0,1,8.07,5h0v0l.08-.11-.08.11h0l.08-.11-.08.11a1.67,1.67,0,0,1,.37.39,1.47,1.47,0,0,1,.33.85,1.11,1.11,0,0,1-.18.61l-.06.1v.16a4,4,0,0,1-.2.95,1.8,1.8,0,0,1-.68,1l-.1.06-.05.09a1.58,1.58,0,0,0-.21.76,1,1,0,0,0,.31.72,1.49,1.49,0,0,0,1,.32h.3l.11-.28-.4-.16,0-.43a.69.69,0,0,1-.41-.1l0-.08,0-.22,0-.09v0h0l-.37-.21.22.36a2.77,2.77,0,0,0,1.12-1.64,4.65,4.65,0,0,0,.18-1l-.42,0,.36.22a2,2,0,0,0,.31-1.06,2.38,2.38,0,0,0-.52-1.39,2.72,2.72,0,0,0-.51-.53l-.26.34.29-.31c-4.54-4.28-8.45-5.19-8.51-5.21h-.09a6.45,6.45,0,0,1-2.17-.41l-.71-.29-.19-.1,0,0h0l-.21.37.23-.36a4.1,4.1,0,0,0-2.23-.68,3.16,3.16,0,0,0-1.32.28h0c-.32.18-.84.41-1.27.59l-.55.21-.23.09.15.4v-.43c-3.85,0-5.67,1.61-5.72,1.66l.29.32-.07-.43a3.92,3.92,0,0,0-2.4,1.55,5.53,5.53,0,0,0-.74,1.26l.4.16-.37-.22a1.06,1.06,0,0,0-.16.54.91.91,0,0,0,.15.49,1.39,1.39,0,0,0,.6.46,5.13,5.13,0,0,0,1.46.36l0-.43-.25.35a3.21,3.21,0,0,1,.72.86,15.72,15.72,0,0,1,1,2c.14.31.25.58.33.77l.11.3,0,0,0,0a11.7,11.7,0,0,0,5.7,4.62,16.4,16.4,0,0,0,3.62,1.08h0a3.72,3.72,0,0,1,.95.26,17.67,17.67,0,0,1,1.81.81l.66.33.25.14.21-.38-.22-.37a3.51,3.51,0,0,1-1.79.54,3.24,3.24,0,0,1-1.23-.25,3.52,3.52,0,0,1-.34-.17l-.08-.06h0l-.26.34.35-.24a2.6,2.6,0,0,0-2.08-1.35,2,2,0,0,0-1.2.42,2.79,2.79,0,0,0-.44.43l0,0,0,.06a1.35,1.35,0,0,1-.44.56,4.61,4.61,0,0,1-1.15.67l-.46.18-.14,0,0,0,.12.41,0-.43a3.69,3.69,0,0,0-2.26.76,1.72,1.72,0,0,0-.54.78l.41.12-.38-.21a3,3,0,0,1-1.07,1.07,4,4,0,0,1-.51.28l-.15.06,0,0h0l-.07,0-.05,0a6.93,6.93,0,0,0-1,.95,1.31,1.31,0,0,0-.37.81.72.72,0,0,0,.18.45,1,1,0,0,0,.5.26,2.19,2.19,0,0,0,.42,0,3.09,3.09,0,0,0,.34,0l-.06-.43-.21.37a2.77,2.77,0,0,0,1.42.37,4.58,4.58,0,0,0,2-.57,5.58,5.58,0,0,0,.87-.57l-.27-.33.25.35a2.07,2.07,0,0,1,1.23-.44,1.89,1.89,0,0,1,.92.24l.25.17.07.06h0l0,0,0,0h0l0,0,0,0,.3-.31-.35.25a1.66,1.66,0,0,0,.85.56,6.23,6.23,0,0,0,1.47.28c.43,0,.75,0,.76,0h.08l.25,0a2.6,2.6,0,0,1,1.12.31,3.39,3.39,0,0,1,.38.23l.1.07,0,0h0l.26-.33-.37.2a3.47,3.47,0,0,0,1.62,1.55,2.79,2.79,0,0,0,1,.27h.14l.13-.08a2,2,0,0,1,1-.2,8.75,8.75,0,0,1,1.33.12l.46.09.17,0,.11-.41-.14.4a1.16,1.16,0,0,1,.53.33.45.45,0,0,1,.1.31,1.26,1.26,0,0,1-.15.55,1.28,1.28,0,0,1-.12.19l0,.06h0l.33.26-.23-.36a4.2,4.2,0,0,0-1.48,1.63,3,3,0,0,0-.31.9l.42.06-.39-.16a7.88,7.88,0,0,0-.64,3.1,6.63,6.63,0,0,0,1.68,4.43l0,0,0,0a2.59,2.59,0,0,1,.68,1,4.21,4.21,0,0,1,.2.54l.06.16v.06l.42-.12-.43,0v.12a2.63,2.63,0,0,0,.42,1.26,9.84,9.84,0,0,0,2,2.2l.27-.33-.32.29a1.34,1.34,0,0,1,.27.6,4.42,4.42,0,0,1,.09.92,8.22,8.22,0,0,1-.07,1.07l-.05.35a1.13,1.13,0,0,1,0,.12l-.22,1.14,5.32-4.23,0-.24a9.64,9.64,0,0,0-1.71-4.13,10.5,10.5,0,0,0-1.38-1.66l0,0,0,0a2.78,2.78,0,0,1-1.32-1.42,2.85,2.85,0,0,1-.16-.6l0-.17v0h-.43l.38.18a7.37,7.37,0,0,0,.46-3,26.7,26.7,0,0,0-.36-3.92l-.42.08.38.18a5,5,0,0,1,1.77-1.84,15.67,15.67,0,0,1,4-1.76c.62-.19,1.16-.33,1.55-.42l.46-.1.15,0-.07-.43-.37-.21a1.81,1.81,0,0,0-.24.94,3.87,3.87,0,0,0,.39,1.53,5.39,5.39,0,0,0,.38.7v0a1,1,0,0,1,.23.61,1.67,1.67,0,0,1-.21.74,2.5,2.5,0,0,1-.14.25l-.05.06h0l.33.27-.05-.43a3.66,3.66,0,0,0-2,.9,2.68,2.68,0,0,0-.61.77l.39.19-.24-.36a1,1,0,0,0-.39.53,1.86,1.86,0,0,0-.09.62,7.57,7.57,0,0,0,.49,2.22,10.92,10.92,0,0,0,.47,1.19l.39-.17-.43,0a3.23,3.23,0,0,1-.79,1.66,6.27,6.27,0,0,1-.53.57l-.17.15,0,0h0l-.08.06,0,.09a6,6,0,0,0-.41,2.54,26.91,26.91,0,0,0,.52,4.49l.09.45,9.46-2.7-.9-7.59-1.87-4.19h0a1,1,0,0,1-.07-.32,2,2,0,0,1,.21-.78l.16-.28,0-.08h0l.07-.1V151c0-.45,0-.85,0-1.22a6.41,6.41,0,0,0-.72-3.49,1.32,1.32,0,0,0-1.07-.68h0l0,.43.38-.2a8.25,8.25,0,0,0-1.94-2.45l-.27.33.36-.22a.73.73,0,0,1-.06-.33,6,6,0,0,1,.38-1.7c.1-.29.2-.54.27-.72l.09-.21,0-.07v-.09a1.74,1.74,0,0,0,.05-.39,3.75,3.75,0,0,0-.93-2.1,8.43,8.43,0,0,0-.88-.94l-.29.32.38-.19h0l-.1,0h.11v0l-.1,0h0l.1.07,0-.07h-.12l.1.07h0a.55.55,0,0,1,.13-.09,2.07,2.07,0,0,1,.44-.15l.17,0h.06l-.06-.42-.06.42a4.76,4.76,0,0,1,2.7,1.23,3.93,3.93,0,0,1,.56.66l.13.21,0,.05h0l0,0,0,0h0l0,0,0,0,.39-.17-.24-.36a2.37,2.37,0,0,0-.85,1,2.84,2.84,0,0,0-.21,1.12,4.24,4.24,0,0,0,.32,1.53l.39-.17-.42.06,2.21,15.73h0l1.08,7.32,4.13-4.3-2.39-4.5-.38.2.42-.07a13.64,13.64,0,0,1-.11-1.93c0-2.27.21-5.58.45-8.31.12-1.37.24-2.59.33-3.47s.15-1.42.15-1.42v-.05a4.27,4.27,0,0,0-.91-2.54,4.4,4.4,0,0,0-.9-.92l-.25.34.43,0a2.64,2.64,0,0,1,.6-1.26,16.37,16.37,0,0,1,2.09-2.24c.35-.32.66-.59.89-.78l.36-.29-.27-.34.16.4a2.7,2.7,0,0,0,1.46-1.32,3.42,3.42,0,0,0,.33-1.53,5.07,5.07,0,0,0-.15-1.13l0-.08,0-.06,0-.11a1.1,1.1,0,0,1,0-.27,2.93,2.93,0,0,1,.06-.67c0-.09,0-.17,0-.23l0-.09,0-.1L217,121.76,214.21,119l-6.71-2.61L204.44,122l.37.21-.23-.37a3.27,3.27,0,0,0-1.26,1.55,4.76,4.76,0,0,0-.3,1.8,8.46,8.46,0,0,0,.45,2.57l.07.19.2.07a1,1,0,0,1,.62.44,1.21,1.21,0,0,1,.16.65,2.84,2.84,0,0,1-.18,1,3.26,3.26,0,0,1-.13.33l0,.09v0l.38.2-.11-.42a7.45,7.45,0,0,0-3.92,3.11,11.92,11.92,0,0,0-1.3,2.36l.39.16,0-.43Z"/><path class="cls-3" d="M207.79,121.38s-2.79-26-2-28.91c0,0,1-8.67,3.84-4,0,0,.49,3.87,2.32,0,0,0,.26-7.58,10.15-9.19,0,0,2.79-.48,2.77-3,0,0,1.06-3.1,1.4.61,0,0-.13,5.26.81,6.34,0,0,1.57,4.32.66,6.49a7.05,7.05,0,0,1-.92,2.64,12,12,0,0,1,7.1-2.52s2.94-.64,3.24-1.57c0,0,2.15-2.33.65,4.48a27.22,27.22,0,0,0,0,7.43s1.1,1.85-2.29,4.19a3.59,3.59,0,0,0-.76,2.48s-.45,2.63-2.45,3.57c0,0,6.33-1,8.21,2.27,0,0,4.2,4,6.53,5.07,0,0,1.87,2.15-1.38,1.71,0,0-2.17-.15-2.32.94,0,0-2.47,1.25-6.5-.74,0,0,.86,14.07-2.36,17.81a12.35,12.35,0,0,1-6.92,7.93s-5.7,3.74-7.25,3.6c0,0-1.28-.39-1.88,6.19,0,0-.4,3.61.88,3.82,0,0,2.53-1.18,3-3.31,0,0,.74-1.28,2.13.31,0,0,3.51,1.57,4.26,4.21a11.31,11.31,0,0,1,.14,4.56s-.63,1.28,1.7,1.37c0,0,4.58,1.78,1.3,4.13,0,0-.2,1.27-4.44,2.15,0,0-.3,3.5-.93,4.57,0,0-.73,2.23-1.58.85a15,15,0,0,0-1.51-3s-1.17-1.58-2.13-1.47c0,0-17.16,2.65-26-3.45,0,0-2.77-2.42,1.79-3.51l17.07-1.06.38-6.36-.27-5.57s.27-8.56,1.23-9.69c0,0,1.45-1.3,1.47,1.44,0,0-1.25,6.78-.76,8.4a6.79,6.79,0,0,0,.36.86,25.13,25.13,0,0,0,1.79-8.56s-1.66-3.71-.77-6.11c0,0-.17-5.57,2.82-7,0,0,3-2.82,1.75-4.72a8.26,8.26,0,0,1-3.95.23s.63,2.59.15,3.48c0,0-4.54,4-5.21,5.89S207.79,121.38,207.79,121.38Z"/><path class="cls-3" d="M207.79,121.38l.43,0s-.13-1.23-.33-3.19c-.6-5.87-1.8-18.3-1.83-23.51a11.14,11.14,0,0,1,.11-2.06v0l0-.23a20.12,20.12,0,0,1,.63-2.9,5.57,5.57,0,0,1,.63-1.42,1.3,1.3,0,0,1,.33-.38.45.45,0,0,1,.25-.1.74.74,0,0,1,.44.21,4,4,0,0,1,.74.94l.37-.22-.42,0a4.62,4.62,0,0,0,.21.94,2.57,2.57,0,0,0,.34.71,1.11,1.11,0,0,0,.31.3.73.73,0,0,0,.47.14,1,1,0,0,0,.5-.15,4.14,4.14,0,0,0,1.3-1.82l0-.08v-.09h0a8.77,8.77,0,0,1,1.42-4c1.29-1.94,3.68-4,8.37-4.81h0a4.76,4.76,0,0,0,1.54-.61,3.5,3.5,0,0,0,1.08-1,3,3,0,0,0,.5-1.74h-.43l.41.14v0a5.88,5.88,0,0,1,.27-.61,1.27,1.27,0,0,1,.18-.26l0,0h0l-.09-.14v.16l.09,0-.09-.14v-.08l-.1.21.1,0v-.24l-.1.21.06-.13-.1.11,0,0,.06-.13-.1.11h0a1.33,1.33,0,0,1,.15.43,7.47,7.47,0,0,1,.15,1l.43,0h-.43s0,.34,0,.85c0,.78,0,2,.15,3.07a11.12,11.12,0,0,0,.26,1.55,2.94,2.94,0,0,0,.51,1.16l.33-.28-.4.15,0,.1a15.68,15.68,0,0,1,.88,4.48,4,4,0,0,1-.25,1.6l0,0v.12a6.54,6.54,0,0,1-.84,2.4l-1.34,2.18,2-1.62,0,0a11.6,11.6,0,0,1,6.47-2.41H234a15.17,15.17,0,0,0,1.55-.45,7.43,7.43,0,0,0,1.18-.53,1.78,1.78,0,0,0,.82-.87l-.41-.14.32.29,0,0,0,0h0l0,0,0,0,.17-.15.13-.08h.06v-.09l-.05.07.05,0v-.09l-.05.07,0,0,0,0h0l0,0,0,0a.5.5,0,0,1,.06.16,2.24,2.24,0,0,1,.06.61,17.35,17.35,0,0,1-.52,3.59v0a34.59,34.59,0,0,0-.25,4.18,18.19,18.19,0,0,0,.3,3.39l0,.07,0,.06.1-.07-.11.06h0l.1-.07-.11.06a1.26,1.26,0,0,1,.11.55,2.35,2.35,0,0,1-.39,1.24,6.39,6.39,0,0,1-1.88,1.84l0,0,0,0a3.94,3.94,0,0,0-.89,2.78h.43l-.42-.07v0a6.31,6.31,0,0,1-.51,1.44,3.77,3.77,0,0,1-1.7,1.79l-2.69,1.26,2.93-.44.14,0a13.72,13.72,0,0,1,1.8-.11,11.69,11.69,0,0,1,3.29.4,4.22,4.22,0,0,1,2.55,1.79l0,0,.05,0s1,1,2.41,2.15a22.47,22.47,0,0,0,4.23,3l.18-.39-.33.28,0,0a1.84,1.84,0,0,1,.25.36,1,1,0,0,1,.16.46l0,.1a1.28,1.28,0,0,1-.64.12,5.86,5.86,0,0,1-.75-.06h-.33a4.68,4.68,0,0,0-1.32.18,2,2,0,0,0-.71.37,1.19,1.19,0,0,0-.43.77l.42.06-.19-.38h0a4.92,4.92,0,0,1-1.91.34,9.49,9.49,0,0,1-4.21-1.08l-.66-.33,0,.74s0,.36,0,1,.05,1.51.05,2.56a58.28,58.28,0,0,1-.4,7.77c-.33,2.65-1,5.06-2,6.18l-.07.08,0,.1,0,0a10.94,10.94,0,0,1-1.44,3.15,11.76,11.76,0,0,1-5.21,4.44h0l0,0-.88.56c-.8.5-2,1.25-3.24,1.88-.59.31-1.17.59-1.67.79a3.41,3.41,0,0,1-1.13.3h-.06l0,.43.13-.41-.17,0a.84.84,0,0,0-.58.24,3.73,3.73,0,0,0-.91,1.72,23.81,23.81,0,0,0-.77,4.63l.42,0-.42,0a11.65,11.65,0,0,0-.06,1.33,6.8,6.8,0,0,0,.19,1.73,2.22,2.22,0,0,0,.36.76,1.17,1.17,0,0,0,.74.46l.13,0,.12-.05a7.94,7.94,0,0,0,1.42-.91,5.16,5.16,0,0,0,1.87-2.69l-.42-.1.37.21h0a1.14,1.14,0,0,1,.16-.16.47.47,0,0,1,.29-.11c.17,0,.49.09,1,.65l.07.07.08,0h0a10.7,10.7,0,0,1,1.92,1.19,5.75,5.75,0,0,1,2.08,2.74h0v0a9.23,9.23,0,0,1,.26,2.29,13.09,13.09,0,0,1-.15,2.05l.43.06-.39-.19a1.47,1.47,0,0,0-.12.56,1.24,1.24,0,0,0,.5,1,3,3,0,0,0,1.7.46v-.43l-.15.4h0a6.7,6.7,0,0,1,1.24.68,3.21,3.21,0,0,1,.68.64,1.16,1.16,0,0,1,.26.68,1.06,1.06,0,0,1-.19.59,3.37,3.37,0,0,1-.81.78l-.14.11,0,.17.28.05-.28-.07v0l.28.05-.28-.07h0s-.1.28-.67.64a10.64,10.64,0,0,1-3.44,1.19l-.31.06,0,.32,0,.56c-.06.51-.16,1.3-.3,2.05a6.43,6.43,0,0,1-.52,1.78l0,0v0l0,.05a3.32,3.32,0,0,1-.3.63,1.19,1.19,0,0,1-.21.28l-.07.05h0v0h0v0h0v0a.56.56,0,0,1-.22-.24l-.36.22.4-.15s-.25-.62-.56-1.31c-.16-.34-.34-.7-.51-1a3.91,3.91,0,0,0-.53-.78l-.31.3.35-.25a7.46,7.46,0,0,0-.72-.8,4.73,4.73,0,0,0-.73-.57,1.88,1.88,0,0,0-.94-.28h-.15l-.61.08a65.38,65.38,0,0,1-7.52.48c-5.61,0-12.88-.69-17.57-3.94l-.25.35.29-.32h0a3.23,3.23,0,0,1-.38-.44,1.49,1.49,0,0,1-.3-.8.9.9,0,0,1,.38-.72,4.71,4.71,0,0,1,1.91-.81l-.1-.42,0,.43,17.45-1.08L215,159l-.27-5.6-.43,0h.43s0-.53.06-1.35c.06-1.22.17-3.09.36-4.74.09-.83.2-1.6.33-2.21a7.72,7.72,0,0,1,.21-.76,1.29,1.29,0,0,1,.17-.37l-.33-.27.29.31-.08-.08.08.09h0l-.08-.08.08.09A.66.66,0,0,1,216,144a.45.45,0,0,1,.24-.08h0s.09.06.16.27a3.64,3.64,0,0,1,.13,1H217l-.43-.08s-.22,1.21-.44,2.73a35.12,35.12,0,0,0-.43,4.64,4.37,4.37,0,0,0,.13,1.23h0s.06.18.14.39a2.88,2.88,0,0,0,.13.31.85.85,0,0,0,.15.28l.44.59.29-.67a25.78,25.78,0,0,0,1.83-8.73v-.1l0-.08,0-.1a12.59,12.59,0,0,1-.95-4.15,4.5,4.5,0,0,1,.24-1.55l0-.07v-.19a13.79,13.79,0,0,1,.37-3.14,7.32,7.32,0,0,1,.79-2,3.52,3.52,0,0,1,1.42-1.37l.06,0,.05,0a10,10,0,0,0,1.08-1.25,5,5,0,0,0,1.1-2.75,2.25,2.25,0,0,0-.37-1.26l-.18-.28-.31.1,0,0a9.28,9.28,0,0,1-2.36.35,5.21,5.21,0,0,1-1.31-.14l-.69-.19.17.7,0,.22a11.15,11.15,0,0,1,.27,2.11,1.89,1.89,0,0,1-.13.85l.38.2-.28-.33s-1.15,1-2.38,2.26c-.61.62-1.25,1.3-1.79,2a7,7,0,0,0-1.16,1.86h0l.21.12-.14-.2-.07.08.21.12-.14-.2.2.27v-.34l-.2.07.2.27v-.08l.17-.2s0-.05-.17-.06v.26l.17-.2h0a1.48,1.48,0,0,1-.17-.28,25.83,25.83,0,0,1-1.33-3.54c-.78-2.42-1.65-5.5-2.33-8-.34-1.24-.63-2.33-.84-3.11l-.32-1.25-.42.11.43,0-.43,0-.41.11s1.06,4.11,2.25,8.22c.59,2.06,1.21,4.12,1.76,5.67.27.78.52,1.43.74,1.9a3.88,3.88,0,0,0,.33.59,1.3,1.3,0,0,0,.19.22.61.61,0,0,0,.38.14.55.55,0,0,0,.39-.17.74.74,0,0,0,.14-.26,6.53,6.53,0,0,1,1-1.6,31.27,31.27,0,0,1,2.61-2.76c.41-.4.78-.74,1-1l.42-.37.05-.05,0-.07a2.75,2.75,0,0,0,.23-1.26,13.09,13.09,0,0,0-.35-2.52l-.41.1-.11.42a6.19,6.19,0,0,0,1.53.17,9.79,9.79,0,0,0,2.66-.41l-.13-.41-.36.24a1.4,1.4,0,0,1,.23.79,4.16,4.16,0,0,1-.94,2.25,10.35,10.35,0,0,1-.67.82l-.22.23-.06.06h0l.29.32-.18-.39a4.34,4.34,0,0,0-1.78,1.69,12,12,0,0,0-1.29,5.61v.12h.43l-.4-.15a5.22,5.22,0,0,0-.29,1.84,13.26,13.26,0,0,0,1.07,4.6l.39-.18h-.43a24.17,24.17,0,0,1-.92,5.95c-.21.76-.42,1.38-.58,1.8l-.18.49-.07.16.39.17.34-.25-.13.1.14-.09h0l-.13.1.14-.09h0c0-.06-.12-.27-.18-.44l-.11-.32-.41.15.41-.13a3.64,3.64,0,0,1-.1-1A36,36,0,0,1,217,148c.11-.76.22-1.43.3-1.92s.14-.78.14-.78v-.08a3.38,3.38,0,0,0-.3-1.62,1.11,1.11,0,0,0-.4-.43,1,1,0,0,0-.5-.13,1.37,1.37,0,0,0-.69.21,1.1,1.1,0,0,0-.28.21l0,0,0,0a2.43,2.43,0,0,0-.42.9,32.73,32.73,0,0,0-.72,5.46c-.14,2-.2,3.59-.2,3.59v0l.27,5.56-.36,6L197,166h0a5.31,5.31,0,0,0-2.27,1,1.79,1.79,0,0,0-.68,1.38,2.42,2.42,0,0,0,.5,1.34,5.38,5.38,0,0,0,.48.54h0l0,0c5,3.42,12.38,4.12,18.06,4.09a63.85,63.85,0,0,0,8.26-.57l-.07-.43.06.43h0a1.1,1.1,0,0,1,.49.17,3.55,3.55,0,0,1,.83.71,2.92,2.92,0,0,1,.27.31l.08.09,0,0,0,0,0,0a3,3,0,0,1,.39.59c.24.43.49,1,.69,1.44s.33.78.33.78v0l0,0a1.73,1.73,0,0,0,.41.47.94.94,0,0,0,.54.18,1,1,0,0,0,.7-.33,2.88,2.88,0,0,0,.53-.81,4.56,4.56,0,0,0,.18-.46l-.41-.13.37.21a4.77,4.77,0,0,0,.46-1.28,27.48,27.48,0,0,0,.53-3.46l-.43,0,.09.42a10.29,10.29,0,0,0,4-1.48,1.8,1.8,0,0,0,.81-1l-.43-.07.25.35a4,4,0,0,0,1-1,2,2,0,0,0,.33-1.06,2,2,0,0,0-.48-1.25,5,5,0,0,0-1.43-1.14,8.87,8.87,0,0,0-.84-.41l-.07,0h-.07a2.07,2.07,0,0,1-1.21-.29.32.32,0,0,1-.16-.28l0-.14v0h0l0-.06v-.06a15,15,0,0,0,.16-2.18,10.57,10.57,0,0,0-.3-2.57l-.42.12.42-.12a6.71,6.71,0,0,0-2.58-3.32,11.86,11.86,0,0,0-1.93-1.17l-.17.4.32-.29a2.27,2.27,0,0,0-1.63-.94,1.39,1.39,0,0,0-.9.36,1.8,1.8,0,0,0-.29.35l0,.05v.06a4.34,4.34,0,0,1-1.58,2.22,7.74,7.74,0,0,1-.88.6l-.27.15-.07,0h0l.18.39.06-.43a.28.28,0,0,1-.19-.13,2,2,0,0,1-.29-.81,8.92,8.92,0,0,1-.09-1.16c0-.34,0-.66,0-.88s0-.2,0-.27v-.09h0a17.4,17.4,0,0,1,1-5.16,1.86,1.86,0,0,1,.39-.61l.06,0,0-.08v.08h0l0-.08v-.21l-.08.28h.09v-.29l-.08.28h.23a2.93,2.93,0,0,0,.91-.18,23.64,23.64,0,0,0,4.08-2c1.33-.78,2.38-1.47,2.39-1.47l-.24-.36.18.39a12.69,12.69,0,0,0,5.79-5.08,11.31,11.31,0,0,0,1.36-3.15l-.41-.09.32.28c1.2-1.42,1.8-3.91,2.16-6.63a60.33,60.33,0,0,0,.41-7.88c0-2.12-.1-3.6-.1-3.6l-.43,0-.19.39a10.36,10.36,0,0,0,4.59,1.17,5.59,5.59,0,0,0,2.3-.44l.2-.1,0-.22a.36.36,0,0,1,.13-.24,1.6,1.6,0,0,1,.69-.27,4,4,0,0,1,.79-.07h.25l0-.42-.06.42a4.6,4.6,0,0,0,.87.06,2,2,0,0,0,1.12-.27,1,1,0,0,0,.41-.81,2,2,0,0,0-.33-1,3.83,3.83,0,0,0-.31-.43l-.06-.07-.08,0a22.25,22.25,0,0,1-4-2.87c-.67-.57-1.26-1.1-1.69-1.48s-.68-.64-.68-.64l-.3.31.37-.21a5,5,0,0,0-3-2.18,12.4,12.4,0,0,0-3.55-.44,14.71,14.71,0,0,0-2.06.14l.07.42.18.39a4.73,4.73,0,0,0,2.19-2.35,6.55,6.55,0,0,0,.5-1.54v-.07a3.93,3.93,0,0,1,.34-1.7,2.27,2.27,0,0,1,.22-.38l.06-.09h0l-.18-.17.18.17h0l-.18-.17.18.17-.31-.3.24.35a7.22,7.22,0,0,0,2.14-2.1,3.15,3.15,0,0,0,.51-1.68,1.92,1.92,0,0,0-.23-1l-.37.22.42-.09a16.75,16.75,0,0,1-.28-3.21c0-1.08,0-2.1.12-2.85,0-.37.06-.68.08-.89s0-.33,0-.33l-.42-.06.42.1a17.8,17.8,0,0,0,.54-3.79,2.49,2.49,0,0,0-.2-1.13,1,1,0,0,0-.31-.35.78.78,0,0,0-.43-.12,1.22,1.22,0,0,0-.71.28,2.13,2.13,0,0,0-.27.24l-.07.07,0,.09a1.12,1.12,0,0,1-.45.4,7.93,7.93,0,0,1-1.57.64c-.25.08-.48.14-.65.18l-.26.06.09.42,0-.43h-.35a12.51,12.51,0,0,0-7,2.62l.27.33.37.22a7.34,7.34,0,0,0,1-2.81l-.42,0,.39.17a4.92,4.92,0,0,0,.32-1.94,17.1,17.1,0,0,0-1-4.87l0-.07,0-.06a2.33,2.33,0,0,1-.33-.81,22.48,22.48,0,0,1-.38-4.41v-.88a6.56,6.56,0,0,0-.27-1.54,1.57,1.57,0,0,0-.25-.44.67.67,0,0,0-.49-.23.63.63,0,0,0-.39.13,1.27,1.27,0,0,0-.37.4,6.18,6.18,0,0,0-.46,1l0,.07v.08a2.26,2.26,0,0,1-.35,1.26,2.91,2.91,0,0,1-1.28,1,3,3,0,0,1-.56.2l-.17.05H222l.07.42L222,78.8c-5.06.81-7.73,3.2-9.09,5.39a9.57,9.57,0,0,0-1.43,4.2l.43,0-.39-.19a5.5,5.5,0,0,1-.74,1.25,1.22,1.22,0,0,1-.23.21l-.05,0h0v0h0v0l0,0a1.76,1.76,0,0,1-.34-.74c0-.15-.07-.3-.09-.41l0-.12v-.13L210,88.2a4.44,4.44,0,0,0-.93-1.15,1.54,1.54,0,0,0-1-.42,1.41,1.41,0,0,0-.85.34,3.74,3.74,0,0,0-.91,1.41,19.45,19.45,0,0,0-1,4l.43,0-.42-.11a11.46,11.46,0,0,0-.14,2.27c.05,7.07,2.17,26.79,2.17,26.79v.07Z"/><path class="cls-3" d="M204.61,129.9s-4.27-2.61-5.26-6c0,0-.58-2.15-2.39-1.4a1.58,1.58,0,0,1-2.22.35s-1.77-1.52-1.83-2.88c0,0-7-3.31-8.33-13.71A28.27,28.27,0,0,0,183,99.32s-1.56-3.85-.9-6.76a5.42,5.42,0,0,0-.93-3.12s-1.38-2.66,1.18-2.39a23.7,23.7,0,0,0,4.38-.14s4.6-.54,6.15,2.18c0,0,8.78,8.92,10.16,14.07,0,0,2.49,5,2.76,8.94,0,0,0,5.5.63,6.17l3.47.91Z"/><path class="cls-3" d="M204.61,129.9l.22-.37,0,0a17.48,17.48,0,0,1-2.37-1.86,9.32,9.32,0,0,1-2.66-3.89l-.41.12.42-.11a3.88,3.88,0,0,0-.43-.91,2.28,2.28,0,0,0-.63-.65,1.83,1.83,0,0,0-1-.32,2.29,2.29,0,0,0-.88.19l-.11,0-.07.1,0,0,0,0h0l0,0,0,0a1.6,1.6,0,0,1-.29.27,1,1,0,0,1-.63.23,1.21,1.21,0,0,1-.71-.25l-.24.35.28-.32-.07-.06a10.16,10.16,0,0,1-.93-1,3,3,0,0,1-.69-1.51v-.25l-.23-.11h0a13,13,0,0,1-3.7-3A18.89,18.89,0,0,1,185,106.19l-.43,0,.43,0s-.11-1.09-.36-2.52a21.48,21.48,0,0,0-1.25-4.53l-.39.17.39-.16,0-.11a15.6,15.6,0,0,1-1-4.84,6.53,6.53,0,0,1,.15-1.55v-.25a6,6,0,0,0-1-3.21l-.36.24.38-.19v0a3.13,3.13,0,0,1-.31-1.14.59.59,0,0,1,.13-.43c.08-.09.24-.19.64-.19a1.78,1.78,0,0,1,.31,0h0s1.1,0,2.21,0c.47,0,.94,0,1.34,0a3.73,3.73,0,0,0,1-.16l-.15-.4,0,.43h.05c.11,0,.39,0,.77,0a8.8,8.8,0,0,1,2.62.34,3.81,3.81,0,0,1,2.29,1.66l0,0,0,0,.38.39c.84.88,3,3.17,5,5.78s4.07,5.59,4.63,7.71v0l0,0a2.28,2.28,0,0,1,.1.21c.48,1,2.39,5.22,2.62,8.57l.42,0h-.43s0,1.39.1,2.86c0,.73.1,1.49.19,2.12a7,7,0,0,0,.16.84,1.58,1.58,0,0,0,.29.63l.09.1,3.09.81-5.07,10.25.38.19.22-.37-.22.37.38.19,5.54-11.2-4-1-.11.42.32-.29,0,0h0l0,0h0a1.31,1.31,0,0,1-.13-.36,20.25,20.25,0,0,1-.34-3.31c0-.61,0-1.16-.05-1.57s0-.65,0-.65h0v0a22.77,22.77,0,0,0-1.51-6.08c-.66-1.76-1.29-3-1.29-3l-.39.19.42-.11a17,17,0,0,0-2.23-4.5,75.83,75.83,0,0,0-8.05-9.76l-.3.3.37-.21a4.67,4.67,0,0,0-2.78-2.06,9.52,9.52,0,0,0-2.87-.38c-.55,0-.91,0-.92,0h-.06l0,0a3.29,3.29,0,0,1-.75.11c-.37,0-.83,0-1.28,0l-1.5,0-.67,0,0,.43,0-.43-.41,0a1.68,1.68,0,0,0-1.26.46,1.5,1.5,0,0,0-.36,1,4,4,0,0,0,.42,1.55v0l0,0a5.31,5.31,0,0,1,.86,2.74v.12l.43,0-.42-.09a7.29,7.29,0,0,0-.17,1.74,16.29,16.29,0,0,0,1.09,5.27h0a20.24,20.24,0,0,1,1.19,4.35c.13.69.22,1.3.27,1.74s.09.71.09.71h0a19.67,19.67,0,0,0,4.76,11,13.46,13.46,0,0,0,3.8,3l.19-.38-.43,0a4.08,4.08,0,0,0,1,2.2,8.87,8.87,0,0,0,.94,1h0l0,0a2.12,2.12,0,0,0,1.2.4,2,2,0,0,0,1.18-.44,1.77,1.77,0,0,0,.42-.42l-.34-.25.16.39a1.45,1.45,0,0,1,.56-.12.87.87,0,0,1,.54.17,1.67,1.67,0,0,1,.55.66c.06.12.1.23.13.3l0,.09v0h0a10.4,10.4,0,0,0,3.12,4.49,18.06,18.06,0,0,0,2.33,1.78l.4.24.2-.42Z"/><path class="cls-3" d="M217.82,157.61s1.92-6.12,3.26-6.2a3.46,3.46,0,0,0,1.26-3.1c-.28-1.95,4.69-2.79,4.69-2.79a49,49,0,0,0,5.85.17s6.47,2.31,7.63,5c0,0,1.7,3.21,3.05,4.28a10.4,10.4,0,0,1,2.73,6.84l.9,4.3s.55,1.94-2.35.28-8.57-4.59-11.06-5.31c0,0-1.88.08-2.91-2.4,0,0-1-3.9-4.12-4.35,0,0-3,.36-4.31-.44a7.39,7.39,0,0,0-2.73,4.92c-.25,3.1-2.55.69-2.55.69Z"/><path class="cls-3" d="M217.82,157.61l.41.13.09-.26c.19-.57.68-2,1.27-3.34a11.45,11.45,0,0,1,.91-1.7,2.71,2.71,0,0,1,.4-.48c.12-.11.2-.13.2-.12h.13l.11-.08a3.77,3.77,0,0,0,.74-.79,3.69,3.69,0,0,0,.72-2.2,2.92,2.92,0,0,0,0-.51v-.1a.73.73,0,0,1,.13-.4,2.44,2.44,0,0,1,.92-.75,10.72,10.72,0,0,1,2.14-.8l.83-.19.24,0h.08l-.07-.43,0,.43s3.27.24,5,.23l.57,0a1.78,1.78,0,0,0,.43-.06l-.11-.41-.15.4.27.11a28.72,28.72,0,0,1,3.71,1.71,14.49,14.49,0,0,1,2.12,1.42,4.43,4.43,0,0,1,1.28,1.53h0v0s.43.81,1,1.77a11.72,11.72,0,0,0,2.13,2.65l.27-.34-.29.32h0a10.08,10.08,0,0,1,2.59,6.55v0l.91,4.34h0l.1,0-.1,0h0l.1,0-.1,0a.6.6,0,0,1,0,.21.38.38,0,0,1,0,.17s0,0-.14,0a3.69,3.69,0,0,1-1.58-.61c-1.46-.84-3.61-2-5.71-3a39.44,39.44,0,0,0-5.44-2.33l-.07,0h-.07a2,2,0,0,1-.94-.27,3.41,3.41,0,0,1-1.55-1.87l-.4.17.42-.11a8.8,8.8,0,0,0-1-2.12,6.23,6.23,0,0,0-1.36-1.58,4.37,4.37,0,0,0-2.16-1h-.22c-.2,0-.69.06-1.27.06a9.07,9.07,0,0,1-1.47-.09,3.15,3.15,0,0,1-1.18-.37l-.25-.15-.23.17a7.65,7.65,0,0,0-1.36,1.39,7.28,7.28,0,0,0-1.54,3.85,2.33,2.33,0,0,1-.27,1,.3.3,0,0,1-.28.15,1.53,1.53,0,0,1-.8-.36,2.82,2.82,0,0,1-.34-.28l-.1-.09,0,0-.31.3.41.14.66-1.89h0l-.41-.13-.4-.14-.75,2.14.18.19a4.36,4.36,0,0,0,.58.49,2.32,2.32,0,0,0,1.32.53,1.17,1.17,0,0,0,1-.52,2.87,2.87,0,0,0,.42-1.45,6.46,6.46,0,0,1,1.37-3.4,7.3,7.3,0,0,1,.83-.91c.11-.11.2-.18.27-.24l.07-.05,0,0-.26-.34-.23.36a4,4,0,0,0,1.51.49,11.17,11.17,0,0,0,1.6.1c.83,0,1.47-.08,1.48-.08l-.05-.43-.07.43a3.6,3.6,0,0,1,1.75.78,6.22,6.22,0,0,1,1.57,2.07,7.41,7.41,0,0,1,.35.85,1.38,1.38,0,0,1,.08.25l0,.06v.07a4.3,4.3,0,0,0,1.94,2.3,3,3,0,0,0,1.35.37h0v-.43l-.12.41a39.34,39.34,0,0,1,5.3,2.28c2.09,1,4.22,2.17,5.66,3a4.27,4.27,0,0,0,2,.73,1,1,0,0,0,.84-.4,1.17,1.17,0,0,0,.19-.67,1.35,1.35,0,0,0-.06-.43l-.41.12.42-.09-.9-4.3-.42.09.43,0a10.8,10.8,0,0,0-2.88-7.13h0a10.9,10.9,0,0,1-1.93-2.43c-.3-.46-.55-.89-.73-1.21l-.28-.5-.37.2.39-.17a5.72,5.72,0,0,0-1.81-2.09,26.32,26.32,0,0,0-6.07-3.14l-.13,0-.13,0-.25,0H232c-.82,0-2.06,0-3.08-.11s-1.84-.11-1.84-.11H227a14.51,14.51,0,0,0-2.43.65,6.56,6.56,0,0,0-1.73.88,2.59,2.59,0,0,0-.63.65,1.6,1.6,0,0,0-.27.88v.21a2.77,2.77,0,0,1,0,.39,2.8,2.8,0,0,1-.56,1.7,3.5,3.5,0,0,1-.39.46l-.13.12,0,0h0l.05.06-.05-.06h0l.05.06-.05-.06.26.34,0-.43a1.29,1.29,0,0,0-.8.41,6.24,6.24,0,0,0-1,1.55,35,35,0,0,0-1.8,4.55l.41.12-.4-.14Z"/><path class="cls-4" d="M211.46,114.12s.77.32.77-.27a4.92,4.92,0,0,1-.69-1.31s-.43-3,.47-4c0,0,.94-1.81.08-2.71a7.08,7.08,0,0,1-.57-4.44s.08-1.67,0-2c0,0-.1-1,1.13,0,0,0,.77.67.94-1.73,0,0-.79-4,.19-5.38,0,0,.9-1.28,1.27-.24,0,0-.08,1.9.42,1.94,0,0,1.22.13,1.2-3.35,0,0,.07-3.67.61-4.31,0,0,.8-1.45,1.18.22a9.8,9.8,0,0,1,.29,3.26.77.77,0,0,0,1.22-.5s.56-3.72.15-5.12c0,0,.79-3.08,1.17-.69a7.1,7.1,0,0,0,.06,2.58s1,.18,1.27-.19,1,0,.73,1.09a6.07,6.07,0,0,1-2,2.36s-.13.68.77.63c0,0,.91-.55.91.18,0,0-.62,1.9-1.66,2.09a3.88,3.88,0,0,0-.53,2.45,8.64,8.64,0,0,1-2.22,6.89s-3.73,5.32-4.23,10.94c0,0-.44,2.71-1.57,2.9,0,0-1.08.78-1.45.19C211.42,115.57,210.28,114.58,211.46,114.12Z"/><path class="cls-6" d="M186.88,99.88a2,2,0,0,1,2.51.94s1.32,1.72,1.31,0c0,0-1.1-4-2.78-5.59,0,0-1.56-2.14.48-.84a15.07,15.07,0,0,1,3,3.5s1.08,1,1.31-.12a5.91,5.91,0,0,0-1.2-2.44s-.37-.78.71-.36c0,0,2.7,2.43,3.69,8.45,0,0,.79,1.84,1.38.53,0,0-.19-1.73.77-.73a9,9,0,0,1,.85,3.28s1.53,3.55,1.69,2.56a14.51,14.51,0,0,1-.19-1.91s0-1.12.7,0a4.25,4.25,0,0,1,.7,1.77,48.25,48.25,0,0,1,.78,6.47s.24,1.48.92.62c0,0,.71-1.08.77.18,0,0-.34,3,.21,3.75l.11.08a1.37,1.37,0,0,1,.27,1.85.88.88,0,0,0-.13.28s-.53,1-1.38-.41a8.38,8.38,0,0,0-4.8-4.15s-3-.57-1.38-2.08a2,2,0,0,0,.44-2.07,1.81,1.81,0,0,0-1.22-.95c-.81-.2-2.32-.72-2.71-2,0,0-.91-1.66.1-1.85,0,0,.66.42.47-1.25,0,0-.35-2.62-5.77-5.83a5,5,0,0,0-1.15-.46C186.81,100.91,186.09,100.26,186.88,99.88Z"/><path class="cls-3" d="M192.47,102.51a2.55,2.55,0,0,1,.21.25c.94,1.14,4.81,6.09,6.1,10.71l.41-.12-.42.08a10,10,0,0,0,3.92,5.86l.48-.71a8.48,8.48,0,0,1-2.87-3.4,9.44,9.44,0,0,1-.54-1.37c0-.17-.09-.31-.11-.4l0-.11v0h0C198,107.68,193.14,102,193.13,102l-.66.56Z"/><path class="cls-7" d="M188.34,143.37s2.68-1.26,4.14.7c0,0,.72,1-.26.92,0,0-2.37-.84-3.28-.57C188.94,144.42,186.84,144.5,188.34,143.37Z"/><path class="cls-7" d="M179.86,129.39a2.46,2.46,0,0,0,.73,1.24s1.26,2.88,3.82,3c0,0,2.1-.14,1.84.85a2.57,2.57,0,0,1-.65.85s-.59.6.4.92a25.36,25.36,0,0,0,4.8,1.94,20.71,20.71,0,0,0,4.4.69s1.31.26,1.44-.93c0,0-.48-2.81,0-3.34a5.27,5.27,0,0,0,1.17-1.12s.38-1.58-1.72-2.29a3.68,3.68,0,0,1-1.19-1c-.26-.52-1.7,0-1.7,0s-1.79-2.22-2.7-2.15a1.22,1.22,0,0,0-1.77.8s-.33.4-1.25-.12c0,0-.92-1.11-1.31-.78,0,0-.66.2-.52,1.25,0,0-1,0-1.18-.39,0,0-.92-.39-.59.4C183.86,129.17,179.13,128.15,179.86,129.39Z"/><path class="cls-3" d="M182.62,130.63s.82.64,2,1.36a13.73,13.73,0,0,0,4.23,1.79,22.45,22.45,0,0,1,2.91.69,21.38,21.38,0,0,1,2.18.85,4.41,4.41,0,0,1,1.43.93l.67-.54a5,5,0,0,0-1.74-1.17,20.42,20.42,0,0,0-2.27-.88,23.62,23.62,0,0,0-3-.72,12.72,12.72,0,0,1-3.95-1.69c-.57-.34-1.05-.67-1.38-.91l-.4-.28-.13-.11-.53.68Z"/><path class="cls-4" d="M212.91,119.36s1.53-1.44,3.64,1.41c0,0,.66.87.33,1.09C216.88,121.86,213.9,119.13,212.91,119.36Z"/><path class="cls-4" d="M220.88,143.69s-.6-3.64,3.36-6.07c0,0,3.29-4.16,3.28-5.4a14.71,14.71,0,0,1-2.61,6.72S221.71,144.43,220.88,143.69Z"/><path class="cls-4" d="M231,118a.59.59,0,0,0,.08.92.91.91,0,0,1,.21.87s.62.86,1.24-.14a1.36,1.36,0,0,1,1.11-.29s.9-.58-.58-1c0,0-.75.17-.91.17A1.16,1.16,0,0,0,231,118Z"/><path class="cls-5" d="M223.22,149.78s-.42-.95,3.13-.61c0,0,2.55-.55,3.43-1.68,0,0,2.19-.84,3.44.57,0,0,.53.53-.47,1.42,0,0-.23,1.37,1.37,1.06,0,0,2.19-.78,2.31-.19,0,0,.54.71-.53,1,0,0,2,.94,1.2,2.72,0,0-.58.71.48.94,0,0,1.55,1.3,2.56.7,0,0,1.18.76-.35,1.36,0,0-.65-.05-.53.18,0,0,.3.83-1.25.37,0,0-.88.42-.58,1.18s-2.49,0-4.34-2.93c0,0-.07-1.42-1.55-.88,0,0,.07,1.13-1.24.25,0,0,.17-1.78-.49-2,0,0-.89-.88-1.18-.46,0,0,.12,1.06-1.25-.05C227.38,152.72,223.64,151.5,223.22,149.78Z"/><path class="cls-4" d="M216,117.43a3.14,3.14,0,0,0-.48-1.54s-.31-2.19,1.7-2.14c0,0,1.36-.31,1.78.22,0,0,.72,1,1.55.94,0,0,1.48-.19,2.08,2.18a2.42,2.42,0,0,0,1.91,1.82s3.61.28,4.75,1.69c0,0,1.61,1.41-.41,1.43,0,0-3-.46-2.84.31,0,0-.82,1.31,2.21,3.3,0,0,1.38,1.89-1.17,1.61,0,0-2.25.13-4.05-3.71,0,0-.84-1.59-1.67-1.05,0,0-.53.47-1.06-.23a9.87,9.87,0,0,1-.79-3.43s-.55-2.07-.84-1.6a2.56,2.56,0,0,1-.41,1.54s-1.06.84-1.07-.17c0,0,.53-1.36.17-2,0,0,0,1.07-.53,1.07C216.86,117.66,216.16,118.37,216,117.43Z"/><path class="cls-4" d="M219.14,112.14s-.19-1.48.4-1.9a9.59,9.59,0,0,0,.11-2,.42.42,0,0,1,.71.18,2,2,0,0,1-.05,1.77,3.91,3.91,0,0,0,.37,2.07S220.33,113.37,219.14,112.14Z"/><path class="cls-8" d="M224.66,150.38h.22a21.57,21.57,0,0,1,4.84.55,9.61,9.61,0,0,1,2.86,1.17,3.92,3.92,0,0,1,1.69,2.07l.41-.13-.43,0a2.87,2.87,0,0,0,.28,1,3.09,3.09,0,0,0,1.72,1.57l.31-.8a2.15,2.15,0,0,1-1.25-1.14,2.31,2.31,0,0,1-.18-.52l0-.15v0h0V154l0-.06a4.73,4.73,0,0,0-2-2.53,12.24,12.24,0,0,0-4.73-1.6,21.6,21.6,0,0,0-3.45-.25h-.24l0,.86Z"/><path class="cls-3" d="M217.78,115.09l.21.17a32.61,32.61,0,0,1,3,2.57,13.75,13.75,0,0,1,3.09,4l.79-.34a15.92,15.92,0,0,0-3.84-4.84,33.7,33.7,0,0,0-2.74-2.29l-.5.69Z"/><path class="cls-3" d="M213.53,113s0-.4.05-1.07c0-1,.15-2.57.34-4.16a22.33,22.33,0,0,1,.83-4.3h0a23.06,23.06,0,0,0,.87-4.91v0h0a6.17,6.17,0,0,1,1.81-4.07l-.61-.6a6.94,6.94,0,0,0-2.05,4.68v0l.43,0h-.43a16.56,16.56,0,0,1-.44,3.09c-.1.47-.2.87-.28,1.15s-.12.45-.12.45l.41.12-.41-.14a29.13,29.13,0,0,0-1,6.07c-.18,2-.23,3.71-.23,3.72l.86,0Z"/><path class="cls-4" d="M222.57,111.19s-1.1.2-.85-.77a8.69,8.69,0,0,0,.64-2.15s0-1.3.78-.53c0,0,.77-.26.77-1.56,0,0,0-1.23,2.19-1.83,0,0,.71-1.43,1-1.31,0,0,.39-.32.46.59a34.76,34.76,0,0,1,1.4-4.69,2.81,2.81,0,0,0,.58-1.11s.31-1.43,1.16-.52a1.31,1.31,0,0,0,1.43-.4s1.1-.72.78.77a16.13,16.13,0,0,1-2.32,3.13,1.8,1.8,0,0,0-.77,1.24,6.14,6.14,0,0,1-1.34,3.39s-1.42,1.31-1.16,2.41c0,0,1.3-.66,1.56-.14,0,0,.4.91-1.55,1.57a14.35,14.35,0,0,1-2.78,2.55.86.86,0,0,1-1.23.2S222.9,111.25,222.57,111.19Z"/><path class="cls-3" d="M222.53,112.17a7,7,0,0,0,.77-.79,3.39,3.39,0,0,0,.86-1.86l-.43,0,.41.14,0-.09a8.33,8.33,0,0,1,.65-1.37A2.75,2.75,0,0,1,226,107l.07,0,.06,0a12.56,12.56,0,0,0,1.3-1.29,5.41,5.41,0,0,0,1.43-2.86h0v0a5.78,5.78,0,0,1,.26-1.26,2.54,2.54,0,0,1,1.06-1.49s.19-.11.4-.26a1.85,1.85,0,0,0,.32-.25.84.84,0,0,0,.26-.42l-.83-.2.19,0-.18-.08v0l.19,0-.18-.08.07,0-.06,0h0l.07,0-.06,0,0,0a2,2,0,0,1-.33.26l-.16.1-.07,0a3.46,3.46,0,0,0-1.5,2.11,5.94,5.94,0,0,0-.26,1.37l.43,0-.43,0a4.55,4.55,0,0,1-1.23,2.36c-.3.35-.6.65-.82.86l-.27.25-.1.08.28.33-.15-.41a2.71,2.71,0,0,0-1.05.78,8.43,8.43,0,0,0-1.34,2.43v.11a2.54,2.54,0,0,1-.66,1.36,6.3,6.3,0,0,1-.46.5l-.15.14,0,0h0l.55.66Z"/><path class="cls-1" d="M189.1,171.55l4.19,22.94A16.41,16.41,0,0,0,209.54,208l8.65-.06A18,18,0,0,0,236,192l2.47-20.38S222.12,184.08,189.1,171.55Z"/><path class="cls-1" d="M189.1,171.55l-.42.08,4.19,22.94a16.85,16.85,0,0,0,16.67,13.82l8.65-.06a18.48,18.48,0,0,0,18.24-16.25L239,170.7l-.81.61h0c-.38.28-7.4,5.31-21.16,5.39-7.34,0-16.59-1.31-27.78-5.56l-.71-.27.13.75.42-.08L189,172c11.28,4.28,20.65,5.66,28.09,5.61,14.43-.09,21.64-5.54,21.69-5.58l-.26-.34-.42-.05L235.58,192a17.64,17.64,0,0,1-17.39,15.51l-8.65.05a16,16,0,0,1-15.83-13.12l-4.18-22.93-.43.07L189,172Z"/><polygon class="cls-9" points="233.58 230.51 274.07 269.07 335.55 248.29 290.61 209.95 233.58 230.51"/><polygon class="cls-10" points="230.86 240.15 284.44 260.71 333.82 222.16 268.64 198.39 230.86 240.15"/><g id="Layer_11" data-name="Layer 11"><path class="cls-11" d="M79.87,206.74s-34.72,10.54-40.87.71"/><path class="cls-11" d="M56.66,211.44s-9.15,5.43-14.09,5.81c0,0-9.26,1.08-11.06,5.44"/><path class="cls-11" d="M49.58,211.44s-5.47-3.74-4.5-6.61"/><path class="cls-11" d="M43,217.27s-8.73,5-4.43,8.87"/><path class="cls-11" d="M69,209.53s-9.82,9-14.7,10.15c0,0-7,1.26-8.85,3.18"/><path class="cls-11" d="M52.12,211.7s-18.39,3.61-25,3"/><path class="cls-11" d="M65.85,210.09a22.64,22.64,0,0,1-10.29-3.66c-5-3.38-7.38-1.61-7.91-5.91"/><path class="cls-11" d="M79.72,210S61,226.18,53.8,227.87c0,0-14,4.86-20.65,3.68"/><path class="cls-11" d="M66.77,220.41s-10.54.49-17.37-1.33-17.77,6.45-17.77,6.45"/><path class="cls-11" d="M54.54,227.82s-6,10.15-15.19,11.61"/><path class="cls-11" d="M74.36,214.43a97.64,97.64,0,0,0-6.16,8.39,8.66,8.66,0,0,0-1.55,3.72,6.19,6.19,0,0,1-.56,2.8,10.51,10.51,0,0,1-5.85,4.86"/><path class="cls-11" d="M67.82,223.59a24.11,24.11,0,0,1-7.7,5.46,24.07,24.07,0,0,0-7.85,5.72"/><polygon class="cls-12" points="79.42 201.56 115.96 187.8 190.05 200.18 196.47 203.1 159.26 230.44 79.42 201.56"/><polygon class="cls-13" points="79.52 202.53 80.91 220.97 158.48 252.27 195.88 219.75 195.88 203.57 158.48 230.18 79.52 202.53"/><line class="cls-14" x1="78.87" y1="201.95" x2="121.81" y2="185.35"/><line class="cls-14" x1="158.48" y1="230.18" x2="158.48" y2="252.27"/><line class="cls-14" x1="196.54" y1="202.66" x2="186.47" y2="199.64"/><line class="cls-15" x1="84.15" y1="201.74" x2="158.79" y2="226.4"/><path class="cls-16" d="M161.74,223.2l1.85-1.44a.74.74,0,0,0-.25-1.31l-8-2.45a1.46,1.46,0,0,0-1.34.24l-2.51,1.94a.46.46,0,0,0,.16.81l8.2,2.54A2.08,2.08,0,0,0,161.74,223.2Z"/><ellipse class="cls-16" cx="145.96" cy="198.66" rx="14.94" ry="43.52" transform="translate(-61.27 332.17) rotate(-86.49)"/><ellipse class="cls-12" cx="144.74" cy="196.48" rx="4.31" ry="12.7" transform="translate(-60.24 328.91) rotate(-86.49)"/><ellipse class="cls-16" cx="144.6" cy="196.48" rx="1.04" ry="2.26" transform="translate(-60.36 328.77) rotate(-86.49)"/><polyline class="cls-15" points="87.17 191.74 97.73 192.09 98.78 190.44 104.03 190.06"/><rect class="cls-17" x="104.03" y="188.43" width="11.33" height="3.05"/><line class="cls-15" x1="87.63" y1="191.63" x2="87.63" y2="200.48"/><path class="cls-1" d="M85.44,199.82l2.94-1.2a.2.2,0,0,1,.15,0l4.34,1.23a.25.25,0,0,1,0,.46l-3.09,1.55a.27.27,0,0,1-.2,0l-4.18-1.58A.25.25,0,0,1,85.44,199.82Z"/><polyline class="cls-15" points="192.1 209.73 192.1 218.66 162.31 244.36"/><path class="cls-18" d="M86.07,199.91l3.06-1.19,2.94.9L89.32,201c-.14.08-.47,0-.62-.08l-2.63-1"/><polyline class="cls-19" points="87.79 199.63 87.62 191.6 98.16 192.06 99.26 190.25 104.27 189.89"/><path class="cls-20" d="M114.56,192a3.06,3.06,0,0,1,.38.53v3.16a4.7,4.7,0,0,1-.38.53,6.3,6.3,0,0,1-.37-.53v-3.16A3.62,3.62,0,0,1,114.56,192Z"/><path class="cls-21" d="M45,207.77s-1.79-5.56-.7-6.46c0,0,4-2.77,3.21,1.35,0,0-.12.62-.34,1.36a4.94,4.94,0,0,1-1.7,2.43A1.09,1.09,0,0,0,45,207.77Z"/><path class="cls-22" d="M48,202.56s-2.39-3.05-1.94-3.86c0,0,1.82-2.64,2.28.1,0,0,.07.42.11.93a3.36,3.36,0,0,1-.47,1.9A.74.74,0,0,0,48,202.56Z"/><path class="cls-23" d="M41.43,239.46s-6.26,1.5-7.24.47c0,0-3-3.82,1.58-2.94,0,0,.7.13,1.51.35A5.78,5.78,0,0,1,40,239,1.35,1.35,0,0,0,41.43,239.46Z"/><path class="cls-24" d="M54.25,233.33s-3.89,5.07-5.35,4.72c0,0-4.92-1.66-.74-3.59,0,0,.63-.3,1.42-.58a5.46,5.46,0,0,1,3.2-.11A1.23,1.23,0,0,0,54.25,233.33Z"/><path class="cls-25" d="M154.49,263.71s5.81-4.67,7.28-4.38c0,0,4.79,1.42-.33,3.24,0,0-.78.28-1.72.55a7.39,7.39,0,0,1-3.5.16A1.85,1.85,0,0,0,154.49,263.71Z"/><path class="cls-26" d="M62.74,233.68s-5.14,2.79-6.23,1.89c0,0-3.46-3.46.74-3.41,0,0,.63,0,1.4.08a5.13,5.13,0,0,1,2.7,1.22A1.09,1.09,0,0,0,62.74,233.68Z"/><path class="cls-27" d="M42.26,238.88s-5.36-.36-5.93.8c0,0-1.58,4.22,1.92,2.58,0,0,.53-.25,1.14-.61a4.66,4.66,0,0,0,1.8-2.05A1,1,0,0,1,42.26,238.88Z"/><path class="cls-28" d="M58.51,207.85s-2.66-.46-3,.09c0,0-1,2,.82,1.38a5.68,5.68,0,0,0,.6-.24,2.25,2.25,0,0,0,1-.93A.51.51,0,0,1,58.51,207.85Z"/><path class="cls-29" d="M33.59,219.8s-2.16,3.19-1.64,4c0,0,2,2.5,2.28-.25,0,0,0-.42,0-.93a3.34,3.34,0,0,0-.62-1.85A.73.73,0,0,1,33.59,219.8Z"/><path class="cls-30" d="M42.68,217.62s-3.23-.38-3.43-1.14c0,0-.46-2.67,1.42-1.31,0,0,.29.21.61.49a2.72,2.72,0,0,1,.84,1.42C42.19,217.35,42.34,217.62,42.68,217.62Z"/><path class="cls-31" d="M262.32,269.26S272,269,273,271.15c0,0,2.52,7.72-3.65,4.49,0,0-.94-.48-2-1.17a8.26,8.26,0,0,1-3.08-3.84C263.89,269.86,263.31,269.12,262.32,269.26Z"/><path class="cls-32" d="M35.8,232.21s-5.48-.13-5.95-1.37c0,0-1.2-4.43,2.19-2.43,0,0,.52.3,1.1.72a4.67,4.67,0,0,1,1.63,2.25C34.94,231.83,35.24,232.26,35.8,232.21Z"/><path class="cls-33" d="M77.06,220.3s-3,1.33-2.91,2.11c0,0,.37,2.68,1.74.82,0,0,.22-.29.44-.65a2.78,2.78,0,0,0,.36-1.6A.59.59,0,0,1,77.06,220.3Z"/><path class="cls-34" d="M40.09,209.09s-1.36-4.9-.51-5.69c0,0,3.14-2.41,2.48,1.2,0,0-.1.55-.27,1.2a4.51,4.51,0,0,1-1.33,2.13A1,1,0,0,0,40.09,209.09Z"/><path class="cls-35" d="M30.18,214.73s-2,2.94-2.86,2.77c0,0-2.8-.82-.52-2a8,8,0,0,1,.78-.36,3,3,0,0,1,1.79-.14A.68.68,0,0,0,30.18,214.73Z"/><path class="cls-36" d="M37.38,223.61s0,2.94-.74,3.15c0,0-2.54.54-1.41-1.23a5.56,5.56,0,0,1,.4-.57,2.54,2.54,0,0,1,1.28-.82C37.17,224.07,37.42,223.92,37.38,223.61Z"/><path class="cls-37" d="M307.53,254.22s-1.85-5.27-3.19-5.33c0,0-4.67.22-1.67,2.88,0,0,.45.41,1,.84a4.8,4.8,0,0,0,2.69.88A1,1,0,0,1,307.53,254.22Z"/><path class="cls-38" d="M37.15,223.81s0,4.09.92,4.46c0,0,3.29,1,1.85-1.59,0,0-.21-.39-.51-.83a3.53,3.53,0,0,0-1.66-1.26C37.42,224.46,37.11,224.23,37.15,223.81Z"/><path class="cls-39" d="M34.06,220.05s-5.84.35-6.28,1.69c0,0-1.11,4.77,2.42,2.5,0,0,.54-.34,1.15-.8A5,5,0,0,0,33,221C33.15,220.49,33.46,220,34.06,220.05Z"/><path class="cls-40" d="M40.45,209.57s-3.43-1.7-3.35-2.63c0,0,.55-3.15,2.1-.88a8.88,8.88,0,0,1,.48.78,3.23,3.23,0,0,1,.37,1.91A.7.7,0,0,0,40.45,209.57Z"/><path class="cls-41" d="M64.05,232.35s-2.09,4.79-3.27,4.88c0,0-4.07-.09-1.21-2.56,0,0,.44-.38,1-.78A4.52,4.52,0,0,1,63,233,1.07,1.07,0,0,0,64.05,232.35Z"/><path class="cls-42" d="M45.66,208.3s-2.87-3.36-2.37-4.3c0,0,2-3.1,2.63,0,0,0,.1.47.16,1.05a3.75,3.75,0,0,1-.48,2.19A.83.83,0,0,0,45.66,208.3Z"/><path class="cls-43" d="M54.67,227.34s-4.54,1.65-5.32.78c0,0-2.41-3.24,1-2.69,0,0,.52.08,1.13.23A4.18,4.18,0,0,1,53.56,227,.91.91,0,0,0,54.67,227.34Z"/><path class="cls-44" d="M31.21,215.12s-5.36.52-6-.63c0,0-1.69-4.18,1.85-2.63,0,0,.54.23,1.15.57a4.58,4.58,0,0,1,1.86,2C30.32,214.85,30.66,215.24,31.21,215.12Z"/><path class="cls-45" d="M33.06,221.12s-5,3.37-4.65,4.78c0,0,1.53,4.78,3.45.94,0,0,.3-.59.59-1.32a5.05,5.05,0,0,0,.15-3A1.13,1.13,0,0,1,33.06,221.12Z"/><path class="cls-46" d="M42.1,217.25s-4.42,1.71-5.2.88c0,0-2.43-3.13.93-2.66a11.15,11.15,0,0,1,1.12.2,4.15,4.15,0,0,1,2,1.26A.89.89,0,0,0,42.1,217.25Z"/><path class="cls-47" d="M73.12,229.91s6.32.48,7.25,2.25c0,0,1.4,2.12,1.8,3,.25.53-.62.74-2.66-.14a5.75,5.75,0,0,1-2.37-.49,7.09,7.09,0,0,1-2.88-3.08C73.93,230.79,74,229.73,73.12,229.91Z"/><line class="cls-48" x1="104.79" y1="189.57" x2="108.92" y2="189.57"/><path class="cls-49" d="M53.51,233.42s-4.93,1.24-5.7.38c0,0-2.34-3.2,1.26-2.46,0,0,.55.11,1.19.3a4.45,4.45,0,0,1,2.1,1.38A1,1,0,0,0,53.51,233.42Z"/><path class="cls-50" d="M54,233.07s-1.79,3.38-2.71,3.29c0,0-3.14-.62-.84-2.12,0,0,.35-.23.79-.47a3.34,3.34,0,0,1,1.92-.32A.73.73,0,0,0,54,233.07Z"/><path class="cls-51" d="M46.21,221.78s-1.8,2.65-1.37,3.29c0,0,1.7,2.07,1.9-.22,0,0,0-.34,0-.76a2.69,2.69,0,0,0-.52-1.54A.6.6,0,0,1,46.21,221.78Z"/><path class="cls-52" d="M46.59,222s-4.84.3-5.21,1.41c0,0-.92,4,2,2.08,0,0,.45-.28,1-.67a4.22,4.22,0,0,0,1.36-2.05C45.84,222.35,46.09,222,46.59,222Z"/><path class="cls-53" d="M45.76,222.87s-4.11,2.8-3.85,4c0,0,1.26,4,2.86.77,0,0,.25-.49.49-1.09a4.33,4.33,0,0,0,.13-2.52A.94.94,0,0,1,45.76,222.87Z"/><path class="cls-54" d="M49.52,211.13s-2.44,1.47-2.33,2.14c0,0,.59,2.31,1.61.54,0,0,.15-.27.31-.61a2.42,2.42,0,0,0,.16-1.43A.52.52,0,0,1,49.52,211.13Z"/><path class="cls-55" d="M49.75,211.44s-4-1.57-4.74-.81c0,0-2.21,2.85.86,2.43,0,0,.46-.06,1-.19a3.7,3.7,0,0,0,1.86-1.14A.81.81,0,0,1,49.75,211.44Z"/><path class="cls-56" d="M48.75,211.84s-4.37.73-4.6,1.77c0,0-.46,3.67,2,1.69,0,0,.38-.29.8-.69a3.84,3.84,0,0,0,1-2C48.1,212.25,48.29,211.87,48.75,211.84Z"/><path class="cls-57" d="M54,233.69s-.8,3.18-1.58,3.29c0,0-2.74.12-1.13-1.59,0,0,.25-.27.57-.55a2.74,2.74,0,0,1,1.52-.65C53.68,234.15,54,234,54,233.69Z"/><path class="cls-58" d="M54,232.65s1.19,2.67.78,3.2c0,0-1.57,1.64-1.51-.48,0,0,0-.32.05-.7a2.5,2.5,0,0,1,.57-1.33A.58.58,0,0,0,54,232.65Z"/><path class="cls-59" d="M52.14,219.54s-4.21-1.13-4.47-2.06c0,0-.56-3.24,1.89-1.24,0,0,.38.3.79.7a3.81,3.81,0,0,1,1.07,1.84A1,1,0,0,0,52.14,219.54Z"/><path class="cls-60" d="M52.83,219.46s-3.09-2-3.8-1.43c0,0-2.3,2,.32,2.15,0,0,.39,0,.87,0a3.18,3.18,0,0,0,1.74-.65A.67.67,0,0,1,52.83,219.46Z"/><path class="cls-61" d="M36.52,232s-2.57,1.41-3.11.91c0,0-1.72-1.94.37-1.84,0,0,.32,0,.7.07a2.58,2.58,0,0,1,1.35.71C36,232,36.27,232.15,36.52,232Z"/><path class="cls-62" d="M36.23,231.87s-3.55,2-3.42,3c0,0,.78,3.33,2.3.82,0,0,.23-.38.47-.86a3.51,3.51,0,0,0,.27-2.05A.77.77,0,0,1,36.23,231.87Z"/><path class="cls-63" d="M58.42,207.85s-2.61-1.4-3.16-.94c0,0-1.75,1.76.38,1.72,0,0,.32,0,.71,0a2.55,2.55,0,0,0,1.37-.63A.55.55,0,0,1,58.42,207.85Z"/><path class="cls-64" d="M80.37,241.35l2.86,1A4.82,4.82,0,0,1,85,244.24s.52,1.87,1,2.16c0,0,0,.46-1.27.1a11.7,11.7,0,0,1-2.09-1.71c-.33-.54-1.13-2.28-2-2.25,0,0-1.62-1.66-1.53-2Z"/><path class="cls-65" d="M83.57,231.73s2.63,0,2.93,1.09c0,0,.48,1.3.6,1.84.08.34-.3.52-1.11.05a1.49,1.49,0,0,1-1-.19,3.44,3.44,0,0,1-1-1.86C83.87,232.26,83.93,231.57,83.57,231.73Z"/><path class="cls-66" d="M172,259.5s8.28,4.37,8.49,7.3c0,0,.66,3.7.7,5.09,0,.86-1.28.65-3.53-1.75a8.45,8.45,0,0,1-2.91-2.05,10.47,10.47,0,0,1-2.1-5.87C172.6,261.17,173.24,259.74,172,259.5Z"/><path class="cls-67" d="M208,258.07s2,1.72,1.48,2.74c0,0-.51,1.3-.77,1.79-.16.3-.57.19-.87-.7a1.48,1.48,0,0,1-.6-.78,3.41,3.41,0,0,1,.44-2.09C207.89,258.66,208.39,258.18,208,258.07Z"/><rect class="cls-68" x="104.32" y="188.7" width="10.74" height="3.41"/><path class="cls-69" d="M316.45,258.17a20.54,20.54,0,0,1-4.14-3.09,4.13,4.13,0,0,1-.24-5.69c1-1.07,1.79-1.71,2.93.82a4.64,4.64,0,0,0,.24,1.75c.42,1.29.31,2.47.74,4.37C316.14,257.07,315.69,257.84,316.45,258.17Z"/></g><ellipse class="cls-16" cx="242.11" cy="237.34" rx="17.6" ry="42.34" transform="translate(-7.47 466.82) rotate(-87.03)"/><ellipse class="cls-16" cx="272.72" cy="211.52" rx="16.11" ry="38.74" transform="translate(47.35 472.92) rotate(-87.03)"/><ellipse class="cls-12" cx="239.32" cy="233.88" rx="5.53" ry="13.85" transform="translate(-14.06 452.45) rotate(-85.12)"/><ellipse class="cls-16" cx="239.33" cy="233.76" rx="1.01" ry="2" transform="translate(-7.29 459.81) rotate(-86.83)"/><ellipse class="cls-12" cx="272.52" cy="210.59" rx="5.06" ry="12.67" transform="translate(39.52 464.21) rotate(-85.12)"/><ellipse class="cls-16" cx="272.52" cy="210.47" rx="0.93" ry="1.83" transform="translate(47.32 470.96) rotate(-86.83)"/><line class="cls-15" x1="280.8" y1="253.99" x2="324.68" y2="223.44"/><path class="cls-4" d="M181.09,251s-.27,9.56,3.62,13.08A11.15,11.15,0,0,0,196,266s5.8-.87,7.14-14.15Z"/><path class="cls-70" d="M189.46,266a14.47,14.47,0,0,0,7.19-2.78c3-2.38,5.09-7.17,5.27-7.76C201.92,255.48,201,269.49,189.46,266Z"/><path class="cls-1" d="M181.09,251l-.61,0s0,.16,0,.44a34.19,34.19,0,0,0,.55,6,19.26,19.26,0,0,0,1.12,3.9,9,9,0,0,0,2.16,3.23l.41-.46-.43.44a9.81,9.81,0,0,0,2.06,1.44,11.71,11.71,0,0,0,5.58,1.42,12.72,12.72,0,0,0,4.25-.75L196,266l.09.61a6.32,6.32,0,0,0,3.44-2.3c1.72-2,3.54-5.67,4.22-12.4l.07-.65-23.29-.95,0,.62.61,0,0,.61,22,.91,0-.62-.62-.06c-.66,6.56-2.41,10-3.92,11.71a6.68,6.68,0,0,1-2,1.61,4.56,4.56,0,0,1-.57.24l-.14,0h0l.06.37-.05-.37h0l.06.37-.05-.37h-.06l-.06,0a11.54,11.54,0,0,1-3.84.68,10.56,10.56,0,0,1-5-1.27,11.13,11.13,0,0,1-1.35-.87l-.34-.28-.08-.07,0,0h0l-.13.13.13-.13h0l-.13.13.13-.13h0a7.82,7.82,0,0,1-1.85-2.79,21.2,21.2,0,0,1-1.32-5.47,34.56,34.56,0,0,1-.24-3.94V251l-.62,0,0,.61Z"/><path class="cls-4" d="M199.44,245.25A28.94,28.94,0,0,1,203,242.8s2.68-1.72,3.34,1.48c0,0-4.16,1.09-4.45,3.5"/><path class="cls-1" d="M199.82,245.73l.1-.07c.22-.17.79-.62,1.44-1.09a17.3,17.3,0,0,1,1.91-1.22l0,0h0a3.25,3.25,0,0,1,.4-.2,2,2,0,0,1,.77-.16.94.94,0,0,1,.66.23,2.16,2.16,0,0,1,.57,1.22l.61-.13-.16-.59a11.05,11.05,0,0,0-2.25.9,6.48,6.48,0,0,0-1.66,1.2,3.32,3.32,0,0,0-1,1.92l1.23.15a2.11,2.11,0,0,1,.65-1.21,6.62,6.62,0,0,1,2.1-1.33c.35-.15.67-.26.89-.33l.27-.09.06,0h0l.57-.15-.12-.57a3.36,3.36,0,0,0-1-1.89,2.19,2.19,0,0,0-1.48-.55,3.63,3.63,0,0,0-1.28.28,3.7,3.7,0,0,0-.55.28l.33.52-.28-.55a19.93,19.93,0,0,0-2.35,1.53c-.74.54-1.3,1-1.31,1l.77,1Z"/><path class="cls-4" d="M203.11,251.88c-.42,4.17-5.68,7.05-11.77,6.45s-10.69-4.46-10.28-8.63,5.68-7,11.77-6.45S203.52,247.72,203.11,251.88Z"/><path class="cls-1" d="M203.11,251.88l-.62-.06a4.79,4.79,0,0,1-.88,2.33,8,8,0,0,1-3.43,2.63,13.45,13.45,0,0,1-5.24,1c-.51,0-1,0-1.54-.07a13.56,13.56,0,0,1-7-2.66,8,8,0,0,1-2-2.29,5.09,5.09,0,0,1-.71-2.55c0-.15,0-.31,0-.46a5,5,0,0,1,.88-2.33A8,8,0,0,1,186,244.8a13.41,13.41,0,0,1,5.24-1c.5,0,1,0,1.54.07a13.56,13.56,0,0,1,7,2.66,8.11,8.11,0,0,1,2,2.29,5.2,5.2,0,0,1,.71,2.55,3.55,3.55,0,0,1,0,.46l.62.06.61.06a5.63,5.63,0,0,0,0-.58,6.45,6.45,0,0,0-.87-3.16,10.23,10.23,0,0,0-3.93-3.71,15.39,15.39,0,0,0-6.06-1.85,15.67,15.67,0,0,0-1.66-.09,13.84,13.84,0,0,0-7.3,1.94,8.42,8.42,0,0,0-2.39,2.24,6.08,6.08,0,0,0-1.09,2.91,5.63,5.63,0,0,0,0,.58,6.34,6.34,0,0,0,.87,3.16,10.05,10.05,0,0,0,3.92,3.71,16.65,16.65,0,0,0,7.73,1.94,13.71,13.71,0,0,0,7.29-1.94,8.29,8.29,0,0,0,2.39-2.24,6,6,0,0,0,1.1-2.91Z"/><path class="cls-71" d="M200.42,251.09c-.3,3-4.39,5-9.14,4.51s-8.36-3.25-8.07-6.21,4.38-5,9.13-4.52S200.71,248.12,200.42,251.09Z"/><path class="cls-71" d="M200.42,251.09l-.31,0a4.14,4.14,0,0,1-2.28,3.06,10.31,10.31,0,0,1-5.18,1.24c-.44,0-.88,0-1.34-.06a11.52,11.52,0,0,1-5.6-2,4.66,4.66,0,0,1-2.21-3.59c0-.1,0-.2,0-.3a4.12,4.12,0,0,1,2.28-3.06,10.39,10.39,0,0,1,5.18-1.25,12,12,0,0,1,1.33.07,11.56,11.56,0,0,1,5.61,2,4.65,4.65,0,0,1,2.2,3.59c0,.1,0,.2,0,.31l.31,0,.3,0c0-.13,0-.25,0-.37a5.24,5.24,0,0,0-2.46-4.08,12.08,12.08,0,0,0-5.91-2.11c-.47,0-.93-.07-1.39-.07a11.1,11.1,0,0,0-5.5,1.33,4.8,4.8,0,0,0-2.58,3.54c0,.12,0,.24,0,.36a5.24,5.24,0,0,0,2.45,4.09,12.25,12.25,0,0,0,5.91,2.1,13.26,13.26,0,0,0,1.4.07,11.06,11.06,0,0,0,5.49-1.33,4.73,4.73,0,0,0,2.58-3.53Z"/><path class="cls-72" d="M184.41,253s4-6.74,14.58-5.63c0,0-3.84-4.4-11.66-2.3C187.33,245.06,179.59,247.45,184.41,253Z"/><path class="cls-1" d="M207.05,244.73s-3,9.56-5.4,11c0,0,.86-3.13,1.65-6,.51-1.82,1.19-4,.69-4.23Z"/><path class="cls-73" d="M188.29,247.63a9,9,0,0,0,1.3-1.47,2.44,2.44,0,0,0,.47-1.32,2.52,2.52,0,0,0-.32-1.09,3.4,3.4,0,0,0-.81-1,3.73,3.73,0,0,0-.31-.26l-.45-.39a6.56,6.56,0,0,1-.79-.93,4.49,4.49,0,0,1-.88-2.5,3.5,3.5,0,0,1,.92-2.41,4.33,4.33,0,0,1,1.91-1.15,10.45,10.45,0,0,0-.62,1.87,2.26,2.26,0,0,0,.13,1.38,3.5,3.5,0,0,0,.76,1,5.57,5.57,0,0,0,.56.51l.3.24c.09.07.32.24.46.36a4.47,4.47,0,0,1,1.39,5,3.52,3.52,0,0,1-1.82,1.81A4.14,4.14,0,0,1,188.29,247.63Z"/><path class="cls-73" d="M193.84,246.94a5,5,0,0,0,1.57-2.18,4.33,4.33,0,0,0,.13-2.31,8.91,8.91,0,0,0-.79-2.33,14.26,14.26,0,0,0-1.24-2.25l-.37-.57a8.53,8.53,0,0,1-.45-.74,7.59,7.59,0,0,1-.61-1.67,6.23,6.23,0,0,1,.23-3.53,7.49,7.49,0,0,1,4.57-4.19,11.83,11.83,0,0,0-2.29,4.81,4.86,4.86,0,0,0,.23,2.16,6.49,6.49,0,0,0,.47,1c.1.16.18.29.31.47l.43.64a11.2,11.2,0,0,1,1.37,2.85,8.41,8.41,0,0,1,.49,3.27,5.17,5.17,0,0,1-1.24,3.18A4.13,4.13,0,0,1,193.84,246.94Z"/></g></svg>