<?xml version="1.0" encoding="utf-8"?>
<!-- Generator: Adobe Illustrator 22.0.1, SVG Export Plug-In . SVG Version: 6.00 Build 0)  -->
<svg version="1.1" id="Layer_1" xmlns="http://www.w3.org/2000/svg" xmlns:xlink="http://www.w3.org/1999/xlink" x="0px" y="0px"
	 viewBox="0 0 145.3 127.6" style="enable-background:new 0 0 145.3 127.6;" xml:space="preserve">
<style type="text/css">
	.st0{fill:none;stroke:#FFFFFF;stroke-width:8;stroke-linecap:round;stroke-miterlimit:10;}
</style>
<path class="st0" d="M6.3,56.4H23V44c0-2.4,0.7-4.8,2.1-6.6c1-1.3,2.6-2.5,4.7-2.6c0,0,3.9-0.7,5.6,2.7c0.4,0.9,0.6,1.9,0.6,2.9
	v58.3c0,2,0.5,4,1.5,5.6c0.1,0.2,0.2,0.4,0.4,0.5c2.3,3,6.2,3.1,9,0.8c1.4-1.2,2.7-3,2.7-5.6V13.1c0-1.4,0.4-2.8,1.2-4
	s2-2.3,4.6-2.5c0,0,0.3,0,0.7,0c2.6,0.4,4.5,3.1,4.5,6.1v59.9c0,2.4,0.7,4.8,2.2,6.6c0.2,0.2,0.3,0.4,0.6,0.6
	c1.5,1.3,3.4,1.6,5.2,1.3c0.1,0,0.3-0.1,0.4-0.1c2.8-0.8,4.7-3.7,4.7-7c0-10.7,0-47.6,0-47.6c0-1.6,0.3-3.2,0.8-4.6
	c0.8-2,2.6-4.4,5.7-4.3c0,0,3.3-0.2,5.3,3.5c0.7,1.3,0.9,2.8,0.9,4.2v88.5c0,0,0,0.5,0.2,1.3c1.1,5.2,6.6,7.1,10.3,3.8
	c0.1-0.1,0.2-0.2,0.4-0.3c1.4-1.4,2.1-3.6,2.1-5.7V15.3c0-1.7,0.2-3.4,0.8-5c0.7-2.1,2.9-4.9,5.4-4.5c0,0,1.7-0.2,3.6,1.8
	c1.6,1.8,2.4,4.3,2.4,6.8v69.3c0,1.9,0.5,3.9,1.6,5.4c0,0,0,0.1,0.1,0.1c2,2.7,5.4,2.9,7.9,0.9c0.8-0.7,1.6-1.6,2.1-2.8
	c0.4-0.9,0.5-2,0.5-3v-27H139"/>
</svg>
