<svg id="Layer_1" data-name="Layer 1" xmlns="http://www.w3.org/2000/svg" viewBox="0 0 127.07 127.07"><defs><style>.cls-1{fill:#f1604e;}.cls-2{fill:#fbfbfb;}</style></defs><title>icon3</title><circle class="cls-1" cx="63.54" cy="63.54" r="63.54"/><rect class="cls-2" x="22.35" y="45.81" width="82.41" height="44.17"/><path class="cls-2" d="M332.93,421.62H250.52l7.5,7.5V384.95l-7.5,7.5h82.41l-7.5-7.5v44.17c0,9.65,15,9.67,15,0V384.95a7.61,7.61,0,0,0-7.5-7.5H250.52a7.61,7.61,0,0,0-7.5,7.5v44.17a7.61,7.61,0,0,0,7.5,7.5h82.41C342.58,436.62,342.6,421.62,332.93,421.62Z" transform="translate(-228.17 -339.14)"/><line class="cls-1" x1="11.88" y1="44.62" x2="62.32" y2="67.3"/><path class="cls-1" d="M237.52,388.07,288,410.75c5.82,2.62,10.91-6,5-8.63l-50.45-22.68c-5.82-2.62-10.91,6-5,8.63Z" transform="translate(-228.17 -339.14)"/><line class="cls-1" x1="112.77" y1="44.62" x2="62.32" y2="67.3"/><path class="cls-1" d="M338.41,379.44,288,402.12c-5.86,2.63-.78,11.26,5,8.63l50.45-22.68c5.86-2.63.78-11.26-5-8.63Z" transform="translate(-228.17 -339.14)"/></svg>