<svg id="Layer_1" data-name="Layer 1" xmlns="http://www.w3.org/2000/svg" viewBox="0 0 127.07 127.07"><defs><style>.cls-1{fill:#f1604e;}.cls-2,.cls-3{fill:#fbfbfb;}.cls-3{stroke:#fbfbfb;stroke-miterlimit:10;}</style></defs><title>icon5</title><circle class="cls-1" cx="63.54" cy="63.54" r="63.54"/><path class="cls-2" d="M310.51,403.65c-3.26-11.91-15-17.8-26.71-15.42-3.15.64-1.82,5.46,1.33,4.82,9.09-1.84,18.05,2.77,20.56,11.93.85,3.1,5.67,1.78,4.82-1.33Z" transform="translate(-228.6 -339.53)"/><path class="cls-2" d="M326.84,399.6c-5.39-20.94-26.76-31.75-47.25-27.3-3.14.68-1.81,5.5,1.33,4.82,17.88-3.88,36.41,5.59,41.1,23.81.8,3.11,5.63,1.79,4.82-1.33Z" transform="translate(-228.6 -339.53)"/><path class="cls-3" d="M271.13,407s3-9.46-4-14c0,0-12.54-10.85-15.8-3.45,0,0-3.31,8.85,4.52,19.24,0,0,15.89,22.29,50.31,30.31,0,0,11.53,2.35,17.29-6.77,0,0,3.32-4.91-2.28-8.9,0,0-8.37-6.85-15.6-5,0,0-2.77,1.37-3.49,5.9C302.07,424.31,283.94,419,271.13,407Z" transform="translate(-228.6 -339.53)"/></svg>