<svg id="Layer_1" data-name="Layer 1" xmlns="http://www.w3.org/2000/svg" viewBox="0 0 195.09 114.65"><defs><style>.cls-1,.cls-9{fill:none;stroke:#424242;stroke-miterlimit:10;}.cls-2{fill:#424242;}.cls-3{font-size:12px;letter-spacing:0.03em;}.cls-3,.cls-7{fill:#fdfefe;font-family:ProximaNova-Regular, Proxima Nova;}.cls-4{letter-spacing:-0.05em;}.cls-5{letter-spacing:-0.01em;}.cls-6{letter-spacing:0.03em;}.cls-7{font-size:7px;letter-spacing:0.03em;}.cls-8{letter-spacing:-0.03em;}.cls-9{stroke-width:0.75px;}</style></defs><title>Artboard 1</title><line class="cls-1" x1="84.45" y1="62.41" x2="84.45" y2="85.3"/><line class="cls-1" x1="149.24" y1="62.41" x2="149.24" y2="85.3"/><line class="cls-1" x1="103.75" y1="62.62" x2="146" y2="62.62"/><line class="cls-1" x1="30.89" y1="62.62" x2="73.14" y2="62.62"/><line class="cls-1" x1="91.85" y1="15.02" x2="91.85" y2="63.22"/><text></text><rect class="cls-2" x="57.51" y="2.31" width="69.96" height="16.49" rx="4.11" ry="4.11"/><text class="cls-3" transform="translate(60.9 14.23)">MAIN <tspan class="cls-4" x="33.86" y="0">P</tspan><tspan class="cls-5" x="40.34" y="0">A</tspan><tspan class="cls-6" x="48.16" y="0">GE</tspan></text><line class="cls-1" x1="17.5" y1="35.29" x2="165.42" y2="35.29"/><line class="cls-1" x1="17.73" y1="34.81" x2="17.73" y2="104.62"/><line class="cls-1" x1="165.38" y1="34.81" x2="165.38" y2="55.3"/><text></text><rect class="cls-2" x="1.93" y="55.76" width="31.7" height="13.99" rx="4.11" ry="4.11"/><text class="cls-7" transform="translate(5.37 65.02)">ABOUT</text><rect class="cls-2" x="71.16" y="55.76" width="41.64" height="13.99" rx="4.11" ry="4.11"/><text class="cls-7" transform="translate(73.82 65.02)">RESEARCH</text><line class="cls-1" x1="165.26" y1="62.41" x2="165.26" y2="104.67"/><line class="cls-1" x1="17.71" y1="104.17" x2="165.61" y2="104.17"/><rect class="cls-2" x="138.81" y="55.76" width="54" height="13.99" rx="4.11" ry="4.11"/><text class="cls-7" transform="translate(141.42 65.02)">MUSIC PL<tspan class="cls-8" x="32.23" y="0">A</tspan><tspan x="36.61" y="0">YER</tspan></text><line class="cls-1" x1="26.17" y1="62.41" x2="26.17" y2="85.3"/><line class="cls-1" x1="25.7" y1="85.3" x2="149.75" y2="85.3"/><polyline class="cls-9" points="15.66 41.02 17.74 45.39 19.81 41.08"/><polyline class="cls-9" points="49.02 64.72 53.38 62.63 49.08 60.57"/><polyline class="cls-9" points="123.61 64.72 127.97 62.63 123.67 60.57"/><polyline class="cls-9" points="147.06 75.39 149.15 79.75 151.21 75.45"/><polyline class="cls-9" points="163.25 75.39 165.34 79.75 167.4 75.45"/><polyline class="cls-9" points="118.21 83.16 113.84 85.24 118.15 87.31"/><polyline class="cls-9" points="62.43 83.16 58.06 85.24 62.37 87.31"/><polyline class="cls-9" points="82.4 75.39 84.48 79.75 86.55 75.45"/><polyline class="cls-9" points="23.96 79.75 26.05 75.39 28.11 79.69"/><polyline class="cls-9" points="118.21 102.17 113.84 104.25 118.15 106.32"/><polyline class="cls-9" points="62.43 102.17 58.06 104.25 62.37 106.32"/><polyline class="cls-9" points="15.56 79.75 17.65 75.39 19.71 79.69"/><polyline class="cls-9" points="89.74 25.65 91.82 30.02 93.89 25.71"/><polyline class="cls-9" points="54.04 33.18 49.67 35.27 53.98 37.33"/></svg>