<svg id="Layer_1" data-name="Layer 1" xmlns="http://www.w3.org/2000/svg" viewBox="0 0 570.22 390.81"><defs><style>.cls-1{fill:#f1604e;}.cls-1,.cls-3{stroke:#f1604e;stroke-miterlimit:10;}.cls-2{font-size:26px;fill:#fff;font-family:Helvetica-Bold, Helvetica;font-weight:700;}.cls-3{fill:none;stroke-width:7px;}.cls-4{font-size:10px;fill:#231f20;font-family:Helvetica, Helvetica;}.cls-5{letter-spacing:-0.02em;}.cls-6{letter-spacing:-0.04em;}.cls-7{letter-spacing:-0.05em;}</style></defs><title>Artboard 1</title><rect class="cls-1" x="5.22" y="48.59" width="87.06" height="80"/><text class="cls-2" transform="translate(16.94 81.05)">main <tspan x="0" y="24">page</tspan></text><line class="cls-3" x1="183" y1="88.11" x2="103.9" y2="88.11"/><rect class="cls-1" x="442.35" y="48.59" width="102.89" height="80"/><text class="cls-2" transform="translate(458.99 94.42)">about</text><rect class="cls-1" x="204.45" y="48.59" width="125.22" height="80"/><text class="cls-2" transform="translate(212.68 94.42)">research</text><rect class="cls-1" x="439.66" y="294.36" width="103.57" height="83.9"/><text class="cls-2" transform="translate(454.88 331.32)">music <tspan x="0" y="24">player</tspan></text><text class="cls-4" transform="translate(4.9 142.84)">(Application Name), Clean <tspan x="0" y="12">aesthetics - give users a </tspan><tspan x="0" y="24">feel for the visual themes of </tspan><tspan x="0" y="36">the interface</tspan></text><text class="cls-4" transform="translate(440.73 143.8)">Give a brief and easy to <tspan x="0" y="12">understand summary of the </tspan><tspan x="0" y="24">project</tspan><tspan class="cls-5" x="30.01" y="24">’</tspan><tspan x="32.06" y="24">s purpose &amp; </tspan><tspan x="0" y="36">objectives, as well basic </tspan><tspan x="0" y="48">instructions</tspan></text><text class="cls-4" transform="translate(205.11 143.8)">Summarize important <tspan x="0" y="12">research points and begin </tspan><tspan x="0" y="24">introducing the issues this </tspan><tspan x="0" y="36">interface solves.</tspan></text><line class="cls-3" x1="48.78" y1="309.15" x2="426.99" y2="309.15"/><text class="cls-4" transform="translate(60.25 243.14)">Users can navigate from the <tspan x="0" y="12">audio visualizer page back </tspan><tspan x="0" y="24">to the main page, the </tspan><tspan x="0" y="36">‘About</tspan><tspan class="cls-6" x="28.35" y="36">’</tspan><tspan x="30.21" y="36" xml:space="preserve"> page, or the </tspan><tspan x="0" y="48">‘Research</tspan><tspan class="cls-6" x="45.02" y="48">’</tspan><tspan x="46.88" y="48" xml:space="preserve"> page. </tspan></text><text class="cls-4" transform="translate(301.45 327.67)">Customizable<tspan class="cls-7" x="60.58" y="0"> </tspan><tspan x="62.81" y="0">Audio </tspan><tspan x="0" y="12">visualizer (users can </tspan><tspan x="0" y="24">customize colo</tspan><tspan class="cls-7" x="66.14" y="24">r</tspan><tspan x="68.92" y="24">, graphics, </tspan><tspan x="0" y="36">audio visualizer type, and </tspan><tspan x="0" y="48">audio file).</tspan></text><polyline class="cls-3" points="164.29 72.6 186.31 88.25 164.43 104.49"/><line class="cls-3" x1="421.73" y1="88.11" x2="342.63" y2="88.11"/><polyline class="cls-3" points="403.02 72.6 425.04 88.25 403.16 104.49"/><line class="cls-3" x1="492.25" y1="276.02" x2="492.25" y2="201.99"/><polyline class="cls-3" points="507.75 257.3 492.11 279.32 475.86 257.45"/><line class="cls-3" x1="266.99" y1="200.22" x2="266.99" y2="309.07"/><polyline class="cls-3" points="251.49 218.93 267.13 196.91 283.38 218.79"/><line class="cls-3" x1="49.16" y1="200.22" x2="49.16" y2="312.66"/><polyline class="cls-3" points="33.38 218.93 49.03 196.91 65.28 218.79"/></svg>