<?xml version="1.0" encoding="utf-8"?>
<!-- Generator: Adobe Illustrator 22.0.1, SVG Export Plug-In . SVG Version: 6.00 Build 0)  -->
<svg version="1.1" id="Layer_1" xmlns="http://www.w3.org/2000/svg" xmlns:xlink="http://www.w3.org/1999/xlink" x="0px" y="0px"
	 viewBox="0 0 570.2 390.8" style="enable-background:new 0 0 570.2 390.8;" xml:space="preserve">
<style type="text/css">
	.st0{fill:#F1604E;stroke:#F1604E;stroke-miterlimit:10;}
	.st1{fill:#FFFFFF;}
	.st2{font-family:'Helvetica-Bold';}
	.st3{font-size:26px;}
	.st4{fill:none;stroke:#F1604E;stroke-width:7;stroke-miterlimit:10;}
	.st5{fill:#231F20;}
	.st6{font-family:'Helvetica';}
	.st7{font-size:10px;}
</style>
<title>Artboard 1</title>
<rect x="5.2" y="48.6" class="st0" width="87.1" height="80"/>
<text transform="matrix(1 0 0 1 16.94 81.05)" class="st1 st2 st3">main </text>
<text transform="matrix(1 0 0 1 16.94 105.05)" class="st1 st2 st3">page</text>
<line class="st4" x1="183" y1="88.1" x2="103.9" y2="88.1"/>
<rect x="410.8" y="48.6" class="st0" width="155.2" height="80"/>
<text transform="matrix(1 0 0 1 422.1705 94.42)" class="st1 st2 st3">instructions</text>
<rect x="204.4" y="48.6" class="st0" width="93.3" height="80"/>
<text transform="matrix(1 0 0 1 212.68 94.42)" class="st1 st2 st3">about</text>
<rect x="439.7" y="294.4" class="st0" width="103.6" height="83.9"/>
<text transform="matrix(1 0 0 1 454.88 331.32)" class="st1 st2 st3">music </text>
<text transform="matrix(1 0 0 1 454.88 355.32)" class="st1 st2 st3">player</text>
<text transform="matrix(1 0 0 1 4.9 142.84)" class="st5 st6 st7">(Application Name), Clean </text>
<text transform="matrix(1 0 0 1 4.9 154.84)" class="st5 st6 st7">aesthetics - give users a </text>
<text transform="matrix(1 0 0 1 4.9 166.84)" class="st5 st6 st7">feel for the visual themes of </text>
<text transform="matrix(1 0 0 1 4.9 178.84)" class="st5 st6 st7">the interface</text>
<text transform="matrix(1 0 0 1 410.9237 143.8)" class="st5 st6 st7">Give a brief and easy to </text>
<text transform="matrix(1 0 0 1 410.9237 155.8)" class="st5 st6 st7">understand summary of the </text>
<text transform="matrix(1 0 0 1 410.9237 167.8)" class="st5 st6 st7">project</text>
<text transform="matrix(1 0 0 1 440.9337 167.8)" class="st5 st6 st7">’</text>
<text transform="matrix(1 0 0 1 442.9837 167.8)" class="st5 st6 st7">s purpose &amp; </text>
<text transform="matrix(1 0 0 1 410.9237 179.8)" class="st5 st6 st7">objectives, as well basic </text>
<text transform="matrix(1 0 0 1 410.9237 191.8)" class="st5 st6 st7">instructions</text>
<text transform="matrix(1 0 0 1 205.11 143.8)" class="st5 st6 st7">Summarize important </text>
<text transform="matrix(1 0 0 1 205.11 155.8)" class="st5 st6 st7">research points and begin </text>
<text transform="matrix(1 0 0 1 205.11 167.8)" class="st5 st6 st7">introducing the issues this </text>
<text transform="matrix(1 0 0 1 205.11 179.8)" class="st5 st6 st7">interface solves.</text>
<line class="st4" x1="48.8" y1="309.1" x2="427" y2="309.1"/>
<text transform="matrix(1 0 0 1 60.25 243.14)" class="st5 st6 st7">Users can navigate from the </text>
<text transform="matrix(1 0 0 1 60.25 255.14)" class="st5 st6 st7">audio visualizer page back </text>
<text transform="matrix(1 0 0 1 60.25 267.14)" class="st5 st6 st7">to the main page, the </text>
<text transform="matrix(1 0 0 1 60.25 279.14)" class="st5 st6 st7">‘About</text>
<text transform="matrix(1 0 0 1 88.6 279.14)" class="st5 st6 st7">’</text>
<text transform="matrix(1 0 0 1 90.46 279.14)" class="st5 st6 st7"> page, or the </text>
<text transform="matrix(1 0 0 1 60.25 291.14)" class="st5 st6 st7">‘Research</text>
<text transform="matrix(1 0 0 1 105.27 291.14)" class="st5 st6 st7">’</text>
<text transform="matrix(1 0 0 1 107.13 291.14)" class="st5 st6 st7"> page. </text>
<text transform="matrix(1 0 0 1 301.45 327.67)" class="st5 st6 st7">Customizable</text>
<text transform="matrix(1 0 0 1 362.03 327.67)" class="st5 st6 st7"> </text>
<text transform="matrix(1 0 0 1 364.26 327.67)" class="st5 st6 st7">Audio </text>
<text transform="matrix(1 0 0 1 301.45 339.67)" class="st5 st6 st7">visualizer (users can </text>
<text transform="matrix(1 0 0 1 301.45 351.67)" class="st5 st6 st7">customize colo</text>
<text transform="matrix(1 0 0 1 367.59 351.67)" class="st5 st6 st7">r</text>
<text transform="matrix(1 0 0 1 370.37 351.67)" class="st5 st6 st7">, graphics, </text>
<text transform="matrix(1 0 0 1 301.45 363.67)" class="st5 st6 st7">audio visualizer type, and </text>
<text transform="matrix(1 0 0 1 301.45 375.67)" class="st5 st6 st7">audio file).</text>
<polyline class="st4" points="164.3,72.6 186.3,88.2 164.4,104.5 "/>
<line class="st4" x1="389.3" y1="88.1" x2="310.2" y2="88.1"/>
<polyline class="st4" points="370.6,72.6 392.6,88.2 370.7,104.5 "/>
<line class="st4" x1="492.2" y1="276" x2="492.2" y2="202"/>
<polyline class="st4" points="507.8,257.3 492.1,279.3 475.9,257.5 "/>
<line class="st4" x1="267" y1="200.2" x2="267" y2="309.1"/>
<polyline class="st4" points="251.5,218.9 267.1,196.9 283.4,218.8 "/>
<line class="st4" x1="49.2" y1="200.2" x2="49.2" y2="312.7"/>
<polyline class="st4" points="33.4,218.9 49,196.9 65.3,218.8 "/>
</svg>
