<svg id="Layer_1" data-name="Layer 1" xmlns="http://www.w3.org/2000/svg" xmlns:xlink="http://www.w3.org/1999/xlink" viewBox="0 0 415.16 425.39"><defs><style>.cls-1,.cls-17,.cls-35,.cls-38,.cls-41,.cls-42,.cls-46,.cls-62{fill:none;}.cls-14,.cls-2,.cls-80,.cls-83{fill:#fff;}.cls-10,.cls-11,.cls-14,.cls-16,.cls-17,.cls-2,.cls-41,.cls-42,.cls-7{stroke:#231f20;}.cls-10,.cls-11,.cls-14,.cls-16,.cls-17,.cls-2,.cls-21,.cls-22,.cls-35,.cls-38,.cls-41,.cls-42,.cls-46,.cls-62,.cls-7{stroke-miterlimit:10;}.cls-24,.cls-3,.cls-36{font-size:10px;}.cls-10,.cls-12,.cls-15,.cls-18,.cls-3,.cls-43,.cls-63,.cls-65,.cls-8{fill:#231f20;}.cls-24,.cls-27,.cls-3,.cls-36,.cls-37,.cls-8,.cls-80,.cls-83{font-family:Quicksand-Medium, Quicksand;}.cls-4{letter-spacing:0em;}.cls-5{letter-spacing:-0.01em;}.cls-6{fill:#898586;}.cls-7{fill:#d3d0cf;}.cls-8{font-size:8px;}.cls-9{letter-spacing:-0.01em;}.cls-11{fill:#fdfefe;}.cls-11,.cls-14,.cls-16,.cls-17{stroke-width:0.25px;}.cls-12,.cls-27,.cls-37{font-size:3px;}.cls-12,.cls-18,.cls-43,.cls-63,.cls-65{font-family:Quicksand-Regular, Quicksand;}.cls-13{letter-spacing:-0.01em;}.cls-16,.cls-36,.cls-37{fill:#fffeff;}.cls-18{font-size:2px;}.cls-19{fill:#8c8b8b;}.cls-19,.cls-20,.cls-22,.cls-40{opacity:0.5;}.cls-20,.cls-21{fill:#f8f4f4;}.cls-21{stroke:#848484;opacity:0.2;}.cls-22{fill:#7c7777;stroke:#f8f4f4;}.cls-23{fill:#5c5b5b;}.cls-24,.cls-27{fill:#fcfafc;}.cls-25{letter-spacing:0em;}.cls-26{letter-spacing:-0.02em;}.cls-28{letter-spacing:-0.02em;}.cls-29{letter-spacing:-0.01em;}.cls-30{letter-spacing:0em;}.cls-31{letter-spacing:-0.01em;}.cls-32{letter-spacing:0.02em;}.cls-33{letter-spacing:-0.01em;}.cls-34{letter-spacing:0em;}.cls-35{stroke:#fdfefe;}.cls-38{stroke:#fcfafc;}.cls-39{clip-path:url(#clip-path);}.cls-40{fill:#e0dadc;}.cls-42{stroke-width:0.75px;}.cls-43{font-size:7px;}.cls-44{letter-spacing:-0.01em;}.cls-45{letter-spacing:-0.02em;}.cls-46,.cls-62{stroke:#020202;}.cls-46{stroke-width:2px;}.cls-47{fill:#f8f7f9;}.cls-48{fill:#dddbdd;}.cls-49{fill:#c2c1c0;}.cls-50{fill:#9f9e9f;}.cls-51{fill:#878787;}.cls-52{fill:#686868;}.cls-53{fill:#444545;}.cls-54{fill:#232223;}.cls-55{fill:#e5dada;}.cls-56{fill:#ccc6c6;}.cls-57{fill:#b7aeae;}.cls-58{fill:#a8a0a0;}.cls-59{fill:#8e8888;}.cls-60{fill:#726e6e;}.cls-61{fill:#595554;}.cls-63{font-size:3.23px;}.cls-64{letter-spacing:-0.01em;}.cls-65{font-size:2.15px;}.cls-66{fill:#e0e0e0;}.cls-67{fill:#c9c9c9;}.cls-68{fill:#b7b7b7;}.cls-69{fill:#a5a4a4;}.cls-70{fill:#8e8e8e;}.cls-71{fill:#848484;}.cls-72{fill:#6b6b6b;}.cls-73{fill:#565656;}.cls-74{fill:#40403f;}.cls-75{fill:#444345;}.cls-76{fill:#333;}.cls-77{fill:#121212;}.cls-78{letter-spacing:-0.01em;}.cls-79{letter-spacing:0em;}.cls-80{font-size:1.91px;}.cls-81{letter-spacing:-0.02em;}.cls-82{letter-spacing:-0.09em;}.cls-83{font-size:2.5px;}.cls-84{letter-spacing:-0.02em;}.cls-85{letter-spacing:-0.09em;}.cls-86{letter-spacing:0.01em;}</style><clipPath id="clip-path"><rect class="cls-1" x="6.38" y="34.19" width="66.63" height="77.11"/></clipPath></defs><title>Artboard 1</title><rect class="cls-2" x="1.89" y="3.86" width="76.32" height="123.9" rx="16.12" ry="16.12"/><circle class="cls-2" cx="40.21" cy="119.99" r="4.71"/><text class="cls-3" transform="translate(10.99 33.05)">How do <tspan class="cls-4" x="38.6" y="0">y</tspan><tspan x="44.34" y="0">ou </tspan><tspan x="0" y="10">visuali</tspan><tspan class="cls-5" x="29.26" y="10">z</tspan><tspan x="33.98" y="10">e </tspan><tspan x="0" y="20">music?</tspan></text><path class="cls-6" d="M6.86,78.83a47.86,47.86,0,0,0,30.2,11.38,24.46,24.46,0,0,0,17.31-6.35,31.42,31.42,0,0,0,6.69-8.51,19.26,19.26,0,0,1,3.4-4.46,13.27,13.27,0,0,1,8.23-4V111.3H6.54Z"/><rect class="cls-2" x="107.9" y="3.86" width="76.32" height="123.9" rx="16.12" ry="16.12"/><circle class="cls-2" cx="146.22" cy="119.99" r="4.71"/><rect class="cls-7" x="112.55" y="17.58" width="66.63" height="93.72"/><rect class="cls-2" x="221.59" y="3.86" width="76.32" height="123.9" rx="16.12" ry="16.12"/><circle class="cls-2" cx="259.9" cy="119.99" r="4.71"/><rect class="cls-7" x="226.23" y="17.58" width="66.63" height="93.72"/><rect class="cls-2" x="333.05" y="3.86" width="76.32" height="123.9" rx="16.12" ry="16.12"/><circle class="cls-2" cx="371.36" cy="119.99" r="4.71"/><rect class="cls-7" x="337.69" y="17.58" width="66.63" height="93.72"/><text class="cls-8" transform="translate(341.56 27.01)">How do <tspan class="cls-9" x="30.88" y="0">y</tspan><tspan x="35.47" y="0">ou </tspan><tspan x="0" y="8">visuali</tspan><tspan class="cls-5" x="23.41" y="8">z</tspan><tspan x="27.18" y="8">e music?</tspan></text><rect class="cls-10" x="342.26" y="65.9" width="1.62" height="13.17"/><rect class="cls-10" x="345.39" y="59.5" width="1.62" height="19.56"/><rect class="cls-10" x="348.64" y="55.79" width="1.62" height="23.27"/><rect class="cls-10" x="351.94" y="48.04" width="1.62" height="31.02"/><rect class="cls-10" x="355.28" y="55.08" width="1.62" height="23.98"/><rect class="cls-10" x="358.56" y="62.18" width="1.62" height="16.88"/><rect class="cls-10" x="361.75" y="66.04" width="1.62" height="13.02"/><rect class="cls-10" x="364.92" y="68.07" width="1.62" height="10.99"/><rect class="cls-10" x="368.03" y="69.6" width="1.62" height="9.46"/><rect class="cls-10" x="371.04" y="73.95" width="1.62" height="5.12"/><rect class="cls-10" x="374.07" y="70.08" width="1.62" height="8.98"/><rect class="cls-10" x="377.09" y="67.68" width="1.62" height="11.38"/><rect class="cls-10" x="380.12" y="70.08" width="1.62" height="8.98"/><rect class="cls-10" x="383.04" y="73.99" width="1.62" height="5.08"/><rect class="cls-10" x="386.01" y="76.27" width="1.62" height="2.79"/><rect class="cls-10" x="388.92" y="72.49" width="1.62" height="6.61"/><rect class="cls-10" x="391.91" y="64.44" width="1.62" height="14.67"/><rect class="cls-10" x="394.94" y="60.17" width="1.62" height="18.93"/><rect class="cls-10" x="397.98" y="55.4" width="1.62" height="23.7"/><rect class="cls-11" x="341.76" y="90.57" width="18.68" height="4.8" rx="2.4" ry="2.4"/><text class="cls-12" transform="translate(343.12 93.75)">Choose Fi<tspan class="cls-13" x="13.47" y="0">l</tspan><tspan x="14.13" y="0">e</tspan></text><circle class="cls-14" cx="383.51" cy="92.36" r="2.48"/><rect class="cls-15" x="382.29" y="91.19" width="0.89" height="2.45"/><rect class="cls-15" x="383.95" y="91.19" width="0.89" height="2.45"/><rect class="cls-11" x="393.9" y="91.8" width="5.15" height="2.38" rx="1.19" ry="1.19"/><rect class="cls-16" x="387.41" y="91.8" width="5.15" height="2.38" rx="1.19" ry="1.19"/><line class="cls-17" x1="395.72" y1="92.94" x2="397.11" y2="92.94"/><line class="cls-17" x1="389.25" y1="92.94" x2="390.65" y2="92.94"/><line class="cls-17" x1="389.95" y1="93.64" x2="389.95" y2="92.24"/><text class="cls-18" transform="translate(342.29 97.8)">Loading...</text><rect class="cls-15" x="369.16" y="90.85" width="4.57" height="0.97"/><rect class="cls-15" x="369.16" y="92.49" width="4.57" height="0.97"/><rect class="cls-15" x="369.16" y="94.12" width="4.57" height="0.97"/><rect class="cls-2" x="2.22" y="148.1" width="76.32" height="123.9" rx="16.12" ry="16.12"/><circle class="cls-2" cx="40.53" cy="264.23" r="4.71"/><rect class="cls-7" x="6.86" y="161.82" width="66.63" height="93.72"/><text class="cls-8" transform="translate(10.73 171.25)">How do <tspan class="cls-9" x="30.88" y="0">y</tspan><tspan x="35.47" y="0">ou </tspan><tspan x="0" y="8">visuali</tspan><tspan class="cls-5" x="23.41" y="8">z</tspan><tspan x="27.18" y="8">e music?</tspan></text><rect class="cls-11" x="10.94" y="234.81" width="18.68" height="4.8" rx="2.4" ry="2.4"/><text class="cls-12" transform="translate(12.29 237.99)">Choose Fi<tspan class="cls-13" x="13.47" y="0">l</tspan><tspan x="14.13" y="0">e</tspan></text><circle class="cls-14" cx="52.69" cy="236.6" r="2.48"/><rect class="cls-15" x="51.46" y="235.43" width="0.89" height="2.45"/><rect class="cls-15" x="53.12" y="235.43" width="0.89" height="2.45"/><rect class="cls-11" x="63.07" y="236.04" width="5.15" height="2.38" rx="1.19" ry="1.19"/><rect class="cls-16" x="56.58" y="236.04" width="5.15" height="2.38" rx="1.19" ry="1.19"/><line class="cls-17" x1="64.89" y1="237.18" x2="66.29" y2="237.18"/><line class="cls-17" x1="58.42" y1="237.18" x2="59.82" y2="237.18"/><line class="cls-17" x1="59.12" y1="237.88" x2="59.12" y2="236.48"/><text class="cls-18" transform="translate(11.46 242.04)">Loading...</text><rect class="cls-15" x="38.33" y="235.09" width="4.57" height="0.97"/><rect class="cls-15" x="38.33" y="236.73" width="4.57" height="0.97"/><rect class="cls-15" x="38.33" y="238.36" width="4.57" height="0.97"/><circle class="cls-19" cx="39.39" cy="208.84" r="18.33"/><circle class="cls-20" cx="28.45" cy="200.06" r="15.07"/><circle class="cls-21" cx="46.11" cy="205.18" r="19.71"/><circle class="cls-22" cx="36.36" cy="210.19" r="15.07"/><rect class="cls-2" x="108.21" y="148.1" width="76.32" height="123.9" rx="16.12" ry="16.12"/><circle class="cls-2" cx="146.53" cy="264.23" r="4.71"/><rect class="cls-7" x="112.86" y="161.82" width="66.63" height="93.72"/><text class="cls-8" transform="translate(116.73 171.25)">How do <tspan class="cls-9" x="30.88" y="0">y</tspan><tspan x="35.47" y="0">ou </tspan><tspan x="0" y="8">visuali</tspan><tspan class="cls-5" x="23.41" y="8">z</tspan><tspan x="27.18" y="8">e music?</tspan></text><rect class="cls-11" x="116.93" y="234.81" width="18.68" height="4.8" rx="2.4" ry="2.4"/><text class="cls-12" transform="translate(118.29 237.99)">Choose Fi<tspan class="cls-13" x="13.47" y="0">l</tspan><tspan x="14.13" y="0">e</tspan></text><circle class="cls-14" cx="158.68" cy="236.6" r="2.48"/><rect class="cls-15" x="157.46" y="235.43" width="0.89" height="2.45"/><rect class="cls-15" x="159.12" y="235.43" width="0.89" height="2.45"/><rect class="cls-11" x="169.07" y="236.04" width="5.15" height="2.38" rx="1.19" ry="1.19"/><rect class="cls-16" x="162.58" y="236.04" width="5.15" height="2.38" rx="1.19" ry="1.19"/><line class="cls-17" x1="170.88" y1="237.18" x2="172.28" y2="237.18"/><line class="cls-17" x1="164.42" y1="237.18" x2="165.81" y2="237.18"/><line class="cls-17" x1="165.12" y1="237.88" x2="165.12" y2="236.48"/><text class="cls-18" transform="translate(117.46 242.04)">Loading...</text><rect class="cls-15" x="144.32" y="235.09" width="4.57" height="0.97"/><rect class="cls-15" x="144.32" y="236.73" width="4.57" height="0.97"/><rect class="cls-15" x="144.32" y="238.36" width="4.57" height="0.97"/><path class="cls-23" d="M113.1,48.33s11.43,5.1,22.88,2.15a25.33,25.33,0,0,0,6.38-2.73,46.27,46.27,0,0,1,18.42-6,34,34,0,0,1,15.73,2.38c1.23.49,2.17,1,2.17,1.36v65.25H112.9S113.1,49.24,113.1,48.33Z"/><text class="cls-24" transform="translate(117 64.59)"><tspan class="cls-4">R</tspan><tspan x="6.75" y="0">es</tspan><tspan class="cls-25" x="17.22" y="0">e</tspan><tspan x="22.96" y="0">a</tspan><tspan class="cls-26" x="29.1" y="0">r</tspan><tspan x="33.01" y="0">ch</tspan></text><text class="cls-27" transform="translate(117.19 72.97)">Lo<tspan class="cls-28" x="3.47" y="0">r</tspan><tspan x="4.64" y="0">em ipsum do</tspan><tspan class="cls-29" x="22.87" y="0">l</tspan><tspan class="cls-30" x="23.6" y="0">or sit amet, </tspan><tspan x="0" y="4">consec</tspan><tspan class="cls-31" x="9.81" y="4">t</tspan><tspan x="10.94" y="4">etuer adipiscing elit, sed </tspan><tspan x="0" y="8">diam nonum</tspan><tspan class="cls-31" x="17.8" y="8">m</tspan><tspan x="20.53" y="8">y nibh euismod </tspan><tspan x="0" y="12">tinci</tspan><tspan class="cls-32" x="5.81" y="12">d</tspan><tspan x="7.7" y="12">unt ut lao</tspan><tspan class="cls-28" x="21.31" y="12">r</tspan><tspan x="22.48" y="12">eet do</tspan><tspan class="cls-29" x="31.53" y="12">l</tspan><tspan x="32.26" y="12">o</tspan><tspan class="cls-28" x="34.08" y="12">r</tspan><tspan x="35.25" y="12">e magna </tspan><tspan x="0" y="16">aliquam e</tspan><tspan class="cls-33" x="14" y="16">r</tspan><tspan x="15.2" y="16">at </tspan><tspan class="cls-34" x="19.02" y="16">v</tspan><tspan x="20.65" y="16">o</tspan><tspan class="cls-31" x="22.46" y="16">l</tspan><tspan x="23.21" y="16">utpat. Ut wisi enim </tspan><tspan x="0" y="20">ad minim </tspan><tspan class="cls-31" x="13.98" y="20">v</tspan><tspan x="15.61" y="20">eniam, quis nostrud </tspan></text><polyline class="cls-35" points="171.66 101.7 174.77 104.56 171.68 107.32"/><line class="cls-35" x1="174.69" y1="104.53" x2="168.16" y2="104.53"/><path class="cls-23" d="M226.78,48.33s11.42,5.1,22.87,2.15A25.33,25.33,0,0,0,256,47.75a46.39,46.39,0,0,1,18.42-6,34,34,0,0,1,15.74,2.38c1.22.49,2.16,1,2.16,1.36v65.25H226.58S226.78,49.24,226.78,48.33Z"/><text class="cls-36" transform="translate(230.68 64.59)">About...</text><text class="cls-37" transform="translate(230.87 72.97)">Lo<tspan class="cls-28" x="3.47" y="0">r</tspan><tspan x="4.64" y="0">em ipsum do</tspan><tspan class="cls-29" x="22.87" y="0">l</tspan><tspan class="cls-30" x="23.6" y="0">or sit amet, </tspan><tspan x="0" y="4">consec</tspan><tspan class="cls-31" x="9.81" y="4">t</tspan><tspan x="10.94" y="4">etuer adipiscing elit, sed </tspan><tspan x="0" y="8">diam nonum</tspan><tspan class="cls-31" x="17.8" y="8">m</tspan><tspan x="20.53" y="8">y nibh euismod </tspan><tspan x="0" y="12">tinci</tspan><tspan class="cls-32" x="5.81" y="12">d</tspan><tspan x="7.7" y="12">unt ut lao</tspan><tspan class="cls-28" x="21.31" y="12">r</tspan><tspan x="22.48" y="12">eet do</tspan><tspan class="cls-29" x="31.53" y="12">l</tspan><tspan x="32.26" y="12">o</tspan><tspan class="cls-28" x="34.08" y="12">r</tspan><tspan x="35.25" y="12">e magna </tspan><tspan x="0" y="16">aliquam e</tspan><tspan class="cls-33" x="14" y="16">r</tspan><tspan x="15.2" y="16">at </tspan><tspan class="cls-34" x="19.02" y="16">v</tspan><tspan x="20.65" y="16">o</tspan><tspan class="cls-31" x="22.46" y="16">l</tspan><tspan x="23.21" y="16">utpat. Ut wisi enim </tspan><tspan x="0" y="20">ad minim </tspan><tspan class="cls-31" x="13.98" y="20">v</tspan><tspan x="15.61" y="20">eniam, quis nostrud </tspan></text><polyline class="cls-38" points="285.35 101.7 288.45 104.56 285.36 107.32"/><line class="cls-38" x1="288.37" y1="104.53" x2="281.84" y2="104.53"/><g class="cls-39"><path class="cls-40" d="M123.94,84.82s-20.43,9-53.92,9.28c-18,.18-31.73-1.93-38-8.26-.08-.08-4.68-3.68-4.77-3.75-2.83-2-2.66-2.18-6.2-3.75A39.2,39.2,0,0,0,6.38,75.06V111.3H124.51Z"/></g><rect class="cls-41" x="6.54" y="17.58" width="66.63" height="93.72"/><path class="cls-42" d="M124.64,210.37l1.92,0,.26-3.56.82,6.7.6-12.07L130.11,213q.1-9.16.56-18.3c2.2,7.85,2.62,17.6,4.5,25.86-.16-6.69,0-13.43.48-20l1.81,15,.89-8.38.71,5.91.82-2.86.5,1.86a38,38,0,0,1,1.1-6.42c.59,2.46,1.09,5,1.5,7.68l1.16-19.23,2.09,25.83,1-16.77,1.14,8.45a34.77,34.77,0,0,0,.53-4.78l.55,4.53a38.3,38.3,0,0,1,.65-4.32l.34,2.82a.66.66,0,0,0,.73-.19"/><polyline class="cls-42" points="151.18 209.62 170.98 209.62 171.88 207.19 173.01 212.6 175.26 199.09"/><line class="cls-42" x1="116.51" y1="210.32" x2="126.56" y2="210.32"/><rect class="cls-2" x="222.71" y="148.1" width="76.32" height="123.9" rx="16.12" ry="16.12"/><circle class="cls-2" cx="261.02" cy="264.23" r="4.71"/><rect class="cls-7" x="227.35" y="161.82" width="66.63" height="93.72"/><text class="cls-8" transform="translate(231.22 171.25)">How do <tspan class="cls-9" x="30.88" y="0">y</tspan><tspan x="35.47" y="0">ou </tspan><tspan x="0" y="8">visuali</tspan><tspan class="cls-5" x="23.41" y="8">z</tspan><tspan x="27.18" y="8">e music?</tspan></text><rect class="cls-11" x="231.43" y="234.81" width="18.68" height="4.8" rx="2.4" ry="2.4"/><text class="cls-12" transform="translate(232.78 237.99)">Choose Fi<tspan class="cls-13" x="13.47" y="0">l</tspan><tspan x="14.13" y="0">e</tspan></text><circle class="cls-14" cx="273.18" cy="236.6" r="2.48"/><rect class="cls-15" x="271.95" y="235.43" width="0.89" height="2.45"/><rect class="cls-15" x="273.61" y="235.43" width="0.89" height="2.45"/><rect class="cls-11" x="283.56" y="236.04" width="5.15" height="2.38" rx="1.19" ry="1.19"/><line class="cls-17" x1="285.38" y1="237.18" x2="286.78" y2="237.18"/><rect class="cls-16" x="277.07" y="236.04" width="5.15" height="2.38" rx="1.19" ry="1.19"/><line class="cls-17" x1="278.91" y1="237.18" x2="280.31" y2="237.18"/><line class="cls-17" x1="279.61" y1="237.88" x2="279.61" y2="236.48"/><text class="cls-18" transform="translate(231.95 242.04)">Loading...</text><rect class="cls-15" x="258.82" y="235.09" width="4.57" height="0.97"/><rect class="cls-15" x="258.82" y="236.73" width="4.57" height="0.97"/><rect class="cls-15" x="258.82" y="238.36" width="4.57" height="0.97"/><text class="cls-43" transform="translate(318.72 245.73)">CO<tspan class="cls-44" x="9.93" y="0">L</tspan><tspan x="13.59" y="0">OR PICKER (d</tspan><tspan class="cls-45" x="58.18" y="0">r</tspan><tspan x="60.72" y="0">op down </tspan><tspan x="0" y="8">menu for mobi</tspan><tspan class="cls-44" x="47.72" y="8">l</tspan><tspan x="49.26" y="8">e viewport)</tspan></text><polyline class="cls-46" points="306.36 238.51 306 229.76 314.58 230.25"/><line class="cls-46" x1="306.08" y1="229.91" x2="315.67" y2="239.5"/><rect class="cls-47" x="227.88" y="191.86" width="65.57" height="27.67"/><circle class="cls-48" cx="233.09" cy="200.41" r="2.91"/><circle class="cls-49" cx="242.84" cy="200.41" r="2.91"/><circle class="cls-50" cx="252.02" cy="200.41" r="2.91"/><circle class="cls-51" cx="261.44" cy="200.41" r="2.91"/><circle class="cls-52" cx="270.76" cy="200.41" r="2.91"/><circle class="cls-53" cx="279.9" cy="200.41" r="2.91"/><circle class="cls-54" cx="288.72" cy="200.41" r="2.91"/><circle class="cls-55" cx="233.09" cy="210.39" r="2.91"/><circle class="cls-56" cx="242.84" cy="210.39" r="2.91"/><circle class="cls-57" cx="252.02" cy="210.39" r="2.91"/><circle class="cls-58" cx="261.44" cy="210.39" r="2.91"/><circle class="cls-59" cx="270.76" cy="210.39" r="2.91"/><circle class="cls-60" cx="279.9" cy="210.39" r="2.91"/><circle class="cls-61" cx="288.72" cy="210.39" r="2.91"/><rect class="cls-62" x="2.87" y="297.67" width="167.18" height="120.16" rx="12" ry="12"/><rect class="cls-62" x="7.58" y="310.13" width="156.81" height="97.49"/><rect class="cls-10" x="12.11" y="364.84" width="1.62" height="13.17"/><rect class="cls-10" x="15.24" y="358.44" width="1.62" height="19.56"/><rect class="cls-10" x="18.48" y="354.73" width="1.62" height="23.27"/><rect class="cls-10" x="21.79" y="346.98" width="1.62" height="31.02"/><rect class="cls-10" x="25.12" y="354.02" width="1.62" height="23.98"/><rect class="cls-10" x="28.4" y="361.12" width="1.62" height="16.88"/><rect class="cls-10" x="31.59" y="364.98" width="1.62" height="13.02"/><rect class="cls-10" x="34.77" y="367.01" width="1.62" height="10.99"/><rect class="cls-10" x="37.87" y="368.54" width="1.62" height="9.46"/><rect class="cls-10" x="40.89" y="372.89" width="1.62" height="5.12"/><rect class="cls-10" x="43.91" y="369.02" width="1.62" height="8.98"/><rect class="cls-10" x="46.94" y="366.62" width="1.62" height="11.38"/><rect class="cls-10" x="49.96" y="369.02" width="1.62" height="8.98"/><rect class="cls-10" x="52.88" y="372.92" width="1.62" height="5.08"/><rect class="cls-10" x="55.85" y="375.21" width="1.62" height="2.79"/><rect class="cls-10" x="58.76" y="371.43" width="1.62" height="6.61"/><rect class="cls-10" x="61.75" y="363.38" width="1.62" height="14.67"/><rect class="cls-10" x="64.79" y="359.11" width="1.62" height="18.93"/><rect class="cls-10" x="67.82" y="354.34" width="1.62" height="23.7"/><rect class="cls-10" x="126.76" y="364.83" width="1.62" height="13.17" transform="translate(255.13 742.82) rotate(-180)"/><rect class="cls-10" x="123.62" y="358.43" width="1.62" height="19.56" transform="translate(248.86 736.42) rotate(-180)"/><rect class="cls-10" x="120.38" y="354.72" width="1.62" height="23.27" transform="translate(242.37 732.71) rotate(-180)"/><rect class="cls-10" x="117.08" y="346.97" width="1.62" height="31.02" transform="translate(235.77 724.97) rotate(-180)"/><rect class="cls-10" x="113.74" y="354.01" width="1.62" height="23.98" transform="translate(229.1 732) rotate(-180)"/><rect class="cls-10" x="110.46" y="361.11" width="1.62" height="16.88" transform="translate(222.54 739.1) rotate(-180)"/><rect class="cls-10" x="107.27" y="364.97" width="1.62" height="13.02" transform="translate(216.16 742.97) rotate(-180)"/><rect class="cls-10" x="104.09" y="367" width="1.62" height="10.99" transform="translate(209.8 744.99) rotate(-180)"/><rect class="cls-10" x="100.99" y="368.53" width="1.62" height="9.46" transform="translate(203.6 746.52) rotate(-180)"/><rect class="cls-10" x="97.97" y="372.88" width="1.62" height="5.12" transform="translate(197.56 750.87) rotate(-180)"/><rect class="cls-10" x="94.95" y="369.01" width="1.62" height="8.98" transform="translate(191.51 747) rotate(-180)"/><rect class="cls-10" x="91.92" y="366.61" width="1.62" height="11.38" transform="translate(185.46 744.61) rotate(-180)"/><rect class="cls-10" x="88.9" y="369.01" width="1.62" height="8.98" transform="translate(179.41 747) rotate(-180)"/><rect class="cls-10" x="85.98" y="372.91" width="1.62" height="5.08" transform="translate(173.57 750.91) rotate(-180)"/><rect class="cls-10" x="83.01" y="375.2" width="1.62" height="2.79" transform="translate(167.64 753.19) rotate(-180)"/><rect class="cls-10" x="80.1" y="371.42" width="1.62" height="6.61" transform="translate(161.81 749.45) rotate(-180)"/><rect class="cls-10" x="77.11" y="363.37" width="1.62" height="14.67" transform="translate(155.83 741.4) rotate(-180)"/><rect class="cls-10" x="74.07" y="359.1" width="1.62" height="18.93" transform="translate(149.76 737.13) rotate(-180)"/><rect class="cls-10" x="71.04" y="354.33" width="1.62" height="23.7" transform="translate(143.69 732.36) rotate(-180)"/><rect class="cls-10" x="130" y="367.6" width="1.62" height="10.39" transform="translate(261.61 745.59) rotate(-180)"/><rect class="cls-10" x="133.12" y="371.41" width="1.62" height="6.58" transform="translate(267.86 749.4) rotate(-180)"/><rect class="cls-10" x="136.3" y="371.93" width="1.62" height="6.06" transform="translate(274.21 749.93) rotate(-180)"/><rect class="cls-10" x="139.54" y="373.62" width="1.62" height="4.37" transform="translate(280.69 751.62) rotate(-180)"/><rect class="cls-10" x="142.67" y="375.51" width="1.62" height="2.48" transform="translate(286.95 753.51) rotate(-180)"/><rect class="cls-10" x="145.66" y="376.78" width="1.62" height="1.22" transform="translate(292.94 754.77) rotate(-180)"/><rect class="cls-10" x="148.9" y="375.27" width="1.62" height="2.72" transform="translate(299.42 753.26) rotate(-180)"/><rect class="cls-10" x="152.03" y="373.87" width="1.62" height="4.13" transform="translate(305.68 751.86) rotate(-180)"/><rect class="cls-10" x="155.24" y="372.53" width="1.62" height="5.47" transform="translate(312.09 750.52) rotate(-180)"/><rect class="cls-10" x="158.48" y="373.8" width="1.62" height="4.2" transform="translate(318.58 751.79) rotate(-180)"/><rect class="cls-11" x="18.8" y="389.78" width="20.08" height="5.16" rx="2.4" ry="2.4"/><text class="cls-63" transform="translate(20.26 393.2)">Choose Fi<tspan class="cls-64" x="14.48" y="0">l</tspan><tspan x="15.19" y="0">e</tspan></text><text class="cls-65" transform="translate(43.14 392.86)">Loading...</text><circle class="cls-14" cx="72.94" cy="392.39" r="3.7"/><rect class="cls-15" x="71.11" y="390.64" width="1.32" height="3.66"/><rect class="cls-15" x="73.59" y="390.64" width="1.32" height="3.66"/><rect class="cls-11" x="90.98" y="391.14" width="6.77" height="3.12" rx="1.19" ry="1.19"/><line class="cls-17" x1="93.36" y1="392.64" x2="95.2" y2="392.64"/><rect class="cls-16" x="81.5" y="391.14" width="6.77" height="3.12" rx="1.19" ry="1.19"/><line class="cls-17" x1="83.92" y1="392.64" x2="85.75" y2="392.64"/><line class="cls-17" x1="84.83" y1="393.56" x2="84.83" y2="391.72"/><circle class="cls-66" cx="50.43" cy="383.53" r="1.84"/><circle class="cls-67" cx="56.36" cy="383.53" r="1.84"/><circle class="cls-68" cx="62.09" cy="383.53" r="1.84"/><circle class="cls-69" cx="68.01" cy="383.53" r="1.84"/><circle class="cls-70" cx="73.95" cy="383.53" r="1.84"/><circle class="cls-71" cx="79.68" cy="383.53" r="1.84"/><circle class="cls-72" cx="85.51" cy="383.53" r="1.84"/><circle class="cls-73" cx="91.45" cy="383.53" r="1.84"/><circle class="cls-74" cx="97.17" cy="383.53" r="1.84"/><circle class="cls-75" cx="103.31" cy="383.53" r="1.84"/><circle class="cls-74" cx="109.25" cy="383.53" r="1.84"/><circle class="cls-76" cx="114.97" cy="383.53" r="1.84"/><circle class="cls-77" cx="120.92" cy="383.53" r="1.84"/><text class="cls-8" transform="translate(29.15 333.47)">How do <tspan class="cls-9" x="30.88" y="0">y</tspan><tspan x="35.47" y="0">ou visuali</tspan><tspan class="cls-78" x="70.58" y="0">z</tspan><tspan class="cls-79" x="74.36" y="0">e music?</tspan></text><rect class="cls-15" x="231.97" y="229.31" width="7.14" height="2.95" rx="1.02" ry="1.02"/><text class="cls-80" transform="translate(233 231.41)">BARS</text><rect class="cls-15" x="249.9" y="229.29" width="7.85" height="3.01" rx="1.2" ry="1.2"/><text class="cls-80" transform="translate(250.52 231.28)">RADIAL</text><rect class="cls-15" x="240.52" y="229.31" width="8.02" height="3.02" rx="1.2" ry="1.2"/><text class="cls-80" transform="translate(241.33 231.35)"><tspan class="cls-81">W</tspan><tspan class="cls-82" x="1.77" y="0">A</tspan><tspan x="2.82" y="0">VES</tspan></text><rect class="cls-15" x="120.15" y="390.97" width="9.36" height="3.87" rx="1.02" ry="1.02"/><text class="cls-83" transform="translate(121.51 393.72)">BARS</text><rect class="cls-15" x="143.68" y="390.94" width="10.3" height="3.95" rx="1.2" ry="1.2"/><text class="cls-83" transform="translate(144.5 393.55)">RADIAL</text><rect class="cls-15" x="131.37" y="390.97" width="10.52" height="3.97" rx="1.2" ry="1.2"/><text class="cls-83" transform="translate(132.44 393.64)"><tspan class="cls-84">W</tspan><tspan class="cls-85" x="2.33" y="0">A</tspan><tspan x="3.7" y="0">VES</tspan></text><rect class="cls-15" x="116.88" y="229.31" width="7.14" height="2.95" rx="1.02" ry="1.02"/><text class="cls-80" transform="translate(117.91 231.41)">BARS</text><rect class="cls-15" x="134.81" y="229.29" width="7.85" height="3.01" rx="1.2" ry="1.2"/><text class="cls-80" transform="translate(135.43 231.28)">RADIAL</text><rect class="cls-15" x="125.43" y="229.31" width="8.02" height="3.02" rx="1.2" ry="1.2"/><text class="cls-80" transform="translate(126.24 231.35)"><tspan class="cls-81">W</tspan><tspan class="cls-82" x="1.77" y="0">A</tspan><tspan x="2.82" y="0">VES</tspan></text><rect class="cls-15" x="11.11" y="229.31" width="7.14" height="2.95" rx="1.02" ry="1.02"/><text class="cls-80" transform="translate(12.14 231.41)">BARS</text><rect class="cls-15" x="29.04" y="229.29" width="7.85" height="3.01" rx="1.2" ry="1.2"/><text class="cls-80" transform="translate(29.66 231.28)">RADIAL</text><rect class="cls-15" x="19.66" y="229.31" width="8.02" height="3.02" rx="1.2" ry="1.2"/><text class="cls-80" transform="translate(20.47 231.35)"><tspan class="cls-81">W</tspan><tspan class="cls-82" x="1.77" y="0">A</tspan><tspan x="2.82" y="0">VES</tspan></text><rect class="cls-15" x="341.49" y="84.77" width="7.14" height="2.95" rx="1.02" ry="1.02"/><text class="cls-80" transform="translate(342.53 86.87)">BARS</text><rect class="cls-15" x="359.42" y="84.75" width="7.85" height="3.01" rx="1.2" ry="1.2"/><text class="cls-80" transform="translate(360.05 86.74)">RADIAL</text><rect class="cls-15" x="350.04" y="84.77" width="8.02" height="3.02" rx="1.2" ry="1.2"/><text class="cls-80" transform="translate(350.86 86.81)"><tspan class="cls-81">W</tspan><tspan class="cls-82" x="1.77" y="0">A</tspan><tspan x="2.82" y="0">VES</tspan></text><text class="cls-43" transform="translate(186.74 385.14)"><tspan class="cls-86">D</tspan><tspan x="5.09" y="0">esk</tspan><tspan class="cls-34" x="16.01" y="0">t</tspan><tspan x="18.35" y="0">op Viewport </tspan></text><polyline class="cls-46" points="174.37 377.92 174.01 369.18 182.6 369.66"/><line class="cls-46" x1="174.09" y1="369.33" x2="183.68" y2="378.91"/></svg>