<?xml version="1.0" encoding="utf-8"?>
<!-- Generator: Adobe Illustrator 22.0.1, SVG Export Plug-In . SVG Version: 6.00 Build 0)  -->
<svg version="1.1" id="Layer_1" xmlns="http://www.w3.org/2000/svg" xmlns:xlink="http://www.w3.org/1999/xlink" x="0px" y="0px"
	 viewBox="0 0 415.2 425.4" style="enable-background:new 0 0 415.2 425.4;" xml:space="preserve">
<style type="text/css">
	.st0{fill:#FFFFFF;stroke:#231F20;stroke-miterlimit:10;}
	.st1{fill:#231F20;}
	.st2{font-family:'Quicksand-Medium';}
	.st3{font-size:10px;}
	.st4{fill:#898586;}
	.st5{fill:#D3D0CF;stroke:#231F20;stroke-miterlimit:10;}
	.st6{font-size:8px;}
	.st7{fill:#231F20;stroke:#231F20;stroke-miterlimit:10;}
	.st8{fill:#FDFEFE;stroke:#231F20;stroke-width:0.25;stroke-miterlimit:10;}
	.st9{font-family:'Quicksand-Regular';}
	.st10{font-size:3px;}
	.st11{fill:#FFFFFF;stroke:#231F20;stroke-width:0.25;stroke-miterlimit:10;}
	.st12{fill:#FFFEFF;stroke:#231F20;stroke-width:0.25;stroke-miterlimit:10;}
	.st13{fill:none;stroke:#231F20;stroke-width:0.25;stroke-miterlimit:10;}
	.st14{font-size:2px;}
	.st15{opacity:0.5;fill:#8C8B8B;enable-background:new    ;}
	.st16{opacity:0.5;fill:#F8F4F4;enable-background:new    ;}
	.st17{opacity:0.2;fill:#F8F4F4;stroke:#848484;stroke-miterlimit:10;enable-background:new    ;}
	.st18{opacity:0.5;fill:#7C7777;stroke:#F8F4F4;stroke-miterlimit:10;enable-background:new    ;}
	.st19{fill:#5C5B5B;}
	.st20{fill:#FCFAFC;}
	.st21{fill:#FFFEFF;}
	.st22{clip-path:url(#SVGID_2_);}
	.st23{opacity:0.5;fill:#E0DADC;enable-background:new    ;}
	.st24{fill:none;stroke:#231F20;stroke-miterlimit:10;}
	.st25{fill:none;stroke:#231F20;stroke-width:0.75;stroke-miterlimit:10;}
	.st26{fill:#939292;stroke:#231F20;stroke-miterlimit:10;}
	.st27{font-size:7px;}
	.st28{fill:none;stroke:#020202;stroke-width:2;stroke-miterlimit:10;}
	.st29{fill:#F8F7F9;}
	.st30{fill:#DDDBDD;}
	.st31{fill:#C2C1C0;}
	.st32{fill:#9F9E9F;}
	.st33{fill:#878787;}
	.st34{fill:#686868;}
	.st35{fill:#444545;}
	.st36{fill:#232223;}
	.st37{fill:#E5DADA;}
	.st38{fill:#CCC6C6;}
	.st39{fill:#B7AEAE;}
	.st40{fill:#A8A0A0;}
	.st41{fill:#8E8888;}
	.st42{fill:#726E6E;}
	.st43{fill:#595554;}
	.st44{fill:none;stroke:#020202;stroke-miterlimit:10;}
	.st45{font-size:3.23px;}
	.st46{font-size:2.15px;}
	.st47{fill:#E0E0E0;}
	.st48{fill:#C9C9C9;}
	.st49{fill:#B7B7B7;}
	.st50{fill:#A5A4A4;}
	.st51{fill:#8E8E8E;}
	.st52{fill:#848484;}
	.st53{fill:#6B6B6B;}
	.st54{fill:#565656;}
	.st55{fill:#40403F;}
	.st56{fill:#444345;}
	.st57{fill:#333333;}
	.st58{fill:#121212;}
	.st59{fill:#FFFFFF;}
	.st60{font-size:1.91px;}
	.st61{font-size:2.5px;}
	.st62{fill:#938F90;stroke:#050505;stroke-width:0.25;stroke-miterlimit:10;}
	.st63{fill:none;}
	.st64{fill:none;stroke:#FDFEFE;stroke-miterlimit:10;}
	.st65{fill:none;stroke:#FFFEFF;stroke-miterlimit:10;}
</style>
<title>Artboard 1</title>
<path class="st0" d="M18,3.9h44.1c8.9,0,16.1,7.2,16.1,16.1v91.7c0,8.9-7.2,16.1-16.1,16.1H18c-8.9,0-16.1-7.2-16.1-16.1V20
	C1.9,11.1,9.1,3.9,18,3.9z"/>
<circle class="st0" cx="40.2" cy="120" r="4.7"/>
<text transform="matrix(1 0 0 1 10.99 33.05)" class="st1 st2 st3">How do </text>
<text transform="matrix(1 0 0 1 49.59 33.05)" class="st1 st2 st3">y</text>
<text transform="matrix(1 0 0 1 55.33 33.05)" class="st1 st2 st3">ou </text>
<text transform="matrix(1 0 0 1 10.99 43.05)" class="st1 st2 st3">visuali</text>
<text transform="matrix(1 0 0 1 40.25 43.05)" class="st1 st2 st3">z</text>
<text transform="matrix(1 0 0 1 44.97 43.05)" class="st1 st2 st3">e </text>
<text transform="matrix(1 0 0 1 10.99 53.05)" class="st1 st2 st3">music?</text>
<path class="st4" d="M6.9,78.8C15.3,86,26,90,37.1,90.2c6.4,0.2,12.6-2.1,17.3-6.3c2.7-2.4,5-5.3,6.7-8.5c0.9-1.6,2.1-3.1,3.4-4.5
	c2.2-2.3,5.1-3.7,8.2-4v44.4H6.5L6.9,78.8z"/>
<path class="st0" d="M124,3.9h44.1c8.9,0,16.1,7.2,16.1,16.1v91.7c0,8.9-7.2,16.1-16.1,16.1H124c-8.9,0-16.1-7.2-16.1-16.1V20
	C107.9,11.1,115.1,3.9,124,3.9z"/>
<circle class="st0" cx="146.2" cy="120" r="4.7"/>
<rect x="112.6" y="17.6" class="st5" width="66.6" height="93.7"/>
<path class="st0" d="M237.7,3.9h44.1c8.9,0,16.1,7.2,16.1,16.1v91.7c0,8.9-7.2,16.1-16.1,16.1h-44.1c-8.9,0-16.1-7.2-16.1-16.1V20
	C221.6,11.1,228.8,3.9,237.7,3.9z"/>
<ellipse transform="matrix(0.1602 -0.9871 0.9871 0.1602 99.8182 357.3222)" class="st0" cx="259.9" cy="120" rx="4.7" ry="4.7"/>
<rect x="226.2" y="17.6" class="st5" width="66.6" height="93.7"/>
<path class="st0" d="M349.2,3.9h44.1c8.9,0,16.1,7.2,16.1,16.1v91.7c0,8.9-7.2,16.1-16.1,16.1h-44.1c-8.9,0-16.1-7.2-16.1-16.1V20
	C333,11.1,340.3,3.9,349.2,3.9z"/>
<circle class="st0" cx="371.4" cy="120" r="4.7"/>
<rect x="337.7" y="17.6" class="st5" width="66.6" height="93.7"/>
<text transform="matrix(1 0 0 1 341.56 27.01)" class="st1 st2 st6">How do </text>
<text transform="matrix(1 0 0 1 372.44 27.01)" class="st1 st2 st6">y</text>
<text transform="matrix(1 0 0 1 377.03 27.01)" class="st1 st2 st6">ou </text>
<text transform="matrix(1 0 0 1 341.56 35.01)" class="st1 st2 st6">visuali</text>
<text transform="matrix(1 0 0 1 364.97 35.01)" class="st1 st2 st6">z</text>
<text transform="matrix(1 0 0 1 368.74 35.01)" class="st1 st2 st6">e music?</text>
<rect x="342.3" y="65.9" class="st7" width="1.6" height="13.2"/>
<rect x="345.4" y="59.5" class="st7" width="1.6" height="19.6"/>
<rect x="348.6" y="55.8" class="st7" width="1.6" height="23.3"/>
<rect x="351.9" y="48" class="st7" width="1.6" height="31"/>
<rect x="355.3" y="55.1" class="st7" width="1.6" height="24"/>
<rect x="358.6" y="62.2" class="st7" width="1.6" height="16.9"/>
<rect x="361.8" y="66" class="st7" width="1.6" height="13"/>
<rect x="364.9" y="68.1" class="st7" width="1.6" height="11"/>
<rect x="368" y="69.6" class="st7" width="1.6" height="9.5"/>
<rect x="371" y="73.9" class="st7" width="1.6" height="5.1"/>
<rect x="374.1" y="70.1" class="st7" width="1.6" height="9"/>
<rect x="377.1" y="67.7" class="st7" width="1.6" height="11.4"/>
<rect x="380.1" y="70.1" class="st7" width="1.6" height="9"/>
<rect x="383" y="74" class="st7" width="1.6" height="5.1"/>
<rect x="386" y="76.3" class="st7" width="1.6" height="2.8"/>
<rect x="388.9" y="72.5" class="st7" width="1.6" height="6.6"/>
<rect x="391.9" y="64.4" class="st7" width="1.6" height="14.7"/>
<rect x="394.9" y="60.2" class="st7" width="1.6" height="18.9"/>
<rect x="398" y="55.4" class="st7" width="1.6" height="23.7"/>
<path class="st8" d="M344.2,90.6H358c1.3,0,2.4,1.1,2.4,2.4l0,0c0,1.3-1.1,2.4-2.4,2.4h-13.9c-1.3,0-2.4-1.1-2.4-2.4l0,0
	C341.8,91.6,342.8,90.6,344.2,90.6z"/>
<text transform="matrix(1 0 0 1 343.12 93.75)" class="st1 st9 st10">Choose Fi</text>
<text transform="matrix(1 0 0 1 356.59 93.75)" class="st1 st9 st10">l</text>
<text transform="matrix(1 0 0 1 357.25 93.75)" class="st1 st9 st10">e</text>
<circle class="st11" cx="383.5" cy="92.4" r="2.5"/>
<rect x="382.3" y="91.2" class="st1" width="0.9" height="2.4"/>
<rect x="384" y="91.2" class="st1" width="0.9" height="2.4"/>
<path class="st8" d="M395.1,91.8h2.8c0.7,0,1.2,0.5,1.2,1.2l0,0c0,0.7-0.5,1.2-1.2,1.2h-2.8c-0.7,0-1.2-0.5-1.2-1.2l0,0
	C393.9,92.3,394.4,91.8,395.1,91.8z"/>
<path class="st12" d="M388.6,91.8h2.8c0.7,0,1.2,0.5,1.2,1.2l0,0c0,0.7-0.5,1.2-1.2,1.2h-2.8c-0.7,0-1.2-0.5-1.2-1.2l0,0
	C387.4,92.3,387.9,91.8,388.6,91.8z"/>
<line class="st13" x1="395.7" y1="92.9" x2="397.1" y2="92.9"/>
<line class="st13" x1="389.2" y1="92.9" x2="390.6" y2="92.9"/>
<line class="st13" x1="390" y1="93.6" x2="390" y2="92.2"/>
<text transform="matrix(1 0 0 1 342.29 97.8)" class="st1 st9 st14">Loading...</text>
<rect x="369.2" y="90.8" class="st1" width="4.6" height="1"/>
<rect x="369.2" y="92.5" class="st1" width="4.6" height="1"/>
<rect x="369.2" y="94.1" class="st1" width="4.6" height="1"/>
<path class="st0" d="M18.3,148.1h44.1c8.9,0,16.1,7.2,16.1,16.1v91.7c0,8.9-7.2,16.1-16.1,16.1H18.3c-8.9,0-16.1-7.2-16.1-16.1
	v-91.7C2.2,155.3,9.4,148.1,18.3,148.1z"/>
<circle class="st0" cx="40.5" cy="264.2" r="4.7"/>
<rect x="6.9" y="161.8" class="st5" width="66.6" height="93.7"/>
<text transform="matrix(1 0 0 1 10.73 171.25)" class="st1 st2 st6">How do </text>
<text transform="matrix(1 0 0 1 41.61 171.25)" class="st1 st2 st6">y</text>
<text transform="matrix(1 0 0 1 46.2 171.25)" class="st1 st2 st6">ou </text>
<text transform="matrix(1 0 0 1 10.73 179.25)" class="st1 st2 st6">visuali</text>
<text transform="matrix(1 0 0 1 34.14 179.25)" class="st1 st2 st6">z</text>
<text transform="matrix(1 0 0 1 37.91 179.25)" class="st1 st2 st6">e music?</text>
<path class="st8" d="M13.3,234.8h13.9c1.3,0,2.4,1.1,2.4,2.4l0,0c0,1.3-1.1,2.4-2.4,2.4H13.3c-1.3,0-2.4-1.1-2.4-2.4l0,0
	C10.9,235.9,12,234.8,13.3,234.8z"/>
<text transform="matrix(1 0 0 1 12.29 237.99)" class="st1 st9 st10">Choose Fi</text>
<text transform="matrix(1 0 0 1 25.76 237.99)" class="st1 st9 st10">l</text>
<text transform="matrix(1 0 0 1 26.42 237.99)" class="st1 st9 st10">e</text>
<circle class="st11" cx="52.7" cy="236.6" r="2.5"/>
<rect x="51.5" y="235.4" class="st1" width="0.9" height="2.4"/>
<rect x="53.1" y="235.4" class="st1" width="0.9" height="2.4"/>
<path class="st8" d="M64.3,236H67c0.7,0,1.2,0.5,1.2,1.2l0,0c0,0.7-0.5,1.2-1.2,1.2h-2.8c-0.7,0-1.2-0.5-1.2-1.2l0,0
	C63.1,236.6,63.6,236,64.3,236z"/>
<path class="st12" d="M57.8,236h2.8c0.7,0,1.2,0.5,1.2,1.2l0,0c0,0.7-0.5,1.2-1.2,1.2h-2.8c-0.7,0-1.2-0.5-1.2-1.2l0,0
	C56.6,236.6,57.1,236,57.8,236z"/>
<line class="st13" x1="64.9" y1="237.2" x2="66.3" y2="237.2"/>
<line class="st13" x1="58.4" y1="237.2" x2="59.8" y2="237.2"/>
<line class="st13" x1="59.1" y1="237.9" x2="59.1" y2="236.5"/>
<text transform="matrix(1 0 0 1 11.46 242.04)" class="st1 st9 st14">Loading...</text>
<rect x="38.3" y="235.1" class="st1" width="4.6" height="1"/>
<rect x="38.3" y="236.7" class="st1" width="4.6" height="1"/>
<rect x="38.3" y="238.4" class="st1" width="4.6" height="1"/>
<circle class="st15" cx="39.4" cy="208.8" r="18.3"/>
<circle class="st16" cx="28.5" cy="200.1" r="15.1"/>
<circle class="st17" cx="46.1" cy="205.2" r="19.7"/>
<circle class="st18" cx="36.4" cy="210.2" r="15.1"/>
<path class="st0" d="M124.3,148.1h44.1c8.9,0,16.1,7.2,16.1,16.1v91.7c0,8.9-7.2,16.1-16.1,16.1h-44.1c-8.9,0-16.1-7.2-16.1-16.1
	v-91.7C108.2,155.3,115.4,148.1,124.3,148.1z"/>
<circle class="st0" cx="146.5" cy="264.2" r="4.7"/>
<rect x="112.9" y="161.8" class="st5" width="66.6" height="93.7"/>
<text transform="matrix(1 0 0 1 116.73 171.25)" class="st1 st2 st6">How do </text>
<text transform="matrix(1 0 0 1 147.61 171.25)" class="st1 st2 st6">y</text>
<text transform="matrix(1 0 0 1 152.2 171.25)" class="st1 st2 st6">ou </text>
<text transform="matrix(1 0 0 1 116.73 179.25)" class="st1 st2 st6">visuali</text>
<text transform="matrix(1 0 0 1 140.14 179.25)" class="st1 st2 st6">z</text>
<text transform="matrix(1 0 0 1 143.91 179.25)" class="st1 st2 st6">e music?</text>
<path class="st8" d="M119.3,234.8h13.9c1.3,0,2.4,1.1,2.4,2.4l0,0c0,1.3-1.1,2.4-2.4,2.4h-13.9c-1.3,0-2.4-1.1-2.4-2.4l0,0
	C116.9,235.9,118,234.8,119.3,234.8z"/>
<text transform="matrix(1 0 0 1 118.29 237.99)" class="st1 st9 st10">Choose Fi</text>
<text transform="matrix(1 0 0 1 131.76 237.99)" class="st1 st9 st10">l</text>
<text transform="matrix(1 0 0 1 132.42 237.99)" class="st1 st9 st10">e</text>
<circle class="st11" cx="158.7" cy="236.6" r="2.5"/>
<rect x="157.5" y="235.4" class="st1" width="0.9" height="2.4"/>
<rect x="159.1" y="235.4" class="st1" width="0.9" height="2.4"/>
<path class="st8" d="M170.3,236h2.8c0.7,0,1.2,0.5,1.2,1.2l0,0c0,0.7-0.5,1.2-1.2,1.2h-2.8c-0.7,0-1.2-0.5-1.2-1.2l0,0
	C169.1,236.6,169.6,236,170.3,236z"/>
<path class="st12" d="M163.8,236h2.8c0.7,0,1.2,0.5,1.2,1.2l0,0c0,0.7-0.5,1.2-1.2,1.2h-2.8c-0.7,0-1.2-0.5-1.2-1.2l0,0
	C162.6,236.6,163.1,236,163.8,236z"/>
<line class="st13" x1="170.9" y1="237.2" x2="172.3" y2="237.2"/>
<line class="st13" x1="164.4" y1="237.2" x2="165.8" y2="237.2"/>
<line class="st13" x1="165.1" y1="237.9" x2="165.1" y2="236.5"/>
<text transform="matrix(1 0 0 1 117.46 242.04)" class="st1 st9 st14">Loading...</text>
<rect x="144.3" y="235.1" class="st1" width="4.6" height="1"/>
<rect x="144.3" y="236.7" class="st1" width="4.6" height="1"/>
<rect x="144.3" y="238.4" class="st1" width="4.6" height="1"/>
<path class="st19" d="M113.1,48.3c0,0,11.4,5.1,22.9,2.2c2.2-0.6,4.4-1.5,6.4-2.7c5.6-3.3,11.9-5.3,18.4-6
	c5.4-0.5,10.7,0.4,15.7,2.4c1.2,0.5,2.2,1,2.2,1.4v65.2h-65.8C112.9,110.7,113.1,49.2,113.1,48.3z"/>
<text transform="matrix(1 0 0 1 117.19 72.97)" class="st20 st2 st10">Lo</text>
<text transform="matrix(1 0 0 1 120.66 72.97)" class="st20 st2 st10">r</text>
<text transform="matrix(1 0 0 1 121.83 72.97)" class="st20 st2 st10">em ipsum do</text>
<text transform="matrix(1 0 0 1 140.06 72.97)" class="st20 st2 st10">l</text>
<text transform="matrix(1 0 0 1 140.79 72.97)" class="st20 st2 st10">or sit amet, </text>
<text transform="matrix(1 0 0 1 117.19 76.97)" class="st20 st2 st10">consec</text>
<text transform="matrix(1 0 0 1 127 76.97)" class="st20 st2 st10">t</text>
<text transform="matrix(1 0 0 1 128.13 76.97)" class="st20 st2 st10">etuer adipiscing elit, sed </text>
<text transform="matrix(1 0 0 1 117.19 80.97)" class="st20 st2 st10">diam nonum</text>
<text transform="matrix(1 0 0 1 134.99 80.97)" class="st20 st2 st10">m</text>
<text transform="matrix(1 0 0 1 137.72 80.97)" class="st20 st2 st10">y nibh euismod </text>
<text transform="matrix(1 0 0 1 117.19 84.97)" class="st20 st2 st10">tinci</text>
<text transform="matrix(1 0 0 1 123 84.97)" class="st20 st2 st10">d</text>
<text transform="matrix(1 0 0 1 124.89 84.97)" class="st20 st2 st10">unt ut lao</text>
<text transform="matrix(1 0 0 1 138.5 84.97)" class="st20 st2 st10">r</text>
<text transform="matrix(1 0 0 1 139.67 84.97)" class="st20 st2 st10">eet do</text>
<text transform="matrix(1 0 0 1 148.72 84.97)" class="st20 st2 st10">l</text>
<text transform="matrix(1 0 0 1 149.45 84.97)" class="st20 st2 st10">o</text>
<text transform="matrix(1 0 0 1 151.27 84.97)" class="st20 st2 st10">r</text>
<text transform="matrix(1 0 0 1 152.44 84.97)" class="st20 st2 st10">e magna </text>
<text transform="matrix(1 0 0 1 117.19 88.97)" class="st20 st2 st10">aliquam e</text>
<text transform="matrix(1 0 0 1 131.19 88.97)" class="st20 st2 st10">r</text>
<text transform="matrix(1 0 0 1 132.39 88.97)" class="st20 st2 st10">at </text>
<text transform="matrix(1 0 0 1 136.21 88.97)" class="st20 st2 st10">v</text>
<text transform="matrix(1 0 0 1 137.84 88.97)" class="st20 st2 st10">o</text>
<text transform="matrix(1 0 0 1 139.65 88.97)" class="st20 st2 st10">l</text>
<text transform="matrix(1 0 0 1 140.4 88.97)" class="st20 st2 st10">utpat. Ut wisi enim </text>
<text transform="matrix(1 0 0 1 117.19 92.97)" class="st20 st2 st10">ad minim </text>
<text transform="matrix(1 0 0 1 131.17 92.97)" class="st20 st2 st10">v</text>
<text transform="matrix(1 0 0 1 132.8 92.97)" class="st20 st2 st10">eniam, quis nostrud</text>
<path class="st19" d="M226.8,48.3c0,0,11.4,5.1,22.9,2.2c2.2-0.6,4.4-1.5,6.4-2.7c5.6-3.3,11.9-5.3,18.4-6
	c5.4-0.5,10.8,0.4,15.7,2.4c1.2,0.5,2.2,1,2.2,1.4v65.2h-65.7C226.6,110.7,226.8,49.2,226.8,48.3z"/>
<text transform="matrix(1 0 0 1 117.8074 64.59)" class="st21 st2 st3">About...</text>
<text transform="matrix(1 0 0 1 230.87 72.97)" class="st21 st2 st10">Lo</text>
<text transform="matrix(1 0 0 1 234.34 72.97)" class="st21 st2 st10">r</text>
<text transform="matrix(1 0 0 1 235.51 72.97)" class="st21 st2 st10">em ipsum do</text>
<text transform="matrix(1 0 0 1 253.74 72.97)" class="st21 st2 st10">l</text>
<text transform="matrix(1 0 0 1 254.47 72.97)" class="st21 st2 st10">or sit amet, </text>
<text transform="matrix(1 0 0 1 230.87 76.97)" class="st21 st2 st10">consec</text>
<text transform="matrix(1 0 0 1 240.68 76.97)" class="st21 st2 st10">t</text>
<text transform="matrix(1 0 0 1 241.81 76.97)" class="st21 st2 st10">etuer adipiscing elit, sed </text>
<text transform="matrix(1 0 0 1 230.87 80.97)" class="st21 st2 st10">diam nonum</text>
<text transform="matrix(1 0 0 1 248.67 80.97)" class="st21 st2 st10">m</text>
<text transform="matrix(1 0 0 1 251.4 80.97)" class="st21 st2 st10">y nibh euismod </text>
<text transform="matrix(1 0 0 1 230.87 84.97)" class="st21 st2 st10">tinci</text>
<text transform="matrix(1 0 0 1 236.68 84.97)" class="st21 st2 st10">d</text>
<text transform="matrix(1 0 0 1 238.57 84.97)" class="st21 st2 st10">unt ut lao</text>
<text transform="matrix(1 0 0 1 252.18 84.97)" class="st21 st2 st10">r</text>
<text transform="matrix(1 0 0 1 253.35 84.97)" class="st21 st2 st10">eet do</text>
<text transform="matrix(1 0 0 1 262.4 84.97)" class="st21 st2 st10">l</text>
<text transform="matrix(1 0 0 1 263.13 84.97)" class="st21 st2 st10">o</text>
<text transform="matrix(1 0 0 1 264.95 84.97)" class="st21 st2 st10">r</text>
<text transform="matrix(1 0 0 1 266.12 84.97)" class="st21 st2 st10">e magna </text>
<text transform="matrix(1 0 0 1 230.87 88.97)" class="st21 st2 st10">aliquam e</text>
<text transform="matrix(1 0 0 1 244.87 88.97)" class="st21 st2 st10">r</text>
<text transform="matrix(1 0 0 1 246.07 88.97)" class="st21 st2 st10">at </text>
<text transform="matrix(1 0 0 1 249.89 88.97)" class="st21 st2 st10">v</text>
<text transform="matrix(1 0 0 1 251.52 88.97)" class="st21 st2 st10">o</text>
<text transform="matrix(1 0 0 1 253.33 88.97)" class="st21 st2 st10">l</text>
<text transform="matrix(1 0 0 1 254.08 88.97)" class="st21 st2 st10">utpat. Ut wisi enim </text>
<text transform="matrix(1 0 0 1 230.87 92.97)" class="st21 st2 st10">ad minim </text>
<text transform="matrix(1 0 0 1 244.85 92.97)" class="st21 st2 st10">v</text>
<text transform="matrix(1 0 0 1 246.48 92.97)" class="st21 st2 st10">eniam, quis nostrud</text>
<g>
	<g>
		<defs>
			<rect id="SVGID_1_" x="6.4" y="34.2" width="66.6" height="77.1"/>
		</defs>
		<clipPath id="SVGID_2_">
			<use xlink:href="#SVGID_1_"  style="overflow:visible;"/>
		</clipPath>
		<g class="st22">
			<path class="st23" d="M123.9,84.8c0,0-20.4,9-53.9,9.3c-18,0.2-31.7-1.9-38-8.3c-0.1-0.1-4.7-3.7-4.8-3.8c-2.8-2-2.7-2.2-6.2-3.8
				c-4.6-2-9.6-3.1-14.7-3.3v36.2h118.1L123.9,84.8z"/>
		</g>
	</g>
</g>
<rect x="6.5" y="17.6" class="st24" width="66.6" height="93.7"/>
<path class="st25" d="M124.6,210.4h1.9l0.3-3.6l0.8,6.7l0.6-12.1l1.9,11.6c0.1-6.1,0.3-12.2,0.6-18.3c2.2,7.9,2.6,17.6,4.5,25.9
	c-0.2-6.7,0-13.4,0.5-20l1.8,15l0.9-8.4l0.7,5.9l0.8-2.9l0.5,1.9c0.2-2.2,0.6-4.3,1.1-6.4c0.6,2.5,1.1,5,1.5,7.7l1.2-19.2l2.1,25.8
	l1-16.8l1.1,8.4c0.3-1.6,0.5-3.2,0.5-4.8l0.6,4.5c0.1-1.5,0.4-2.9,0.6-4.3l0.3,2.8c0.3,0.1,0.6,0,0.7-0.2"/>
<polyline class="st25" points="151.2,209.6 171,209.6 171.9,207.2 173,212.6 175.3,199.1 "/>
<line class="st25" x1="116.5" y1="210.3" x2="126.6" y2="210.3"/>
<path class="st0" d="M238.8,148.1h44.1c8.9,0,16.1,7.2,16.1,16.1v91.7c0,8.9-7.2,16.1-16.1,16.1h-44.1c-8.9,0-16.1-7.2-16.1-16.1
	v-91.7C222.7,155.3,229.9,148.1,238.8,148.1z"/>
<circle class="st0" cx="261" cy="264.2" r="4.7"/>
<rect x="227.4" y="161.8" class="st26" width="66.6" height="93.7"/>
<text transform="matrix(1 0 0 1 231.22 171.25)" class="st1 st2 st6">How do </text>
<text transform="matrix(1 0 0 1 262.1 171.25)" class="st1 st2 st6">y</text>
<text transform="matrix(1 0 0 1 266.69 171.25)" class="st1 st2 st6">ou </text>
<text transform="matrix(1 0 0 1 231.22 179.25)" class="st1 st2 st6">visuali</text>
<text transform="matrix(1 0 0 1 254.63 179.25)" class="st1 st2 st6">z</text>
<text transform="matrix(1 0 0 1 258.4 179.25)" class="st1 st2 st6">e music?</text>
<path class="st8" d="M233.8,234.8h13.9c1.3,0,2.4,1.1,2.4,2.4l0,0c0,1.3-1.1,2.4-2.4,2.4h-13.9c-1.3,0-2.4-1.1-2.4-2.4l0,0
	C231.4,235.9,232.5,234.8,233.8,234.8z"/>
<text transform="matrix(1 0 0 1 232.78 237.99)" class="st1 st9 st10">Choose Fi</text>
<text transform="matrix(1 0 0 1 246.25 237.99)" class="st1 st9 st10">l</text>
<text transform="matrix(1 0 0 1 246.91 237.99)" class="st1 st9 st10">e</text>
<circle class="st11" cx="273.2" cy="236.6" r="2.5"/>
<rect x="272" y="235.4" class="st1" width="0.9" height="2.4"/>
<rect x="273.6" y="235.4" class="st1" width="0.9" height="2.4"/>
<path class="st8" d="M284.8,236h2.8c0.7,0,1.2,0.5,1.2,1.2l0,0c0,0.7-0.5,1.2-1.2,1.2h-2.8c-0.7,0-1.2-0.5-1.2-1.2l0,0
	C283.6,236.6,284.1,236,284.8,236z"/>
<line class="st13" x1="285.4" y1="237.2" x2="286.8" y2="237.2"/>
<path class="st12" d="M278.3,236h2.8c0.7,0,1.2,0.5,1.2,1.2l0,0c0,0.7-0.5,1.2-1.2,1.2h-2.8c-0.7,0-1.2-0.5-1.2-1.2l0,0
	C277.1,236.6,277.6,236,278.3,236z"/>
<line class="st13" x1="278.9" y1="237.2" x2="280.3" y2="237.2"/>
<line class="st13" x1="279.6" y1="237.9" x2="279.6" y2="236.5"/>
<text transform="matrix(1 0 0 1 231.95 242.04)" class="st1 st9 st14">Loading...</text>
<rect x="258.8" y="235.1" class="st1" width="4.6" height="1"/>
<rect x="258.8" y="236.7" class="st1" width="4.6" height="1"/>
<rect x="258.8" y="238.4" class="st1" width="4.6" height="1"/>
<text transform="matrix(1 0 0 1 318.72 245.73)" class="st1 st9 st27">CO</text>
<text transform="matrix(1 0 0 1 328.65 245.73)" class="st1 st9 st27">L</text>
<text transform="matrix(1 0 0 1 332.31 245.73)" class="st1 st9 st27">OR PICKER (d</text>
<text transform="matrix(1 0 0 1 376.9 245.73)" class="st1 st9 st27">r</text>
<text transform="matrix(1 0 0 1 379.44 245.73)" class="st1 st9 st27">op down </text>
<text transform="matrix(1 0 0 1 318.72 253.73)" class="st1 st9 st27">menu for mobi</text>
<text transform="matrix(1 0 0 1 366.44 253.73)" class="st1 st9 st27">l</text>
<text transform="matrix(1 0 0 1 367.98 253.73)" class="st1 st9 st27">e viewport)</text>
<polyline class="st28" points="306.4,238.5 306,229.8 314.6,230.2 "/>
<line class="st28" x1="306.1" y1="229.9" x2="315.7" y2="239.5"/>
<rect x="227.9" y="187.5" class="st29" width="65.6" height="32.1"/>
<circle class="st30" cx="233.1" cy="200.4" r="2.9"/>
<circle class="st31" cx="242.8" cy="200.4" r="2.9"/>
<circle class="st32" cx="252" cy="200.4" r="2.9"/>
<circle class="st33" cx="261.4" cy="200.4" r="2.9"/>
<circle class="st34" cx="270.8" cy="200.4" r="2.9"/>
<circle class="st35" cx="279.9" cy="200.4" r="2.9"/>
<circle class="st36" cx="288.7" cy="200.4" r="2.9"/>
<circle class="st37" cx="233.1" cy="210.4" r="2.9"/>
<circle class="st38" cx="242.8" cy="210.4" r="2.9"/>
<circle class="st39" cx="252" cy="210.4" r="2.9"/>
<circle class="st40" cx="261.4" cy="210.4" r="2.9"/>
<circle class="st41" cx="270.8" cy="210.4" r="2.9"/>
<circle class="st42" cx="279.9" cy="210.4" r="2.9"/>
<circle class="st43" cx="288.7" cy="210.4" r="2.9"/>
<path class="st44" d="M14.9,297.7H158c6.6,0,12,5.4,12,12v96.2c0,6.6-5.4,12-12,12H14.9c-6.6,0-12-5.4-12-12v-96.2
	C2.9,303,8.2,297.7,14.9,297.7z"/>
<rect x="7.6" y="310.1" class="st44" width="156.8" height="97.5"/>
<rect x="12.1" y="364.8" class="st7" width="1.6" height="13.2"/>
<rect x="15.2" y="358.4" class="st7" width="1.6" height="19.6"/>
<rect x="18.5" y="354.7" class="st7" width="1.6" height="23.3"/>
<rect x="21.8" y="347" class="st7" width="1.6" height="31"/>
<rect x="25.1" y="354" class="st7" width="1.6" height="24"/>
<rect x="28.4" y="361.1" class="st7" width="1.6" height="16.9"/>
<rect x="31.6" y="365" class="st7" width="1.6" height="13"/>
<rect x="34.8" y="367" class="st7" width="1.6" height="11"/>
<rect x="37.9" y="368.5" class="st7" width="1.6" height="9.5"/>
<rect x="40.9" y="372.9" class="st7" width="1.6" height="5.1"/>
<rect x="43.9" y="369" class="st7" width="1.6" height="9"/>
<rect x="46.9" y="366.6" class="st7" width="1.6" height="11.4"/>
<rect x="50" y="369" class="st7" width="1.6" height="9"/>
<rect x="52.9" y="372.9" class="st7" width="1.6" height="5.1"/>
<rect x="55.8" y="375.2" class="st7" width="1.6" height="2.8"/>
<rect x="58.8" y="371.4" class="st7" width="1.6" height="6.6"/>
<rect x="61.8" y="363.4" class="st7" width="1.6" height="14.7"/>
<rect x="64.8" y="359.1" class="st7" width="1.6" height="18.9"/>
<rect x="67.8" y="354.3" class="st7" width="1.6" height="23.7"/>
<rect x="126.8" y="364.8" class="st7" width="1.6" height="13.2"/>
<rect x="123.6" y="358.4" class="st7" width="1.6" height="19.6"/>
<rect x="120.4" y="354.7" class="st7" width="1.6" height="23.3"/>
<rect x="117.1" y="347" class="st7" width="1.6" height="31"/>
<rect x="113.7" y="354" class="st7" width="1.6" height="24"/>
<rect x="110.5" y="361.1" class="st7" width="1.6" height="16.9"/>
<rect x="107.3" y="365" class="st7" width="1.6" height="13"/>
<rect x="104.1" y="367" class="st7" width="1.6" height="11"/>
<rect x="101" y="368.5" class="st7" width="1.6" height="9.5"/>
<rect x="98" y="372.9" class="st7" width="1.6" height="5.1"/>
<rect x="94.9" y="369" class="st7" width="1.6" height="9"/>
<rect x="91.9" y="366.6" class="st7" width="1.6" height="11.4"/>
<rect x="88.9" y="369" class="st7" width="1.6" height="9"/>
<rect x="86" y="372.9" class="st7" width="1.6" height="5.1"/>
<rect x="83" y="375.2" class="st7" width="1.6" height="2.8"/>
<rect x="80.1" y="371.4" class="st7" width="1.6" height="6.6"/>
<rect x="77.1" y="363.4" class="st7" width="1.6" height="14.7"/>
<rect x="74.1" y="359.1" class="st7" width="1.6" height="18.9"/>
<rect x="71" y="354.3" class="st7" width="1.6" height="23.7"/>
<rect x="130" y="367.6" class="st7" width="1.6" height="10.4"/>
<rect x="133.1" y="371.4" class="st7" width="1.6" height="6.6"/>
<rect x="136.3" y="371.9" class="st7" width="1.6" height="6.1"/>
<rect x="139.5" y="373.6" class="st7" width="1.6" height="4.4"/>
<rect x="142.7" y="375.5" class="st7" width="1.6" height="2.5"/>
<rect x="145.7" y="376.8" class="st7" width="1.6" height="1.2"/>
<rect x="148.9" y="375.3" class="st7" width="1.6" height="2.7"/>
<rect x="152" y="373.9" class="st7" width="1.6" height="4.1"/>
<rect x="155.2" y="372.5" class="st7" width="1.6" height="5.5"/>
<rect x="158.5" y="373.8" class="st7" width="1.6" height="4.2"/>
<path class="st8" d="M21.2,389.8h15.3c1.3,0,2.4,1.1,2.4,2.4v0.4c0,1.3-1.1,2.4-2.4,2.4H21.2c-1.3,0-2.4-1.1-2.4-2.4v-0.4
	C18.8,390.9,19.9,389.8,21.2,389.8z"/>
<text transform="matrix(1 0 0 1 20.26 393.2)" class="st1 st9 st45">Choose Fi</text>
<text transform="matrix(1 0 0 1 34.74 393.2)" class="st1 st9 st45">l</text>
<text transform="matrix(1 0 0 1 35.45 393.2)" class="st1 st9 st45">e</text>
<text transform="matrix(1 0 0 1 43.14 392.86)" class="st1 st9 st46">Loading...</text>
<circle class="st11" cx="72.9" cy="392.4" r="3.7"/>
<rect x="71.1" y="390.6" class="st1" width="1.3" height="3.7"/>
<rect x="73.6" y="390.6" class="st1" width="1.3" height="3.7"/>
<path class="st8" d="M92.2,391.1h4.4c0.7,0,1.2,0.5,1.2,1.2v0.7c0,0.7-0.5,1.2-1.2,1.2h-4.4c-0.7,0-1.2-0.5-1.2-1.2v-0.7
	C91,391.7,91.5,391.1,92.2,391.1z"/>
<line class="st13" x1="93.4" y1="392.6" x2="95.2" y2="392.6"/>
<path class="st12" d="M82.7,391.1h4.4c0.7,0,1.2,0.5,1.2,1.2v0.7c0,0.7-0.5,1.2-1.2,1.2h-4.4c-0.7,0-1.2-0.5-1.2-1.2v-0.7
	C81.5,391.7,82,391.1,82.7,391.1z"/>
<line class="st13" x1="83.9" y1="392.6" x2="85.8" y2="392.6"/>
<line class="st13" x1="84.8" y1="393.6" x2="84.8" y2="391.7"/>
<circle class="st47" cx="50.4" cy="383.5" r="1.8"/>
<circle class="st48" cx="56.4" cy="383.5" r="1.8"/>
<circle class="st49" cx="62.1" cy="383.5" r="1.8"/>
<circle class="st50" cx="68" cy="383.5" r="1.8"/>
<circle class="st51" cx="73.9" cy="383.5" r="1.8"/>
<circle class="st52" cx="79.7" cy="383.5" r="1.8"/>
<circle class="st53" cx="85.5" cy="383.5" r="1.8"/>
<circle class="st54" cx="91.4" cy="383.5" r="1.8"/>
<circle class="st55" cx="97.2" cy="383.5" r="1.8"/>
<circle class="st56" cx="103.3" cy="383.5" r="1.8"/>
<circle class="st55" cx="109.2" cy="383.5" r="1.8"/>
<circle class="st57" cx="115" cy="383.5" r="1.8"/>
<circle class="st58" cx="120.9" cy="383.5" r="1.8"/>
<text transform="matrix(1 0 0 1 29.15 333.47)" class="st1 st2 st6">How do </text>
<text transform="matrix(1 0 0 1 60.03 333.47)" class="st1 st2 st6">y</text>
<text transform="matrix(1 0 0 1 64.62 333.47)" class="st1 st2 st6">ou visuali</text>
<text transform="matrix(1 0 0 1 99.73 333.47)" class="st1 st2 st6">z</text>
<text transform="matrix(1 0 0 1 103.51 333.47)" class="st1 st2 st6">e music?</text>
<path class="st1" d="M233,229.3h5.1c0.6,0,1,0.5,1,1v0.9c0,0.6-0.5,1-1,1H233c-0.6,0-1-0.5-1-1v-0.9
	C232,229.8,232.4,229.3,233,229.3z"/>
<text transform="matrix(1 0 0 1 233 231.41)" class="st59 st2 st60">BARS</text>
<path class="st1" d="M251.1,229.3h5.4c0.7,0,1.2,0.5,1.2,1.2v0.6c0,0.7-0.5,1.2-1.2,1.2h-5.4c-0.7,0-1.2-0.5-1.2-1.2v-0.6
	C249.9,229.8,250.4,229.3,251.1,229.3z"/>
<text transform="matrix(1 0 0 1 250.52 231.28)" class="st59 st2 st60">RADIAL</text>
<path class="st1" d="M241.7,229.3h5.6c0.7,0,1.2,0.5,1.2,1.2v0.6c0,0.7-0.5,1.2-1.2,1.2h-5.6c-0.7,0-1.2-0.5-1.2-1.2v-0.6
	C240.5,229.8,241.1,229.3,241.7,229.3z"/>
<text transform="matrix(1 0 0 1 241.33 231.35)" class="st59 st2 st60">W</text>
<text transform="matrix(1 0 0 1 243.1 231.35)" class="st59 st2 st60">A</text>
<text transform="matrix(1 0 0 1 244.15 231.35)" class="st59 st2 st60">VES</text>
<path class="st1" d="M121.2,391h7.3c0.6,0,1,0.5,1,1v1.8c0,0.6-0.5,1-1,1h-7.3c-0.6,0-1-0.5-1-1V392
	C120.2,391.4,120.6,391,121.2,391z"/>
<text transform="matrix(1 0 0 1 121.51 393.72)" class="st59 st2 st61">BARS</text>
<path class="st62" d="M144.9,390.9h7.9c0.7,0,1.2,0.5,1.2,1.2v1.5c0,0.7-0.5,1.2-1.2,1.2h-7.9c-0.7,0-1.2-0.5-1.2-1.2v-1.5
	C143.7,391.5,144.2,390.9,144.9,390.9z"/>
<text transform="matrix(1 0 0 1 144.5 393.55)" class="st59 st2 st61">RADIAL</text>
<path class="st62" d="M132.6,391h8.1c0.7,0,1.2,0.5,1.2,1.2v1.6c0,0.7-0.5,1.2-1.2,1.2h-8.1c-0.7,0-1.2-0.5-1.2-1.2v-1.6
	C131.4,391.5,131.9,391,132.6,391z"/>
<text transform="matrix(1 0 0 1 132.44 393.64)" class="st59 st2 st61">W</text>
<text transform="matrix(1 0 0 1 134.77 393.64)" class="st59 st2 st61">A</text>
<text transform="matrix(1 0 0 1 136.14 393.64)" class="st59 st2 st61">VES</text>
<path class="st62" d="M117.9,229.3h5.1c0.6,0,1,0.5,1,1v0.9c0,0.6-0.5,1-1,1h-5.1c-0.6,0-1-0.5-1-1v-0.9
	C116.9,229.8,117.3,229.3,117.9,229.3z"/>
<text transform="matrix(1 0 0 1 117.91 231.41)" class="st59 st2 st60">BARS</text>
<path class="st62" d="M136,229.3h5.5c0.7,0,1.2,0.5,1.2,1.2v0.6c0,0.7-0.5,1.2-1.2,1.2H136c-0.7,0-1.2-0.5-1.2-1.2v-0.6
	C134.8,229.8,135.3,229.3,136,229.3z"/>
<text transform="matrix(1 0 0 1 135.43 231.28)" class="st59 st2 st60">RADIAL</text>
<path class="st1" d="M126.6,229.3h5.6c0.7,0,1.2,0.5,1.2,1.2v0.6c0,0.7-0.5,1.2-1.2,1.2h-5.6c-0.7,0-1.2-0.5-1.2-1.2v-0.6
	C125.4,229.8,126,229.3,126.6,229.3z"/>
<text transform="matrix(1 0 0 1 126.24 231.35)" class="st59 st2 st60">W</text>
<text transform="matrix(1 0 0 1 128.01 231.35)" class="st59 st2 st60">A</text>
<text transform="matrix(1 0 0 1 129.06 231.35)" class="st59 st2 st60">VES</text>
<path class="st62" d="M12.1,229.3h5.1c0.6,0,1,0.5,1,1v0.9c0,0.6-0.5,1-1,1h-5.1c-0.6,0-1-0.5-1-1v-0.9
	C11.1,229.8,11.6,229.3,12.1,229.3z"/>
<text transform="matrix(1 0 0 1 12.14 231.41)" class="st59 st2 st60">BARS</text>
<path class="st1" d="M30.2,229.3h5.4c0.7,0,1.2,0.5,1.2,1.2v0.6c0,0.7-0.5,1.2-1.2,1.2h-5.4c-0.7,0-1.2-0.5-1.2-1.2v-0.6
	C29,229.8,29.6,229.3,30.2,229.3z"/>
<text transform="matrix(1 0 0 1 29.66 231.28)" class="st59 st2 st60">RADIAL</text>
<path class="st62" d="M20.9,229.3h5.6c0.7,0,1.2,0.5,1.2,1.2v0.6c0,0.7-0.5,1.2-1.2,1.2h-5.6c-0.7,0-1.2-0.5-1.2-1.2v-0.6
	C19.7,229.8,20.2,229.3,20.9,229.3z"/>
<text transform="matrix(1 0 0 1 20.47 231.35)" class="st59 st2 st60">W</text>
<text transform="matrix(1 0 0 1 22.24 231.35)" class="st59 st2 st60">A</text>
<text transform="matrix(1 0 0 1 23.29 231.35)" class="st59 st2 st60">VES</text>
<path class="st1" d="M342.5,84.8h5.1c0.6,0,1,0.5,1,1v0.9c0,0.6-0.5,1-1,1h-5.1c-0.6,0-1-0.5-1-1v-0.9
	C341.5,85.2,341.9,84.8,342.5,84.8z"/>
<text transform="matrix(1 0 0 1 342.53 86.87)" class="st59 st2 st60">BARS</text>
<path class="st62" d="M360.6,84.8h5.4c0.7,0,1.2,0.5,1.2,1.2v0.6c0,0.7-0.5,1.2-1.2,1.2h-5.4c-0.7,0-1.2-0.5-1.2-1.2V86
	C359.4,85.3,360,84.8,360.6,84.8z"/>
<text transform="matrix(1 0 0 1 360.05 86.74)" class="st59 st2 st60">RADIAL</text>
<path class="st62" d="M351.2,84.8h5.6c0.7,0,1.2,0.5,1.2,1.2v0.6c0,0.7-0.5,1.2-1.2,1.2h-5.6c-0.7,0-1.2-0.5-1.2-1.2V86
	C350,85.3,350.6,84.8,351.2,84.8z"/>
<text transform="matrix(1 0 0 1 350.86 86.81)" class="st59 st2 st60">W</text>
<text transform="matrix(1 0 0 1 352.63 86.81)" class="st59 st2 st60">A</text>
<text transform="matrix(1 0 0 1 353.68 86.81)" class="st59 st2 st60">VES</text>
<text transform="matrix(1 0 0 1 186.74 385.14)" class="st1 st9 st27">D</text>
<text transform="matrix(1 0 0 1 191.83 385.14)" class="st1 st9 st27">esk</text>
<text transform="matrix(1 0 0 1 202.75 385.14)" class="st1 st9 st27">t</text>
<text transform="matrix(1 0 0 1 205.09 385.14)" class="st1 st9 st27">op Viewport</text>
<polyline class="st28" points="174.4,377.9 174,369.2 182.6,369.7 "/>
<line class="st28" x1="174.1" y1="369.3" x2="183.7" y2="378.9"/>
<g>
	<rect x="230.2" y="57.3" class="st63" width="57.6" height="20.1"/>
	<text transform="matrix(1 0 0 1 230.1875 64.7163)" class="st21 st2 st3">Instructions</text>
</g>
<g>
	<polyline class="st64" points="62.4,98.5 65.5,101.4 62.4,104.1 	"/>
	<line class="st64" x1="65.4" y1="101.3" x2="58.9" y2="101.3"/>
	<circle class="st65" cx="62.3" cy="101.4" r="5.7"/>
</g>
<g>
	<polyline class="st64" points="169.2,98.5 172.3,101.4 169.2,104.1 	"/>
	<line class="st64" x1="172.2" y1="101.3" x2="165.7" y2="101.3"/>
	<circle class="st65" cx="169.1" cy="101.4" r="5.7"/>
</g>
<g>
	<polyline class="st64" points="283.4,98.5 286.5,101.4 283.4,104.1 	"/>
	<line class="st64" x1="286.4" y1="101.3" x2="279.9" y2="101.3"/>
	<circle class="st65" cx="283.3" cy="101.4" r="5.7"/>
</g>
<rect x="230.3" y="189.5" class="st63" width="23.8" height="3.9"/>
<text transform="matrix(1 0 0 1 230.3027 191.7334)" class="st2 st10">COLOR PICKER</text>
</svg>
